  0
SECTION
  2
HEADER
  9
$ACADVER
  1
AC1015
  9
$ACADMAINTVER
 70
     6
  9
$DWGCODEPAGE
  3
ANSI_1252
  9
$INSBASE
 10
0.0
 20
0.0
 30
0.0
  9
$EXTMIN
 10
0.0
 20
0.0
 30
0.0
  9
$EXTMAX
 10
300.0
 20
132.0
 30
0.0
  9
$LIMMIN
 10
0.0
 20
0.0
  9
$LIMMAX
 10
420.0
 20
297.0
  9
$ORTHOMODE
 70
     0
  9
$REGENMODE
 70
     1
  9
$FILLMODE
 70
     1
  9
$QTEXTMODE
 70
     0
  9
$MIRRTEXT
 70
     1
  9
$LTSCALE
 40
1.0
  9
$ATTMODE
 70
     1
  9
$TEXTSIZE
 40
2.8222222222
  9
$TRACEWID
 40
1.0
  9
$TEXTSTYLE
  7
Standard
  9
$CLAYER
  8
0
  9
$CELTYPE
  6
ByLayer
  9
$CECOLOR
 62
   256
  9
$CELTSCALE
 40
1.0
  9
$DISPSILH
 70
     0
  9
$DIMSCALE
 40
1.0
  9
$DIMASZ
 40
3.302
  9
$DIMEXO
 40
0.0
  9
$DIMDLI
 40
3.75
  9
$DIMRND
 40
0.0
  9
$DIMDLE
 40
0.0
  9
$DIMEXE
 40
1.0
  9
$DIMTP
 40
0.0
  9
$DIMTM
 40
0.0
  9
$DIMTXT
 40
2.8222222222
  9
$DIMCEN
 40
2.5
  9
$DIMTSZ
 40
0.0
  9
$DIMTOL
 70
     0
  9
$DIMLIM
 70
     0
  9
$DIMTIH
 70
     1
  9
$DIMTOH
 70
     1
  9
$DIMSE1
 70
     0
  9
$DIMSE2
 70
     0
  9
$DIMTAD
 70
     1
  9
$DIMZIN
 70
     0
  9
$DIMBLK
  1

  9
$DIMASO
 70
     1
  9
$DIMSHO
 70
     1
  9
$DIMPOST
  1

  9
$DIMAPOST
  1

  9
$DIMALT
 70
     0
  9
$DIMALTD
 70
     3
  9
$DIMALTF
 40
0.0393700787
  9
$DIMLFAC
 40
1.0
  9
$DIMTOFL
 70
     1
  9
$DIMTVP
 40
0.0
  9
$DIMTIX
 70
     0
  9
$DIMSOXD
 70
     0
  9
$DIMSAH
 70
     0
  9
$DIMBLK1
  1

  9
$DIMBLK2
  1

  9
$DIMSTYLE
  2
ISO-25
  9
$DIMCLRD
 70
     0
  9
$DIMCLRE
 70
     0
  9
$DIMCLRT
 70
     0
  9
$DIMTFAC
 40
1.0
  9
$DIMGAP
 40
1.524
  9
$DIMJUST
 70
     0
  9
$DIMSD1
 70
     0
  9
$DIMSD2
 70
     0
  9
$DIMTOLJ
 70
     0
  9
$DIMTZIN
 70
     0
  9
$DIMALTZ
 70
     0
  9
$DIMALTTZ
 70
     0
  9
$DIMUPT
 70
     0
  9
$DIMDEC
 70
     2
  9
$DIMTDEC
 70
     2
  9
$DIMALTU
 70
     2
  9
$DIMALTTD
 70
     3
  9
$DIMTXSTY
  7
Standard
  9
$DIMAUNIT
 70
     0
  9
$DIMADEC
 70
     2
  9
$DIMALTRND
 40
0.0
  9
$DIMAZIN
 70
     0
  9
$DIMDSEP
 70
    44
  9
$DIMATFIT
 70
     3
  9
$DIMFRAC
 70
     0
  9
$DIMLDRBLK
  1

  9
$DIMLUNIT
 70
     2
  9
$DIMLWD
 70
    -2
  9
$DIMLWE
 70
    -2
  9
$DIMTMOVE
 70
     0
  9
$LUNITS
 70
     2
  9
$LUPREC
 70
     2
  9
$SKETCHINC
 40
1.0
  9
$FILLETRAD
 40
0.0
  9
$AUNITS
 70
     0
  9
$AUPREC
 70
     2
  9
$MENU
  1
.
  9
$ELEVATION
 40
0.0
  9
$PELEVATION
 40
0.0
  9
$THICKNESS
 40
0.0
  9
$LIMCHECK
 70
     0
  9
$CHAMFERA
 40
0.0
  9
$CHAMFERB
 40
0.0
  9
$CHAMFERC
 40
0.0
  9
$CHAMFERD
 40
0.0
  9
$SKPOLY
 70
     0
  9
$TDCREATE
 40
2460061.706138449
  9
$TDUCREATE
 40
2460061.622805116
  9
$TDUPDATE
 40
2460061.706408241
  9
$TDUUPDATE
 40
2460061.623074907
  9
$TDINDWG
 40
0.0000000116
  9
$TDUSRTIMER
 40
0.0000000116
  9
$USRTIMER
 70
     1
  9
$ANGBASE
 50
0.0
  9
$ANGDIR
 70
     0
  9
$PDMODE
 70
     0
  9
$PDSIZE
 40
-1.0
  9
$PLINEWID
 40
0.0
  9
$SPLFRAME
 70
     0
  9
$SPLINETYPE
 70
     6
  9
$SPLINESEGS
 70
     8
  9
$HANDSEED
  5
1A6
  9
$SURFTAB1
 70
     6
  9
$SURFTAB2
 70
     6
  9
$SURFTYPE
 70
     6
  9
$SURFU
 70
     6
  9
$SURFV
 70
     6
  9
$UCSBASE
  2

  9
$UCSNAME
  2

  9
$UCSORG
 10
0.0
 20
0.0
 30
0.0
  9
$UCSXDIR
 10
1.0
 20
0.0
 30
0.0
  9
$UCSYDIR
 10
0.0
 20
1.0
 30
0.0
  9
$UCSORTHOREF
  2

  9
$UCSORTHOVIEW
 70
     0
  9
$UCSORGTOP
 10
0.0
 20
0.0
 30
0.0
  9
$UCSORGBOTTOM
 10
0.0
 20
0.0
 30
0.0
  9
$UCSORGLEFT
 10
0.0
 20
0.0
 30
0.0
  9
$UCSORGRIGHT
 10
0.0
 20
0.0
 30
0.0
  9
$UCSORGFRONT
 10
0.0
 20
0.0
 30
0.0
  9
$UCSORGBACK
 10
0.0
 20
0.0
 30
0.0
  9
$PUCSBASE
  2

  9
$PUCSNAME
  2

  9
$PUCSORG
 10
0.0
 20
0.0
 30
0.0
  9
$PUCSXDIR
 10
1.0
 20
0.0
 30
0.0
  9
$PUCSYDIR
 10
0.0
 20
1.0
 30
0.0
  9
$PUCSORTHOREF
  2

  9
$PUCSORTHOVIEW
 70
     0
  9
$PUCSORGTOP
 10
0.0
 20
0.0
 30
0.0
  9
$PUCSORGBOTTOM
 10
0.0
 20
0.0
 30
0.0
  9
$PUCSORGLEFT
 10
0.0
 20
0.0
 30
0.0
  9
$PUCSORGRIGHT
 10
0.0
 20
0.0
 30
0.0
  9
$PUCSORGFRONT
 10
0.0
 20
0.0
 30
0.0
  9
$PUCSORGBACK
 10
0.0
 20
0.0
 30
0.0
  9
$USERI1
 70
     0
  9
$USERI2
 70
     0
  9
$USERI3
 70
     0
  9
$USERI4
 70
     0
  9
$USERI5
 70
     0
  9
$USERR1
 40
0.0
  9
$USERR2
 40
0.0
  9
$USERR3
 40
0.0
  9
$USERR4
 40
0.0
  9
$USERR5
 40
0.0
  9
$WORLDVIEW
 70
     1
  9
$SHADEDGE
 70
     3
  9
$SHADEDIF
 70
    70
  9
$TILEMODE
 70
     1
  9
$MAXACTVP
 70
    64
  9
$PINSBASE
 10
0.0
 20
0.0
 30
0.0
  9
$PLIMCHECK
 70
     0
  9
$PEXTMIN
 10
1.0000000000E+20
 20
1.0000000000E+20
 30
1.0000000000E+20
  9
$PEXTMAX
 10
-1.0000000000E+20
 20
-1.0000000000E+20
 30
-1.0000000000E+20
  9
$PLIMMIN
 10
0.0
 20
0.0
  9
$PLIMMAX
 10
420.0
 20
297.0
  9
$UNITMODE
 70
     0
  9
$VISRETAIN
 70
     1
  9
$PLINEGEN
 70
     0
  9
$PSLTSCALE
 70
     1
  9
$TREEDEPTH
 70
  3020
  9
$CMLSTYLE
  2
Standard
  9
$CMLJUST
 70
     0
  9
$CMLSCALE
 40
20.0
  9
$PROXYGRAPHICS
 70
     1
  9
$MEASUREMENT
 70
     1
  9
$CELWEIGHT
370
    -1
  9
$ENDCAPS
280
     0
  9
$JOINSTYLE
280
     0
  9
$LWDISPLAY
290
     1
  9
$INSUNITS
 70
     4
  9
$HYPERLINKBASE
  1

  9
$STYLESHEET
  1

  9
$XEDIT
290
     1
  9
$CEPSNTYPE
380
     0
  9
$PSTYLEMODE
290
     1
  9
$FINGERPRINTGUID
  2
{8e936e99-eedf-4a9a-a904-3c787772bc25}
  9
$VERSIONGUID
  2
{FAEB1C32-E019-11D5-929B-00C0DF256EC4}
  9
$EXTNAMES
290
     1
  9
$PSVPSCALE
 40
0.0
  9
$OLESTARTUP
290
     0
  0
ENDSEC
  0
SECTION
  2
CLASSES
  0
CLASS
  1
ACDBDICTIONARYWDFLT
  2
AcDbDictionaryWithDefault
  3
ObjectDBX Classes
 90
        0
280
     0
281
     0
  0
CLASS
  1
VISUALSTYLE
  2
AcDbVisualStyle
  3
ObjectDBX Classes
 90
     4095
280
     0
281
     0
  0
CLASS
  1
MATERIAL
  2
AcDbMaterial
  3
ObjectDBX Classes
 90
     1153
280
     0
281
     0
  0
CLASS
  1
SCALE
  2
AcDbScale
  3
ObjectDBX Classes
 90
     1153
280
     0
281
     0
  0
CLASS
  1
TABLESTYLE
  2
AcDbTableStyle
  3
ObjectDBX Classes
 90
     4095
280
     0
281
     0
  0
CLASS
  1
MLEADERSTYLE
  2
AcDbMLeaderStyle
  3
ACDB_MLEADERSTYLE_CLASS
 90
     4095
280
     0
281
     0
  0
CLASS
  1
SUN
  2
AcDbSun
  3
SCENEOE
 90
     1153
280
     0
281
     0
  0
CLASS
  1
ACDBPLACEHOLDER
  2
AcDbPlaceHolder
  3
ObjectDBX Classes
 90
        0
280
     0
281
     0
  0
CLASS
  1
LAYOUT
  2
AcDbLayout
  3
ObjectDBX Classes
 90
        0
280
     0
281
     0
  0
ENDSEC
  0
SECTION
  2
TABLES
  0
TABLE
  2
VPORT
  5
8
330
0
100
AcDbSymbolTable
 70
     1
  0
VPORT
  5
29
330
8
100
AcDbSymbolTableRecord
100
AcDbViewportTableRecord
  2
*Active
 70
     0
 10
0.0
 20
0.0
 11
1.0
 21
1.0
 12
150.0
 22
66.0
 13
0.0
 23
0.0
 14
10.0
 24
10.0
 15
10.0
 25
10.0
 16
0.0
 26
0.0
 36
1.0
 17
0.0
 27
0.0
 37
0.0
 40
134.64
 41
2.2727272727
 42
50.0
 43
0.0
 44
0.0
 50
0.0
 51
0.0
 71
     0
 72
   100
 73
     1
 74
     3
 75
     0
 76
     0
 77
     0
 78
     0
281
     0
 65
     1
110
0.0
120
0.0
130
0.0
111
1.0
121
0.0
131
0.0
112
0.0
122
1.0
132
0.0
 79
     0
146
0.0
  0
ENDTAB
  0
TABLE
  2
LTYPE
  5
5
330
0
100
AcDbSymbolTable
 70
     6
  0
LTYPE
  5
14
330
5
100
AcDbSymbolTableRecord
100
AcDbLinetypeTableRecord
  2
ByBlock
 70
     0
  3

 72
    65
 73
     0
 40
0.0
  0
LTYPE
  5
15
330
5
100
AcDbSymbolTableRecord
100
AcDbLinetypeTableRecord
  2
ByLayer
 70
     0
  3

 72
    65
 73
     0
 40
0.0
  0
LTYPE
  5
16
330
5
100
AcDbSymbolTableRecord
100
AcDbLinetypeTableRecord
  2
Continuous
 70
     0
  3
Solid line
 72
    65
 73
     0
 40
0.0
  0
LTYPE
  5
5E
330
5
100
AcDbSymbolTableRecord
100
AcDbLinetypeTableRecord
  2
HIDDEN
 70
     0
  3
Hidden __ __ __ __ __ __ __ __ __ __ __ __ __ __
 72
    65
 73
     2
 40
1.905
 49
1.27
 74
     0
 49
-0.635
 74
     0
  0
LTYPE
  5
5F
330
5
100
AcDbSymbolTableRecord
100
AcDbLinetypeTableRecord
  2
PHANTOM
 70
     0
  3
Phantom ______  __  __  ______  __  __  ______
 72
    65
 73
     6
 40
12.7
 49
6.35
 74
     0
 49
-1.27
 74
     0
 49
1.27
 74
     0
 49
-1.27
 74
     0
 49
1.27
 74
     0
 49
-1.27
 74
     0
  0
LTYPE
  5
60
330
5
100
AcDbSymbolTableRecord
100
AcDbLinetypeTableRecord
  2
CENTER
 70
     0
  3
Center ____ _ ____ _ ____ _ ____ _ ____ _ ____
 72
    65
 73
     4
 40
10.16
 49
6.35
 74
     0
 49
-1.27
 74
     0
 49
1.27
 74
     0
 49
-1.27
 74
     0
  0
LTYPE
  5
61
330
5
100
AcDbSymbolTableRecord
100
AcDbLinetypeTableRecord
  2
CENTERX2
 70
     0
  3
Center (2x) ________  __  ________  __  _____
 72
    65
 73
     4
 40
20.32
 49
12.7
 74
     0
 49
-2.54
 74
     0
 49
2.54
 74
     0
 49
-2.54
 74
     0
  0
LTYPE
  5
62
330
5
100
AcDbSymbolTableRecord
100
AcDbLinetypeTableRecord
  2
DOT2
 70
     0
  3
Dot (.5x) ........................................
 72
    65
 73
     2
 40
0.635
 49
0.0
 74
     0
 49
-0.635
 74
     0
  0
ENDTAB
  0
TABLE
  2
LAYER
  5
2
330
0
100
AcDbSymbolTable
 70
     1
  0
LAYER
  5
10
330
2
100
AcDbSymbolTableRecord
100
AcDbLayerTableRecord
  2
0
 70
     0
 62
     7
  6
Continuous
370
    -3
390
F
  0
ENDTAB
  0
TABLE
  2
STYLE
  5
3
330
0
100
AcDbSymbolTable
 70
     2
  0
STYLE
  5
11
330
3
100
AcDbSymbolTableRecord
100
AcDbTextStyleTableRecord
  2
Standard
 70
     0
 40
0.0
 41
1.0
 50
0.0
 71
     0
 42
2.8222222222
  3
txt
  4

  0
STYLE
  5
1A3
330
3
100
AcDbSymbolTableRecord
100
AcDbTextStyleTableRecord
  2
SLDTEXTSTYLE0
 70
     0
 40
0.0
 41
0.7
 50
0.0
 71
     0
 42
2.8222222222
  3
TXT
  4

  0
ENDTAB
  0
TABLE
  2
VIEW
  5
6
330
0
100
AcDbSymbolTable
 70
     0
  0
ENDTAB
  0
TABLE
  2
UCS
  5
7
330
0
100
AcDbSymbolTable
 70
     0
  0
ENDTAB
  0
TABLE
  2
APPID
  5
9
330
0
100
AcDbSymbolTable
 70
     1
  0
APPID
  5
12
330
9
100
AcDbSymbolTableRecord
100
AcDbRegAppTableRecord
  2
ACAD
 70
     0
  0
ENDTAB
  0
TABLE
  2
DIMSTYLE
  5
A
330
0
100
AcDbSymbolTable
 70
     1
100
AcDbDimStyleTable
  0
DIMSTYLE
105
27
330
A
100
AcDbSymbolTableRecord
100
AcDbDimStyleTableRecord
  2
ISO-25
 70
     0
 41
2.5
 42
0.625
 43
3.75
 44
1.25
 73
     0
 74
     0
 77
     1
 78
     8
140
2.5
141
2.5
143
0.0393700787
147
0.625
171
     3
172
     1
178
     0
271
     2
272
     2
274
     3
278
    44
283
     0
284
     8
340
11
  0
ENDTAB
  0
TABLE
  2
BLOCK_RECORD
  5
1
330
0
100
AcDbSymbolTable
 70
     1
  0
BLOCK_RECORD
  5
1F
330
1
100
AcDbSymbolTableRecord
100
AcDbBlockTableRecord
  2
*Model_Space
340
22
  0
BLOCK_RECORD
  5
1B
330
1
100
AcDbSymbolTableRecord
100
AcDbBlockTableRecord
  2
*Paper_Space
340
1E
  0
BLOCK_RECORD
  5
23
330
1
100
AcDbSymbolTableRecord
100
AcDbBlockTableRecord
  2
*Paper_Space0
340
26
  0
ENDTAB
  0
ENDSEC
  0
SECTION
  2
BLOCKS
  0
BLOCK
  5
20
330
1F
100
AcDbEntity
  8
0
100
AcDbBlockBegin
  2
*Model_Space
 70
     0
 10
0.0
 20
0.0
 30
0.0
  3
*Model_Space
  1

  0
ENDBLK
  5
21
330
1F
100
AcDbEntity
  8
0
100
AcDbBlockEnd
  0
BLOCK
  5
1C
330
1B
100
AcDbEntity
 67
     1
  8
0
100
AcDbBlockBegin
  2
*Paper_Space
 70
     0
 10
0.0
 20
0.0
 30
0.0
  3
*Paper_Space
  1

  0
ENDBLK
  5
1D
330
1B
100
AcDbEntity
 67
     1
  8
0
100
AcDbBlockEnd
  0
BLOCK
  5
24
330
23
100
AcDbEntity
  8
0
100
AcDbBlockBegin
  2
*Paper_Space0
 70
     0
 10
0.0
 20
0.0
 30
0.0
  3
*Paper_Space0
  1

  0
ENDBLK
  5
25
330
23
100
AcDbEntity
  8
0
100
AcDbBlockEnd
  0
ENDSEC
  0
SECTION
  2
ENTITIES
  0
SPLINE
  5
65
330
1F
100
AcDbEntity
  8
0
  6
Continuous
 62
     7
370
    25
100
AcDbSpline
210
0.0
220
0.0
230
1.0
 70
     8
 71
     3
 72
    19
 73
    15
 74
     0
 42
0.00000001
 43
0.00000001
 40
0.0
 40
0.0
 40
0.0
 40
0.0
 40
0.1248906779508649
 40
0.2392796958638523
 40
0.343195021212922
 40
0.4351725974680395
 40
0.5154256476287182
 40
0.5839468205078668
 40
0.6423748288943743
 40
0.6913840842727693
 40
0.7714818376828069
 40
0.843859089609797
 40
0.9165795854415516
 40
1.0
 40
1.0
 40
1.0
 40
1.0
 10
244.6470588235294
 20
59.90625000000001
 30
0.0
 10
244.646593245847
 20
59.95710976219024
 30
0.0
 10
244.6457012394293
 20
60.05455265086906
 30
0.0
 10
244.6420974016933
 20
60.19428310901557
 30
0.0
 10
244.6365443557298
 20
60.32051985521413
 30
0.0
 10
244.6300928742916
 20
60.43282332921707
 30
0.0
 10
244.6188685516233
 20
60.53028428663157
 30
0.0
 10
244.6059798814731
 20
60.61365109569641
 30
0.0
 10
244.5923102661694
 20
60.68413800124471
 30
0.0
 10
244.5688587267386
 20
60.75683638980678
 30
0.0
 10
244.5322346772335
 20
60.83169788180766
 30
0.0
 10
244.4640266183631
 20
60.89565200905556
 30
0.0
 10
244.3775100372925
 20
60.93516539049973
 30
0.0
 10
244.3135716966916
 20
60.93908328299614
 30
0.0
 10
244.2794117647059
 20
60.94117647058824
 30
0.0
  0
SPLINE
  5
66
330
1F
100
AcDbEntity
  8
0
  6
Continuous
 62
     7
370
    25
100
AcDbSpline
210
0.0
220
0.0
230
1.0
 70
     8
 71
     3
 72
    19
 73
    15
 74
     0
 42
0.00000001
 43
0.00000001
 40
0.0
 40
0.0
 40
0.0
 40
0.0
 40
0.0791917128501355
 40
0.1491450287409402
 40
0.2155051221901281
 40
0.2866265704907092
 40
0.3306822983955168
 40
0.3861660216997662
 40
0.45634799718296
 40
0.5382673359385322
 40
0.6337706886251002
 40
0.7427925559585378
 40
0.8638324036921071
 40
1.0
 40
1.0
 40
1.0
 40
1.0
 10
244.2794117647059
 20
60.94117647058824
 30
0.0
 10
244.247355724956
 20
60.93911916141951
 30
0.0
 10
244.1869832592301
 20
60.93524454595708
 30
0.0
 10
244.1027208637173
 20
60.90475061785304
 30
0.0
 10
244.0416272247639
 20
60.84451267278905
 30
0.0
 10
244.0047461737699
 20
60.77963637621221
 30
0.0
 10
243.9872855595877
 20
60.7125013333094
 30
0.0
 10
243.9744107647188
 20
60.64499475421256
 30
0.0
 10
243.9635547334987
 20
60.56153243510884
 30
0.0
 10
243.9575253015113
 20
60.46140526211216
 30
0.0
 10
243.9495239288044
 20
60.34567303005889
 30
0.0
 10
243.9438325099977
 20
60.21390149497613
 30
0.0
 10
243.943174495664
 20
60.06555965753628
 30
0.0
 10
243.941868091164
 20
59.96139537250783
 30
0.0
 10
243.9411764705882
 20
59.90625000000001
 30
0.0
  0
SPLINE
  5
67
330
1F
100
AcDbEntity
  8
0
  6
Continuous
 62
     7
370
    25
100
AcDbSpline
210
0.0
220
0.0
230
1.0
 70
     8
 71
     3
 72
    19
 73
    15
 74
     0
 42
0.00000001
 43
0.00000001
 40
0.0
 40
0.0
 40
0.0
 40
0.0
 40
0.0767954840575103
 40
0.1443888122444554
 40
0.210207962487764
 40
0.282741051181576
 40
0.327893911402646
 40
0.3854246559141019
 40
0.4550473938303788
 40
0.5385556258546783
 40
0.6346244164911186
 40
0.7433028650384514
 40
0.8646001675042003
 40
1.0
 40
1.0
 40
1.0
 40
1.0
 10
244.297794117647
 20
55.29411764705883
 30
0.0
 10
244.3311716666843
 20
55.29655638379823
 30
0.0
 10
244.3939272404041
 20
55.30114163129682
 30
0.0
 10
244.480822876508
 20
55.33638747624368
 30
0.0
 10
244.5442163736989
 20
55.40235106771143
 30
0.0
 10
244.5799167084257
 20
55.47503334990707
 30
0.0
 10
244.5969113746838
 20
55.54934899240354
 30
0.0
 10
244.6125599786002
 20
55.62259128836588
 30
0.0
 10
244.6222417969508
 20
55.7137212629759
 30
0.0
 10
244.6314896987588
 20
55.82156992438384
 30
0.0
 10
244.6384097487949
 20
55.94663661619398
 30
0.0
 10
244.6445054616846
 20
56.08817759631255
 30
0.0
 10
244.6450247526522
 20
56.2469424165665
 30
0.0
 10
244.6463564134654
 20
56.35845824625753
 30
0.0
 10
244.6470588235294
 20
56.41727941176471
 30
0.0
  0
SPLINE
  5
68
330
1F
100
AcDbEntity
  8
0
  6
Continuous
 62
     7
370
    25
100
AcDbSpline
210
0.0
220
0.0
230
1.0
 70
     8
 71
     3
 72
    19
 73
    15
 74
     0
 42
0.00000001
 43
0.00000001
 40
0.0
 40
0.0
 40
0.0
 40
0.0
 40
0.130463967292343
 40
0.2474335478113875
 40
0.3539921046856008
 40
0.4472621109654693
 40
0.528580759701398
 40
0.5983512205327693
 40
0.6551142722787875
 40
0.7020795770382379
 40
0.7785534028046679
 40
0.8475460915165678
 40
0.9200195623018609
 40
1.0
 40
1.0
 40
1.0
 40
1.0
 10
243.9411764705882
 20
56.33639705882354
 30
0.0
 10
243.9418470375413
 20
56.2830884429269
 30
0.0
 10
243.9431188121446
 20
56.18198512502257
 30
0.0
 10
243.9440456268658
 20
56.03733792682911
 30
0.0
 10
243.9489123977411
 20
55.9079117418994
 30
0.0
 10
243.9594217426903
 20
55.79349958795149
 30
0.0
 10
243.9670373151472
 20
55.69389606996772
 30
0.0
 10
243.9799395593497
 20
55.60988240307258
 30
0.0
 10
243.9946358842776
 20
55.54045151194649
 30
0.0
 10
244.0148759266856
 20
55.46969594036929
 30
0.0
 10
244.0505546947117
 20
55.39774951263173
 30
0.0
 10
244.118303544066
 20
55.33764948509736
 30
0.0
 10
244.2020412450076
 20
55.29831676411572
 30
0.0
 10
244.2648456451413
 20
55.29556255924876
 30
0.0
 10
244.297794117647
 20
55.29411764705883
 30
0.0
  0
CIRCLE
  5
75
330
1F
100
AcDbEntity
  8
0
  6
Continuous
 62
     7
370
    25
100
AcDbCircle
 10
9.0
 20
9.0
 30
0.0
 40
1.600000000000005
  0
CIRCLE
  5
E3
330
1F
100
AcDbEntity
  8
0
  6
Continuous
 62
     7
370
    25
100
AcDbCircle
 10
9.0
 20
123.0
 30
0.0
 40
1.600000000000003
  0
CIRCLE
  5
F3
330
1F
100
AcDbEntity
  8
0
  6
Continuous
 62
     7
370
    25
100
AcDbCircle
 10
291.0
 20
9.0
 30
0.0
 40
1.599999999999966
  0
CIRCLE
  5
F4
330
1F
100
AcDbEntity
  8
0
  6
Continuous
 62
     7
370
    25
100
AcDbCircle
 10
291.0
 20
123.0
 30
0.0
 40
1.599999999999966
  0
SPLINE
  5
F8
330
1F
100
AcDbEntity
  8
0
  6
Continuous
 62
     7
370
    25
100
AcDbSpline
210
0.0
220
0.0
230
1.0
 70
     8
 71
     3
 72
    15
 73
    11
 74
     0
 42
0.00000001
 43
0.00000001
 40
0.0
 40
0.0
 40
0.0
 40
0.0
 40
0.174998497227403
 40
0.3352777558544839
 40
0.4812999586424169
 40
0.6123640628449176
 40
0.729738585481364
 40
0.8327134101197001
 40
0.9227050484775582
 40
1.0
 40
1.0
 40
1.0
 40
1.0
 10
259.0588235294118
 20
60.39154411764707
 30
0.0
 10
259.2044531022736
 20
60.3101502429806
 30
0.0
 10
259.483463248925
 20
60.15420858593305
 30
0.0
 10
259.8775244145412
 20
59.91906395586897
 30
0.0
 10
260.2286807685458
 20
59.69405720668788
 30
0.0
 10
260.5365731641174
 20
59.47811155909526
 30
0.0
 10
260.8042452903933
 20
59.27624177644389
 30
0.0
 10
261.0271632302592
 20
59.08176480669736
 30
0.0
 10
261.2136069611626
 20
58.90287427574818
 30
0.0
 10
261.3101647705166
 20
58.77568138073483
 30
0.0
 10
261.3547794117647
 20
58.71691176470589
 30
0.0
  0
SPLINE
  5
F9
330
1F
100
AcDbEntity
  8
0
  6
Continuous
 62
     7
370
    25
100
AcDbSpline
210
0.0
220
0.0
230
1.0
 70
     8
 71
     3
 72
    15
 73
    11
 74
     0
 42
0.00000001
 43
0.00000001
 40
0.0
 40
0.0
 40
0.0
 40
0.0
 40
0.1108702141171869
 40
0.2259193644004992
 40
0.3447072659383991
 40
0.4675696718598224
 40
0.5946105288096641
 40
0.7257256771498491
 40
0.8609672252862882
 40
1.0
 40
1.0
 40
1.0
 40
1.0
 10
277.0680147058823
 20
54.00000000000001
 30
0.0
 10
277.0375672458738
 20
54.19794640700182
 30
0.0
 10
276.9755246957847
 20
54.60130024564365
 30
0.0
 10
276.8772530298543
 20
55.21617138861278
 30
0.0
 10
276.7778157969055
 20
55.85278917134774
 30
0.0
 10
276.6779408163085
 20
56.51125750624878
 30
0.0
 10
276.5699079753779
 20
57.19099447049501
 30
0.0
 10
276.4623168412322
 20
57.89342995672079
 30
0.0
 10
276.3501264635252
 20
58.61707295719336
 30
0.0
 10
276.2739226816576
 20
59.10662162326358
 30
0.0
 10
276.235294117647
 20
59.35477941176472
 30
0.0
  0
SPLINE
  5
FA
330
1F
100
AcDbEntity
  8
0
  6
Continuous
 62
     7
370
    25
100
AcDbSpline
210
0.0
220
0.0
230
1.0
 70
     8
 71
     3
 72
    15
 73
    11
 74
     0
 42
0.00000001
 43
0.00000001
 40
0.0
 40
0.0
 40
0.0
 40
0.0
 40
0.0397167595010139
 40
0.1049646993427489
 40
0.1938476418902766
 40
0.3060671713086634
 40
0.4423932803888947
 40
0.6037100146115825
 40
0.7891658799861625
 40
1.0
 40
1.0
 40
1.0
 40
1.0
 10
249.0294117647059
 20
54.44301470588236
 30
0.0
 10
249.0289575775805
 20
54.4546700403587
 30
0.0
 10
249.0277572375816
 20
54.485473124357
 30
0.0
 10
249.0194047432654
 20
54.54184998377671
 30
0.0
 10
249.0059751883861
 20
54.61883336441034
 30
0.0
 10
248.9906892182531
 20
54.71673820062604
 30
0.0
 10
248.9642554825801
 20
54.83416432980049
 30
0.0
 10
248.941179988774
 20
54.97413100920362
 30
0.0
 10
248.9059520018951
 20
55.13400917828173
 30
0.0
 10
248.8833488525022
 20
55.24811628758371
 30
0.0
 10
248.8713235294118
 20
55.30882352941177
 30
0.0
  0
SPLINE
  5
FB
330
1F
100
AcDbEntity
  8
0
  6
Continuous
 62
     7
370
    25
100
AcDbSpline
210
0.0
220
0.0
230
1.0
 70
     8
 71
     3
 72
    15
 73
    11
 74
     0
 42
0.00000001
 43
0.00000001
 40
0.0
 40
0.0
 40
0.0
 40
0.0
 40
0.2463669798294585
 40
0.4430370979428698
 40
0.5936399426705047
 40
0.6975509296501804
 40
0.7731572781759569
 40
0.8437452426922366
 40
0.9173183695929403
 40
1.0
 40
1.0
 40
1.0
 40
1.0
 10
248.0588235294117
 20
54.11764705882354
 30
0.0
 10
248.1525754702572
 20
54.11820294815114
 30
0.0
 10
248.3211678190672
 20
54.11920259345521
 30
0.0
 10
248.5470450088036
 20
54.12924638348329
 30
0.0
 10
248.7177657935797
 20
54.14630691699842
 30
0.0
 10
248.842162602604
 20
54.16865384700463
 30
0.0
 10
248.9292330138892
 20
54.21012067664662
 30
0.0
 10
248.9907278248471
 20
54.26971874436151
 30
0.0
 10
249.0240224471652
 20
54.35190690576119
 30
0.0
 10
249.0275468433964
 20
54.41148773115546
 30
0.0
 10
249.0294117647059
 20
54.44301470588236
 30
0.0
  0
SPLINE
  5
FC
330
1F
100
AcDbEntity
  8
0
  6
Continuous
 62
     7
370
    25
100
AcDbSpline
210
0.0
220
0.0
230
1.0
 70
     8
 71
     3
 72
    27
 73
    23
 74
     0
 42
0.00000001
 43
0.00000001
 40
0.0
 40
0.0
 40
0.0
 40
0.0
 40
0.0596636646751014
 40
0.115094370965145
 40
0.1664200029565822
 40
0.2141150613611036
 40
0.257929727418029
 40
0.2984176005960107
 40
0.3355630991838495
 40
0.369390982941147
 40
0.4019573554208842
 40
0.4347863923093244
 40
0.4676501383213487
 40
0.5015879369138309
 40
0.5359906128116054
 40
0.5718937956274601
 40
0.6087434731254313
 40
0.6469301834341105
 40
0.7272433765419073
 40
0.8119702162539751
 40
0.9028407125409846
 40
1.0
 40
1.0
 40
1.0
 40
1.0
 10
255.7058823529412
 20
61.39338235294119
 30
0.0
 10
255.7072353217161
 20
61.48714013251065
 30
0.0
 10
255.7098452701819
 20
61.66800385788517
 30
0.0
 10
255.7214523475859
 20
61.92939707840547
 30
0.0
 10
255.7457804966211
 20
62.17100887536338
 30
0.0
 10
255.777993649732
 20
62.39328074225551
 30
0.0
 10
255.82040664142
 20
62.59644612612161
 30
0.0
 10
255.8703834126999
 20
62.78090128737461
 30
0.0
 10
255.9333595623015
 20
62.94463955824314
 30
0.0
 10
256.0039282745751
 20
63.09150158209737
 30
0.0
 10
256.0863209446471
 20
63.22430129264406
 30
0.0
 10
256.1808330131441
 20
63.34658150441902
 30
0.0
 10
256.2838646080825
 20
63.46479872839643
 30
0.0
 10
256.4021231752055
 20
63.57156731512852
 30
0.0
 10
256.5300788887194
 20
63.67397204261503
 30
0.0
 10
256.6690862031932
 20
63.76942114048391
 30
0.0
 10
256.8208872046895
 20
63.85550565171438
 30
0.0
 10
257.0402820011257
 20
63.9629420299764
 30
0.0
 10
257.3409895966247
 20
64.07338298357882
 30
0.0
 10
257.7323426455398
 20
64.16893538646596
 30
0.0
 10
258.158246582798
 20
64.22597593887592
 30
0.0
 10
258.4538649032853
 20
64.23211956538954
 30
0.0
 10
258.6066176470588
 20
64.23529411764707
 30
0.0
  0
SPLINE
  5
FD
330
1F
100
AcDbEntity
  8
0
  6
Continuous
 62
     7
370
    25
100
AcDbSpline
210
0.0
220
0.0
230
1.0
 70
     8
 71
     3
 72
    15
 73
    11
 74
     0
 42
0.00000001
 43
0.00000001
 40
0.0
 40
0.0
 40
0.0
 40
0.0
 40
0.1169437555358521
 40
0.2232956658892456
 40
0.3246267487510744
 40
0.4301893946878291
 40
0.5465955779206985
 40
0.6796091644107871
 40
0.8284502266763993
 40
1.0
 40
1.0
 40
1.0
 40
1.0
 10
258.7959558823529
 20
55.41176470588236
 30
0.0
 10
258.8404794465568
 20
55.41370376774486
 30
0.0
 10
258.9254939808609
 20
55.41740626650421
 30
0.0
 10
259.0426333265503
 20
55.46015937857706
 30
0.0
 10
259.1432097541966
 20
55.52587502944716
 30
0.0
 10
259.2210650595943
 20
55.622522290803
 30
0.0
 10
259.2826483687527
 20
55.74308530923686
 30
0.0
 10
259.3221824547936
 20
55.88953125082523
 30
0.0
 10
259.3484351289081
 20
56.05972060316666
 30
0.0
 10
259.3513698253279
 20
56.18125126434786
 30
0.0
 10
259.3529411764706
 20
56.24632352941178
 30
0.0
  0
SPLINE
  5
FE
330
1F
100
AcDbEntity
  8
0
  6
Continuous
 62
     7
370
    25
100
AcDbSpline
210
0.0
220
0.0
230
1.0
 70
     8
 71
     3
 72
    15
 73
    11
 74
     0
 42
0.00000001
 43
0.00000001
 40
0.0
 40
0.0
 40
0.0
 40
0.0
 40
0.1407521535060349
 40
0.2773256867772107
 40
0.4089987030839297
 40
0.5365237558145055
 40
0.6591790083098875
 40
0.7773101083674664
 40
0.8909170920724858
 40
1.0
 40
1.0
 40
1.0
 40
1.0
 10
239.7058823529412
 20
81.48529411764706
 30
0.0
 10
239.8158697833655
 20
82.72306636961665
 30
0.0
 10
240.0325793605871
 20
85.16186415210686
 30
0.0
 10
240.3574493656519
 20
88.75812599789197
 30
0.0
 10
240.6553866696576
 20
92.23953602171248
 30
0.0
 10
240.9614305279759
 20
95.59686765469732
 30
0.0
 10
241.2551478125783
 20
98.83526044143463
 30
0.0
 10
241.5402359947169
 20
101.9510555145476
 30
0.0
 10
241.8157772329317
 20
104.9473973764232
 30
0.0
 10
241.9974205134579
 20
106.9050363791927
 30
0.0
 10
242.0863970588235
 20
107.8639705882353
 30
0.0
  0
SPLINE
  5
FF
330
1F
100
AcDbEntity
  8
0
  6
Continuous
 62
     7
370
    25
100
AcDbSpline
210
0.0
220
0.0
230
1.0
 70
     8
 71
     3
 72
    15
 73
    11
 74
     0
 42
0.00000001
 43
0.00000001
 40
0.0
 40
0.0
 40
0.0
 40
0.0
 40
0.1219319154778134
 40
0.2413429526827373
 40
0.3606518522488388
 40
0.4797952004726632
 40
0.6015746652658939
 40
0.7291602510018179
 40
0.861028433312984
 40
1.0
 40
1.0
 40
1.0
 40
1.0
 10
245.4375
 20
53.88235294117648
 30
0.0
 10
245.368065934358
 20
53.88405588201478
 30
0.0
 10
245.2306333158911
 20
53.88742655628449
 30
0.0
 10
245.0286653206788
 20
53.92712548245701
 30
0.0
 10
244.8330737597088
 20
53.98455309365883
 30
0.0
 10
244.6456952821319
 20
54.06885760957748
 30
0.0
 10
244.4654607249176
 20
54.17667987624895
 30
0.0
 10
244.2936679178314
 20
54.30955728995824
 30
0.0
 10
244.1280757839077
 20
54.46492003635527
 30
0.0
 10
244.0288534885785
 20
54.58286380017973
 30
0.0
 10
243.9779411764706
 20
54.64338235294118
 30
0.0
  0
SPLINE
  5
100
330
1F
100
AcDbEntity
  8
0
  6
Continuous
 62
     7
370
    25
100
AcDbSpline
210
0.0
220
0.0
230
1.0
 70
     8
 71
     3
 72
    15
 73
    11
 74
     0
 42
0.00000001
 43
0.00000001
 40
0.0
 40
0.0
 40
0.0
 40
0.0
 40
0.135480224897924
 40
0.2648532135449785
 40
0.3896463061250028
 40
0.5111365545633714
 40
0.631389146230268
 40
0.7528601532607876
 40
0.8744273368756683
 40
1.0
 40
1.0
 40
1.0
 40
1.0
 10
243.9411764705882
 20
61.63235294117648
 30
0.0
 10
243.9914367171558
 20
61.69048502192677
 30
0.0
 10
244.0896915571297
 20
61.80412868031583
 30
0.0
 10
244.254657128539
 20
61.95197558708691
 30
0.0
 10
244.4285032829181
 20
62.0754282838613
 30
0.0
 10
244.6094524119942
 20
62.17858508962949
 30
0.0
 10
244.8010693476064
 20
62.25522057190665
 30
0.0
 10
244.9990669752748
 20
62.3128934030435
 30
0.0
 10
245.2059472331612
 20
62.34679318627906
 30
0.0
 10
245.3460783016092
 20
62.35086982259653
 30
0.0
 10
245.4172794117647
 20
62.35294117647059
 30
0.0
  0
SPLINE
  5
101
330
1F
100
AcDbEntity
  8
0
  6
Continuous
 62
     7
370
    25
100
AcDbSpline
210
0.0
220
0.0
230
1.0
 70
     8
 71
     3
 72
    31
 73
    27
 74
     0
 42
0.00000001
 43
0.00000001
 40
0.0
 40
0.0
 40
0.0
 40
0.0
 40
0.052444380236137
 40
0.1030805006306256
 40
0.1516937636780655
 40
0.1986408603276234
 40
0.244219300509508
 40
0.28841889644087
 40
0.331125316169585
 40
0.3728799084426099
 40
0.4131990368124529
 40
0.4508633983221716
 40
0.4864353076492293
 40
0.5203128689112696
 40
0.5523246316211549
 40
0.5830550829949266
 40
0.6128761404268546
 40
0.6415664154980562
 40
0.6720364740289855
 40
0.7063977866461564
 40
0.7442843809288265
 40
0.7867636372393783
 40
0.8334600234326472
 40
0.8845228700763952
 40
0.9400188884839588
 40
1.0
 40
1.0
 40
1.0
 40
1.0
 10
258.6066176470588
 20
64.23529411764707
 30
0.0
 10
258.6917973067044
 20
64.23401640142767
 30
0.0
 10
258.8592196676949
 20
64.23150502409862
 30
0.0
 10
259.1054612271636
 20
64.21824926708909
 30
0.0
 10
259.3411436282693
 20
64.18850255323251
 30
0.0
 10
259.5682180383463
 20
64.15599806464058
 30
0.0
 10
259.7849364576808
 20
64.1066632852431
 30
0.0
 10
259.9928873224198
 20
64.05092112335889
 30
0.0
 10
260.190567883724
 20
63.98248627032856
 30
0.0
 10
260.3773523361962
 20
63.90339938873786
 30
0.0
 10
260.5519411001853
 20
63.81761977529337
 30
0.0
 10
260.7138928467872
 20
63.72875373831843
 30
0.0
 10
260.8566843609776
 20
63.62916033636005
 30
0.0
 10
260.9892275139233
 20
63.53066443844203
 30
0.0
 10
261.1005008379791
 20
63.4195736962068
 30
0.0
 10
261.2021518233292
 20
63.30849373642554
 30
0.0
 10
261.2842314632651
 20
63.18849428438462
 30
0.0
 10
261.3532896226537
 20
63.06116376780632
 30
0.0
 10
261.4081019893335
 20
62.91919905342569
 30
0.0
 10
261.458193642211
 20
62.75987759786437
 30
0.0
 10
261.4970798817188
 20
62.57743883399888
 30
0.0
 10
261.5327631789369
 20
62.37408124934969
 30
0.0
 10
261.5571278605107
 20
62.14744648868125
 30
0.0
 10
261.575356674251
 20
61.89914904858716
 30
0.0
 10
261.5863179579077
 20
61.62877372398431
 30
0.0
 10
261.5875798449573
 20
61.44118651613482
 30
0.0
 10
261.5882352941176
 20
61.34375000000001
 30
0.0
  0
SPLINE
  5
102
330
1F
100
AcDbEntity
  8
0
  6
Continuous
 62
     7
370
    25
100
AcDbSpline
210
0.0
220
0.0
230
1.0
 70
     8
 71
     3
 72
    15
 73
    11
 74
     0
 42
0.00000001
 43
0.00000001
 40
0.0
 40
0.0
 40
0.0
 40
0.0
 40
0.0776698780822563
 40
0.1667530795766396
 40
0.2695724731958381
 40
0.387215686170135
 40
0.5161816572896563
 40
0.662459423149881
 40
0.823862681166011
 40
1.0
 40
1.0
 40
1.0
 40
1.0
 10
258.3014705882352
 20
61.00367647058824
 30
0.0
 10
258.3137877679827
 20
60.98126344342128
 30
0.0
 10
258.340232094989
 20
60.93314387126528
 30
0.0
 10
258.3952873403418
 20
60.86327198462982
 30
0.0
 10
258.4652460877743
 20
60.78913769016727
 30
0.0
 10
258.5539790156748
 20
60.71587013652986
 30
0.0
 10
258.6563158064419
 20
60.63703077292392
 30
0.0
 10
258.7755932368626
 20
60.55692122720642
 30
0.0
 10
258.911912240197
 20
60.47487467706731
 30
0.0
 10
259.0084484581733
 20
60.42011770712121
 30
0.0
 10
259.0588235294118
 20
60.39154411764707
 30
0.0
  0
SPLINE
  5
103
330
1F
100
AcDbEntity
  8
0
  6
Continuous
 62
     7
370
    25
100
AcDbSpline
210
0.0
220
0.0
230
1.0
 70
     8
 71
     3
 72
    11
 73
     7
 74
     0
 42
0.00000001
 43
0.00000001
 40
0.0
 40
0.0
 40
0.0
 40
0.0
 40
0.3062674163966924
 40
0.5726513187052098
 40
0.8033408039342349
 40
1.0
 40
1.0
 40
1.0
 40
1.0
 10
258.1764705882353
 20
61.78676470588236
 30
0.0
 10
258.1773939919661
 20
61.70516356141994
 30
0.0
 10
258.1791205496598
 20
61.55258773884618
 30
0.0
 10
258.2040183182033
 20
61.34010786334837
 30
0.0
 10
258.2381344350827
 20
61.15766606086484
 30
0.0
 10
258.2815098835508
 20
61.05220705830196
 30
0.0
 10
258.3014705882353
 20
61.00367647058825
 30
0.0
  0
SPLINE
  5
104
330
1F
100
AcDbEntity
  8
0
  6
Continuous
 62
     7
370
    25
100
AcDbSpline
210
0.0
220
0.0
230
1.0
 70
     8
 71
     3
 72
    31
 73
    27
 74
     0
 42
0.00000001
 43
0.00000001
 40
0.0
 40
0.0
 40
0.0
 40
0.0
 40
0.0510704245680309
 40
0.1001446959399554
 40
0.1476655177408865
 40
0.193463593545793
 40
0.2384088645023144
 40
0.2819932588525184
 40
0.324626853922473
 40
0.3664635455243723
 40
0.406943511142495
 40
0.4457643566397936
 40
0.4823448696851438
 40
0.5177061604861726
 40
0.5518662981629038
 40
0.5851550675099625
 40
0.6177960394611794
 40
0.6500993641822352
 40
0.683972791115537
 40
0.7201749473691126
 40
0.7594593612659342
 40
0.801373687561626
 40
0.8466397630205187
 40
0.8946184826628155
 40
0.9457225969073165
 40
1.0
 40
1.0
 40
1.0
 40
1.0
 10
258.8713235294118
 20
53.76470588235295
 30
0.0
 10
258.783649412962
 20
53.76535672945669
 30
0.0
 10
258.6117280356103
 20
53.76663298446839
 30
0.0
 10
258.3591033822189
 20
53.78871162787783
 30
0.0
 10
258.1164803303154
 20
53.81855340603907
 30
0.0
 10
257.8833245894186
 20
53.86339503261083
 30
0.0
 10
257.6595175847179
 20
53.91938033905626
 30
0.0
 10
257.44580025727
 20
53.99040956361052
 30
0.0
 10
257.2406464264512
 20
54.06976730840911
 30
0.0
 10
257.0488227112787
 20
54.16617926192857
 30
0.0
 10
256.8688584870178
 20
54.27042547889415
 30
0.0
 10
256.7037320160581
 20
54.38161017005806
 30
0.0
 10
256.5551333348105
 20
54.50046167814438
 30
0.0
 10
256.4221963248743
 20
54.62518761060305
 30
0.0
 10
256.3054030329554
 20
54.75791556370115
 30
0.0
 10
256.2065806667572
 20
54.89863803532592
 30
0.0
 10
256.1199918863359
 20
55.04368422754514
 30
0.0
 10
256.053774286855
 20
55.20027399149155
 30
0.0
 10
255.9991872072326
 20
55.36733391137131
 30
0.0
 10
255.9502910571703
 20
55.54870180777647
 30
0.0
 10
255.9138590058813
 20
55.74697275445936
 30
0.0
 10
255.8797114795451
 20
55.96132168661707
 30
0.0
 10
255.8548629186955
 20
56.19202760334971
 30
0.0
 10
255.8365754953418
 20
56.43909415908603
 30
0.0
 10
255.8254891599029
 20
56.70210442571069
 30
0.0
 10
255.8241956447529
 20
56.8829548237353
 30
0.0
 10
255.8235294117647
 20
56.97610294117648
 30
0.0
  0
SPLINE
  5
105
330
1F
100
AcDbEntity
  8
0
  6
Continuous
 62
     7
370
    25
100
AcDbSpline
210
0.0
220
0.0
230
1.0
 70
     8
 71
     3
 72
    31
 73
    27
 74
     0
 42
0.00000001
 43
0.00000001
 40
0.0
 40
0.0
 40
0.0
 40
0.0
 40
0.0651047562449047
 40
0.1247095430937863
 40
0.1791572005012713
 40
0.2277218228372603
 40
0.2715751661630986
 40
0.3095501642220261
 40
0.3423857905732354
 40
0.3697557086444625
 40
0.417450043330951
 40
0.4623905552083216
 40
0.5049767573792949
 40
0.5457833746207466
 40
0.585906718867466
 40
0.6265465024479382
 40
0.6693527111564206
 40
0.7145449191353933
 40
0.7392391667157844
 40
0.7670905156060795
 40
0.797719960051217
 40
0.8316579900108727
 40
0.8689406058901286
 40
0.9092299896245492
 40
0.9529064960680917
 40
1.0
 40
1.0
 40
1.0
 40
1.0
 10
252.4981617647059
 20
56.28492647058824
 30
0.0
 10
252.4841826703197
 20
56.16971670793465
 30
0.0
 10
252.4574054181756
 20
55.9490299610797
 30
0.0
 10
252.4171339070851
 20
55.63220871319069
 30
0.0
 10
252.3777952510545
 20
55.34501762587265
 30
0.0
 10
252.3446459134627
 20
55.08529224217215
 30
0.0
 10
252.3066780780722
 20
54.85595151931334
 30
0.0
 10
252.2741715342001
 20
54.6541575626239
 30
0.0
 10
252.2431767329336
 20
54.48189137053718
 30
0.0
 10
252.2052428902657
 20
54.29332584089459
 30
0.0
 10
252.1511343544013
 20
54.0860034204369
 30
0.0
 10
252.0644374972823
 20
53.86051380519553
 30
0.0
 10
251.9593288566128
 20
53.65689926962008
 30
0.0
 10
251.8364287563914
 20
53.47327636379905
 30
0.0
 10
251.6867116619069
 20
53.3152494119898
 30
0.0
 10
251.512685434355
 20
53.17899947269677
 30
0.0
 10
251.3128749611376
 20
53.06493597731863
 30
0.0
 10
251.1256940685019
 20
52.99012049765131
 30
0.0
 10
250.9580897024133
 20
52.942308732861
 30
0.0
 10
250.813535036696
 20
52.90878644667757
 30
0.0
 10
250.6504865812674
 20
52.88448849856447
 30
0.0
 10
250.4702825408395
 20
52.86241478887236
 30
0.0
 10
250.2723169084713
 20
52.84397697002856
 30
0.0
 10
250.0565119706179
 20
52.8314676032647
 30
0.0
 10
249.8229700691119
 20
52.82407141254642
 30
0.0
 10
249.66115772961
 20
52.82371455658763
 30
0.0
 10
249.5772058823529
 20
52.82352941176471
 30
0.0
  0
SPLINE
  5
106
330
1F
100
AcDbEntity
  8
0
  6
Continuous
 62
     7
370
    25
100
AcDbSpline
210
0.0
220
0.0
230
1.0
 70
     8
 71
     3
 72
    15
 73
    11
 74
     0
 42
0.00000001
 43
0.00000001
 40
0.0
 40
0.0
 40
0.0
 40
0.0
 40
0.0944738788506176
 40
0.1959971097826803
 40
0.3046784923527298
 40
0.4235261341254868
 40
0.5514064945410477
 40
0.6905055402445257
 40
0.8396440971510989
 40
1.0
 40
1.0
 40
1.0
 40
1.0
 10
261.3547794117647
 20
58.71691176470589
 30
0.0
 10
261.3930056237908
 20
58.65768965887524
 30
0.0
 10
261.4723103709463
 20
58.53482647468861
 30
0.0
 10
261.5662547437611
 20
58.32723727829554
 30
0.0
 10
261.6449927154913
 20
58.09477322049024
 30
0.0
 10
261.7104970740317
 20
57.83785304719102
 30
0.0
 10
261.761726456862
 20
57.5546805243852
 30
0.0
 10
261.7973862180053
 20
57.24646171697525
 30
0.0
 10
261.8197354616312
 20
56.91270790781657
 30
0.0
 10
261.8222345690925
 20
56.68202295818496
 30
0.0
 10
261.8235294117647
 20
56.56250000000001
 30
0.0
  0
SPLINE
  5
107
330
1F
100
AcDbEntity
  8
0
  6
Continuous
 62
     7
370
    25
100
AcDbSpline
210
0.0
220
0.0
230
1.0
 70
     8
 71
     3
 72
    11
 73
     7
 74
     0
 42
0.00000001
 43
0.00000001
 40
0.0
 40
0.0
 40
0.0
 40
0.0
 40
0.2578303414605729
 40
0.5103555458601872
 40
0.7578913337020087
 40
1.0
 40
1.0
 40
1.0
 40
1.0
 10
278.235294117647
 20
56.78492647058824
 30
0.0
 10
278.274276654632
 20
57.40639775887436
 30
0.0
 10
278.3514396209042
 20
58.63655289411943
 30
0.0
 10
278.5021857552969
 20
60.46078623491509
 30
0.0
 10
278.674101689285
 20
62.24502892246031
 30
0.0
 10
278.8134506960857
 20
63.41934828139788
 30
0.0
 10
278.8823529411765
 20
64.0
 30
0.0
  0
SPLINE
  5
108
330
1F
100
AcDbEntity
  8
0
  6
Continuous
 62
     7
370
    25
100
AcDbSpline
210
0.0
220
0.0
230
1.0
 70
     8
 71
     3
 72
    23
 73
    19
 74
     0
 42
0.00000001
 43
0.00000001
 40
0.0
 40
0.0
 40
0.0
 40
0.0
 40
0.0185179291570819
 40
0.0427101668872608
 40
0.0730168745988839
 40
0.1089397758683034
 40
0.150535254941234
 40
0.1988034058632866
 40
0.2521313782255913
 40
0.3116870408663324
 40
0.3773602271442061
 40
0.4486496437135155
 40
0.5256101067111452
 40
0.6086883653812603
 40
0.6979392287446835
 40
0.7928063302099855
 40
0.893344055275388
 40
1.0
 40
1.0
 40
1.0
 40
1.0
 10
277.5404411764706
 20
64.0
 30
0.0
 10
277.5421362770742
 20
63.9797645640429
 30
0.0
 10
277.5460458951021
 20
63.93309310097417
 30
0.0
 10
277.5566348720197
 20
63.85370912327795
 30
0.0
 10
277.5646868142808
 20
63.75487485807798
 30
0.0
 10
277.5754666631724
 20
63.63714151699444
 30
0.0
 10
277.5915792231461
 20
63.500151312531
 30
0.0
 10
277.6050799494611
 20
63.34371960858768
 30
0.0
 10
277.6215145357359
 20
63.16778948628139
 30
0.0
 10
277.642871755916
 20
62.97317055463786
 30
0.0
 10
277.6622425997797
 20
62.7585652986746
 30
0.0
 10
277.68384328751
 20
62.52500397244816
 30
0.0
 10
277.710932187505
 20
62.27280670408257
 30
0.0
 10
277.7356992019251
 20
62.00059214472359
 30
0.0
 10
277.7636339996651
 20
61.70896133700331
 30
0.0
 10
277.7922151923656
 20
61.39815836651427
 30
0.0
 10
277.8266992717458
 20
61.06875748822456
 30
0.0
 10
277.8476639898385
 20
60.84254770560965
 30
0.0
 10
277.8584558823529
 20
60.72610294117647
 30
0.0
  0
SPLINE
  5
109
330
1F
100
AcDbEntity
  8
0
  6
Continuous
 62
     7
370
    25
100
AcDbSpline
210
0.0
220
0.0
230
1.0
 70
     8
 71
     3
 72
    15
 73
    11
 74
     0
 42
0.00000001
 43
0.00000001
 40
0.0
 40
0.0
 40
0.0
 40
0.0
 40
0.1756682123138248
 40
0.3366740910575216
 40
0.4818238190699062
 40
0.6132339970195085
 40
0.7280416363606509
 40
0.8306725963829292
 40
0.919883300399472
 40
1.0
 40
1.0
 40
1.0
 40
1.0
 10
259.3529411764706
 20
56.24632352941178
 30
0.0
 10
259.3523163018797
 20
56.31864641607804
 30
0.0
 10
259.3511187085181
 20
56.45725568300407
 30
0.0
 10
259.3399330653783
 20
56.65532424694177
 30
0.0
 10
259.322903484014
 20
56.83479763575613
 30
0.0
 10
259.2947471954624
 20
56.99347498791423
 30
0.0
 10
259.2633163515666
 20
57.13388689227249
 30
0.0
 10
259.2203695898247
 20
57.2526576294421
 30
0.0
 10
259.1744636932592
 20
57.35550249128608
 30
0.0
 10
259.132151993428
 20
57.41116396042686
 30
0.0
 10
259.1121323529412
 20
57.43750000000001
 30
0.0
  0
SPLINE
  5
10A
330
1F
100
AcDbEntity
  8
0
  6
Continuous
 62
     7
370
    25
100
AcDbSpline
210
0.0
220
0.0
230
1.0
 70
     8
 71
     3
 72
    19
 73
    15
 74
     0
 42
0.00000001
 43
0.00000001
 40
0.0
 40
0.0
 40
0.0
 40
0.0
 40
0.1166636812355123
 40
0.22144935275489
 40
0.3158596897269679
 40
0.4002631211435813
 40
0.4745160940931116
 40
0.5380027977314805
 40
0.591926172069131
 40
0.6374120154074856
 40
0.7190128878716188
 40
0.8016081820888125
 40
0.8934363796638339
 40
1.0
 40
1.0
 40
1.0
 40
1.0
 10
258.2941176470588
 20
56.35110294117648
 30
0.0
 10
258.294342422866
 20
56.30329564824232
 30
0.0
 10
258.2947690891299
 20
56.21254851970054
 30
0.0
 10
258.3013592351195
 20
56.08331636782763
 30
0.0
 10
258.306735462406
 20
55.96714314760345
 30
0.0
 10
258.3211706495908
 20
55.86444880125755
 30
0.0
 10
258.3335526721889
 20
55.77412696023795
 30
0.0
 10
258.3549817970746
 20
55.69845389298655
 30
0.0
 10
258.3758832278439
 20
55.6349685707848
 30
0.0
 10
258.4096947799035
 20
55.56858668051757
 30
0.0
 10
258.4677057972683
 20
55.50314561494043
 30
0.0
 10
258.5584725002419
 20
55.44784389927195
 30
0.0
 10
258.6709206917401
 20
55.41736633992016
 30
0.0
 10
258.7522635886273
 20
55.41372214073348
 30
0.0
 10
258.795955882353
 20
55.41176470588237
 30
0.0
  0
SPLINE
  5
10B
330
1F
100
AcDbEntity
  8
0
  6
Continuous
 62
     7
370
    25
100
AcDbSpline
210
0.0
220
0.0
230
1.0
 70
     8
 71
     3
 72
    15
 73
    11
 74
     0
 42
0.00000001
 43
0.00000001
 40
0.0
 40
0.0
 40
0.0
 40
0.0
 40
0.0671946307953268
 40
0.1511751183614976
 40
0.2506667348194955
 40
0.367275690644924
 40
0.4997102639878436
 40
0.6497053577284203
 40
0.8157090390830318
 40
0.9999999999999999
 40
0.9999999999999999
 40
0.9999999999999999
 40
0.9999999999999999
 10
259.1121323529412
 20
57.43750000000001
 30
0.0
 10
259.0880233099286
 20
57.46303649090068
 30
0.0
 10
259.0337825560492
 20
57.52048873059235
 30
0.0
 10
258.9337542466209
 20
57.60532911401964
 30
0.0
 10
258.8092787605568
 20
57.70053566222613
 30
0.0
 10
258.6631621069111
 20
57.80919840033097
 30
0.0
 10
258.4909100595026
 20
57.92662242876793
 30
0.0
 10
258.2949630253134
 20
58.05497793831432
 30
0.0
 10
258.0729310954012
 20
58.19281192646307
 30
0.0
 10
257.9167343530933
 20
58.28810260815494
 30
0.0
 10
257.8345588235294
 20
58.33823529411766
 30
0.0
  0
SPLINE
  5
10C
330
1F
100
AcDbEntity
  8
0
  6
Continuous
 62
     7
370
    25
100
AcDbSpline
210
0.0
220
0.0
230
1.0
 70
     8
 71
     3
 72
    15
 73
    11
 74
     0
 42
0.00000001
 43
0.00000001
 40
0.0
 40
0.0
 40
0.0
 40
0.0
 40
0.229513834313351
 40
0.4128426509682299
 40
0.5531033892520764
 40
0.653610262363733
 40
0.7331803764294981
 40
0.8144941268385556
 40
0.9008277521824045
 40
1.0
 40
1.0
 40
1.0
 40
1.0
 10
259.1176470588235
 20
61.73161764705883
 30
0.0
 10
259.1170179031283
 20
61.81560557174976
 30
0.0
 10
259.1158861965981
 20
61.96668054978959
 30
0.0
 10
259.0986464974575
 20
62.16853812699819
 30
0.0
 10
259.0709157918791
 20
62.32154811268541
 30
0.0
 10
259.0271669248129
 20
62.4319004988817
 30
0.0
 10
258.9638588492204
 20
62.5058649115211
 30
0.0
 10
258.8858658733189
 20
62.55362299249211
 30
0.0
 10
258.7920810369209
 20
62.58473067385954
 30
0.0
 10
258.723932503049
 20
62.58701440272094
 30
0.0
 10
258.6875
 20
62.58823529411765
 30
0.0
  0
SPLINE
  5
10D
330
1F
100
AcDbEntity
  8
0
  6
Continuous
 62
     7
370
    25
100
AcDbSpline
210
0.0
220
0.0
230
1.0
 70
     8
 71
     3
 72
    27
 73
    23
 74
     0
 42
0.00000001
 43
0.00000001
 40
0.0
 40
0.0
 40
0.0
 40
0.0
 40
0.055374870818842
 40
0.1073067018093481
 40
0.1554589126124471
 40
0.199906965516019
 40
0.2408193927243169
 40
0.2786481669524893
 40
0.3131736164178492
 40
0.3451236984985439
 40
0.3756899550088986
 40
0.4069667208024783
 40
0.4395762195937735
 40
0.47349971247588
 40
0.5090021829595968
 40
0.546637540798702
 40
0.5859601010201704
 40
0.6279870927392004
 40
0.7151665558932803
 40
0.8051117449998446
 40
0.90006954109285
 40
0.9999999999999999
 40
0.9999999999999999
 40
0.9999999999999999
 40
0.9999999999999999
 10
261.8235294117647
 20
56.56250000000001
 30
0.0
 10
261.8230404458096
 20
56.47547158676294
 30
0.0
 10
261.8220929163044
 20
56.30682592041506
 30
0.0
 10
261.8086996205524
 20
56.06280685517236
 30
0.0
 10
261.7887991820926
 20
55.83653567788082
 30
0.0
 10
261.7622873668782
 20
55.62829270393992
 30
0.0
 10
261.725082559907
 20
55.43819352322416
 30
0.0
 10
261.681684237149
 20
55.26547664953088
 30
0.0
 10
261.6305935659948
 20
55.10953719270506
 30
0.0
 10
261.5695639891917
 20
54.96949249650441
 30
0.0
 10
261.4961183342951
 20
54.84134236271447
 30
0.0
 10
261.4084680892146
 20
54.7212745521861
 30
0.0
 10
261.307375957936
 20
54.60521743450209
 30
0.0
 10
261.1907520860282
 20
54.49486718972616
 30
0.0
 10
261.0594683799389
 20
54.38933121912191
 30
0.0
 10
260.9122841750672
 20
54.29118923280164
 30
0.0
 10
260.7508112358167
 20
54.19676629556373
 30
0.0
 10
260.5149659223366
 20
54.07592890869505
 30
0.0
 10
260.1930803187606
 20
53.95070229396593
 30
0.0
 10
259.7789327282499
 20
53.84136757932191
 30
0.0
 10
259.3347250644475
 20
53.7771729273416
 30
0.0
 10
259.0283960823738
 20
53.76893165727212
 30
0.0
 10
258.8713235294118
 20
53.76470588235295
 30
0.0
  0
SPLINE
  5
10E
330
1F
100
AcDbEntity
  8
0
  6
Continuous
 62
     7
370
    25
100
AcDbSpline
210
0.0
220
0.0
230
1.0
 70
     8
 71
     3
 72
    15
 73
    11
 74
     0
 42
0.00000001
 43
0.00000001
 40
0.0
 40
0.0
 40
0.0
 40
0.0
 40
0.101775302215039
 40
0.2102013249361184
 40
0.3250841208684824
 40
0.4466990678243932
 40
0.5749901489751401
 40
0.7099968544754668
 40
0.8517631676753187
 40
0.9999999999999999
 40
0.9999999999999999
 40
0.9999999999999999
 40
0.9999999999999999
 10
274.1176470588235
 20
57.0202205882353
 30
0.0
 10
274.1393220772743
 20
57.25800172417141
 30
0.0
 10
274.1840885137005
 20
57.74910230290496
 30
0.0
 10
274.2609173477136
 20
58.50789427968133
 30
0.0
 10
274.3531670472076
 20
59.31184030450672
 30
0.0
 10
274.4610225953816
 20
60.16082498666054
 30
0.0
 10
274.5781458751485
 20
61.05621011707925
 30
0.0
 10
274.7085514730069
 20
61.99751861784826
 30
0.0
 10
274.8540605400767
 20
62.98393474208238
 30
0.0
 10
274.9579339173125
 20
63.65631091894428
 30
0.0
 10
275.0110294117647
 20
64.0
 30
0.0
  0
SPLINE
  5
10F
330
1F
100
AcDbEntity
  8
0
  6
Continuous
 62
     7
370
    25
100
AcDbSpline
210
0.0
220
0.0
230
1.0
 70
     8
 71
     3
 72
    27
 73
    23
 74
     0
 42
0.00000001
 43
0.00000001
 40
0.0
 40
0.0
 40
0.0
 40
0.0
 40
0.0710225108712721
 40
0.1372512488628096
 40
0.2002405699080277
 40
0.2597733255676252
 40
0.3165216896019271
 40
0.3706577806696973
 40
0.4220180375453091
 40
0.4729941181473502
 40
0.5219569562272133
 40
0.5678886732042973
 40
0.6115852244486667
 40
0.6533433905102336
 40
0.6766187042559032
 40
0.7057767399222922
 40
0.7402250031727501
 40
0.7806070939256547
 40
0.8268586778882566
 40
0.879023145571646
 40
0.9365556783989926
 40
1.0
 40
1.0
 40
1.0
 40
1.0
 10
245.4172794117647
 20
62.35294117647059
 30
0.0
 10
245.4982943326917
 20
62.35170465753265
 30
0.0
 10
245.6548559486829
 20
62.34931508039165
 30
0.0
 10
245.8811021907707
 20
62.31596228212084
 30
0.0
 10
246.0911906091136
 20
62.26827131719969
 30
0.0
 10
246.2835970814858
 20
62.19789631069824
 30
0.0
 10
246.4572255219996
 20
62.10981391492616
 30
0.0
 10
246.6104248486056
 20
62.0053734066412
 30
0.0
 10
246.7426741360028
 20
61.88444744167328
 30
0.0
 10
246.8469066169897
 20
61.74617843334256
 30
0.0
 10
246.9322221078822
 20
61.60338089493789
 30
0.0
 10
247.0022555055322
 20
61.46140669986505
 30
0.0
 10
247.0497540615705
 20
61.31901878318679
 30
0.0
 10
247.0761143602208
 20
61.19757549847176
 30
0.0
 10
247.0870432543303
 20
61.09075136816594
 30
0.0
 10
247.097429806273
 20
60.99224620718191
 30
0.0
 10
247.1004546308174
 20
60.87370434177534
 30
0.0
 10
247.1102445477258
 20
60.73602847051229
 30
0.0
 10
247.1117769757172
 20
60.57780065128459
 30
0.0
 10
247.1165167960751
 20
60.40014765903128
 30
0.0
 10
247.1179764146211
 20
60.2028195234672
 30
0.0
 10
247.1177603633561
 20
60.06495030363317
 30
0.0
 10
247.1176470588235
 20
59.99264705882354
 30
0.0
  0
SPLINE
  5
110
330
1F
100
AcDbEntity
  8
0
  6
Continuous
 62
     7
370
    25
100
AcDbSpline
210
0.0
220
0.0
230
1.0
 70
     8
 71
     3
 72
    23
 73
    19
 74
     0
 42
0.00000001
 43
0.00000001
 40
0.0
 40
0.0
 40
0.0
 40
0.0
 40
0.033290471661336
 40
0.0707172863393237
 40
0.1115605070435146
 40
0.1568770990797267
 40
0.2056564850943192
 40
0.2585258424699
 40
0.3151488532723493
 40
0.3755709759873
 40
0.4401296179624473
 40
0.5084415617159075
 40
0.5805072118281169
 40
0.6567090011386484
 40
0.7367101343665923
 40
0.8204646840170297
 40
0.908355591491593
 40
1.0
 40
1.0
 40
1.0
 40
1.0
 10
276.235294117647
 20
59.35477941176472
 30
0.0
 10
276.2273938001438
 20
59.29533426116184
 30
0.0
 10
276.2106115502338
 20
59.16905789657822
 30
0.0
 10
276.182740597143
 20
58.97003936731073
 30
0.0
 10
276.1534494488236
 20
58.74935186113679
 30
0.0
 10
276.120785227734
 20
58.50848292902739
 30
0.0
 10
276.0831902062599
 20
58.24642862309154
 30
0.0
 10
276.0448825347836
 20
57.96390960345853
 30
0.0
 10
276.0048539327432
 20
57.66046335704291
 30
0.0
 10
275.9605187236227
 20
57.33634907818776
 30
0.0
 10
275.912459600918
 20
56.99149452223184
 30
0.0
 10
275.8628784438005
 20
56.62567693524957
 30
0.0
 10
275.8116791422916
 20
56.23891649434061
 30
0.0
 10
275.756693873073
 20
55.83141776503339
 30
0.0
 10
275.6972397631907
 20
55.40327855409478
 30
0.0
 10
275.6372052195442
 20
54.95396752171998
 30
0.0
 10
275.5723032420824
 20
54.48415194228344
 30
0.0
 10
275.5293027086973
 20
54.16361775741893
 30
0.0
 10
275.5073529411765
 20
54.00000000000001
 30
0.0
  0
SPLINE
  5
111
330
1F
100
AcDbEntity
  8
0
  6
Continuous
 62
     7
370
    25
100
AcDbSpline
210
0.0
220
0.0
230
1.0
 70
     8
 71
     3
 72
    15
 73
    11
 74
     0
 42
0.00000001
 43
0.00000001
 40
0.0
 40
0.0
 40
0.0
 40
0.0
 40
0.1423605791776206
 40
0.2795409537655423
 40
0.4120544316284845
 40
0.5393877434263832
 40
0.6620542508623457
 40
0.7795406429867909
 40
0.8923603451553445
 40
0.9999999999999999
 40
0.9999999999999999
 40
0.9999999999999999
 40
0.9999999999999999
 10
236.4705882352941
 20
117.0
 30
0.0
 10
236.62688675867
 20
115.3149555097616
 30
0.0
 10
236.9337964281096
 20
112.0061817842002
 30
0.0
 10
237.38536607332
 20
107.128841104301
 30
0.0
 10
237.8160597488198
 20
102.4289670665543
 30
0.0
 10
238.2310767658554
 20
97.90090928343196
 30
0.0
 10
238.62499606946
 20
93.55030020676877
 30
0.0
 10
239.0031658073458
 20
89.37149801729994
 30
0.0
 10
239.3606534942348
 20
85.37018460657629
 30
0.0
 10
239.5926228981712
 20
82.7598126508476
 30
0.0
 10
239.7058823529412
 20
81.48529411764706
 30
0.0
  0
SPLINE
  5
112
330
1F
100
AcDbEntity
  8
0
  6
Continuous
 62
     7
370
    25
100
AcDbSpline
210
0.0
220
0.0
230
1.0
 70
     8
 71
     3
 72
    23
 73
    19
 74
     0
 42
0.00000001
 43
0.00000001
 40
0.0
 40
0.0
 40
0.0
 40
0.0
 40
0.0639804403814758
 40
0.1241852463980568
 40
0.180096335379198
 40
0.2317438004468936
 40
0.2791658522591089
 40
0.3223404698610683
 40
0.3620091951210839
 40
0.3976495283771307
 40
0.4645388743157938
 40
0.5321386082027643
 40
0.6032975102376849
 40
0.6793971737019215
 40
0.7576170212601475
 40
0.8356506151438673
 40
0.9157495515423637
 40
1.0
 40
1.0
 40
1.0
 40
1.0
 10
247.1176470588235
 20
56.30882352941178
 30
0.0
 10
247.1173127627704
 20
56.23651618610825
 30
0.0
 10
247.1166638982505
 20
56.0961685237446
 30
0.0
 10
247.1111588811055
 20
55.89268916163869
 30
0.0
 10
247.1020886644466
 20
55.7033035656468
 30
0.0
 10
247.0896824482129
 20
55.52855613794284
 30
0.0
 10
247.0724374773874
 20
55.3687257210382
 30
0.0
 10
247.0554305925645
 20
55.22244650356156
 30
0.0
 10
247.0311994027097
 20
55.09066311570169
 30
0.0
 10
246.995559453537
 20
54.9339629000345
 30
0.0
 10
246.9315881590308
 20
54.75130628779203
 30
0.0
 10
246.8096124536455
 20
54.55181566690069
 30
0.0
 10
246.6512612161893
 20
54.3665854552575
 30
0.0
 10
246.4577566992209
 20
54.19944592595855
 30
0.0
 10
246.2354812865917
 20
54.05733141984611
 30
0.0
 10
245.9871342692644
 20
53.95575221684037
 30
0.0
 10
245.7187785269405
 20
53.89309606293053
 30
0.0
 10
245.5328252531201
 20
53.88599378362415
 30
0.0
 10
245.4375
 20
53.88235294117648
 30
0.0
  0
SPLINE
  5
113
330
1F
100
AcDbEntity
  8
0
  6
Continuous
 62
     7
370
    25
100
AcDbSpline
210
0.0
220
0.0
230
1.0
 70
     8
 71
     3
 72
    11
 73
     7
 74
     0
 42
0.00000001
 43
0.00000001
 40
0.0
 40
0.0
 40
0.0
 40
0.0
 40
0.2204364292292255
 40
0.4609125338429302
 40
0.7204364629322637
 40
0.9999999999999999
 40
0.9999999999999999
 40
0.9999999999999999
 40
0.9999999999999999
 10
265.7941176470588
 20
64.0
 30
0.0
 10
265.8210505186302
 20
63.84497067511278
 30
0.0
 10
265.8773647046432
 20
63.52081845034863
 30
0.0
 10
265.9659596946545
 20
63.01424601577825
 30
0.0
 10
266.0592509153614
 20
62.46565438016076
 30
0.0
 10
266.1243359884321
 20
62.08638822755466
 30
0.0
 10
266.1580882352941
 20
61.88970588235294
 30
0.0
  0
SPLINE
  5
114
330
1F
100
AcDbEntity
  8
0
  6
Continuous
 62
     7
370
    25
100
AcDbSpline
210
0.0
220
0.0
230
1.0
 70
     8
 71
     3
 72
    15
 73
    11
 74
     0
 42
0.00000001
 43
0.00000001
 40
0.0
 40
0.0
 40
0.0
 40
0.0
 40
0.1102677966021844
 40
0.2121134637049808
 40
0.3128586903981571
 40
0.4185628104854186
 40
0.535755935128652
 40
0.6691503455971128
 40
0.8234568389793337
 40
1.0
 40
1.0
 40
1.0
 40
1.0
 10
258.6875
 20
62.58823529411765
 30
0.0
 10
258.6479821848718
 20
62.58584786658257
 30
0.0
 10
258.5719648806071
 20
62.58125536052536
 30
0.0
 10
258.4647893565385
 20
62.54334275977367
 30
0.0
 10
258.3742271298249
 20
62.47824557280134
 30
0.0
 10
258.2988575001449
 20
62.38890955372362
 30
0.0
 10
258.2415716803239
 20
62.27368047687347
 30
0.0
 10
258.2059118916222
 20
62.13278450654965
 30
0.0
 10
258.1785747173282
 20
61.96856616714928
 30
0.0
 10
258.1772027026641
 20
61.85002103051804
 30
0.0
 10
258.1764705882353
 20
61.78676470588236
 30
0.0
  0
SPLINE
  5
115
330
1F
100
AcDbEntity
  8
0
  6
Continuous
 62
     7
370
    25
100
AcDbSpline
210
0.0
220
0.0
230
1.0
 70
     8
 71
     3
 72
    23
 73
    19
 74
     0
 42
0.00000001
 43
0.00000001
 40
0.0
 40
0.0
 40
0.0
 40
0.0
 40
0.0725143547064785
 40
0.1394966413788143
 40
0.1999289918846505
 40
0.2548498134116741
 40
0.3029898009143261
 40
0.3456483195345951
 40
0.3822068771491618
 40
0.4129984174527423
 40
0.4697939722867199
 40
0.5297111517919735
 40
0.5932775834103213
 40
0.6612074221511242
 40
0.7349238144991279
 40
0.8151333714166712
 40
0.9034747027742678
 40
1.0
 40
1.0
 40
1.0
 40
1.0
 10
257.8345588235294
 20
58.33823529411766
 30
0.0
 10
257.7523488579439
 20
58.38831429323876
 30
0.0
 10
257.5942006659967
 20
58.48465180060929
 30
0.0
 10
257.3691648778557
 20
58.625367270598
 30
0.0
 10
257.1656922519751
 20
58.75648270535702
 30
0.0
 10
256.9852326624311
 20
58.87706168880034
 30
0.0
 10
256.8253524411422
 20
58.98597741554817
 30
0.0
 10
256.688186974028
 20
59.08483294028699
 30
0.0
 10
256.5714686856314
 20
59.17264445769946
 30
0.0
 10
256.4449219199012
 20
59.27837799863903
 30
0.0
 10
256.3081583355531
 20
59.41929858965268
 30
0.0
 10
256.1624376305876
 20
59.60980390418383
 30
0.0
 10
256.0322767352175
 20
59.82858886210163
 30
0.0
 10
255.9151652296123
 20
60.0749410153182
 30
0.0
 10
255.8180203976206
 20
60.35392955090967
 30
0.0
 10
255.7554615392179
 20
60.66999284951569
 30
0.0
 10
255.7110973638175
 20
61.01957941756171
 30
0.0
 10
255.7076712474641
 20
61.26515749596417
 30
0.0
 10
255.7058823529412
 20
61.39338235294119
 30
0.0
  0
LINE
  5
116
330
1F
100
AcDbEntity
  8
0
  6
Continuous
 62
     7
370
    25
100
AcDbLine
 10
243.9411764706
 20
59.90625
 30
0.0
 11
243.9411764706
 21
56.3363970588
 31
0.0
  0
LINE
  5
117
330
1F
100
AcDbEntity
  8
0
  6
Continuous
 62
     7
370
    25
100
AcDbLine
 10
244.6470588235
 20
56.4172794118
 30
0.0
 11
244.6470588235
 21
59.90625
 31
0.0
  0
LINE
  5
118
330
1F
100
AcDbEntity
  8
0
  6
Continuous
 62
     7
370
    25
100
AcDbLine
 10
241.4705882353
 20
54.0
 30
0.0
 11
241.4705882353
 21
64.0
 31
0.0
  0
LINE
  5
119
330
1F
100
AcDbEntity
  8
0
  6
Continuous
 62
     7
370
    25
100
AcDbLine
 10
243.8235294118
 20
54.0
 30
0.0
 11
241.4705882353
 21
54.0
 31
0.0
  0
LINE
  5
11A
330
1F
100
AcDbEntity
  8
0
  6
Continuous
 62
     7
370
    25
100
AcDbLine
 10
243.9779411765
 20
54.6433823529
 30
0.0
 11
243.8235294118
 21
54.0
 31
0.0
  0
LINE
  5
11B
330
1F
100
AcDbEntity
  8
0
  6
Continuous
 62
     7
370
    25
100
AcDbLine
 10
247.1176470588
 20
59.9926470588
 30
0.0
 11
247.1176470588
 21
56.3088235294
 31
0.0
  0
LINE
  5
11C
330
1F
100
AcDbEntity
  8
0
  6
Continuous
 62
     7
370
    25
100
AcDbLine
 10
243.9411764706
 20
64.0
 30
0.0
 11
243.9411764706
 21
61.6323529412
 31
0.0
  0
LINE
  5
11D
330
1F
100
AcDbEntity
  8
0
  6
Continuous
 62
     7
370
    25
100
AcDbLine
 10
241.4705882353
 20
64.0
 30
0.0
 11
243.9411764706
 21
64.0
 31
0.0
  0
LINE
  5
11E
330
1F
100
AcDbEntity
  8
0
  6
Continuous
 62
     7
370
    25
100
AcDbLine
 10
207.6470588235
 20
67.0
 30
0.0
 11
207.6470588235
 21
117.0
 31
0.0
  0
LINE
  5
11F
330
1F
100
AcDbEntity
  8
0
  6
Continuous
 62
     7
370
    25
100
AcDbLine
 10
220.5882352941
 20
67.0
 30
0.0
 11
207.6470588235
 21
67.0
 31
0.0
  0
LINE
  5
120
330
1F
100
AcDbEntity
  8
0
  6
Continuous
 62
     7
370
    25
100
AcDbLine
 10
207.6470588235
 20
117.0
 30
0.0
 11
220.5882352941
 21
117.0
 31
0.0
  0
LINE
  5
121
330
1F
100
AcDbEntity
  8
0
  6
Continuous
 62
     7
370
    25
100
AcDbLine
 10
281.7647058824
 20
67.0
 30
0.0
 11
258.8235294118
 21
67.0
 31
0.0
  0
LINE
  5
122
330
1F
100
AcDbEntity
  8
0
  6
Continuous
 62
     7
370
    25
100
AcDbLine
 10
281.1764705882
 20
107.0
 30
0.0
 11
271.7647058824
 21
107.0
 31
0.0
  0
LINE
  5
123
330
1F
100
AcDbEntity
  8
0
  6
Continuous
 62
     7
370
    25
100
AcDbLine
 10
281.1764705882
 20
117.0
 30
0.0
 11
281.1764705882
 21
107.0
 31
0.0
  0
LINE
  5
124
330
1F
100
AcDbEntity
  8
0
  6
Continuous
 62
     7
370
    25
100
AcDbLine
 10
300.0
 20
132.0
 30
0.0
 11
0.0
 21
132.0
 31
0.0
  0
LINE
  5
125
330
1F
100
AcDbEntity
  8
0
  6
Continuous
 62
     7
370
    25
100
AcDbLine
 10
300.0
 20
0.0
 30
0.0
 11
300.0
 21
132.0
 31
0.0
  0
LINE
  5
126
330
1F
100
AcDbEntity
  8
0
  6
Continuous
 62
     7
370
    25
100
AcDbLine
 10
0.0
 20
0.0
 30
0.0
 11
300.0
 21
0.0
 31
0.0
  0
LINE
  5
127
330
1F
100
AcDbEntity
  8
0
  6
Continuous
 62
     7
370
    25
100
AcDbLine
 10
0.0
 20
132.0
 30
0.0
 11
0.0
 21
0.0
 31
0.0
  0
LINE
  5
128
330
1F
100
AcDbEntity
  8
0
  6
Continuous
 62
     7
370
    25
100
AcDbLine
 10
249.8529411765
 20
67.0
 30
0.0
 11
230.7352941176
 21
67.0
 31
0.0
  0
LINE
  5
129
330
1F
100
AcDbEntity
  8
0
  6
Continuous
 62
     7
370
    25
100
AcDbLine
 10
256.4705882353
 20
117.0
 30
0.0
 11
249.8529411765
 21
67.0
 31
0.0
  0
LINE
  5
12A
330
1F
100
AcDbEntity
  8
0
  6
Continuous
 62
     7
370
    25
100
AcDbLine
 10
250.5882352941
 20
56.5496323529
 30
0.0
 11
251.0294117647
 21
62.2352941176
 31
0.0
  0
LINE
  5
12B
330
1F
100
AcDbEntity
  8
0
  6
Continuous
 62
     7
370
    25
100
AcDbLine
 10
249.7941176471
 20
62.2352941176
 30
0.0
 11
250.5882352941
 21
56.5496323529
 31
0.0
  0
LINE
  5
12C
330
1F
100
AcDbEntity
  8
0
  6
Continuous
 62
     7
370
    25
100
AcDbLine
 10
247.4705882353
 20
62.2352941176
 30
0.0
 11
249.7941176471
 21
62.2352941176
 31
0.0
  0
LINE
  5
12D
330
1F
100
AcDbEntity
  8
0
  6
Continuous
 62
     7
370
    25
100
AcDbLine
 10
248.8713235294
 20
55.3088235294
 30
0.0
 11
247.4705882353
 21
62.2352941176
 31
0.0
  0
LINE
  5
12E
330
1F
100
AcDbEntity
  8
0
  6
Continuous
 62
     7
370
    25
100
AcDbLine
 10
248.0588235294
 20
52.8235294118
 30
0.0
 11
248.0588235294
 21
54.1176470588
 31
0.0
  0
LINE
  5
12F
330
1F
100
AcDbEntity
  8
0
  6
Continuous
 62
     7
370
    25
100
AcDbLine
 10
249.5772058824
 20
52.8235294118
 30
0.0
 11
248.0588235294
 21
52.8235294118
 31
0.0
  0
LINE
  5
130
330
1F
100
AcDbEntity
  8
0
  6
Continuous
 62
     7
370
    25
100
AcDbLine
 10
253.2058823529
 20
62.2352941176
 30
0.0
 11
252.4981617647
 21
56.2849264706
 31
0.0
  0
LINE
  5
131
330
1F
100
AcDbEntity
  8
0
  6
Continuous
 62
     7
370
    25
100
AcDbLine
 10
251.0294117647
 20
62.2352941176
 30
0.0
 11
253.2058823529
 21
62.2352941176
 31
0.0
  0
LINE
  5
132
330
1F
100
AcDbEntity
  8
0
  6
Continuous
 62
     7
370
    25
100
AcDbLine
 10
180.8132486541
 20
56.5
 30
0.0
 11
182.256624327
 21
54.0
 31
0.0
  0
LINE
  5
133
330
1F
100
AcDbEntity
  8
0
  6
Continuous
 62
     7
370
    25
100
AcDbLine
 10
182.256624327
 20
54.0
 30
0.0
 11
185.143375673
 21
54.0
 31
0.0
  0
LINE
  5
134
330
1F
100
AcDbEntity
  8
0
  6
Continuous
 62
     7
370
    25
100
AcDbLine
 10
185.143375673
 20
54.0
 30
0.0
 11
186.5867513459
 21
56.5
 31
0.0
  0
LINE
  5
135
330
1F
100
AcDbEntity
  8
0
  6
Continuous
 62
     7
370
    25
100
AcDbLine
 10
186.5867513459
 20
56.5
 30
0.0
 11
189.5132486541
 21
56.5
 31
0.0
  0
LINE
  5
136
330
1F
100
AcDbEntity
  8
0
  6
Continuous
 62
     7
370
    25
100
AcDbLine
 10
189.5132486541
 20
56.5
 30
0.0
 11
190.956624327
 21
54.0
 31
0.0
  0
LINE
  5
137
330
1F
100
AcDbEntity
  8
0
  6
Continuous
 62
     7
370
    25
100
AcDbLine
 10
190.956624327
 20
54.0
 30
0.0
 11
193.843375673
 21
54.0
 31
0.0
  0
LINE
  5
138
330
1F
100
AcDbEntity
  8
0
  6
Continuous
 62
     7
370
    25
100
AcDbLine
 10
193.843375673
 20
54.0
 30
0.0
 11
195.2867513459
 21
56.5
 31
0.0
  0
LINE
  5
139
330
1F
100
AcDbEntity
  8
0
  6
Continuous
 62
     7
370
    25
100
AcDbLine
 10
195.2867513459
 20
56.5
 30
0.0
 11
198.2132486541
 21
56.5
 31
0.0
  0
LINE
  5
13A
330
1F
100
AcDbEntity
  8
0
  6
Continuous
 62
     7
370
    25
100
AcDbLine
 10
198.2132486541
 20
56.5
 30
0.0
 11
199.656624327
 21
54.0
 31
0.0
  0
LINE
  5
13B
330
1F
100
AcDbEntity
  8
0
  6
Continuous
 62
     7
370
    25
100
AcDbLine
 10
199.656624327
 20
54.0
 30
0.0
 11
202.543375673
 21
54.0
 31
0.0
  0
LINE
  5
13C
330
1F
100
AcDbEntity
  8
0
  6
Continuous
 62
     7
370
    25
100
AcDbLine
 10
202.543375673
 20
54.0
 30
0.0
 11
203.9867513459
 21
56.5
 31
0.0
  0
LINE
  5
13D
330
1F
100
AcDbEntity
  8
0
  6
Continuous
 62
     7
370
    25
100
AcDbLine
 10
203.9867513459
 20
56.5
 30
0.0
 11
206.9132486541
 21
56.5
 31
0.0
  0
LINE
  5
13E
330
1F
100
AcDbEntity
  8
0
  6
Continuous
 62
     7
370
    25
100
AcDbLine
 10
206.9132486541
 20
56.5
 30
0.0
 11
208.356624327
 21
54.0
 31
0.0
  0
LINE
  5
13F
330
1F
100
AcDbEntity
  8
0
  6
Continuous
 62
     7
370
    25
100
AcDbLine
 10
211.243375673
 20
54.0
 30
0.0
 11
212.6867513459
 21
56.5
 31
0.0
  0
LINE
  5
140
330
1F
100
AcDbEntity
  8
0
  6
Continuous
 62
     7
370
    25
100
AcDbLine
 10
212.6867513459
 20
56.5
 30
0.0
 11
215.6132486541
 21
56.5
 31
0.0
  0
LINE
  5
141
330
1F
100
AcDbEntity
  8
0
  6
Continuous
 62
     7
370
    25
100
AcDbLine
 10
215.6132486541
 20
56.5
 30
0.0
 11
217.056624327
 21
54.0
 31
0.0
  0
LINE
  5
142
330
1F
100
AcDbEntity
  8
0
  6
Continuous
 62
     7
370
    25
100
AcDbLine
 10
217.056624327
 20
54.0
 30
0.0
 11
219.943375673
 21
54.0
 31
0.0
  0
LINE
  5
143
330
1F
100
AcDbEntity
  8
0
  6
Continuous
 62
     7
370
    25
100
AcDbLine
 10
219.943375673
 20
54.0
 30
0.0
 11
221.3867513459
 21
56.5
 31
0.0
  0
LINE
  5
144
330
1F
100
AcDbEntity
  8
0
  6
Continuous
 62
     7
370
    25
100
AcDbLine
 10
221.3867513459
 20
56.5
 30
0.0
 11
224.3132486541
 21
56.5
 31
0.0
  0
LINE
  5
145
330
1F
100
AcDbEntity
  8
0
  6
Continuous
 62
     7
370
    25
100
AcDbLine
 10
224.3132486541
 20
56.5
 30
0.0
 11
225.756624327
 21
54.0
 31
0.0
  0
LINE
  5
146
330
1F
100
AcDbEntity
  8
0
  6
Continuous
 62
     7
370
    25
100
AcDbLine
 10
225.756624327
 20
54.0
 30
0.0
 11
228.643375673
 21
54.0
 31
0.0
  0
LINE
  5
147
330
1F
100
AcDbEntity
  8
0
  6
Continuous
 62
     7
370
    25
100
AcDbLine
 10
228.643375673
 20
54.0
 30
0.0
 11
230.0867513459
 21
56.5
 31
0.0
  0
LINE
  5
148
330
1F
100
AcDbEntity
  8
0
  6
Continuous
 62
     7
370
    25
100
AcDbLine
 10
230.0867513459
 20
56.5
 30
0.0
 11
232.9735026919
 21
56.5
 31
0.0
  0
LINE
  5
149
330
1F
100
AcDbEntity
  8
0
  6
Continuous
 62
     7
370
    25
100
AcDbLine
 10
232.9735026919
 20
56.5
 30
0.0
 11
234.4168783649
 21
59.0
 31
0.0
  0
LINE
  5
14A
330
1F
100
AcDbEntity
  8
0
  6
Continuous
 62
     7
370
    25
100
AcDbLine
 10
234.4168783649
 20
59.0
 30
0.0
 11
232.9735026919
 21
61.5
 31
0.0
  0
LINE
  5
14B
330
1F
100
AcDbEntity
  8
0
  6
Continuous
 62
     7
370
    25
100
AcDbLine
 10
232.9735026919
 20
61.5
 30
0.0
 11
230.0867513459
 21
61.5
 31
0.0
  0
LINE
  5
14C
330
1F
100
AcDbEntity
  8
0
  6
Continuous
 62
     7
370
    25
100
AcDbLine
 10
230.0867513459
 20
61.5
 30
0.0
 11
228.643375673
 21
59.0
 31
0.0
  0
LINE
  5
14D
330
1F
100
AcDbEntity
  8
0
  6
Continuous
 62
     7
370
    25
100
AcDbLine
 10
225.7168783649
 20
59.0
 30
0.0
 11
224.2735026919
 21
61.5
 31
0.0
  0
LINE
  5
14E
330
1F
100
AcDbEntity
  8
0
  6
Continuous
 62
     7
370
    25
100
AcDbLine
 10
224.2735026919
 20
61.5
 30
0.0
 11
221.3867513459
 21
61.5
 31
0.0
  0
LINE
  5
14F
330
1F
100
AcDbEntity
  8
0
  6
Continuous
 62
     7
370
    25
100
AcDbLine
 10
221.3867513459
 20
61.5
 30
0.0
 11
219.943375673
 21
59.0
 31
0.0
  0
LINE
  5
150
330
1F
100
AcDbEntity
  8
0
  6
Continuous
 62
     7
370
    25
100
AcDbLine
 10
219.943375673
 20
59.0
 30
0.0
 11
217.0168783649
 21
59.0
 31
0.0
  0
LINE
  5
151
330
1F
100
AcDbEntity
  8
0
  6
Continuous
 62
     7
370
    25
100
AcDbLine
 10
217.0168783649
 20
59.0
 30
0.0
 11
215.5735026919
 21
61.5
 31
0.0
  0
LINE
  5
152
330
1F
100
AcDbEntity
  8
0
  6
Continuous
 62
     7
370
    25
100
AcDbLine
 10
215.5735026919
 20
61.5
 30
0.0
 11
212.6867513459
 21
61.5
 31
0.0
  0
LINE
  5
153
330
1F
100
AcDbEntity
  8
0
  6
Continuous
 62
     7
370
    25
100
AcDbLine
 10
212.6867513459
 20
61.5
 30
0.0
 11
211.243375673
 21
59.0
 31
0.0
  0
LINE
  5
154
330
1F
100
AcDbEntity
  8
0
  6
Continuous
 62
     7
370
    25
100
AcDbLine
 10
211.243375673
 20
59.0
 30
0.0
 11
208.3168783649
 21
59.0
 31
0.0
  0
LINE
  5
155
330
1F
100
AcDbEntity
  8
0
  6
Continuous
 62
     7
370
    25
100
AcDbLine
 10
208.3168783649
 20
59.0
 30
0.0
 11
206.8735026919
 21
61.5
 31
0.0
  0
LINE
  5
156
330
1F
100
AcDbEntity
  8
0
  6
Continuous
 62
     7
370
    25
100
AcDbLine
 10
206.8735026919
 20
61.5
 30
0.0
 11
203.9867513459
 21
61.5
 31
0.0
  0
LINE
  5
157
330
1F
100
AcDbEntity
  8
0
  6
Continuous
 62
     7
370
    25
100
AcDbLine
 10
203.9867513459
 20
61.5
 30
0.0
 11
202.543375673
 21
59.0
 31
0.0
  0
LINE
  5
158
330
1F
100
AcDbEntity
  8
0
  6
Continuous
 62
     7
370
    25
100
AcDbLine
 10
202.543375673
 20
59.0
 30
0.0
 11
199.6168783649
 21
59.0
 31
0.0
  0
LINE
  5
159
330
1F
100
AcDbEntity
  8
0
  6
Continuous
 62
     7
370
    25
100
AcDbLine
 10
199.6168783649
 20
59.0
 30
0.0
 11
198.1735026919
 21
61.5
 31
0.0
  0
LINE
  5
15A
330
1F
100
AcDbEntity
  8
0
  6
Continuous
 62
     7
370
    25
100
AcDbLine
 10
198.1735026919
 20
61.5
 30
0.0
 11
195.2867513459
 21
61.5
 31
0.0
  0
LINE
  5
15B
330
1F
100
AcDbEntity
  8
0
  6
Continuous
 62
     7
370
    25
100
AcDbLine
 10
195.2867513459
 20
61.5
 30
0.0
 11
193.843375673
 21
59.0
 31
0.0
  0
LINE
  5
15C
330
1F
100
AcDbEntity
  8
0
  6
Continuous
 62
     7
370
    25
100
AcDbLine
 10
190.9168783649
 20
59.0
 30
0.0
 11
189.4735026919
 21
61.5
 31
0.0
  0
LINE
  5
15D
330
1F
100
AcDbEntity
  8
0
  6
Continuous
 62
     7
370
    25
100
AcDbLine
 10
189.4735026919
 20
61.5
 30
0.0
 11
186.5867513459
 21
61.5
 31
0.0
  0
LINE
  5
15E
330
1F
100
AcDbEntity
  8
0
  6
Continuous
 62
     7
370
    25
100
AcDbLine
 10
186.5867513459
 20
61.5
 30
0.0
 11
185.143375673
 21
59.0
 31
0.0
  0
LINE
  5
15F
330
1F
100
AcDbEntity
  8
0
  6
Continuous
 62
     7
370
    25
100
AcDbLine
 10
185.143375673
 20
59.0
 30
0.0
 11
182.2168783649
 21
59.0
 31
0.0
  0
LINE
  5
160
330
1F
100
AcDbEntity
  8
0
  6
Continuous
 62
     7
370
    25
100
AcDbLine
 10
182.2168783649
 20
59.0
 30
0.0
 11
180.7735026919
 21
61.5
 31
0.0
  0
LINE
  5
161
330
1F
100
AcDbEntity
  8
0
  6
Continuous
 62
     7
370
    25
100
AcDbLine
 10
180.7735026919
 20
61.5
 30
0.0
 11
177.8867513459
 21
61.5
 31
0.0
  0
LINE
  5
162
330
1F
100
AcDbEntity
  8
0
  6
Continuous
 62
     7
370
    25
100
AcDbLine
 10
177.8867513459
 20
61.5
 30
0.0
 11
176.443375673
 21
59.0
 31
0.0
  0
LINE
  5
163
330
1F
100
AcDbEntity
  8
0
  6
Continuous
 62
     7
370
    25
100
AcDbLine
 10
176.443375673
 20
59.0
 30
0.0
 11
173.556624327
 21
59.0
 31
0.0
  0
LINE
  5
164
330
1F
100
AcDbEntity
  8
0
  6
Continuous
 62
     7
370
    25
100
AcDbLine
 10
173.556624327
 20
59.0
 30
0.0
 11
172.1132486541
 21
56.5
 31
0.0
  0
LINE
  5
165
330
1F
100
AcDbEntity
  8
0
  6
Continuous
 62
     7
370
    25
100
AcDbLine
 10
172.1132486541
 20
56.5
 30
0.0
 11
173.556624327
 21
54.0
 31
0.0
  0
LINE
  5
166
330
1F
100
AcDbEntity
  8
0
  6
Continuous
 62
     7
370
    25
100
AcDbLine
 10
173.556624327
 20
54.0
 30
0.0
 11
176.443375673
 21
54.0
 31
0.0
  0
LINE
  5
167
330
1F
100
AcDbEntity
  8
0
  6
Continuous
 62
     7
370
    25
100
AcDbLine
 10
176.443375673
 20
54.0
 30
0.0
 11
177.8867513459
 21
56.5
 31
0.0
  0
LINE
  5
168
330
1F
100
AcDbEntity
  8
0
  6
Continuous
 62
     7
370
    25
100
AcDbLine
 10
177.8867513459
 20
56.5
 30
0.0
 11
180.8132486541
 21
56.5
 31
0.0
  0
LINE
  5
169
330
1F
100
AcDbEntity
  8
0
  6
Continuous
 62
     7
370
    25
100
AcDbLine
 10
185.2941176471
 20
99.3529411765
 30
0.0
 11
190.0
 21
99.3529411765
 31
0.0
  0
LINE
  5
16A
330
1F
100
AcDbEntity
  8
0
  6
Continuous
 62
     7
370
    25
100
AcDbLine
 10
258.2941176471
 20
57.6470588235
 30
0.0
 11
258.2941176471
 21
56.3511029412
 31
0.0
  0
LINE
  5
16B
330
1F
100
AcDbEntity
  8
0
  6
Continuous
 62
     7
370
    25
100
AcDbLine
 10
255.8235294118
 20
57.6470588235
 30
0.0
 11
258.2941176471
 21
57.6470588235
 31
0.0
  0
LINE
  5
16C
330
1F
100
AcDbEntity
  8
0
  6
Continuous
 62
     7
370
    25
100
AcDbLine
 10
255.8235294118
 20
56.9761029412
 30
0.0
 11
255.8235294118
 21
57.6470588235
 31
0.0
  0
LINE
  5
16D
330
1F
100
AcDbEntity
  8
0
  6
Continuous
 62
     7
370
    25
100
AcDbLine
 10
185.2941176471
 20
67.0
 30
0.0
 11
172.3529411765
 21
67.0
 31
0.0
  0
LINE
  5
16E
330
1F
100
AcDbEntity
  8
0
  6
Continuous
 62
     7
370
    25
100
AcDbLine
 10
185.2941176471
 20
88.1764705882
 30
0.0
 11
185.2941176471
 21
67.0
 31
0.0
  0
LINE
  5
16F
330
1F
100
AcDbEntity
  8
0
  6
Continuous
 62
     7
370
    25
100
AcDbLine
 10
190.0
 20
88.1764705882
 30
0.0
 11
185.2941176471
 21
88.1764705882
 31
0.0
  0
LINE
  5
170
330
1F
100
AcDbEntity
  8
0
  6
Continuous
 62
     7
370
    25
100
AcDbLine
 10
190.0
 20
67.0
 30
0.0
 11
190.0
 21
88.1764705882
 31
0.0
  0
LINE
  5
171
330
1F
100
AcDbEntity
  8
0
  6
Continuous
 62
     7
370
    25
100
AcDbLine
 10
202.9411764706
 20
67.0
 30
0.0
 11
190.0
 21
67.0
 31
0.0
  0
LINE
  5
172
330
1F
100
AcDbEntity
  8
0
  6
Continuous
 62
     7
370
    25
100
AcDbLine
 10
202.9411764706
 20
117.0
 30
0.0
 11
202.9411764706
 21
67.0
 31
0.0
  0
LINE
  5
173
330
1F
100
AcDbEntity
  8
0
  6
Continuous
 62
     7
370
    25
100
AcDbLine
 10
190.0
 20
117.0
 30
0.0
 11
202.9411764706
 21
117.0
 31
0.0
  0
LINE
  5
174
330
1F
100
AcDbEntity
  8
0
  6
Continuous
 62
     7
370
    25
100
AcDbLine
 10
259.1176470588
 20
60.9411764706
 30
0.0
 11
259.1176470588
 21
61.7316176471
 31
0.0
  0
LINE
  5
175
330
1F
100
AcDbEntity
  8
0
  6
Continuous
 62
     7
370
    25
100
AcDbLine
 10
261.5882352941
 20
60.9411764706
 30
0.0
 11
259.1176470588
 21
60.9411764706
 31
0.0
  0
LINE
  5
176
330
1F
100
AcDbEntity
  8
0
  6
Continuous
 62
     7
370
    25
100
AcDbLine
 10
261.5882352941
 20
61.34375
 30
0.0
 11
261.5882352941
 21
60.9411764706
 31
0.0
  0
LINE
  5
177
330
1F
100
AcDbEntity
  8
0
  6
Continuous
 62
     7
370
    25
100
AcDbLine
 10
208.356624327
 20
54.0
 30
0.0
 11
211.243375673
 21
54.0
 31
0.0
  0
LINE
  5
178
330
1F
100
AcDbEntity
  8
0
  6
Continuous
 62
     7
370
    25
100
AcDbLine
 10
266.5882352941
 20
59.3308823529
 30
0.0
 11
267.2647058824
 21
64.0
 31
0.0
  0
LINE
  5
179
330
1F
100
AcDbEntity
  8
0
  6
Continuous
 62
     7
370
    25
100
AcDbLine
 10
266.1580882353
 20
61.8897058824
 30
0.0
 11
266.5882352941
 21
59.3308823529
 31
0.0
  0
LINE
  5
17A
330
1F
100
AcDbEntity
  8
0
  6
Continuous
 62
     7
370
    25
100
AcDbLine
 10
228.643375673
 20
59.0
 30
0.0
 11
225.7168783649
 21
59.0
 31
0.0
  0
LINE
  5
17B
330
1F
100
AcDbEntity
  8
0
  6
Continuous
 62
     7
370
    25
100
AcDbLine
 10
262.5294117647
 20
64.0
 30
0.0
 11
265.7941176471
 21
64.0
 31
0.0
  0
LINE
  5
17C
330
1F
100
AcDbEntity
  8
0
  6
Continuous
 62
     7
370
    25
100
AcDbLine
 10
262.5294117647
 20
54.0
 30
0.0
 11
262.5294117647
 21
64.0
 31
0.0
  0
LINE
  5
17D
330
1F
100
AcDbEntity
  8
0
  6
Continuous
 62
     7
370
    25
100
AcDbLine
 10
264.7647058824
 20
54.0
 30
0.0
 11
262.5294117647
 21
54.0
 31
0.0
  0
LINE
  5
17E
330
1F
100
AcDbEntity
  8
0
  6
Continuous
 62
     7
370
    25
100
AcDbLine
 10
264.8235294118
 20
60.6341911765
 30
0.0
 11
264.7647058824
 21
54.0
 31
0.0
  0
LINE
  5
17F
330
1F
100
AcDbEntity
  8
0
  6
Continuous
 62
     7
370
    25
100
AcDbLine
 10
265.7058823529
 20
54.0
 30
0.0
 11
264.8235294118
 21
60.6341911765
 31
0.0
  0
LINE
  5
180
330
1F
100
AcDbEntity
  8
0
  6
Continuous
 62
     7
370
    25
100
AcDbLine
 10
267.4705882353
 20
54.0
 30
0.0
 11
265.7058823529
 21
54.0
 31
0.0
  0
LINE
  5
181
330
1F
100
AcDbEntity
  8
0
  6
Continuous
 62
     7
370
    25
100
AcDbLine
 10
268.3529411765
 20
60.7518382353
 30
0.0
 11
267.4705882353
 21
54.0
 31
0.0
  0
LINE
  5
182
330
1F
100
AcDbEntity
  8
0
  6
Continuous
 62
     7
370
    25
100
AcDbLine
 10
268.4117647059
 20
54.0
 30
0.0
 11
268.3529411765
 21
60.7518382353
 31
0.0
  0
LINE
  5
183
330
1F
100
AcDbEntity
  8
0
  6
Continuous
 62
     7
370
    25
100
AcDbLine
 10
270.6470588235
 20
54.0
 30
0.0
 11
268.4117647059
 21
54.0
 31
0.0
  0
LINE
  5
184
330
1F
100
AcDbEntity
  8
0
  6
Continuous
 62
     7
370
    25
100
AcDbLine
 10
270.6470588235
 20
64.0
 30
0.0
 11
270.6470588235
 21
54.0
 31
0.0
  0
LINE
  5
185
330
1F
100
AcDbEntity
  8
0
  6
Continuous
 62
     7
370
    25
100
AcDbLine
 10
267.2647058824
 20
64.0
 30
0.0
 11
270.6470588235
 21
64.0
 31
0.0
  0
LINE
  5
186
330
1F
100
AcDbEntity
  8
0
  6
Continuous
 62
     7
370
    25
100
AcDbLine
 10
280.5882352941
 20
88.1764705882
 30
0.0
 11
271.7647058824
 21
88.1764705882
 31
0.0
  0
LINE
  5
187
330
1F
100
AcDbEntity
  8
0
  6
Continuous
 62
     7
370
    25
100
AcDbLine
 10
280.5882352941
 20
97.5882352941
 30
0.0
 11
280.5882352941
 21
88.1764705882
 31
0.0
  0
LINE
  5
188
330
1F
100
AcDbEntity
  8
0
  6
Continuous
 62
     7
370
    25
100
AcDbLine
 10
277.8584558824
 20
60.7261029412
 30
0.0
 11
278.2352941176
 21
56.7849264706
 31
0.0
  0
LINE
  5
189
330
1F
100
AcDbEntity
  8
0
  6
Continuous
 62
     7
370
    25
100
AcDbLine
 10
271.7647058824
 20
107.0
 30
0.0
 11
271.7647058824
 21
97.5882352941
 31
0.0
  0
LINE
  5
18A
330
1F
100
AcDbEntity
  8
0
  6
Continuous
 62
     7
370
    25
100
AcDbLine
 10
275.0110294118
 20
64.0
 30
0.0
 11
277.5404411765
 21
64.0
 31
0.0
  0
LINE
  5
18B
330
1F
100
AcDbEntity
  8
0
  6
Continuous
 62
     7
370
    25
100
AcDbLine
 10
190.0
 20
99.3529411765
 30
0.0
 11
190.0
 21
117.0
 31
0.0
  0
LINE
  5
18C
330
1F
100
AcDbEntity
  8
0
  6
Continuous
 62
     7
370
    25
100
AcDbLine
 10
273.9117647059
 20
60.5386029412
 30
0.0
 11
274.1176470588
 21
57.0202205882
 31
0.0
  0
LINE
  5
18D
330
1F
100
AcDbEntity
  8
0
  6
Continuous
 62
     7
370
    25
100
AcDbLine
 10
273.7058823529
 20
64.0
 30
0.0
 11
273.9117647059
 21
60.5386029412
 31
0.0
  0
LINE
  5
18E
330
1F
100
AcDbEntity
  8
0
  6
Continuous
 62
     7
370
    25
100
AcDbLine
 10
271.2352941176
 20
64.0
 30
0.0
 11
273.7058823529
 21
64.0
 31
0.0
  0
LINE
  5
18F
330
1F
100
AcDbEntity
  8
0
  6
Continuous
 62
     7
370
    25
100
AcDbLine
 10
272.4154411765
 20
54.0
 30
0.0
 11
271.2352941176
 21
64.0
 31
0.0
  0
LINE
  5
190
330
1F
100
AcDbEntity
  8
0
  6
Continuous
 62
     7
370
    25
100
AcDbLine
 10
275.5073529412
 20
54.0
 30
0.0
 11
272.4154411765
 21
54.0
 31
0.0
  0
LINE
  5
191
330
1F
100
AcDbEntity
  8
0
  6
Continuous
 62
     7
370
    25
100
AcDbLine
 10
242.9411764706
 20
117.0
 30
0.0
 11
256.4705882353
 21
117.0
 31
0.0
  0
LINE
  5
192
330
1F
100
AcDbEntity
  8
0
  6
Continuous
 62
     7
370
    25
100
AcDbLine
 10
280.1783088235
 20
54.0
 30
0.0
 11
277.0680147059
 21
54.0
 31
0.0
  0
LINE
  5
193
330
1F
100
AcDbEntity
  8
0
  6
Continuous
 62
     7
370
    25
100
AcDbLine
 10
281.3529411765
 20
64.0
 30
0.0
 11
280.1783088235
 21
54.0
 31
0.0
  0
LINE
  5
194
330
1F
100
AcDbEntity
  8
0
  6
Continuous
 62
     7
370
    25
100
AcDbLine
 10
278.8823529412
 20
64.0
 30
0.0
 11
281.3529411765
 21
64.0
 31
0.0
  0
LINE
  5
195
330
1F
100
AcDbEntity
  8
0
  6
Continuous
 62
     7
370
    25
100
AcDbLine
 10
193.843375673
 20
59.0
 30
0.0
 11
190.9168783649
 21
59.0
 31
0.0
  0
LINE
  5
196
330
1F
100
AcDbEntity
  8
0
  6
Continuous
 62
     7
370
    25
100
AcDbLine
 10
271.7647058824
 20
88.1764705882
 30
0.0
 11
271.7647058824
 21
77.0
 31
0.0
  0
LINE
  5
197
330
1F
100
AcDbEntity
  8
0
  6
Continuous
 62
     7
370
    25
100
AcDbLine
 10
258.8235294118
 20
117.0
 30
0.0
 11
281.1764705882
 21
117.0
 31
0.0
  0
LINE
  5
198
330
1F
100
AcDbEntity
  8
0
  6
Continuous
 62
     7
370
    25
100
AcDbLine
 10
185.2941176471
 20
117.0
 30
0.0
 11
185.2941176471
 21
99.3529411765
 31
0.0
  0
LINE
  5
199
330
1F
100
AcDbEntity
  8
0
  6
Continuous
 62
     7
370
    25
100
AcDbLine
 10
172.3529411765
 20
117.0
 30
0.0
 11
185.2941176471
 21
117.0
 31
0.0
  0
LINE
  5
19A
330
1F
100
AcDbEntity
  8
0
  6
Continuous
 62
     7
370
    25
100
AcDbLine
 10
172.3529411765
 20
67.0
 30
0.0
 11
172.3529411765
 21
117.0
 31
0.0
  0
LINE
  5
19B
330
1F
100
AcDbEntity
  8
0
  6
Continuous
 62
     7
370
    25
100
AcDbLine
 10
271.7647058824
 20
77.0
 30
0.0
 11
281.7647058824
 21
77.0
 31
0.0
  0
LINE
  5
19C
330
1F
100
AcDbEntity
  8
0
  6
Continuous
 62
     7
370
    25
100
AcDbLine
 10
242.0863970588
 20
107.8639705882
 30
0.0
 11
242.9411764706
 21
117.0
 31
0.0
  0
LINE
  5
19D
330
1F
100
AcDbEntity
  8
0
  6
Continuous
 62
     7
370
    25
100
AcDbLine
 10
230.7352941176
 20
67.0
 30
0.0
 11
222.9411764706
 21
117.0
 31
0.0
  0
LINE
  5
19E
330
1F
100
AcDbEntity
  8
0
  6
Continuous
 62
     7
370
    25
100
AcDbLine
 10
258.8235294118
 20
67.0
 30
0.0
 11
258.8235294118
 21
117.0
 31
0.0
  0
LINE
  5
19F
330
1F
100
AcDbEntity
  8
0
  6
Continuous
 62
     7
370
    25
100
AcDbLine
 10
271.7647058824
 20
97.5882352941
 30
0.0
 11
280.5882352941
 21
97.5882352941
 31
0.0
  0
LINE
  5
1A0
330
1F
100
AcDbEntity
  8
0
  6
Continuous
 62
     7
370
    25
100
AcDbLine
 10
220.5882352941
 20
117.0
 30
0.0
 11
220.5882352941
 21
67.0
 31
0.0
  0
LINE
  5
1A1
330
1F
100
AcDbEntity
  8
0
  6
Continuous
 62
     7
370
    25
100
AcDbLine
 10
281.7647058824
 20
77.0
 30
0.0
 11
281.7647058824
 21
67.0
 31
0.0
  0
LINE
  5
1A2
330
1F
100
AcDbEntity
  8
0
  6
Continuous
 62
     7
370
    25
100
AcDbLine
 10
222.9411764706
 20
117.0
 30
0.0
 11
236.4705882353
 21
117.0
 31
0.0
  0
MTEXT
  5
1A4
330
1F
100
AcDbEntity
  8
0
  6
Continuous
 62
     7
100
AcDbMText
 10
0.0
 20
-1.0195663917
 30
0.0
 40
4.83362
 41
0.0
 71
     1
 72
     1
  1
SOLIDWORKS Lehrprodukt - Nur fr Lehrzwecke.
  7
SLDTEXTSTYLE0
 73
     1
 44
1.0
  0
ENDSEC
  0
SECTION
  2
OBJECTS
  0
DICTIONARY
  5
C
330
0
100
AcDbDictionary
281
     1
  3
ACAD_GROUP
350
D
  3
ACAD_LAYOUT
350
1A
  3
ACAD_MLINESTYLE
350
17
  3
ACAD_PLOTSETTINGS
350
19
  3
ACAD_PLOTSTYLENAME
350
E
  3
ACAD_SCALELIST
350
47
  3
DWGPROPS
350
1A5
  0
DICTIONARY
  5
D
102
{ACAD_REACTORS
330
C
102
}
330
C
100
AcDbDictionary
281
     1
  0
DICTIONARY
  5
1A
102
{ACAD_REACTORS
330
C
102
}
330
C
100
AcDbDictionary
281
     1
  3
Layout1
350
1E
  3
Layout2
350
26
  3
Model
350
22
  0
DICTIONARY
  5
17
102
{ACAD_REACTORS
330
C
102
}
330
C
100
AcDbDictionary
281
     1
  3
Standard
350
18
  0
DICTIONARY
  5
19
102
{ACAD_REACTORS
330
C
102
}
330
C
100
AcDbDictionary
281
     1
  0
ACDBDICTIONARYWDFLT
  5
E
102
{ACAD_REACTORS
330
C
102
}
330
C
100
AcDbDictionary
281
     1
  3
Normal
350
F
100
AcDbDictionaryWithDefault
340
F
  0
DICTIONARY
  5
47
102
{ACAD_REACTORS
330
C
102
}
330
C
100
AcDbDictionary
281
     1
  3
A0
350
48
  3
A1
350
49
  3
A2
350
4A
  3
A3
350
4B
  3
A4
350
4C
  3
A5
350
4D
  3
A6
350
4E
  3
A7
350
4F
  3
A8
350
50
  3
A9
350
51
  3
B0
350
52
  3
B1
350
53
  3
B2
350
54
  3
B3
350
55
  3
B4
350
56
  3
B5
350
57
  3
B6
350
58
  0
XRECORD
  5
1A5
102
{ACAD_REACTORS
330
C
102
}
330
C
100
AcDbXrecord
280
     1
  1
DWGPROPS COOKIE
  2

  3

  4

  6

  7

  8
simon
  9

300
=
301
=
302
=
303
=
304
=
305
=
306
=
307
=
308
=
309
=
 40
0.0
 41
2460061.622805116
 42
2460061.623074907
  1

 90
        0
  0
LAYOUT
  5
1E
102
{ACAD_REACTORS
330
1A
102
}
330
1A
100
AcDbPlotSettings
  1

  2
none_device
  4

  6

 40
0.0
 41
0.0
 42
0.0
 43
0.0
 44
0.0
 45
0.0
 46
0.0
 47
0.0
 48
0.0
 49
0.0
140
0.0
141
0.0
142
1.0
143
1.0
 70
   688
 72
     1
 73
     0
 74
     5
  7

 75
    16
147
1.0
148
0.0
149
0.0
100
AcDbLayout
  1
Layout1
 70
     1
 71
     1
 10
0.0
 20
0.0
 11
420.0
 21
297.0
 12
0.0
 22
0.0
 32
0.0
 14
1.0000000000E+20
 24
1.0000000000E+20
 34
1.0000000000E+20
 15
-1.0000000000E+20
 25
-1.0000000000E+20
 35
-1.0000000000E+20
146
0.0
 13
0.0
 23
0.0
 33
0.0
 16
1.0
 26
0.0
 36
0.0
 17
0.0
 27
1.0
 37
0.0
 76
     0
330
1B
  0
LAYOUT
  5
26
102
{ACAD_REACTORS
330
1A
102
}
330
1A
100
AcDbPlotSettings
  1

  2
none_device
  4

  6

 40
0.0
 41
0.0
 42
0.0
 43
0.0
 44
0.0
 45
0.0
 46
0.0
 47
0.0
 48
0.0
 49
0.0
140
0.0
141
0.0
142
1.0
143
1.0
 70
   688
 72
     1
 73
     0
 74
     5
  7

 75
    16
147
1.0
148
0.0
149
0.0
100
AcDbLayout
  1
Layout2
 70
     1
 71
     2
 10
0.0
 20
0.0
 11
0.0
 21
0.0
 12
0.0
 22
0.0
 32
0.0
 14
0.0
 24
0.0
 34
0.0
 15
0.0
 25
0.0
 35
0.0
146
0.0
 13
0.0
 23
0.0
 33
0.0
 16
1.0
 26
0.0
 36
0.0
 17
0.0
 27
1.0
 37
0.0
 76
     0
330
23
  0
LAYOUT
  5
22
102
{ACAD_REACTORS
330
1A
102
}
330
1A
100
AcDbPlotSettings
  1

  2
none_device
  4
ANSI_A_(11.00_x_8.50_Inches)
  6

 40
6.35
 41
19.05
 42
6.35000508
 43
19.05000254
 44
279.4
 45
215.9
 46
-4.95300254
 47
28.04667873
 48
0.0
 49
0.0
140
0.0
141
0.0
142
0.0363
143
1.0
 70
  1696
 72
     0
 73
     0
 74
     0
  7

 75
     0
147
0.0179189148
148
-1300.4909072572
149
0.0
100
AcDbLayout
  1
Model
 70
     1
 71
     0
 10
0.0
 20
0.0
 11
420.0
 21
297.0
 12
0.0
 22
0.0
 32
0.0
 14
0.0
 24
0.0
 34
0.0
 15
300.0
 25
132.0
 35
0.0
146
0.0
 13
0.0
 23
0.0
 33
0.0
 16
1.0
 26
0.0
 36
0.0
 17
0.0
 27
1.0
 37
0.0
 76
     0
330
1F
331
29
  0
MLINESTYLE
  5
18
102
{ACAD_REACTORS
330
17
102
}
330
17
100
AcDbMlineStyle
  2
Standard
 70
     0
  3

 62
   256
 51
90.0
 52
90.0
 71
     2
 49
0.5
 62
   256
  6
BYLAYER
 49
-0.5
 62
   256
  6
BYLAYER
  0
ACDBPLACEHOLDER
  5
F
102
{ACAD_REACTORS
330
E
102
}
330
E
  0
SCALE
  5
48
102
{ACAD_REACTORS
330
47
102
}
330
47
100
AcDbScale
 70
     0
300
1:1
140
1.0
141
1.0
290
     1
  0
SCALE
  5
49
102
{ACAD_REACTORS
330
47
102
}
330
47
100
AcDbScale
 70
     0
300
1:2
140
1.0
141
2.0
290
     0
  0
SCALE
  5
4A
102
{ACAD_REACTORS
330
47
102
}
330
47
100
AcDbScale
 70
     0
300
1:4
140
1.0
141
4.0
290
     0
  0
SCALE
  5
4B
102
{ACAD_REACTORS
330
47
102
}
330
47
100
AcDbScale
 70
     0
300
1:5
140
1.0
141
5.0
290
     0
  0
SCALE
  5
4C
102
{ACAD_REACTORS
330
47
102
}
330
47
100
AcDbScale
 70
     0
300
1:8
140
1.0
141
8.0
290
     0
  0
SCALE
  5
4D
102
{ACAD_REACTORS
330
47
102
}
330
47
100
AcDbScale
 70
     0
300
1:10
140
1.0
141
10.0
290
     0
  0
SCALE
  5
4E
102
{ACAD_REACTORS
330
47
102
}
330
47
100
AcDbScale
 70
     0
300
1:16
140
1.0
141
16.0
290
     0
  0
SCALE
  5
4F
102
{ACAD_REACTORS
330
47
102
}
330
47
100
AcDbScale
 70
     0
300
1:20
140
1.0
141
20.0
290
     0
  0
SCALE
  5
50
102
{ACAD_REACTORS
330
47
102
}
330
47
100
AcDbScale
 70
     0
300
1:30
140
1.0
141
30.0
290
     0
  0
SCALE
  5
51
102
{ACAD_REACTORS
330
47
102
}
330
47
100
AcDbScale
 70
     0
300
1:40
140
1.0
141
40.0
290
     0
  0
SCALE
  5
52
102
{ACAD_REACTORS
330
47
102
}
330
47
100
AcDbScale
 70
     0
300
1:50
140
1.0
141
50.0
290
     0
  0
SCALE
  5
53
102
{ACAD_REACTORS
330
47
102
}
330
47
100
AcDbScale
 70
     0
300
1:100
140
1.0
141
100.0
290
     0
  0
SCALE
  5
54
102
{ACAD_REACTORS
330
47
102
}
330
47
100
AcDbScale
 70
     0
300
2:1
140
2.0
141
1.0
290
     0
  0
SCALE
  5
55
102
{ACAD_REACTORS
330
47
102
}
330
47
100
AcDbScale
 70
     0
300
4:1
140
4.0
141
1.0
290
     0
  0
SCALE
  5
56
102
{ACAD_REACTORS
330
47
102
}
330
47
100
AcDbScale
 70
     0
300
8:1
140
8.0
141
1.0
290
     0
  0
SCALE
  5
57
102
{ACAD_REACTORS
330
47
102
}
330
47
100
AcDbScale
 70
     0
300
10:1
140
10.0
141
1.0
290
     0
  0
SCALE
  5
58
102
{ACAD_REACTORS
330
47
102
}
330
47
100
AcDbScale
 70
     0
300
100:1
140
100.0
141
1.0
290
     0
  0
ENDSEC
  0
EOF
