  0
SECTION
  2
HEADER
  9
$ACADVER
  1
AC1015
  9
$ACADMAINTVER
 70
     6
  9
$DWGCODEPAGE
  3
ANSI_1252
  9
$INSBASE
 10
0.0
 20
0.0
 30
0.0
  9
$EXTMIN
 10
-77.0483050598
 20
0.0
 30
0.0
  9
$EXTMAX
 10
202.9516949402
 20
242.4871130596
 30
0.0
  9
$LIMMIN
 10
0.0
 20
0.0
  9
$LIMMAX
 10
420.0
 20
297.0
  9
$ORTHOMODE
 70
     0
  9
$REGENMODE
 70
     1
  9
$FILLMODE
 70
     1
  9
$QTEXTMODE
 70
     0
  9
$MIRRTEXT
 70
     1
  9
$LTSCALE
 40
1.0
  9
$ATTMODE
 70
     1
  9
$TEXTSIZE
 40
2.8222222222
  9
$TRACEWID
 40
1.0
  9
$TEXTSTYLE
  7
Standard
  9
$CLAYER
  8
0
  9
$CELTYPE
  6
ByLayer
  9
$CECOLOR
 62
   256
  9
$CELTSCALE
 40
1.0
  9
$DISPSILH
 70
     0
  9
$DIMSCALE
 40
1.0
  9
$DIMASZ
 40
3.302
  9
$DIMEXO
 40
0.0
  9
$DIMDLI
 40
3.75
  9
$DIMRND
 40
0.0
  9
$DIMDLE
 40
0.0
  9
$DIMEXE
 40
1.0
  9
$DIMTP
 40
0.0
  9
$DIMTM
 40
0.0
  9
$DIMTXT
 40
2.8222222222
  9
$DIMCEN
 40
2.5
  9
$DIMTSZ
 40
0.0
  9
$DIMTOL
 70
     0
  9
$DIMLIM
 70
     0
  9
$DIMTIH
 70
     1
  9
$DIMTOH
 70
     1
  9
$DIMSE1
 70
     0
  9
$DIMSE2
 70
     0
  9
$DIMTAD
 70
     1
  9
$DIMZIN
 70
     0
  9
$DIMBLK
  1

  9
$DIMASO
 70
     1
  9
$DIMSHO
 70
     1
  9
$DIMPOST
  1

  9
$DIMAPOST
  1

  9
$DIMALT
 70
     0
  9
$DIMALTD
 70
     3
  9
$DIMALTF
 40
0.0393700787
  9
$DIMLFAC
 40
1.0
  9
$DIMTOFL
 70
     1
  9
$DIMTVP
 40
0.0
  9
$DIMTIX
 70
     0
  9
$DIMSOXD
 70
     0
  9
$DIMSAH
 70
     0
  9
$DIMBLK1
  1

  9
$DIMBLK2
  1

  9
$DIMSTYLE
  2
ISO-25
  9
$DIMCLRD
 70
     0
  9
$DIMCLRE
 70
     0
  9
$DIMCLRT
 70
     0
  9
$DIMTFAC
 40
1.0
  9
$DIMGAP
 40
1.524
  9
$DIMJUST
 70
     0
  9
$DIMSD1
 70
     0
  9
$DIMSD2
 70
     0
  9
$DIMTOLJ
 70
     0
  9
$DIMTZIN
 70
     0
  9
$DIMALTZ
 70
     0
  9
$DIMALTTZ
 70
     0
  9
$DIMUPT
 70
     0
  9
$DIMDEC
 70
     2
  9
$DIMTDEC
 70
     2
  9
$DIMALTU
 70
     2
  9
$DIMALTTD
 70
     3
  9
$DIMTXSTY
  7
Standard
  9
$DIMAUNIT
 70
     0
  9
$DIMADEC
 70
     2
  9
$DIMALTRND
 40
0.0
  9
$DIMAZIN
 70
     0
  9
$DIMDSEP
 70
    44
  9
$DIMATFIT
 70
     3
  9
$DIMFRAC
 70
     0
  9
$DIMLDRBLK
  1

  9
$DIMLUNIT
 70
     2
  9
$DIMLWD
 70
    -2
  9
$DIMLWE
 70
    -2
  9
$DIMTMOVE
 70
     0
  9
$LUNITS
 70
     2
  9
$LUPREC
 70
     2
  9
$SKETCHINC
 40
1.0
  9
$FILLETRAD
 40
0.0
  9
$AUNITS
 70
     0
  9
$AUPREC
 70
     2
  9
$MENU
  1
.
  9
$ELEVATION
 40
0.0
  9
$PELEVATION
 40
0.0
  9
$THICKNESS
 40
0.0
  9
$LIMCHECK
 70
     0
  9
$CHAMFERA
 40
0.0
  9
$CHAMFERB
 40
0.0
  9
$CHAMFERC
 40
0.0
  9
$CHAMFERD
 40
0.0
  9
$SKPOLY
 70
     0
  9
$TDCREATE
 40
2460055.866739572
  9
$TDUCREATE
 40
2460055.783406239
  9
$TDUPDATE
 40
2460055.866896551
  9
$TDUUPDATE
 40
2460055.783563218
  9
$TDINDWG
 40
0.0000000116
  9
$TDUSRTIMER
 40
0.0000000116
  9
$USRTIMER
 70
     1
  9
$ANGBASE
 50
0.0
  9
$ANGDIR
 70
     0
  9
$PDMODE
 70
     0
  9
$PDSIZE
 40
-1.0
  9
$PLINEWID
 40
0.0
  9
$SPLFRAME
 70
     0
  9
$SPLINETYPE
 70
     6
  9
$SPLINESEGS
 70
     8
  9
$HANDSEED
  5
1F3
  9
$SURFTAB1
 70
     6
  9
$SURFTAB2
 70
     6
  9
$SURFTYPE
 70
     6
  9
$SURFU
 70
     6
  9
$SURFV
 70
     6
  9
$UCSBASE
  2

  9
$UCSNAME
  2

  9
$UCSORG
 10
0.0
 20
0.0
 30
0.0
  9
$UCSXDIR
 10
1.0
 20
0.0
 30
0.0
  9
$UCSYDIR
 10
0.0
 20
1.0
 30
0.0
  9
$UCSORTHOREF
  2

  9
$UCSORTHOVIEW
 70
     0
  9
$UCSORGTOP
 10
0.0
 20
0.0
 30
0.0
  9
$UCSORGBOTTOM
 10
0.0
 20
0.0
 30
0.0
  9
$UCSORGLEFT
 10
0.0
 20
0.0
 30
0.0
  9
$UCSORGRIGHT
 10
0.0
 20
0.0
 30
0.0
  9
$UCSORGFRONT
 10
0.0
 20
0.0
 30
0.0
  9
$UCSORGBACK
 10
0.0
 20
0.0
 30
0.0
  9
$PUCSBASE
  2

  9
$PUCSNAME
  2

  9
$PUCSORG
 10
0.0
 20
0.0
 30
0.0
  9
$PUCSXDIR
 10
1.0
 20
0.0
 30
0.0
  9
$PUCSYDIR
 10
0.0
 20
1.0
 30
0.0
  9
$PUCSORTHOREF
  2

  9
$PUCSORTHOVIEW
 70
     0
  9
$PUCSORGTOP
 10
0.0
 20
0.0
 30
0.0
  9
$PUCSORGBOTTOM
 10
0.0
 20
0.0
 30
0.0
  9
$PUCSORGLEFT
 10
0.0
 20
0.0
 30
0.0
  9
$PUCSORGRIGHT
 10
0.0
 20
0.0
 30
0.0
  9
$PUCSORGFRONT
 10
0.0
 20
0.0
 30
0.0
  9
$PUCSORGBACK
 10
0.0
 20
0.0
 30
0.0
  9
$USERI1
 70
     0
  9
$USERI2
 70
     0
  9
$USERI3
 70
     0
  9
$USERI4
 70
     0
  9
$USERI5
 70
     0
  9
$USERR1
 40
0.0
  9
$USERR2
 40
0.0
  9
$USERR3
 40
0.0
  9
$USERR4
 40
0.0
  9
$USERR5
 40
0.0
  9
$WORLDVIEW
 70
     1
  9
$SHADEDGE
 70
     3
  9
$SHADEDIF
 70
    70
  9
$TILEMODE
 70
     1
  9
$MAXACTVP
 70
    64
  9
$PINSBASE
 10
0.0
 20
0.0
 30
0.0
  9
$PLIMCHECK
 70
     0
  9
$PEXTMIN
 10
1.0000000000E+20
 20
1.0000000000E+20
 30
1.0000000000E+20
  9
$PEXTMAX
 10
-1.0000000000E+20
 20
-1.0000000000E+20
 30
-1.0000000000E+20
  9
$PLIMMIN
 10
0.0
 20
0.0
  9
$PLIMMAX
 10
420.0
 20
297.0
  9
$UNITMODE
 70
     0
  9
$VISRETAIN
 70
     1
  9
$PLINEGEN
 70
     0
  9
$PSLTSCALE
 70
     1
  9
$TREEDEPTH
 70
  3020
  9
$CMLSTYLE
  2
Standard
  9
$CMLJUST
 70
     0
  9
$CMLSCALE
 40
20.0
  9
$PROXYGRAPHICS
 70
     1
  9
$MEASUREMENT
 70
     1
  9
$CELWEIGHT
370
    -1
  9
$ENDCAPS
280
     0
  9
$JOINSTYLE
280
     0
  9
$LWDISPLAY
290
     1
  9
$INSUNITS
 70
     4
  9
$HYPERLINKBASE
  1

  9
$STYLESHEET
  1

  9
$XEDIT
290
     1
  9
$CEPSNTYPE
380
     0
  9
$PSTYLEMODE
290
     1
  9
$FINGERPRINTGUID
  2
{21f4fcc0-7ab5-4636-a1cf-f04bd5bc898c}
  9
$VERSIONGUID
  2
{FAEB1C32-E019-11D5-929B-00C0DF256EC4}
  9
$EXTNAMES
290
     1
  9
$PSVPSCALE
 40
0.0
  9
$OLESTARTUP
290
     0
  0
ENDSEC
  0
SECTION
  2
CLASSES
  0
CLASS
  1
ACDBDICTIONARYWDFLT
  2
AcDbDictionaryWithDefault
  3
ObjectDBX Classes
 90
        0
280
     0
281
     0
  0
CLASS
  1
VISUALSTYLE
  2
AcDbVisualStyle
  3
ObjectDBX Classes
 90
     4095
280
     0
281
     0
  0
CLASS
  1
MATERIAL
  2
AcDbMaterial
  3
ObjectDBX Classes
 90
     1153
280
     0
281
     0
  0
CLASS
  1
SCALE
  2
AcDbScale
  3
ObjectDBX Classes
 90
     1153
280
     0
281
     0
  0
CLASS
  1
TABLESTYLE
  2
AcDbTableStyle
  3
ObjectDBX Classes
 90
     4095
280
     0
281
     0
  0
CLASS
  1
MLEADERSTYLE
  2
AcDbMLeaderStyle
  3
ACDB_MLEADERSTYLE_CLASS
 90
     4095
280
     0
281
     0
  0
CLASS
  1
SUN
  2
AcDbSun
  3
SCENEOE
 90
     1153
280
     0
281
     0
  0
CLASS
  1
ACDBPLACEHOLDER
  2
AcDbPlaceHolder
  3
ObjectDBX Classes
 90
        0
280
     0
281
     0
  0
CLASS
  1
LAYOUT
  2
AcDbLayout
  3
ObjectDBX Classes
 90
        0
280
     0
281
     0
  0
ENDSEC
  0
SECTION
  2
TABLES
  0
TABLE
  2
VPORT
  5
8
330
0
100
AcDbSymbolTable
 70
     1
  0
VPORT
  5
29
330
8
100
AcDbSymbolTableRecord
100
AcDbViewportTableRecord
  2
*Active
 70
     0
 10
0.0
 20
0.0
 11
1.0
 21
1.0
 12
62.9516949402
 22
121.2435565298
 13
0.0
 23
0.0
 14
10.0
 24
10.0
 15
10.0
 25
10.0
 16
0.0
 26
0.0
 36
1.0
 17
0.0
 27
0.0
 37
0.0
 40
247.3368553208
 41
1.1547005384
 42
50.0
 43
0.0
 44
0.0
 50
0.0
 51
0.0
 71
     0
 72
   100
 73
     1
 74
     3
 75
     0
 76
     0
 77
     0
 78
     0
281
     0
 65
     1
110
0.0
120
0.0
130
0.0
111
1.0
121
0.0
131
0.0
112
0.0
122
1.0
132
0.0
 79
     0
146
0.0
  0
ENDTAB
  0
TABLE
  2
LTYPE
  5
5
330
0
100
AcDbSymbolTable
 70
     6
  0
LTYPE
  5
14
330
5
100
AcDbSymbolTableRecord
100
AcDbLinetypeTableRecord
  2
ByBlock
 70
     0
  3

 72
    65
 73
     0
 40
0.0
  0
LTYPE
  5
15
330
5
100
AcDbSymbolTableRecord
100
AcDbLinetypeTableRecord
  2
ByLayer
 70
     0
  3

 72
    65
 73
     0
 40
0.0
  0
LTYPE
  5
16
330
5
100
AcDbSymbolTableRecord
100
AcDbLinetypeTableRecord
  2
Continuous
 70
     0
  3
Solid line
 72
    65
 73
     0
 40
0.0
  0
LTYPE
  5
5E
330
5
100
AcDbSymbolTableRecord
100
AcDbLinetypeTableRecord
  2
HIDDEN
 70
     0
  3
Hidden __ __ __ __ __ __ __ __ __ __ __ __ __ __
 72
    65
 73
     2
 40
1.905
 49
1.27
 74
     0
 49
-0.635
 74
     0
  0
LTYPE
  5
5F
330
5
100
AcDbSymbolTableRecord
100
AcDbLinetypeTableRecord
  2
PHANTOM
 70
     0
  3
Phantom ______  __  __  ______  __  __  ______
 72
    65
 73
     6
 40
12.7
 49
6.35
 74
     0
 49
-1.27
 74
     0
 49
1.27
 74
     0
 49
-1.27
 74
     0
 49
1.27
 74
     0
 49
-1.27
 74
     0
  0
LTYPE
  5
60
330
5
100
AcDbSymbolTableRecord
100
AcDbLinetypeTableRecord
  2
CENTER
 70
     0
  3
Center ____ _ ____ _ ____ _ ____ _ ____ _ ____
 72
    65
 73
     4
 40
10.16
 49
6.35
 74
     0
 49
-1.27
 74
     0
 49
1.27
 74
     0
 49
-1.27
 74
     0
  0
LTYPE
  5
61
330
5
100
AcDbSymbolTableRecord
100
AcDbLinetypeTableRecord
  2
CENTERX2
 70
     0
  3
Center (2x) ________  __  ________  __  _____
 72
    65
 73
     4
 40
20.32
 49
12.7
 74
     0
 49
-2.54
 74
     0
 49
2.54
 74
     0
 49
-2.54
 74
     0
  0
LTYPE
  5
62
330
5
100
AcDbSymbolTableRecord
100
AcDbLinetypeTableRecord
  2
DOT2
 70
     0
  3
Dot (.5x) ........................................
 72
    65
 73
     2
 40
0.635
 49
0.0
 74
     0
 49
-0.635
 74
     0
  0
ENDTAB
  0
TABLE
  2
LAYER
  5
2
330
0
100
AcDbSymbolTable
 70
     1
  0
LAYER
  5
10
330
2
100
AcDbSymbolTableRecord
100
AcDbLayerTableRecord
  2
0
 70
     0
 62
     7
  6
Continuous
370
    -3
390
F
  0
ENDTAB
  0
TABLE
  2
STYLE
  5
3
330
0
100
AcDbSymbolTable
 70
     2
  0
STYLE
  5
11
330
3
100
AcDbSymbolTableRecord
100
AcDbTextStyleTableRecord
  2
Standard
 70
     0
 40
0.0
 41
1.0
 50
0.0
 71
     0
 42
2.8222222222
  3
txt
  4

  0
STYLE
  5
1F0
330
3
100
AcDbSymbolTableRecord
100
AcDbTextStyleTableRecord
  2
SLDTEXTSTYLE0
 70
     0
 40
0.0
 41
0.7
 50
0.0
 71
     0
 42
2.8222222222
  3
TXT
  4

  0
ENDTAB
  0
TABLE
  2
VIEW
  5
6
330
0
100
AcDbSymbolTable
 70
     0
  0
ENDTAB
  0
TABLE
  2
UCS
  5
7
330
0
100
AcDbSymbolTable
 70
     0
  0
ENDTAB
  0
TABLE
  2
APPID
  5
9
330
0
100
AcDbSymbolTable
 70
     1
  0
APPID
  5
12
330
9
100
AcDbSymbolTableRecord
100
AcDbRegAppTableRecord
  2
ACAD
 70
     0
  0
ENDTAB
  0
TABLE
  2
DIMSTYLE
  5
A
330
0
100
AcDbSymbolTable
 70
     1
100
AcDbDimStyleTable
  0
DIMSTYLE
105
27
330
A
100
AcDbSymbolTableRecord
100
AcDbDimStyleTableRecord
  2
ISO-25
 70
     0
 41
2.5
 42
0.625
 43
3.75
 44
1.25
 73
     0
 74
     0
 77
     1
 78
     8
140
2.5
141
2.5
143
0.0393700787
147
0.625
171
     3
172
     1
178
     0
271
     2
272
     2
274
     3
278
    44
283
     0
284
     8
340
11
  0
ENDTAB
  0
TABLE
  2
BLOCK_RECORD
  5
1
330
0
100
AcDbSymbolTable
 70
     1
  0
BLOCK_RECORD
  5
1F
330
1
100
AcDbSymbolTableRecord
100
AcDbBlockTableRecord
  2
*Model_Space
340
22
  0
BLOCK_RECORD
  5
1B
330
1
100
AcDbSymbolTableRecord
100
AcDbBlockTableRecord
  2
*Paper_Space
340
1E
  0
BLOCK_RECORD
  5
23
330
1
100
AcDbSymbolTableRecord
100
AcDbBlockTableRecord
  2
*Paper_Space0
340
26
  0
ENDTAB
  0
ENDSEC
  0
SECTION
  2
BLOCKS
  0
BLOCK
  5
20
330
1F
100
AcDbEntity
  8
0
100
AcDbBlockBegin
  2
*Model_Space
 70
     0
 10
0.0
 20
0.0
 30
0.0
  3
*Model_Space
  1

  0
ENDBLK
  5
21
330
1F
100
AcDbEntity
  8
0
100
AcDbBlockEnd
  0
BLOCK
  5
1C
330
1B
100
AcDbEntity
 67
     1
  8
0
100
AcDbBlockBegin
  2
*Paper_Space
 70
     0
 10
0.0
 20
0.0
 30
0.0
  3
*Paper_Space
  1

  0
ENDBLK
  5
1D
330
1B
100
AcDbEntity
 67
     1
  8
0
100
AcDbBlockEnd
  0
BLOCK
  5
24
330
23
100
AcDbEntity
  8
0
100
AcDbBlockBegin
  2
*Paper_Space0
 70
     0
 10
0.0
 20
0.0
 30
0.0
  3
*Paper_Space0
  1

  0
ENDBLK
  5
25
330
23
100
AcDbEntity
  8
0
100
AcDbBlockEnd
  0
ENDSEC
  0
SECTION
  2
ENTITIES
  0
CIRCLE
  5
9C
330
1F
100
AcDbEntity
  8
0
  6
Continuous
 62
     7
370
    25
100
AcDbCircle
 10
180.8895171137
 20
197.417893678
 30
0.0
 40
2.650000000000006
  0
CIRCLE
  5
9D
330
1F
100
AcDbEntity
  8
0
  6
Continuous
 62
     7
370
    25
100
AcDbCircle
 10
150.3728566153
 20
198.2743001385
 30
0.0
 40
2.649999999999949
  0
CIRCLE
  5
9E
330
1F
100
AcDbEntity
  8
0
  6
Continuous
 62
     7
370
    25
100
AcDbCircle
 10
159.8895171137
 20
233.7909606369
 30
0.0
 40
2.650000000000034
  0
CIRCLE
  5
9F
330
1F
100
AcDbEntity
  8
0
  6
Continuous
 62
     7
370
    25
100
AcDbCircle
 10
97.229805276
 20
33.0
 30
0.0
 40
2.650000000000006
  0
CIRCLE
  5
A0
330
1F
100
AcDbEntity
  8
0
  6
Continuous
 62
     7
370
    25
100
AcDbCircle
 10
97.0105199116
 20
7.0
 30
0.0
 40
2.650000000000006
  0
CIRCLE
  5
A1
330
1F
100
AcDbEntity
  8
0
  6
Continuous
 62
     7
370
    25
100
AcDbCircle
 10
-67.9861272333
 20
174.9012331796
 30
0.0
 40
2.649999999999991
  0
CIRCLE
  5
A2
330
1F
100
AcDbEntity
  8
0
  6
Continuous
 62
     7
370
    25
100
AcDbCircle
 10
55.2302320678
 20
33.0
 30
0.0
 40
2.649999999999999
  0
CIRCLE
  5
A3
330
1F
100
AcDbEntity
  8
0
  6
Continuous
 62
     7
370
    25
100
AcDbCircle
 10
-24.4694667349
 20
198.2743001385
 30
0.0
 40
2.650000000000023
  0
CIRCLE
  5
A4
330
1F
100
AcDbEntity
  8
0
  6
Continuous
 62
     7
370
    25
100
AcDbCircle
 10
-32.4694667349
 20
184.417893678
 30
0.0
 40
2.649999999999967
  0
CIRCLE
  5
A5
330
1F
100
AcDbEntity
  8
0
  6
Continuous
 62
     7
370
    25
100
AcDbCircle
 10
-45.4694667349
 20
161.9012331796
 30
0.0
 40
2.650000000000048
  0
CIRCLE
  5
A6
330
1F
100
AcDbEntity
  8
0
  6
Continuous
 62
     7
370
    25
100
AcDbCircle
 10
137.3728566153
 20
220.7909606369
 30
0.0
 40
2.650000000000006
  0
CIRCLE
  5
A7
330
1F
100
AcDbEntity
  8
0
  6
Continuous
 62
     7
370
    25
100
AcDbCircle
 10
-11.4694667349
 20
220.7909606369
 30
0.0
 40
2.650000000000047
  0
CIRCLE
  5
A8
330
1F
100
AcDbEntity
  8
0
  6
Continuous
 62
     7
370
    25
100
AcDbCircle
 10
-33.9861272333
 20
233.7909606369
 30
0.0
 40
2.650000000000048
  0
CIRCLE
  5
A9
330
1F
100
AcDbEntity
  8
0
  6
Continuous
 62
     7
370
    25
100
AcDbCircle
 10
-54.9861272333
 20
197.417893678
 30
0.0
 40
2.65000000000002
  0
CIRCLE
  5
AA
330
1F
100
AcDbEntity
  8
0
  6
Continuous
 62
     7
370
    25
100
AcDbCircle
 10
29.0109467034
 20
7.0
 30
0.0
 40
2.650000000000009
  0
CIRCLE
  5
AB
330
1F
100
AcDbEntity
  8
0
  6
Continuous
 62
     7
370
    25
100
AcDbCircle
 10
122.9516949402
 20
173.2050807569
 30
0.0
 40
2.099999999999994
  0
CIRCLE
  5
AC
330
1F
100
AcDbEntity
  8
0
  6
Continuous
 62
     7
370
    25
100
AcDbCircle
 10
2.9516949402
 20
173.2050807569
 30
0.0
 40
2.099999999999984
  0
CIRCLE
  5
D8
330
1F
100
AcDbEntity
  8
0
  6
Continuous
 62
     7
370
    25
100
AcDbCircle
 10
171.3728566153
 20
161.9012331796
 30
0.0
 40
2.650000000000006
  0
CIRCLE
  5
DC
330
1F
100
AcDbEntity
  8
0
  6
Continuous
 62
     7
370
    25
100
AcDbCircle
 10
-46.9861272333
 20
211.2743001385
 30
0.0
 40
2.650000000000027
  0
CIRCLE
  5
DD
330
1F
100
AcDbEntity
  8
0
  6
Continuous
 62
     7
370
    25
100
AcDbCircle
 10
172.8895171137
 20
211.2743001385
 30
0.0
 40
2.649999999999949
  0
CIRCLE
  5
E2
330
1F
100
AcDbEntity
  8
0
  6
Continuous
 62
     7
370
    25
100
AcDbCircle
 10
71.229805276
 20
33.0
 30
0.0
 40
2.65000000000002
  0
CIRCLE
  5
E9
330
1F
100
AcDbEntity
  8
0
  6
Continuous
 62
     7
370
    25
100
AcDbCircle
 10
29.2302320678
 20
33.0
 30
0.0
 40
2.650000000000002
  0
CIRCLE
  5
ED
330
1F
100
AcDbEntity
  8
0
  6
Continuous
 62
     7
370
    25
100
AcDbCircle
 10
71.0105199116
 20
7.0
 30
0.0
 40
2.649999999999991
  0
CIRCLE
  5
EE
330
1F
100
AcDbEntity
  8
0
  6
Continuous
 62
     7
370
    25
100
AcDbCircle
 10
62.9516949402
 20
69.2820323028
 30
0.0
 40
2.099999999999994
  0
CIRCLE
  5
F4
330
1F
100
AcDbEntity
  8
0
  6
Continuous
 62
     7
370
    25
100
AcDbCircle
 10
62.9516949402
 20
121.2435565298
 30
0.0
 40
2.100000000000001
  0
CIRCLE
  5
F5
330
1F
100
AcDbEntity
  8
0
  6
Continuous
 62
     7
370
    25
100
AcDbCircle
 10
193.8895171137
 20
174.9012331796
 30
0.0
 40
2.650000000000063
  0
CIRCLE
  5
F6
330
1F
100
AcDbEntity
  8
0
  6
Continuous
 62
     7
370
    25
100
AcDbCircle
 10
158.3728566153
 20
184.417893678
 30
0.0
 40
2.650000000000063
  0
CIRCLE
  5
FA
330
1F
100
AcDbEntity
  8
0
  6
Continuous
 62
     7
370
    25
100
AcDbCircle
 10
55.0109467034
 20
7.0
 30
0.0
 40
2.650000000000006
  0
SPLINE
  5
FC
330
1F
100
AcDbEntity
  8
0
  6
Continuous
 62
     7
370
    25
100
AcDbSpline
210
0.0
220
0.0
230
1.0
 70
     8
 71
     3
 72
    19
 73
    15
 74
     0
 42
0.00000001
 43
0.00000001
 40
0.0
 40
0.0
 40
0.0
 40
0.0
 40
0.0908964356135912
 40
0.1753682286820705
 40
0.2549102405112855
 40
0.3292223224135027
 40
0.3977650765279993
 40
0.461732283041872
 40
0.5207299424588693
 40
0.5746583265476133
 40
0.6780570237640636
 40
0.7827135853381219
 40
0.8898557549430186
 40
1.0
 40
1.0
 40
1.0
 40
1.0
 10
100.8905137168866
 20
234.1695916921235
 30
0.0
 10
100.8763066895706
 20
234.1829517378364
 30
0.0
 10
100.8488968005203
 20
234.2087275291088
 30
0.0
 10
100.807950241674
 20
234.244987745237
 30
0.0
 10
100.7687091885893
 20
234.2777976753647
 30
0.0
 10
100.7304806014967
 20
234.3063651716101
 30
0.0
 10
100.694396125206
 20
234.3322110532231
 30
0.0
 10
100.6596355189528
 20
234.3541411442265
 30
0.0
 10
100.6267078238221
 20
234.3730718852493
 30
0.0
 10
100.5846306202869
 20
234.3927340278697
 30
0.0
 10
100.5319211771232
 20
234.4125802166475
 30
0.0
 10
100.4662084839731
 20
234.4290568470053
 30
0.0
 10
100.3976904843487
 20
234.4389630098628
 30
0.0
 10
100.3510623097509
 20
234.4402877114948
 30
0.0
 10
100.327426110049
 20
234.440959213491
 30
0.0
  0
SPLINE
  5
FD
330
1F
100
AcDbEntity
  8
0
  6
Continuous
 62
     7
370
    25
100
AcDbSpline
210
0.0
220
0.0
230
1.0
 70
     8
 71
     3
 72
    11
 73
     7
 74
     0
 42
0.00000001
 43
0.00000001
 40
0.0
 40
0.0
 40
0.0
 40
0.0
 40
0.2314097683641984
 40
0.4737812280886901
 40
0.7297720741593491
 40
1.0
 40
1.0
 40
1.0
 40
1.0
 10
71.3258702873994
 20
234.0610446835765
 30
0.0
 10
71.34555385061654
 20
234.0603302097588
 30
0.0
 10
71.38585337133296
 20
234.0588674180833
 30
0.0
 10
71.44719735122335
 20
234.0485521198768
 30
0.0
 10
71.51058564899508
 20
234.0321828530134
 30
0.0
 10
71.55242929189167
 20
234.016233598735
 30
0.0
 10
71.57391716239938
 20
234.0080432145594
 30
0.0
  0
SPLINE
  5
FE
330
1F
100
AcDbEntity
  8
0
  6
Continuous
 62
     7
370
    25
100
AcDbSpline
210
0.0
220
0.0
230
1.0
 70
     8
 71
     3
 72
    15
 73
    11
 74
     0
 42
0.00000001
 43
0.00000001
 40
0.0
 40
0.0
 40
0.0
 40
0.0
 40
0.1409215755524075
 40
0.2750588709579464
 40
0.4036639716820203
 40
0.5276714691732779
 40
0.6482875994393013
 40
0.76633660741661
 40
0.8832734738610515
 40
1.0
 40
1.0
 40
1.0
 40
1.0
 10
75.01434851923699
 20
234.0610446835765
 30
0.0
 10
75.05919468501858
 20
234.0602378604996
 30
0.0
 10
75.14672802175804
 20
234.0586630566152
 30
0.0
 10
75.27447920824063
 20
234.0438076084185
 30
0.0
 10
75.39537371372596
 20
234.0203134045683
 30
0.0
 10
75.50960309113538
 20
233.9872963588921
 30
0.0
 10
75.61700870612702
 20
233.9445414199159
 30
0.0
 10
75.7170715517969
 20
233.8914345767863
 30
0.0
 10
75.81086528239162
 20
233.8298669971701
 30
0.0
 10
75.86698588605773
 20
233.7810105027888
 30
0.0
 10
75.89502092842504
 20
233.7566042455423
 30
0.0
  0
SPLINE
  5
FF
330
1F
100
AcDbEntity
  8
0
  6
Continuous
 62
     7
370
    25
100
AcDbSpline
210
0.0
220
0.0
230
1.0
 70
     8
 71
     3
 72
    15
 73
    11
 74
     0
 42
0.00000001
 43
0.00000001
 40
0.0
 40
0.0
 40
0.0
 40
0.0
 40
0.1375990629445571
 40
0.2693653188246282
 40
0.3963959938935878
 40
0.5196194886084187
 40
0.6403541938318192
 40
0.7598993326612947
 40
0.8794922813282735
 40
1.0
 40
1.0
 40
1.0
 40
1.0
 10
79.8298499882541
 20
234.0610446835765
 30
0.0
 10
79.87328440023296
 20
234.0600996717406
 30
0.0
 10
79.95831204490055
 20
234.0582497070021
 30
0.0
 10
80.0826957773208
 20
234.0428209422068
 30
0.0
 10
80.20058299798654
 20
234.0168792143182
 30
0.0
 10
80.31234137676198
 20
233.9813691413634
 30
0.0
 10
80.4176645747874
 20
233.9353591932461
 30
0.0
 10
80.51657934891348
 20
233.8791816979671
 30
0.0
 10
80.60887671236007
 20
233.8125587032998
 30
0.0
 10
80.66413265034937
 20
233.7606226152432
 30
0.0
 10
80.69186588034812
 20
233.7345556344312
 30
0.0
  0
SPLINE
  5
100
330
1F
100
AcDbEntity
  8
0
  6
Continuous
 62
     7
370
    25
100
AcDbSpline
210
0.0
220
0.0
230
1.0
 70
     8
 71
     3
 72
    15
 73
    11
 74
     0
 42
0.00000001
 43
0.00000001
 40
0.0
 40
0.0
 40
0.0
 40
0.0
 40
0.1285576637631868
 40
0.2532894119456995
 40
0.3749967075560729
 40
0.4960657365344681
 40
0.6176239509857926
 40
0.741741526038579
 40
0.8688660395777626
 40
1.0
 40
1.0
 40
1.0
 40
1.0
 10
56.62156673504897
 20
233.7549081985338
 30
0.0
 10
56.64905757012922
 20
233.7803662898962
 30
0.0
 10
56.70322110458952
 20
233.8305248319984
 30
0.0
 10
56.79192676131829
 20
233.8947377885368
 30
0.0
 10
56.88510906798629
 20
233.9477975233049
 30
0.0
 10
56.98273654347951
 20
233.9899361964563
 30
0.0
 10
57.08491514208102
 20
234.021639159079
 30
0.0
 10
57.19117021562746
 20
234.0445534768122
 30
0.0
 10
57.30188399398538
 20
234.0583499551606
 30
0.0
 10
57.37711649471621
 20
234.060137191858
 30
0.0
 10
57.41531673504898
 20
234.0610446835765
 30
0.0
  0
SPLINE
  5
101
330
1F
100
AcDbEntity
  8
0
  6
Continuous
 62
     7
370
    25
100
AcDbSpline
210
0.0
220
0.0
230
1.0
 70
     8
 71
     3
 72
    11
 73
     7
 74
     0
 42
0.00000001
 43
0.00000001
 40
0.0
 40
0.0
 40
0.0
 40
0.0
 40
0.2899336401539806
 40
0.5534002786984017
 40
0.7903056550868757
 40
1.0
 40
1.0
 40
1.0
 40
1.0
 10
71.43102520192932
 20
233.8435266547303
 30
0.0
 10
71.41692601590472
 20
233.8476113153156
 30
0.0
 10
71.39001470795411
 20
233.8554077624787
 30
0.0
 10
71.35104382657462
 20
233.8645561310724
 30
0.0
 10
71.31541995168217
 20
233.8699074477021
 30
0.0
 10
71.29281221016923
 20
233.8707104028252
 30
0.0
 10
71.28219707692932
 20
233.8710874186192
 30
0.0
  0
SPLINE
  5
102
330
1F
100
AcDbEntity
  8
0
  6
Continuous
 62
     7
370
    25
100
AcDbSpline
210
0.0
220
0.0
230
1.0
 70
     8
 71
     3
 72
    15
 73
    11
 74
     0
 42
0.00000001
 43
0.00000001
 40
0.0
 40
0.0
 40
0.0
 40
0.0
 40
0.1203893053149687
 40
0.2394420388937817
 40
0.3580854702680095
 40
0.4783577532994214
 40
0.6010306818585333
 40
0.7278897772833929
 40
0.8608446635769074
 40
1.0
 40
1.0
 40
1.0
 40
1.0
 10
73.90767784616008
 20
233.2562703780209
 30
0.0
 10
73.90837466247622
 20
233.2800637980778
 30
0.0
 10
73.90976055899783
 20
233.3273864817315
 30
0.0
 10
73.92204175561275
 20
233.3972921423646
 30
0.0
 10
73.94218615517934
 20
233.4651952769761
 30
0.0
 10
73.96990103930997
 20
233.5311697404495
 30
0.0
 10
74.00531703880166
 20
233.595228777371
 30
0.0
 10
74.04912990508505
 20
233.6569189437064
 30
0.0
 10
74.10040955686105
 20
233.7169498251127
 30
0.0
 10
74.13953323913935
 20
233.7538474798403
 30
0.0
 10
74.1595408269293
 20
233.7727166921235
 30
0.0
  0
SPLINE
  5
103
330
1F
100
AcDbEntity
  8
0
  6
Continuous
 62
     7
370
    25
100
AcDbSpline
210
0.0
220
0.0
230
1.0
 70
     8
 71
     3
 72
    15
 73
    11
 74
     0
 42
0.00000001
 43
0.00000001
 40
0.0
 40
0.0
 40
0.0
 40
0.0
 40
0.129407915843264
 40
0.2540294835676929
 40
0.3771367500789039
 40
0.4981799169544623
 40
0.619806583999011
 40
0.7431133761946002
 40
0.8693518572345106
 40
1.0
 40
1.0
 40
1.0
 40
1.0
 10
75.89502092842504
 20
233.7566042455423
 30
0.0
 10
75.91380193399732
 20
233.7384702020374
 30
0.0
 10
75.95066930115426
 20
233.7028728301414
 30
0.0
 10
75.99841529215955
 20
233.6434830476895
 30
0.0
 10
76.03936567512987
 20
233.5812958410752
 30
0.0
 10
76.07257070371413
 20
233.5152978860692
 30
0.0
 10
76.09907807756238
 20
233.446320278365
 30
0.0
 10
76.11823152823925
 20
233.3738480935903
 30
0.0
 10
76.12973129339454
 20
233.2978992895954
 30
0.0
 10
76.13182612556463
 20
233.2461328785295
 30
0.0
 10
76.13289152137376
 20
233.2198053673372
 30
0.0
  0
SPLINE
  5
104
330
1F
100
AcDbEntity
  8
0
  6
Continuous
 62
     7
370
    25
100
AcDbSpline
210
0.0
220
0.0
230
1.0
 70
     8
 71
     3
 72
    23
 73
    19
 74
     0
 42
0.00000001
 43
0.00000001
 40
0.0
 40
0.0
 40
0.0
 40
0.0
 40
0.0550039749455805
 40
0.1095464451712488
 40
0.1642383471022541
 40
0.2186143004678783
 40
0.2739470282843515
 40
0.330230336448688
 40
0.3868750049903691
 40
0.4449660522556259
 40
0.5047420275932953
 40
0.5670072494702134
 40
0.6319249009827894
 40
0.6995569150987581
 40
0.7701317409191154
 40
0.8437181159217988
 40
0.9199957053624099
 40
1.0
 40
1.0
 40
1.0
 40
1.0
 10
48.61622485470709
 20
232.3785660510979
 30
0.0
 10
48.62679952242345
 20
232.3661193418542
 30
0.0
 10
48.6478601322856
 20
232.3413303560932
 30
0.0
 10
48.68241411508892
 20
232.3068479207317
 30
0.0
 10
48.71931123809045
 20
232.275217471906
 30
0.0
 10
48.75819231820252
 20
232.2456810191788
 30
0.0
 10
48.79931444040871
 20
232.2184545089551
 30
0.0
 10
48.8429552568541
 20
232.1940897705593
 30
0.0
 10
48.88858938357415
 20
232.1717816512879
 30
0.0
 10
48.93663419866671
 20
232.1523004554542
 30
0.0
 10
48.98738033977015
 20
232.1353581050009
 30
0.0
 10
49.04089283882398
 20
232.1205775630241
 30
0.0
 10
49.09731196102814
 20
232.1077556739049
 30
0.0
 10
49.15680391150564
 20
232.0978128015417
 30
0.0
 10
49.21915352506959
 20
232.0896049477224
 30
0.0
 10
49.28439656645764
 20
232.0843568098193
 30
0.0
 10
49.35255323433464
 20
232.0808246952288
 30
0.0
 10
49.39894578993423
 20
232.0803200943838
 30
0.0
 10
49.42269520727119
 20
232.0800617775936
 30
0.0
  0
SPLINE
  5
105
330
1F
100
AcDbEntity
  8
0
  6
Continuous
 62
     7
370
    25
100
AcDbSpline
210
0.0
220
0.0
230
1.0
 70
     8
 71
     3
 72
    15
 73
    11
 74
     0
 42
0.00000001
 43
0.00000001
 40
0.0
 40
0.0
 40
0.0
 40
0.0
 40
0.0782293435333269
 40
0.1694562746865606
 40
0.2730778308167472
 40
0.3913587828466002
 40
0.5224692166028706
 40
0.6675474639625972
 40
0.8267193404304638
 40
0.9999999999999999
 40
0.9999999999999999
 40
0.9999999999999999
 40
0.9999999999999999
 10
56.66099982799769
 20
233.4614920660551
 30
0.0
 10
56.65772125382069
 20
233.4510782634038
 30
0.0
 10
56.65061937949542
 20
233.4285204337849
 30
0.0
 10
56.64301190946398
 20
233.3911443325357
 30
0.0
 10
56.63618117707452
 20
233.3480032469118
 30
0.0
 10
56.6308893342656
 20
233.2990319913172
 30
0.0
 10
56.62664503271918
 20
233.2441681449852
 30
0.0
 10
56.62394429120061
 20
233.1835000718092
 30
0.0
 10
56.62152785989314
 20
233.1169305169094
 30
0.0
 10
56.62155341515481
 20
233.0705559022938
 30
0.0
 10
56.62156673504897
 20
233.0463845607132
 30
0.0
  0
SPLINE
  5
106
330
1F
100
AcDbEntity
  8
0
  6
Continuous
 62
     7
370
    25
100
AcDbSpline
210
0.0
220
0.0
230
1.0
 70
     8
 71
     3
 72
    15
 73
    11
 74
     0
 42
0.00000001
 43
0.00000001
 40
0.0
 40
0.0
 40
0.0
 40
0.0
 40
0.1409215755524013
 40
0.2750588709579411
 40
0.403663971682016
 40
0.5276714691732743
 40
0.6482875994392987
 40
0.7663366074166083
 40
0.8832734738610506
 40
0.9999999999999999
 40
0.9999999999999999
 40
0.9999999999999999
 40
0.9999999999999999
 10
39.98080151068999
 20
234.0610446835765
 30
0.0
 10
40.02564767647159
 20
234.0602378604996
 30
0.0
 10
40.11318101321102
 20
234.0586630566152
 30
0.0
 10
40.24093219969363
 20
234.0438076084185
 30
0.0
 10
40.36182670517893
 20
234.0203134045682
 30
0.0
 10
40.47605608258836
 20
233.9872963588921
 30
0.0
 10
40.58346169758001
 20
233.9445414199158
 30
0.0
 10
40.68352454324991
 20
233.8914345767863
 30
0.0
 10
40.7773182738446
 20
233.8298669971701
 30
0.0
 10
40.83343887751072
 20
233.7810105027888
 30
0.0
 10
40.86147391987804
 20
233.7566042455423
 30
0.0
  0
SPLINE
  5
107
330
1F
100
AcDbEntity
  8
0
  6
Continuous
 62
     7
370
    25
100
AcDbSpline
210
0.0
220
0.0
230
1.0
 70
     8
 71
     3
 72
    23
 73
    19
 74
     0
 42
0.00000001
 43
0.00000001
 40
0.0
 40
0.0
 40
0.0
 40
0.0
 40
0.0743919814107685
 40
0.1465925033832047
 40
0.2163942852800959
 40
0.284727844335164
 40
0.351553334984046
 40
0.4177645656213395
 40
0.4835490521671014
 40
0.5495209119809095
 40
0.6136035304965454
 40
0.6739004656211955
 40
0.7310530837344364
 40
0.7861731122976225
 40
0.8396755756956776
 40
0.8924436185259234
 40
0.9456715865086858
 40
1.0
 40
1.0
 40
1.0
 40
1.0
 10
79.8217937649635
 20
232.4599763075081
 30
0.0
 10
79.78417133459222
 20
232.4607218441003
 30
0.0
 10
79.71003476574573
 20
232.4621909550629
 30
0.0
 10
79.60105668394438
 20
232.4734132534368
 30
0.0
 10
79.496200900845
 20
232.4916499576012
 30
0.0
 10
79.39553408896143
 20
232.516811895332
 30
0.0
 10
79.29922189571143
 20
232.5502347008521
 30
0.0
 10
79.2069908205425
 20
232.5904972926449
 30
0.0
 10
79.11877905660218
 20
232.6380988831496
 30
0.0
 10
79.0360934682405
 20
232.6928172815862
 30
0.0
 10
78.9602990161727
 20
232.7523142472447
 30
0.0
 10
78.89343882546704
 20
232.8154708413575
 30
0.0
 10
78.83741279855646
 20
232.8826307350827
 30
0.0
 10
78.79119146001808
 20
232.9527891064101
 30
0.0
 10
78.75515222934227
 20
233.0262867914805
 30
0.0
 10
78.72953084683658
 20
233.1029658350645
 30
0.0
 10
78.7137297115151
 20
233.1828335523638
 30
0.0
 10
78.71183833717747
 20
233.2372593100871
 30
0.0
 10
78.7108829743652
 20
233.2647506130637
 30
0.0
  0
SPLINE
  5
108
330
1F
100
AcDbEntity
  8
0
  6
Continuous
 62
     7
370
    25
100
AcDbSpline
210
0.0
220
0.0
230
1.0
 70
     8
 71
     3
 72
    15
 73
    11
 74
     0
 42
0.00000001
 43
0.00000001
 40
0.0
 40
0.0
 40
0.0
 40
0.0
 40
0.122455187620232
 40
0.2430391076441127
 40
0.3637581338517881
 40
0.4850631209767843
 40
0.6082689460165575
 40
0.7346029397514352
 40
0.8649567509243539
 40
1.0
 40
1.0
 40
1.0
 40
1.0
 10
80.69186588034812
 20
232.7546644752431
 30
0.0
 10
80.66223437687601
 20
232.7302864458869
 30
0.0
 10
80.60342417616532
 20
232.6819029137884
 30
0.0
 10
80.5070307508758
 20
232.6206894601572
 30
0.0
 10
80.40541907395485
 20
232.5696624154703
 30
0.0
 10
80.29838184537253
 20
232.5288601201246
 30
0.0
 10
80.18627322040288
 20
232.4979912145527
 30
0.0
 10
80.06923704409317
 20
232.4762476559555
 30
0.0
 10
79.94722594719991
 20
232.4620613271142
 30
0.0
 10
79.8640941254253
 20
232.4606794530592
 30
0.0
 10
79.8217937649635
 20
232.4599763075081
 30
0.0
  0
SPLINE
  5
109
330
1F
100
AcDbEntity
  8
0
  6
Continuous
 62
     7
370
    25
100
AcDbSpline
210
0.0
220
0.0
230
1.0
 70
     8
 71
     3
 72
    15
 73
    11
 74
     0
 42
0.00000001
 43
0.00000001
 40
0.0
 40
0.0
 40
0.0
 40
0.0
 40
0.129407915843264
 40
0.2540294835676929
 40
0.3771367500789039
 40
0.4981799169544623
 40
0.619806583999011
 40
0.7431133761946002
 40
0.8693518572345106
 40
1.0
 40
1.0
 40
1.0
 40
1.0
 10
62.86937990278402
 20
233.7566042455423
 30
0.0
 10
62.88816090835629
 20
233.7384702020374
 30
0.0
 10
62.92502827551323
 20
233.7028728301414
 30
0.0
 10
62.97277426651853
 20
233.6434830476895
 30
0.0
 10
63.01372464948886
 20
233.5812958410752
 30
0.0
 10
63.04692967807308
 20
233.5152978860692
 30
0.0
 10
63.07343705192138
 20
233.446320278365
 30
0.0
 10
63.09259050259822
 20
233.3738480935903
 30
0.0
 10
63.10409026775353
 20
233.2978992895954
 30
0.0
 10
63.10618509992361
 20
233.2461328785295
 30
0.0
 10
63.10725049573274
 20
233.2198053673372
 30
0.0
  0
SPLINE
  5
10A
330
1F
100
AcDbEntity
  8
0
  6
Continuous
 62
     7
370
    25
100
AcDbSpline
210
0.0
220
0.0
230
1.0
 70
     8
 71
     3
 72
    19
 73
    15
 74
     0
 42
0.00000001
 43
0.00000001
 40
0.0
 40
0.0
 40
0.0
 40
0.0
 40
0.0806803365651423
 40
0.1589262649885795
 40
0.2364214457456244
 40
0.3125352136089985
 40
0.3891761139296943
 40
0.4672641718361914
 40
0.5474043757465896
 40
0.629883011976103
 40
0.7157515796920157
 40
0.8054441035632454
 40
0.9004517597083519
 40
1.0
 40
1.0
 40
1.0
 40
1.0
 10
40.99079750427974
 20
232.8869561419098
 30
0.0
 10
40.97155847459383
 20
232.8629995101538
 30
0.0
 10
40.93366092408577
 20
232.815809102072
 30
0.0
 10
40.87023855546443
 20
232.7517260638416
 30
0.0
 10
40.80255011757794
 20
232.6949075394797
 30
0.0
 10
40.73013248884264
 20
232.6453012099993
 30
0.0
 10
40.65331627137421
 20
232.6024250699612
 30
0.0
 10
40.57198206293531
 20
232.5651267912625
 30
0.0
 10
40.48616029497088
 20
232.5328387704224
 30
0.0
 10
40.39538429153801
 20
232.505961962219
 30
0.0
 10
40.29926903981038
 20
232.4853125234388
 30
0.0
 10
40.1972820919669
 20
232.4705569838206
 30
0.0
 10
40.08936877381155
 20
232.4615931924681
 30
0.0
 10
40.01530537118519
 20
232.4605235900261
 30
0.0
 10
39.9774094166729
 20
232.4599763075081
 30
0.0
  0
SPLINE
  5
10C
330
1F
100
AcDbEntity
  8
0
  6
Continuous
 62
     7
370
    25
100
AcDbSpline
210
0.0
220
0.0
230
1.0
 70
     8
 71
     3
 72
    19
 73
    15
 74
     0
 42
0.00000001
 43
0.00000001
 40
0.0
 40
0.0
 40
0.0
 40
0.0
 40
0.0806803365651464
 40
0.1589262649885795
 40
0.236421445745634
 40
0.3125352136090082
 40
0.3891761139296989
 40
0.4672641718361961
 40
0.5474043757465946
 40
0.6298830119761081
 40
0.7157515796920211
 40
0.8054441035632509
 40
0.9004517597083578
 40
1.0
 40
1.0
 40
1.0
 40
1.0
 10
62.99870348718572
 20
232.8869561419098
 30
0.0
 10
62.97946445749983
 20
232.8629995101538
 30
0.0
 10
62.94156690699177
 20
232.815809102072
 30
0.0
 10
62.87814453837039
 20
232.7517260638416
 30
0.0
 10
62.81045610048391
 20
232.6949075394797
 30
0.0
 10
62.73803847174862
 20
232.6453012099993
 30
0.0
 10
62.6612222542802
 20
232.6024250699613
 30
0.0
 10
62.57988804584127
 20
232.5651267912625
 30
0.0
 10
62.49406627787688
 20
232.5328387704225
 30
0.0
 10
62.403290274444
 20
232.5059619622191
 30
0.0
 10
62.30717502271637
 20
232.4853125234389
 30
0.0
 10
62.20518807487288
 20
232.4705569838206
 30
0.0
 10
62.09727475671755
 20
232.4615931924682
 30
0.0
 10
62.02321135409116
 20
232.4605235900261
 30
0.0
 10
61.98531539957888
 20
232.4599763075081
 30
0.0
  0
SPLINE
  5
10D
330
1F
100
AcDbEntity
  8
0
  6
Continuous
 62
     7
370
    25
100
AcDbSpline
210
0.0
220
0.0
230
1.0
 70
     8
 71
     3
 72
    15
 73
    11
 74
     0
 42
0.00000001
 43
0.00000001
 40
0.0
 40
0.0
 40
0.0
 40
0.0
 40
0.1203893053149671
 40
0.2394420388937785
 40
0.3580854702680115
 40
0.4783577532994173
 40
0.6010306818585219
 40
0.7278897772833798
 40
0.8608446635768925
 40
1.0
 40
1.0
 40
1.0
 40
1.0
 10
38.87413083761307
 20
233.2562703780209
 30
0.0
 10
38.87482765392922
 20
233.280063798078
 30
0.0
 10
38.87621355045083
 20
233.3273864817315
 30
0.0
 10
38.88849474706574
 20
233.3972921423646
 30
0.0
 10
38.90863914663237
 20
233.4651952769761
 30
0.0
 10
38.93635403076298
 20
233.5311697404495
 30
0.0
 10
38.97177003025462
 20
233.5952287773709
 30
0.0
 10
39.01558289653805
 20
233.6569189437064
 30
0.0
 10
39.06686254831404
 20
233.7169498251127
 30
0.0
 10
39.10598623059234
 20
233.7538474798403
 30
0.0
 10
39.12599381838231
 20
233.7727166921235
 30
0.0
  0
SPLINE
  5
10E
330
1F
100
AcDbEntity
  8
0
  6
Continuous
 62
     7
370
    25
100
AcDbSpline
210
0.0
220
0.0
230
1.0
 70
     8
 71
     3
 72
    15
 73
    11
 74
     0
 42
0.00000001
 43
0.00000001
 40
0.0
 40
0.0
 40
0.0
 40
0.0
 40
0.1788665699309705
 40
0.3421413072699962
 40
0.4898709911205196
 40
0.6233121032798709
 40
0.7400556234382504
 40
0.8414680041078363
 40
0.9289010934037603
 40
1.0
 40
1.0
 40
1.0
 40
1.0
 10
45.35981459829683
 20
233.2147172263115
 30
0.0
 10
45.3596995101928
 20
233.235776650268
 30
0.0
 10
45.35947936623646
 20
233.2760597442279
 30
0.0
 10
45.35875162928745
 20
233.3337335335708
 30
0.0
 10
45.35712710858465
 20
233.3860431006692
 30
0.0
 10
45.35450194248236
 20
233.4328208000702
 30
0.0
 10
45.35174101849548
 20
233.4741318458824
 30
0.0
 10
45.34794110763128
 20
233.5099162454692
 30
0.0
 10
45.34352015656955
 20
233.5402231476756
 30
0.0
 10
45.33954760780875
 20
233.5584655659427
 30
0.0
 10
45.33776598718573
 20
233.566646980585
 30
0.0
  0
SPLINE
  5
10F
330
1F
100
AcDbEntity
  8
0
  6
Continuous
 62
     7
370
    25
100
AcDbSpline
210
0.0
220
0.0
230
1.0
 70
     8
 71
     3
 72
    19
 73
    15
 74
     0
 42
0.00000001
 43
0.00000001
 40
0.0
 40
0.0
 40
0.0
 40
0.0
 40
0.0806803365651462
 40
0.1589262649885792
 40
0.2364214457456241
 40
0.3125352136089983
 40
0.3891761139296994
 40
0.4672641718361965
 40
0.5474043757465892
 40
0.6298830119760968
 40
0.7157515796920155
 40
0.8054441035632512
 40
0.9004517597083458
 40
1.0
 40
1.0
 40
1.0
 40
1.0
 10
76.02434451282676
 20
232.8869561419098
 30
0.0
 10
76.00510548314085
 20
232.8629995101539
 30
0.0
 10
75.96720793263279
 20
232.8158091020721
 30
0.0
 10
75.90378556401143
 20
232.7517260638415
 30
0.0
 10
75.83609712612495
 20
232.6949075394797
 30
0.0
 10
75.76367949738965
 20
232.6453012099993
 30
0.0
 10
75.6868632799212
 20
232.6024250699612
 30
0.0
 10
75.60552907148231
 20
232.5651267912626
 30
0.0
 10
75.51970730351792
 20
232.5328387704225
 30
0.0
 10
75.42893130008503
 20
232.505961962219
 30
0.0
 10
75.3328160483574
 20
232.4853125234389
 30
0.0
 10
75.2308291005139
 20
232.4705569838206
 30
0.0
 10
75.12291578235855
 20
232.4615931924681
 30
0.0
 10
75.04885237973221
 20
232.4605235900263
 30
0.0
 10
75.01095642521992
 20
232.4599763075082
 30
0.0
  0
SPLINE
  5
110
330
1F
100
AcDbEntity
  8
0
  6
Continuous
 62
     7
370
    25
100
AcDbSpline
210
0.0
220
0.0
230
1.0
 70
     8
 71
     3
 72
    23
 73
    19
 74
     0
 42
0.00000001
 43
0.00000001
 40
0.0
 40
0.0
 40
0.0
 40
0.0
 40
0.057744539766469
 40
0.1132367527569178
 40
0.1673242499798741
 40
0.2218039093173945
 40
0.2753818890583284
 40
0.3301426147118683
 40
0.3858116018575328
 40
0.443867244616192
 40
0.5039568943567972
 40
0.5656267933300764
 40
0.630173675202656
 40
0.6973681321395145
 40
0.7676447810385217
 40
0.8417686053731863
 40
0.9187187758904615
 40
1.0
 40
1.0
 40
1.0
 40
1.0
 10
57.90208222650195
 20
233.566646980585
 30
0.0
 10
57.89892847949211
 20
233.5790136734412
 30
0.0
 10
57.89274399742928
 20
233.6032646960839
 30
0.0
 10
57.8795424192928
 20
233.6378999265589
 30
0.0
 10
57.86268689087569
 20
233.6700510676713
 30
0.0
 10
57.84300693772909
 20
233.7000677154762
 30
0.0
 10
57.81968311327138
 20
233.7275535636885
 30
0.0
 10
57.79338737639579
 20
233.7525756220267
 30
0.0
 10
57.76375668757975
 20
233.7751975634802
 30
0.0
 10
57.7311348368489
 20
233.7955730115815
 30
0.0
 10
57.69542586996076
 20
233.8130637487245
 30
0.0
 10
57.65747801718604
 20
233.8290734693194
 30
0.0
 10
57.61671865432093
 20
233.8420734526476
 30
0.0
 10
57.57331332924017
 20
233.8525288497293
 30
0.0
 10
57.52734500449944
 20
233.861144893164
 30
0.0
 10
57.47875940396038
 20
233.8669150633515
 30
0.0
 10
57.42752025149511
 20
233.8703009197126
 30
0.0
 10
57.39256673349194
 20
233.8708205116218
 30
0.0
 10
57.37461160684384
 20
233.8710874186192
 30
0.0
  0
SPLINE
  5
111
330
1F
100
AcDbEntity
  8
0
  6
Continuous
 62
     7
370
    25
100
AcDbSpline
210
0.0
220
0.0
230
1.0
 70
     8
 71
     3
 72
    23
 73
    19
 74
     0
 42
0.00000001
 43
0.00000001
 40
0.0
 40
0.0
 40
0.0
 40
0.0
 40
0.0577445397664722
 40
0.1132367527569176
 40
0.1673242499798839
 40
0.2218039093173931
 40
0.2753818890583341
 40
0.3301426147118744
 40
0.3858116018575393
 40
0.4438672446161988
 40
0.5039568943568045
 40
0.5656267933300839
 40
0.6301736752026641
 40
0.697368132139523
 40
0.7676447810385305
 40
0.8417686053731956
 40
0.9187187758904608
 40
1.0
 40
1.0
 40
1.0
 40
1.0
 10
45.33776598718573
 20
233.566646980585
 30
0.0
 10
45.33461224017587
 20
233.5790136734411
 30
0.0
 10
45.32842775811303
 20
233.6032646960838
 30
0.0
 10
45.31522617997656
 20
233.6378999265589
 30
0.0
 10
45.29837065155945
 20
233.6700510676713
 30
0.0
 10
45.27869069841286
 20
233.7000677154762
 30
0.0
 10
45.25536687395513
 20
233.7275535636884
 30
0.0
 10
45.22907113707954
 20
233.7525756220266
 30
0.0
 10
45.19944044826352
 20
233.7751975634803
 30
0.0
 10
45.16681859753268
 20
233.7955730115815
 30
0.0
 10
45.1311096306445
 20
233.8130637487244
 30
0.0
 10
45.09316177786981
 20
233.8290734693195
 30
0.0
 10
45.05240241500468
 20
233.8420734526476
 30
0.0
 10
45.00899708992391
 20
233.8525288497292
 30
0.0
 10
44.96302876518322
 20
233.861144893164
 30
0.0
 10
44.91444316464414
 20
233.8669150633515
 30
0.0
 10
44.86320401217889
 20
233.8703009197126
 30
0.0
 10
44.82825049417573
 20
233.8708205116219
 30
0.0
 10
44.81029536752761
 20
233.8710874186192
 30
0.0
  0
SPLINE
  5
112
330
1F
100
AcDbEntity
  8
0
  6
Continuous
 62
     7
370
    25
100
AcDbSpline
210
0.0
220
0.0
230
1.0
 70
     8
 71
     3
 72
    23
 73
    19
 74
     0
 42
0.00000001
 43
0.00000001
 40
0.0
 40
0.0
 40
0.0
 40
0.0
 40
0.0834196166539257
 40
0.1626723673800098
 40
0.2378581283184197
 40
0.3096943615508909
 40
0.3784179109272153
 40
0.4446148807887471
 40
0.5089404755775598
 40
0.5723329789139006
 40
0.6333503630757462
 40
0.6911600318407845
 40
0.7462440832425916
 40
0.7990137376633095
 40
0.8498976057772076
 40
0.8997067520931966
 40
0.9496517992513257
 40
1.0
 40
1.0
 40
1.0
 40
1.0
 10
66.788520527784
 20
232.4599763075081
 30
0.0
 10
66.74651628095395
 20
232.4606714171729
 30
0.0
 10
66.66460592765895
 20
232.4620269153074
 30
0.0
 10
66.54528908969914
 20
232.4736324885784
 30
0.0
 10
66.43285534330361
 20
232.4925166073281
 30
0.0
 10
66.32740210387078
 20
232.5190796476859
 30
0.0
 10
66.22897269203393
 20
232.5533838820006
 30
0.0
 10
66.13771111529557
 20
232.5954116648169
 30
0.0
 10
66.05356132665638
 20
232.6452659663608
 30
0.0
 10
65.97734360418214
 20
232.7022918181788
 30
0.0
 10
65.90940746039855
 20
232.7641049767543
 30
0.0
 10
65.84961221348607
 20
232.8282044547235
 30
0.0
 10
65.79871590041402
 20
232.894465793329
 30
0.0
 10
65.75726136137921
 20
232.9629950936117
 30
0.0
 10
65.72519934521652
 20
233.0334804711445
 30
0.0
 10
65.70190731711939
 20
233.1058211143861
 30
0.0
 10
65.68802947213
 20
233.1804053528833
 30
0.0
 10
65.68617360989236
 20
233.2309143584824
 30
0.0
 10
65.6852419487242
 20
233.256270378021
 30
0.0
  0
SPLINE
  5
113
330
1F
100
AcDbEntity
  8
0
  6
Continuous
 62
     7
370
    25
100
AcDbSpline
210
0.0
220
0.0
230
1.0
 70
     8
 71
     3
 72
    15
 73
    11
 74
     0
 42
0.00000001
 43
0.00000001
 40
0.0
 40
0.0
 40
0.0
 40
0.0
 40
0.1617770546688794
 40
0.3123719592035819
 40
0.4519323717956023
 40
0.5807804714564292
 40
0.7001292116061181
 40
0.8087184055686207
 40
0.9088235317812633
 40
1.0
 40
1.0
 40
1.0
 40
1.0
 10
50.54293425641649
 20
232.8063939090038
 30
0.0
 10
50.54272098408299
 20
232.7802404574549
 30
0.0
 10
50.54230918095805
 20
232.7297413003464
 30
0.0
 10
50.53830320314317
 20
232.6567783785052
 30
0.0
 10
50.53266310918242
 20
232.5892647538162
 30
0.0
 10
50.52418957499908
 20
232.5271339596167
 30
0.0
 10
50.51344705566595
 20
232.4704258405541
 30
0.0
 10
50.49980252968706
 20
232.4191515547388
 30
0.0
 10
50.48407849429223
 20
232.3732024563317
 30
0.0
 10
50.47081450711685
 20
232.3452490539474
 30
0.0
 10
50.46449208227119
 20
232.3319247583628
 30
0.0
  0
SPLINE
  5
114
330
1F
100
AcDbEntity
  8
0
  6
Continuous
 62
     7
370
    25
100
AcDbSpline
210
0.0
220
0.0
230
1.0
 70
     8
 71
     3
 72
    15
 73
    11
 74
     0
 42
0.00000001
 43
0.00000001
 40
0.0
 40
0.0
 40
0.0
 40
0.0
 40
0.1159169267196539
 40
0.2323495346014334
 40
0.3498417287822715
 40
0.4706979565774956
 40
0.5944142864582255
 40
0.7235819036052861
 40
0.8584483674424436
 40
1.0
 40
1.0
 40
1.0
 40
1.0
 10
74.15954082692932
 20
233.7727166921235
 30
0.0
 10
74.18679163720351
 20
233.7957735867432
 30
0.0
 10
74.24141448879132
 20
233.841989949494
 30
0.0
 10
74.33184873533715
 20
233.9009728800572
 30
0.0
 10
74.42945391361027
 20
233.950246381676
 30
0.0
 10
74.5333381834645
 20
233.9910191968142
 30
0.0
 10
74.64418718204067
 20
234.022252647523
 30
0.0
 10
74.76139446144612
 20
234.0453193071943
 30
0.0
 10
74.88572350806629
 20
234.0582523970575
 30
0.0
 10
74.9707877562014
 20
234.060099034435
 30
0.0
 10
75.01434851923699
 20
234.0610446835765
 30
0.0
  0
SPLINE
  5
115
330
1F
100
AcDbEntity
  8
0
  6
Continuous
 62
     7
370
    25
100
AcDbSpline
210
0.0
220
0.0
230
1.0
 70
     8
 71
     3
 72
    19
 73
    15
 74
     0
 42
0.00000001
 43
0.00000001
 40
0.0
 40
0.0
 40
0.0
 40
0.0
 40
0.1136906728947207
 40
0.227752840343099
 40
0.3452500644811252
 40
0.467748625227624
 40
0.530455599515848
 40
0.5933072443274635
 40
0.6563752726954419
 40
0.7210929791344464
 40
0.7878861600018201
 40
0.8558288298907997
 40
0.9266412174145863
 40
1.0
 40
1.0
 40
1.0
 40
1.0
 10
71.28219707692932
 20
233.8710874186192
 30
0.0
 10
71.2589328246897
 20
233.8701146273344
 30
0.0
 10
71.21232830216265
 20
233.8681658660814
 30
0.0
 10
71.14323083627666
 20
233.8520121349913
 30
0.0
 10
71.0753634683416
 20
233.8263845292045
 30
0.0
 10
71.0207775600428
 20
233.7968314246071
 30
0.0
 10
70.97859950893245
 20
233.76858205016
 30
0.0
 10
70.94896337562139
 20
233.7438124022738
 30
0.0
 10
70.92114108223218
 20
233.7164638791912
 30
0.0
 10
70.89527679611406
 20
233.6861906636611
 30
0.0
 10
70.871079806979
 20
233.6533098167787
 30
0.0
 10
70.84946110358005
 20
233.617227086455
 30
0.0
 10
70.8294864925317
 20
233.5787009864759
 30
0.0
 10
70.81787588342033
 20
233.5516026561031
 30
0.0
 10
70.81196804380966
 20
233.5378141814397
 30
0.0
  0
SPLINE
  5
116
330
1F
100
AcDbEntity
  8
0
  6
Continuous
 62
     7
370
    25
100
AcDbSpline
210
0.0
220
0.0
230
1.0
 70
     8
 71
     3
 72
    15
 73
    11
 74
     0
 42
0.00000001
 43
0.00000001
 40
0.0
 40
0.0
 40
0.0
 40
0.0
 40
0.1228512483528999
 40
0.2441073080213354
 40
0.3646178748762216
 40
0.4860564694866915
 40
0.6091339141933252
 40
0.7354468958691356
 40
0.8654307158986295
 40
1.0
 40
1.0
 40
1.0
 40
1.0
 10
87.36750690598913
 20
233.7532121515252
 30
0.0
 10
87.39710673763057
 20
233.7780536897069
 30
0.0
 10
87.45592205547837
 20
233.8274142057288
 30
0.0
 10
87.55270782951668
 20
233.8892384613801
 30
0.0
 10
87.65355215120164
 20
233.9429578043167
 30
0.0
 10
87.76003705541119
 20
233.986175362552
 30
0.0
 10
87.87179805745134
 20
234.0197334066301
 30
0.0
 10
87.98869485725069
 20
234.0437895771636
 30
0.0
 10
88.11084260416428
 20
234.0585745235325
 30
0.0
 10
88.1940050442633
 20
234.060211837115
 30
0.0
 10
88.23630698611734
 20
234.0610446835765
 30
0.0
  0
SPLINE
  5
117
330
1F
100
AcDbEntity
  8
0
  6
Continuous
 62
     7
370
    25
100
AcDbSpline
210
0.0
220
0.0
230
1.0
 70
     8
 71
     3
 72
    23
 73
    19
 74
     0
 42
0.00000001
 43
0.00000001
 40
0.0
 40
0.0
 40
0.0
 40
0.0
 40
0.0562422380004673
 40
0.1110952279919104
 40
0.1649754936054237
 40
0.2189034793833007
 40
0.2733869636152438
 40
0.3302193327364196
 40
0.3891046358203971
 40
0.4515043668854546
 40
0.515498700884799
 40
0.5800498095582755
 40
0.6454300832105101
 40
0.7124729051702651
 40
0.7804970905026887
 40
0.8510340313227528
 40
0.9241112140365105
 40
1.0
 40
1.0
 40
1.0
 40
1.0
 10
61.15340434188658
 20
233.2198053673372
 30
0.0
 10
61.15473831574754
 20
233.199390034574
 30
0.0
 10
61.1573733127798
 20
233.1590636512633
 30
0.0
 10
61.17003676600156
 20
233.1002703788853
 30
0.0
 10
61.18899687085051
 20
233.0441260367571
 30
0.0
 10
61.21576117468338
 20
232.9913999178739
 30
0.0
 10
61.24863338617457
 20
232.9409835405178
 30
0.0
 10
61.28928833823161
 20
232.8941701643
 30
0.0
 10
61.33639144909291
 20
232.8496563566638
 30
0.0
 10
61.38986894212416
 20
232.8085663737112
 30
0.0
 10
61.44866483757588
 20
232.7715874956579
 30
0.0
 10
61.51110026620841
 20
232.7387649982921
 30
0.0
 10
61.5772009485788
 20
232.7110694371473
 30
0.0
 10
61.64663463668555
 20
232.6888474760348
 30
0.0
 10
61.71930840861499
 20
232.6712091287248
 30
0.0
 10
61.79533043008192
 20
232.6592732485032
 30
0.0
 10
61.87476134899867
 20
232.6512867319387
 30
0.0
 10
61.92890156676268
 20
232.6503902656308
 30
0.0
 10
61.95648260043359
 20
232.6499335724654
 30
0.0
  0
SPLINE
  5
118
330
1F
100
AcDbEntity
  8
0
  6
Continuous
 62
     7
370
    25
100
AcDbSpline
210
0.0
220
0.0
230
1.0
 70
     8
 71
     3
 72
    19
 73
    15
 74
     0
 42
0.00000001
 43
0.00000001
 40
0.0
 40
0.0
 40
0.0
 40
0.0
 40
0.105816718487088
 40
0.2062864018400711
 40
0.3020113358359904
 40
0.3932204595543302
 40
0.4791197304682311
 40
0.5585775234652944
 40
0.6320935803738044
 40
0.7004731320979668
 40
0.7683856655711536
 40
0.8401086037716271
 40
0.9171751704369854
 40
1.0
 40
1.0
 40
1.0
 40
1.0
 10
49.44771190064726
 20
231.8901045126363
 30
0.0
 10
49.40302015902947
 20
231.8906193710291
 30
0.0
 10
49.31589499863787
 20
231.8916230714539
 30
0.0
 10
49.18882727674615
 20
231.903372078923
 30
0.0
 10
49.06854063529004
 20
231.9199392226454
 30
0.0
 10
48.95601470039121
 20
231.94516112779
 30
0.0
 10
48.85204130431335
 20
231.9758166433863
 30
0.0
 10
48.75751008468513
 20
232.0112564831151
 30
0.0
 10
48.67294774850152
 20
232.0513584912972
 30
0.0
 10
48.59711961721316
 20
232.0975433161774
 30
0.0
 10
48.52825465352086
 20
232.1524053279239
 30
0.0
 10
48.46345753270684
 20
232.217217689951
 30
0.0
 10
48.40136509875356
 20
232.2930155794839
 30
0.0
 10
48.3641401234544
 20
232.3493726866767
 30
0.0
 10
48.34485733333957
 20
232.3785660510979
 30
0.0
  0
SPLINE
  5
119
330
1F
100
AcDbEntity
  8
0
  6
Continuous
 62
     7
370
    25
100
AcDbSpline
210
0.0
220
0.0
230
1.0
 70
     8
 71
     3
 72
    19
 73
    15
 74
     0
 42
0.00000001
 43
0.00000001
 40
0.0
 40
0.0
 40
0.0
 40
0.0
 40
0.0698326610478817
 40
0.1391429540592453
 40
0.2092526200067939
 40
0.2826497029391408
 40
0.3592538923620693
 40
0.4391487671211299
 40
0.5234134214898551
 40
0.6132640673193167
 40
0.7069595853872186
 40
0.8023251382402953
 40
0.899525596083193
 40
1.0
 40
1.0
 40
1.0
 40
1.0
 10
99.63331887180111
 20
234.1640795393457
 30
0.0
 10
99.63447840789759
 20
234.1865231140905
 30
0.0
 10
99.63678880643289
 20
234.2312423792993
 30
0.0
 10
99.65493632330417
 20
234.2964829596608
 30
0.0
 10
99.68434077537847
 20
234.3584462098172
 30
0.0
 10
99.72494349192924
 20
234.4166969370868
 30
0.0
 10
99.77632293083624
 20
234.4699983236115
 30
0.0
 10
99.83685610432616
 20
234.5185032664243
 30
0.0
 10
99.90782097307287
 20
234.5591358765096
 30
0.0
 10
99.98622762012906
 20
234.5947267831205
 30
0.0
 10
100.0715030211284
 20
234.6225323303858
 30
0.0
 10
100.1610636555692
 20
234.6436626403859
 30
0.0
 10
100.2546060164832
 20
234.6554500376488
 30
0.0
 10
100.318066816792
 20
234.6571759711427
 30
0.0
 10
100.3503227446644
 20
234.658053230585
 30
0.0
  0
SPLINE
  5
11A
330
1F
100
AcDbEntity
  8
0
  6
Continuous
 62
     7
370
    25
100
AcDbSpline
210
0.0
220
0.0
230
1.0
 70
     8
 71
     3
 72
    23
 73
    19
 74
     0
 42
0.00000001
 43
0.00000001
 40
0.0
 40
0.0
 40
0.0
 40
0.0
 40
0.1051993846890855
 40
0.2029407017710133
 40
0.2934983477313712
 40
0.3773173371227957
 40
0.4535648425620645
 40
0.5233083240085254
 40
0.5860856306406779
 40
0.6427947818981478
 40
0.6948933715762999
 40
0.744110019793229
 40
0.7907298191798315
 40
0.8352783186675539
 40
0.8779163347956387
 40
0.9196015320223716
 40
0.9598472980939216
 40
1.0
 40
1.0
 40
1.0
 40
1.0
 10
100.4783742938097
 20
233.6887623652005
 30
0.0
 10
100.509400051392
 20
233.6720765332188
 30
0.0
 10
100.5692520080869
 20
233.63988780453
 30
0.0
 10
100.6546344803792
 20
233.591183292976
 30
0.0
 10
100.7323753944349
 20
233.5436261199585
 30
0.0
 10
100.8026585661798
 20
233.4977249699925
 30
0.0
 10
100.8653113664811
 20
233.4530114013126
 30
0.0
 10
100.9205736323642
 20
233.4101368211918
 30
0.0
 10
100.9679468683312
 20
233.3679774013652
 30
0.0
 10
101.0082489450377
 20
233.3269606131251
 30
0.0
 10
101.0425916213649
 20
233.2866501939209
 30
0.0
 10
101.0720689738324
 20
233.246771765501
 30
0.0
 10
101.0967333805355
 20
233.2066976859992
 30
0.0
 10
101.1173577773912
 20
233.1668545336113
 30
0.0
 10
101.1331663838523
 20
233.1266136598306
 30
0.0
 10
101.1446405368265
 20
233.0864604327495
 30
0.0
 10
101.1518541857731
 20
233.0460791109783
 30
0.0
 10
101.1526030118283
 20
233.0191355959637
 30
0.0
 10
101.1529769914592
 20
233.0056794325081
 30
0.0
  0
SPLINE
  5
11B
330
1F
100
AcDbEntity
  8
0
  6
Continuous
 62
     7
370
    25
100
AcDbSpline
210
0.0
220
0.0
230
1.0
 70
     8
 71
     3
 72
    31
 73
    27
 74
     0
 42
0.00000001
 43
0.00000001
 40
0.0
 40
0.0
 40
0.0
 40
0.0
 40
0.0459878473290945
 40
0.0907563088724276
 40
0.1343947688747798
 40
0.1770088420067217
 40
0.2187877153618628
 40
0.2602090416498594
 40
0.3006856929973841
 40
0.340671231896943
 40
0.38000887726256
 40
0.4179489271936222
 40
0.454550271856703
 40
0.4903482390593654
 40
0.5252274518288103
 40
0.5596517963658155
 40
0.5936364180287774
 40
0.6273669608183899
 40
0.6623890892399162
 40
0.7003759210012418
 40
0.7410631830994785
 40
0.7854394173223599
 40
0.8333656317009694
 40
0.8849494554261852
 40
0.9406879311927367
 40
1.0
 40
1.0
 40
1.0
 40
1.0
 10
57.41531673504897
 20
234.0610446835765
 30
0.0
 10
57.43482987227184
 20
234.0608456367476
 30
0.0
 10
57.47333874824063
 20
234.0604528208943
 30
0.0
 10
57.53021515306824
 20
234.0559788019972
 30
0.0
 10
57.58540113202073
 20
234.0492553252062
 30
0.0
 10
57.63896172963843
 20
234.0400501313772
 30
0.0
 10
57.69091547479508
 20
234.0276715904511
 30
0.0
 10
57.74116865408197
 20
234.0124810536091
 30
0.0
 10
57.78969986627143
 20
233.9945686195224
 30
0.0
 10
57.83636411390732
 20
233.9743406029506
 30
0.0
 10
57.88055052175638
 20
233.951440342292
 30
0.0
 10
57.922349823221
 20
233.927120804403
 30
0.0
 10
57.96052773422264
 20
233.8999804614015
 30
0.0
 10
57.996429894827
 20
233.8719311115413
 30
0.0
 10
58.02856300146103
 20
233.8409528909437
 30
0.0
 10
58.05858632092328
 20
233.8089778462262
 30
0.0
 10
58.08476402897492
 20
233.7743628607477
 30
0.0
 10
58.10855382267333
 20
233.7378103595681
 30
0.0
 10
58.12987232766355
 20
233.697755959821
 30
0.0
 10
58.14733059487562
 20
233.6526963612716
 30
0.0
 10
58.1621801454336
 20
233.6026066347725
 30
0.0
 10
58.17425507976722
 20
233.5474576480691
 30
0.0
 10
58.18406186718693
 20
233.4871743384612
 30
0.0
 10
58.19053652787743
 20
233.4216064975217
 30
0.0
 10
58.19495191255821
 20
233.3510271730237
 30
0.0
 10
58.19531247700064
 20
233.302212439546
 30
0.0
 10
58.19549835898059
 20
233.2770469538756
 30
0.0
  0
SPLINE
  5
11C
330
1F
100
AcDbEntity
  8
0
  6
Continuous
 62
     7
370
    25
100
AcDbSpline
210
0.0
220
0.0
230
1.0
 70
     8
 71
     3
 72
    19
 73
    15
 74
     0
 42
0.00000001
 43
0.00000001
 40
0.0
 40
0.0
 40
0.0
 40
0.0
 40
0.1171378180085594
 40
0.2310050750497536
 40
0.3437116964407464
 40
0.4553713228239493
 40
0.51268249674505
 40
0.5727921204275719
 40
0.6357305212720822
 40
0.7014553495248322
 40
0.7708060291285812
 40
0.8436228892518222
 40
0.919973357738407
 40
1.0
 40
1.0
 40
1.0
 40
1.0
 10
100.3503227446644
 20
234.658053230585
 30
0.0
 10
100.3847194749328
 20
234.6572184469824
 30
0.0
 10
100.4525525572985
 20
234.655572187456
 30
0.0
 10
100.5525823211229
 20
234.6406250036059
 30
0.0
 10
100.6489860318179
 20
234.6164483460649
 30
0.0
 10
100.7269942577478
 20
234.5885058126286
 30
0.0
 10
100.7880020701164
 20
234.5601699086368
 30
0.0
 10
100.8347325315616
 20
234.5352199141998
 30
0.0
 10
100.8816920576149
 20
234.505754000513
 30
0.0
 10
100.9294232025257
 20
234.4725564497698
 30
0.0
 10
100.9775955568108
 20
234.4350749407285
 30
0.0
 10
101.0269105612288
 20
234.3940447415408
 30
0.0
 10
101.0764450175482
 20
234.3484933036996
 30
0.0
 10
101.1091191268527
 20
234.3162592249946
 30
0.0
 10
101.1258402393225
 20
234.2997633000295
 30
0.0
  0
SPLINE
  5
11D
330
1F
100
AcDbEntity
  8
0
  6
Continuous
 62
     7
370
    25
100
AcDbSpline
210
0.0
220
0.0
230
1.0
 70
     8
 71
     3
 72
    15
 73
    11
 74
     0
 42
0.00000001
 43
0.00000001
 40
0.0
 40
0.0
 40
0.0
 40
0.0
 40
0.0996322397616876
 40
0.200256556251476
 40
0.3113265120928356
 40
0.435720207506604
 40
0.5692564064453232
 40
0.7052474850842867
 40
0.8485678845514432
 40
1.0
 40
1.0
 40
1.0
 40
1.0
 10
53.69079750427974
 20
234.521521446397
 30
0.0
 10
53.68983526132543
 20
234.5107913004545
 30
0.0
 10
53.6879011939917
 20
234.489224164358
 30
0.0
 10
53.67373122827134
 20
234.4581417274657
 30
0.0
 10
53.64987810264648
 20
234.4305959870948
 30
0.0
 10
53.61853823445124
 20
234.4059236450431
 30
0.0
 10
53.58114717950786
 20
234.3856741544733
 30
0.0
 10
53.53945270373234
 20
234.3699765215847
 30
0.0
 10
53.49371562767605
 20
234.361184495564
 30
0.0
 10
53.46200854774735
 20
234.3601040480355
 30
0.0
 10
53.44571871154469
 20
234.3595489570808
 30
0.0
  0
SPLINE
  5
11E
330
1F
100
AcDbEntity
  8
0
  6
Continuous
 62
     7
370
    25
100
AcDbSpline
210
0.0
220
0.0
230
1.0
 70
     8
 71
     3
 72
    23
 73
    19
 74
     0
 42
0.00000001
 43
0.00000001
 40
0.0
 40
0.0
 40
0.0
 40
0.0
 40
0.0834196166539252
 40
0.1626723673800179
 40
0.2378581283184273
 40
0.309694361550898
 40
0.3784179109272219
 40
0.4446148807887449
 40
0.5089404755775573
 40
0.5723329789139049
 40
0.6333503630757501
 40
0.6911600318407818
 40
0.7462440832425943
 40
0.7990137376633119
 40
0.8498976057772095
 40
0.8997067520931983
 40
0.9496517992513254
 40
1.0
 40
1.0
 40
1.0
 40
1.0
 10
75.0109564252199
 20
232.4599763075081
 30
0.0
 10
74.96895217838987
 20
232.4606714171729
 30
0.0
 10
74.88704182509485
 20
232.4620269153074
 30
0.0
 10
74.76772498713504
 20
232.4736324885784
 30
0.0
 10
74.6552912407395
 20
232.4925166073281
 30
0.0
 10
74.54983800130671
 20
232.519079647686
 30
0.0
 10
74.45140858946982
 20
232.5533838820006
 30
0.0
 10
74.3601470127315
 20
232.5954116648169
 30
0.0
 10
74.27599722409225
 20
232.6452659663607
 30
0.0
 10
74.19977950161804
 20
232.7022918181788
 30
0.0
 10
74.13184335783443
 20
232.7641049767542
 30
0.0
 10
74.07204811092198
 20
232.8282044547236
 30
0.0
 10
74.02115179784991
 20
232.8944657933289
 30
0.0
 10
73.9796972588151
 20
232.9629950936118
 30
0.0
 10
73.9476352426524
 20
233.0334804711445
 30
0.0
 10
73.92434321455526
 20
233.1058211143861
 30
0.0
 10
73.91046536956596
 20
233.1804053528834
 30
0.0
 10
73.90860950732826
 20
233.2309143584824
 30
0.0
 10
73.9076778461601
 20
233.256270378021
 30
0.0
  0
SPLINE
  5
11F
330
1F
100
AcDbEntity
  8
0
  6
Continuous
 62
     7
370
    25
100
AcDbSpline
210
0.0
220
0.0
230
1.0
 70
     8
 71
     3
 72
    15
 73
    11
 74
     0
 42
0.00000001
 43
0.00000001
 40
0.0
 40
0.0
 40
0.0
 40
0.0
 40
0.1282371931432911
 40
0.2529611526723243
 40
0.3743898154850624
 40
0.4933788737268044
 40
0.6131582699437216
 40
0.7364478738047932
 40
0.8650788649147714
 40
1.0
 40
1.0
 40
1.0
 40
1.0
 10
49.42354323077546
 20
234.0610446835765
 30
0.0
 10
49.46286812729466
 20
234.0602239415099
 30
0.0
 10
49.5404405609107
 20
234.0586049427301
 30
0.0
 10
49.65467742656236
 20
234.0459698362821
 30
0.0
 10
49.76490649331524
 20
234.0258444373638
 30
0.0
 10
49.87160929607384
 20
233.9968629943071
 30
0.0
 10
49.97581328386039
 20
233.9579398419152
 30
0.0
 10
50.07717177244098
 20
233.9053638484525
 30
0.0
 10
50.17695351724394
 20
233.8408046247333
 30
0.0
 10
50.23953115329047
 20
233.7896011845934
 30
0.0
 10
50.27156673504897
 20
233.7633884335765
 30
0.0
  0
SPLINE
  5
120
330
1F
100
AcDbEntity
  8
0
  6
Continuous
 62
     7
370
    25
100
AcDbSpline
210
0.0
220
0.0
230
1.0
 70
     8
 71
     3
 72
    11
 73
     7
 74
     0
 42
0.00000001
 43
0.00000001
 40
0.0
 40
0.0
 40
0.0
 40
0.0
 40
0.2228167209381382
 40
0.4581366256028345
 40
0.7130352693201311
 40
1.0
 40
1.0
 40
1.0
 40
1.0
 10
100.8816094700917
 20
233.0086475147731
 30
0.0
 10
100.8803160608897
 20
233.0263323631204
 30
0.0
 10
100.8776566638532
 20
233.0626944310657
 30
0.0
 10
100.8572001453984
 20
233.1161485469725
 30
0.0
 10
100.8239426725938
 20
233.1683684383191
 30
0.0
 10
100.7945595803015
 20
233.199778734684
 30
0.0
 10
100.7789986260746
 20
233.2164132733201
 30
0.0
  0
SPLINE
  5
121
330
1F
100
AcDbEntity
  8
0
  6
Continuous
 62
     7
370
    25
100
AcDbSpline
210
0.0
220
0.0
230
1.0
 70
     8
 71
     3
 72
    15
 73
    11
 74
     0
 42
0.00000001
 43
0.00000001
 40
0.0
 40
0.0
 40
0.0
 40
0.0
 40
0.1148092977023794
 40
0.2314757920556262
 40
0.352250406904515
 40
0.4771951027330858
 40
0.6055196838899934
 40
0.7344225304212295
 40
0.8657956724002415
 40
0.9999999999999999
 40
0.9999999999999999
 40
0.9999999999999999
 40
0.9999999999999999
 10
50.27156673504898
 20
232.7834972743885
 30
0.0
 10
50.24461890717676
 20
232.7604156954042
 30
0.0
 10
50.19028733363935
 20
232.7138791614807
 30
0.0
 10
50.09885597416415
 20
232.6543625914421
 30
0.0
 10
49.9989251325247
 20
232.6036342610308
 30
0.0
 10
49.89121832340699
 20
232.5614711869024
 30
0.0
 10
49.77782680435199
 20
232.5282067992972
 30
0.0
 10
49.66006750379773
 20
232.5045875342365
 30
0.0
 10
49.53897985215367
 20
232.4896072937653
 30
0.0
 10
49.45694280737151
 20
232.48795035893
 30
0.0
 10
49.41548700748487
 20
232.4871130596449
 30
0.0
  0
SPLINE
  5
122
330
1F
100
AcDbEntity
  8
0
  6
Continuous
 62
     7
370
    25
100
AcDbSpline
210
0.0
220
0.0
230
1.0
 70
     8
 71
     3
 72
    19
 73
    15
 74
     0
 42
0.00000001
 43
0.00000001
 40
0.0
 40
0.0
 40
0.0
 40
0.0
 40
0.089322488608849
 40
0.1779935456169287
 40
0.2658564039435705
 40
0.3531379379914408
 40
0.4381739444903918
 40
0.5179792795412531
 40
0.592595748912449
 40
0.6630028869923604
 40
0.7349859207590654
 40
0.8150730395783289
 40
0.9029635439372442
 40
1.0
 40
1.0
 40
1.0
 40
1.0
 10
74.98212362607461
 20
232.6499335724654
 30
0.0
 10
75.0089916022394
 20
232.6503107247715
 30
0.0
 10
75.06253160560928
 20
232.6510622788005
 30
0.0
 10
75.14225323451218
 20
232.6580482442408
 30
0.0
 10
75.22079706242451
 20
232.6695316836366
 30
0.0
 10
75.29750372143637
 20
232.6851609360971
 30
0.0
 10
75.37096020344057
 20
232.7041769900736
 30
0.0
 10
75.43925431041644
 20
232.7271921433279
 30
0.0
 10
75.50199235746385
 20
232.7525347377911
 30
0.0
 10
75.56053019465706
 20
232.7815585519425
 30
0.0
 10
75.61749254275074
 20
232.81692140271
 30
0.0
 10
75.67422382329995
 20
232.8616615639912
 30
0.0
 10
75.73418383271873
 20
232.9142709178717
 30
0.0
 10
75.7726498687789
 20
232.9544772091339
 30
0.0
 10
75.79283409616008
 20
232.9755745981064
 30
0.0
  0
SPLINE
  5
123
330
1F
100
AcDbEntity
  8
0
  6
Continuous
 62
     7
370
    25
100
AcDbSpline
210
0.0
220
0.0
230
1.0
 70
     8
 71
     3
 72
    15
 73
    11
 74
     0
 42
0.00000001
 43
0.00000001
 40
0.0
 40
0.0
 40
0.0
 40
0.0
 40
0.1432872605899224
 40
0.2788860267389043
 40
0.4078463398347359
 40
0.5323861394604175
 40
0.6508418493359074
 40
0.7678447429111661
 40
0.8841679528690602
 40
1.0
 40
1.0
 40
1.0
 40
1.0
 10
99.79317130235665
 20
233.8418306077218
 30
0.0
 10
99.78054706369427
 20
233.8542311259293
 30
0.0
 10
99.75597597658809
 20
233.8783667764969
 30
0.0
 10
99.72314354372926
 20
233.9166296583433
 30
0.0
 10
99.69518069121568
 20
233.9558000156446
 30
0.0
 10
99.67290387519684
 20
233.9960384115868
 30
0.0
 10
99.65493299733883
 20
234.0368011294503
 30
0.0
 10
99.6428681427404
 20
234.0786074181662
 30
0.0
 10
99.63476335654455
 20
234.1210837340432
 30
0.0
 10
99.63379968711493
 20
234.1497678328959
 30
0.0
 10
99.63331887180112
 20
234.1640795393457
 30
0.0
  0
SPLINE
  5
124
330
1F
100
AcDbEntity
  8
0
  6
Continuous
 62
     7
370
    25
100
AcDbSpline
210
0.0
220
0.0
230
1.0
 70
     8
 71
     3
 72
    19
 73
    15
 74
     0
 42
0.00000001
 43
0.00000001
 40
0.0
 40
0.0
 40
0.0
 40
0.0
 40
0.1375381741946168
 40
0.2695183963580463
 40
0.3964327086530419
 40
0.5190646720176018
 40
0.5794066002034494
 40
0.6391192446148048
 40
0.6987757449218426
 40
0.7583658249073356
 40
0.8181107707786014
 40
0.8783179242622979
 40
0.9387876101836924
 40
1.0
 40
1.0
 40
1.0
 40
1.0
 10
88.22825076282675
 20
232.4599763075081
 30
0.0
 10
88.18510725417232
 20
232.4608498897634
 30
0.0
 10
88.10056367684271
 20
232.4625617525966
 30
0.0
 10
87.976813154281
 20
232.4766211876613
 30
0.0
 10
87.85946219167671
 20
232.5005403945445
 30
0.0
 10
87.76591031126584
 20
232.5274993177368
 30
0.0
 10
87.69483039410262
 20
232.5548367164941
 30
0.0
 10
87.6433678142642
 20
232.5778731700898
 30
0.0
 10
87.5932398108858
 20
232.6031810841489
 30
0.0
 10
87.54480580401811
 20
232.6316470840863
 30
0.0
 10
87.49815431633714
 20
232.6632333589481
 30
0.0
 10
87.45280292146425
 20
232.6970958834496
 30
0.0
 10
87.40882881292802
 20
232.733512301404
 30
0.0
 10
87.38133680875758
 20
232.7599975432099
 30
0.0
 10
87.36750690598913
 20
232.7733209923372
 30
0.0
  0
SPLINE
  5
125
330
1F
100
AcDbEntity
  8
0
  6
Continuous
 62
     7
370
    25
100
AcDbSpline
210
0.0
220
0.0
230
1.0
 70
     8
 71
     3
 72
    15
 73
    11
 74
     0
 42
0.00000001
 43
0.00000001
 40
0.0
 40
0.0
 40
0.0
 40
0.0
 40
0.1409215755523948
 40
0.2750588709579355
 40
0.4036639716820112
 40
0.5276714691732842
 40
0.6482875994392959
 40
0.766336607416619
 40
0.8832734738610499
 40
1.0
 40
1.0
 40
1.0
 40
1.0
 10
66.7919126218011
 20
234.0610446835765
 30
0.0
 10
66.83675878758271
 20
234.0602378604997
 30
0.0
 10
66.92429212432214
 20
234.0586630566151
 30
0.0
 10
67.05204331080473
 20
234.0438076084186
 30
0.0
 10
67.17293781629002
 20
234.0203134045682
 30
0.0
 10
67.2871671936995
 20
233.9872963588921
 30
0.0
 10
67.3945728086911
 20
233.9445414199157
 30
0.0
 10
67.49463565436102
 20
233.8914345767863
 30
0.0
 10
67.58842938495572
 20
233.8298669971701
 30
0.0
 10
67.64454998862183
 20
233.7810105027888
 30
0.0
 10
67.67258503098915
 20
233.7566042455423
 30
0.0
  0
SPLINE
  5
126
330
1F
100
AcDbEntity
  8
0
  6
Continuous
 62
     7
370
    25
100
AcDbSpline
210
0.0
220
0.0
230
1.0
 70
     8
 71
     3
 72
    15
 73
    11
 74
     0
 42
0.00000001
 43
0.00000001
 40
0.0
 40
0.0
 40
0.0
 40
0.0
 40
0.0983324774629886
 40
0.1976455295311197
 40
0.2996452196612624
 40
0.4071522411427012
 40
0.5262926005349402
 40
0.6632767074763269
 40
0.8205553785946199
 40
1.0
 40
1.0
 40
1.0
 40
1.0
 10
99.90468639316862
 20
234.1729837861406
 30
0.0
 10
99.90516811489145
 20
234.1616306527168
 30
0.0
 10
99.90613636208148
 20
234.1388111720603
 30
0.0
 10
99.91433500312887
 20
234.1050632110496
 30
0.0
 10
99.92657406112126
 20
234.0715433590545
 30
0.0
 10
99.94491465843424
 20
234.0382000833108
 30
0.0
 10
99.9702139002188
 20
234.0046142520336
 30
0.0
 10
100.0033602351491
 20
233.9702270526992
 30
0.0
 10
100.0448781847377
 20
233.9346201177834
 30
0.0
 10
100.0762363824937
 20
233.9117069554216
 30
0.0
 10
100.0929476111173
 20
233.8994962060124
 30
0.0
  0
SPLINE
  5
127
330
1F
100
AcDbEntity
  8
0
  6
Continuous
 62
     7
370
    25
100
AcDbSpline
210
0.0
220
0.0
230
1.0
 70
     8
 71
     3
 72
    23
 73
    19
 74
     0
 42
0.00000001
 43
0.00000001
 40
0.0
 40
0.0
 40
0.0
 40
0.0
 40
0.0512238807123185
 40
0.1021530442839578
 40
0.1537818223856873
 40
0.2065878414311431
 40
0.2607331315904944
 40
0.3168923882769543
 40
0.3754347291055175
 40
0.4365311897851824
 40
0.4994931706888826
 40
0.5642167820253355
 40
0.6312624051660171
 40
0.6999698541127298
 40
0.7711005413845446
 40
0.844699035137
 40
0.9209596363227426
 40
1.0
 40
1.0
 40
1.0
 40
1.0
 10
50.46449208227119
 20
232.3319247583628
 30
0.0
 10
50.45494581422079
 20
232.3144693069475
 30
0.0
 10
50.4359082026744
 20
232.2796588342416
 30
0.0
 10
50.4010102699623
 20
232.2310681955275
 30
0.0
 10
50.36143639010298
 20
232.1854714106092
 30
0.0
 10
50.31667523768276
 20
232.1431048214126
 30
0.0
 10
50.26724900404928
 20
232.1034374527401
 30
0.0
 10
50.21270062348862
 20
232.0669949556481
 30
0.0
 10
50.15323791269447
 20
232.0334007239829
 30
0.0
 10
50.08885843892647
 20
232.0036296669338
 30
0.0
 10
50.02057749046395
 20
231.9769532759474
 30
0.0
 10
49.9486465442438
 20
231.953655771069
 30
0.0
 10
49.87341749738759
 20
231.9335851542331
 30
0.0
 10
49.79455092987189
 20
231.9183351470753
 30
0.0
 10
49.71272377780598
 20
231.9052799331183
 30
0.0
 10
49.62735223842473
 20
231.8967318461943
 30
0.0
 10
49.53867340311545
 20
231.890904169469
 30
0.0
 10
49.47839206398208
 20
231.8903742267634
 30
0.0
 10
49.44771190064726
 20
231.8901045126363
 30
0.0
  0
SPLINE
  5
128
330
1F
100
AcDbEntity
  8
0
  6
Continuous
 62
     7
370
    25
100
AcDbSpline
210
0.0
220
0.0
230
1.0
 70
     8
 71
     3
 72
    23
 73
    19
 74
     0
 42
0.00000001
 43
0.00000001
 40
0.0
 40
0.0
 40
0.0
 40
0.0
 40
0.0633137509325685
 40
0.1251674689650242
 40
0.1860977426593284
 40
0.2459999619556454
 40
0.3049269555408084
 40
0.3635603512642552
 40
0.421725494609766
 40
0.4800209264360601
 40
0.5384862974146319
 40
0.5985233676021234
 40
0.6598586793022803
 40
0.7233302479802408
 40
0.7889053583606633
 40
0.8567893276764448
 40
0.9269026021285486
 40
1.0
 40
1.0
 40
1.0
 40
1.0
 10
100.3248820395361
 20
232.4328395553714
 30
0.0
 10
100.3029626236056
 20
232.433141912609
 30
0.0
 10
100.2596292596394
 20
232.4337396546414
 30
0.0
 10
100.1954133126147
 20
232.4392129550935
 30
0.0
 10
100.1326077945403
 20
232.44683511543
 30
0.0
 10
100.0715476518965
 20
232.4590271968781
 30
0.0
 10
100.0118943036356
 20
232.473760700082
 30
0.0
 10
99.95381099350102
 20
232.4919649803938
 30
0.0
 10
99.89721858687977
 20
232.5137427635007
 30
0.0
 10
99.84199014711761
 20
232.538650438382
 30
0.0
 10
99.78807116528783
 20
232.5677138935505
 30
0.0
 10
99.7355985576703
 20
232.6012907948864
 30
0.0
 10
99.68400788445622
 20
232.6392121988164
 30
0.0
 10
99.63367699193337
 20
232.6818025565018
 30
0.0
 10
99.58387193757547
 20
232.7283968212577
 30
0.0
 10
99.5357083989555
 20
232.7798808575463
 30
0.0
 10
99.4883465438721
 20
232.8355689787406
 30
0.0
 10
99.45856345223596
 20
232.875205273126
 30
0.0
 10
99.44336160684384
 20
232.8954363769526
 30
0.0
  0
SPLINE
  5
129
330
1F
100
AcDbEntity
  8
0
  6
Continuous
 62
     7
370
    25
100
AcDbSpline
210
0.0
220
0.0
230
1.0
 70
     8
 71
     3
 72
    19
 73
    15
 74
     0
 42
0.00000001
 43
0.00000001
 40
0.0
 40
0.0
 40
0.0
 40
0.0
 40
0.0806803365651382
 40
0.1589262649885795
 40
0.2364214457456149
 40
0.3125352136089888
 40
0.3891761139296897
 40
0.4672641718361865
 40
0.5474043757465903
 40
0.6298830119760976
 40
0.7157515796920042
 40
0.8054441035632397
 40
0.9004517597083461
 40
1.0
 40
1.0
 40
1.0
 40
1.0
 10
67.80190861539084
 20
232.8869561419098
 30
0.0
 10
67.78266958570495
 20
232.8629995101539
 30
0.0
 10
67.74477203519689
 20
232.815809102072
 30
0.0
 10
67.68134966657556
 20
232.7517260638417
 30
0.0
 10
67.61366122868904
 20
232.6949075394797
 30
0.0
 10
67.54124359995377
 20
232.6453012099993
 30
0.0
 10
67.46442738248531
 20
232.6024250699612
 30
0.0
 10
67.38309317404644
 20
232.5651267912627
 30
0.0
 10
67.297271406082
 20
232.5328387704224
 30
0.0
 10
67.20649540264913
 20
232.505961962219
 30
0.0
 10
67.1103801509215
 20
232.4853125234389
 30
0.0
 10
67.00839320307801
 20
232.4705569838206
 30
0.0
 10
66.90047988492265
 20
232.4615931924681
 30
0.0
 10
66.8264164822963
 20
232.4605235900262
 30
0.0
 10
66.78852052778402
 20
232.4599763075082
 30
0.0
  0
SPLINE
  5
12A
330
1F
100
AcDbEntity
  8
0
  6
Continuous
 62
     7
370
    25
100
AcDbSpline
210
0.0
220
0.0
230
1.0
 70
     8
 71
     3
 72
    15
 73
    11
 74
     0
 42
0.00000001
 43
0.00000001
 40
0.0
 40
0.0
 40
0.0
 40
0.0
 40
0.1203893053149681
 40
0.2394420388937779
 40
0.3580854702680111
 40
0.4783577532994173
 40
0.6010306818585279
 40
0.7278897772833796
 40
0.8608446635769004
 40
1.0
 40
1.0
 40
1.0
 40
1.0
 10
60.88203682051905
 20
233.256270378021
 30
0.0
 10
60.88273363683521
 20
233.2800637980779
 30
0.0
 10
60.88411953335682
 20
233.3273864817315
 30
0.0
 10
60.89640072997174
 20
233.3972921423646
 30
0.0
 10
60.91654512953835
 20
233.4651952769761
 30
0.0
 10
60.94426001366893
 20
233.5311697404495
 30
0.0
 10
60.97967601316063
 20
233.595228777371
 30
0.0
 10
61.02348887944402
 20
233.6569189437064
 30
0.0
 10
61.07476853122001
 20
233.7169498251126
 30
0.0
 10
61.11389221349833
 20
233.7538474798403
 30
0.0
 10
61.13389980128829
 20
233.7727166921235
 30
0.0
  0
SPLINE
  5
12B
330
1F
100
AcDbEntity
  8
0
  6
Continuous
 62
     7
370
    25
100
AcDbSpline
210
0.0
220
0.0
230
1.0
 70
     8
 71
     3
 72
    23
 73
    19
 74
     0
 42
0.00000001
 43
0.00000001
 40
0.0
 40
0.0
 40
0.0
 40
0.0
 40
0.0834196166539208
 40
0.1626723673800183
 40
0.2378581283184279
 40
0.3096943615508944
 40
0.3784179109272228
 40
0.4446148807887461
 40
0.5089404755775586
 40
0.5723329789139064
 40
0.6333503630757519
 40
0.6911600318407837
 40
0.7462440832425963
 40
0.7990137376633116
 40
0.8498976057772075
 40
0.8997067520931964
 40
0.9496517992513253
 40
1.0
 40
1.0
 40
1.0
 40
1.0
 10
39.9774094166729
 20
232.4599763075081
 30
0.0
 10
39.93540516984284
 20
232.4606714171728
 30
0.0
 10
39.85349481654783
 20
232.4620269153073
 30
0.0
 10
39.73417797858806
 20
232.4736324885785
 30
0.0
 10
39.6217442321925
 20
232.4925166073281
 30
0.0
 10
39.51629099275969
 20
232.5190796476859
 30
0.0
 10
39.41786158092281
 20
232.5533838820005
 30
0.0
 10
39.32660000418447
 20
232.5954116648169
 30
0.0
 10
39.24245021554526
 20
232.6452659663608
 30
0.0
 10
39.16623249307101
 20
232.7022918181788
 30
0.0
 10
39.09829634928745
 20
232.7641049767543
 30
0.0
 10
39.03850110237496
 20
232.8282044547235
 30
0.0
 10
38.98760478930291
 20
232.8944657933289
 30
0.0
 10
38.94615025026809
 20
232.9629950936117
 30
0.0
 10
38.91408823410539
 20
233.0334804711445
 30
0.0
 10
38.89079620600828
 20
233.1058211143861
 30
0.0
 10
38.87691836101892
 20
233.1804053528834
 30
0.0
 10
38.87506249878123
 20
233.2309143584823
 30
0.0
 10
38.87413083761307
 20
233.2562703780209
 30
0.0
  0
SPLINE
  5
12C
330
1F
100
AcDbEntity
  8
0
  6
Continuous
 62
     7
370
    25
100
AcDbSpline
210
0.0
220
0.0
230
1.0
 70
     8
 71
     3
 72
    15
 73
    11
 74
     0
 42
0.00000001
 43
0.00000001
 40
0.0
 40
0.0
 40
0.0
 40
0.0
 40
0.184635125958413
 40
0.3525209658526628
 40
0.5022816448825284
 40
0.6356704567109946
 40
0.7520888317083877
 40
0.8512091745948609
 40
0.9340604603510966
 40
1.0
 40
1.0
 40
1.0
 40
1.0
 10
100.262552311972
 20
233.5539266280209
 30
0.0
 10
100.2325263820296
 20
233.5697821013411
 30
0.0
 10
100.1751983423678
 20
233.6000547092203
 30
0.0
 10
100.0944885936591
 20
233.6449898073565
 30
0.0
 10
100.0225189146695
 20
233.6862241655355
 30
0.0
 10
99.95932190165524
 20
233.7237290502503
 30
0.0
 10
99.90512411192722
 20
233.758094508885
 30
0.0
 10
99.85938863379691
 20
233.788422959253
 30
0.0
 10
99.82277727045808
 20
233.8156807240456
 30
0.0
 10
99.8022627222263
 20
233.8338004844971
 30
0.0
 10
99.79317130235665
 20
233.8418306077218
 30
0.0
  0
SPLINE
  5
12D
330
1F
100
AcDbEntity
  8
0
  6
Continuous
 62
     7
370
    25
100
AcDbSpline
210
0.0
220
0.0
230
1.0
 70
     8
 71
     3
 72
    19
 73
    15
 74
     0
 42
0.00000001
 43
0.00000001
 40
0.0
 40
0.0
 40
0.0
 40
0.0
 40
0.0893224886088413
 40
0.1779935456169285
 40
0.2658564039435854
 40
0.3531379379914555
 40
0.4381739444903991
 40
0.517979279541253
 40
0.5925957489124488
 40
0.663002886992367
 40
0.7349859207590653
 40
0.8150730395783287
 40
0.9029635439372496
 40
1.0
 40
1.0
 40
1.0
 40
1.0
 10
39.9485766175276
 20
232.6499335724654
 30
0.0
 10
39.97544459369238
 20
232.6503107247715
 30
0.0
 10
40.02898459706225
 20
232.6510622788005
 30
0.0
 10
40.1087062259652
 20
232.6580482442409
 30
0.0
 10
40.18725005387751
 20
232.6695316836366
 30
0.0
 10
40.2639567128894
 20
232.6851609360971
 30
0.0
 10
40.33741319489355
 20
232.7041769900735
 30
0.0
 10
40.40570730186943
 20
232.7271921433278
 30
0.0
 10
40.46844534891688
 20
232.7525347377912
 30
0.0
 10
40.52698318611004
 20
232.7815585519424
 30
0.0
 10
40.58394553420379
 20
232.8169214027102
 30
0.0
 10
40.64067681475291
 20
232.8616615639911
 30
0.0
 10
40.70063682417175
 20
232.9142709178718
 30
0.0
 10
40.7391028602319
 20
232.954477209134
 30
0.0
 10
40.75928708761307
 20
232.9755745981064
 30
0.0
  0
SPLINE
  5
12E
330
1F
100
AcDbEntity
  8
0
  6
Continuous
 62
     7
370
    25
100
AcDbSpline
210
0.0
220
0.0
230
1.0
 70
     8
 71
     3
 72
    15
 73
    11
 74
     0
 42
0.00000001
 43
0.00000001
 40
0.0
 40
0.0
 40
0.0
 40
0.0
 40
0.1495183240730287
 40
0.2922268522073339
 40
0.4288667796255083
 40
0.5630401144743845
 40
0.6880273245379436
 40
0.7987879676735257
 40
0.8998923889287647
 40
1.0
 40
1.0
 40
1.0
 40
1.0
 10
53.44571871154469
 20
234.3595489570808
 30
0.0
 10
53.42971028160944
 20
234.3601074219167
 30
0.0
 10
53.39842252395322
 20
234.3611989163679
 30
0.0
 10
53.35313284226887
 20
234.3700475910976
 30
0.0
 10
53.31155187832415
 20
234.3856611960174
 30
0.0
 10
53.27420510077842
 20
234.4059527837234
 30
0.0
 10
53.24279167839329
 20
234.4304482461059
 30
0.0
 10
53.21944022434042
 20
234.4582881514306
 30
0.0
 10
53.20521421405557
 20
234.4892091843059
 30
0.0
 10
53.20329220800627
 20
234.5107863236225
 30
0.0
 10
53.2023359658182
 20
234.521521446397
 30
0.0
  0
SPLINE
  5
12F
330
1F
100
AcDbEntity
  8
0
  6
Continuous
 62
     7
370
    25
100
AcDbSpline
210
0.0
220
0.0
230
1.0
 70
     8
 71
     3
 72
    19
 73
    15
 74
     0
 42
0.00000001
 43
0.00000001
 40
0.0
 40
0.0
 40
0.0
 40
0.0
 40
0.1029121935135336
 40
0.2030881597253537
 40
0.3017822431284423
 40
0.3993488624445181
 40
0.4928061410276469
 40
0.5792237997257869
 40
0.6597581565320206
 40
0.7353324932652333
 40
0.8068591920551539
 40
0.8735167248744223
 40
0.9367649591783913
 40
1.0
 40
1.0
 40
1.0
 40
1.0
 10
100.3189458750062
 20
232.6499335724654
 30
0.0
 10
100.3441365042249
 20
232.6504424042505
 30
0.0
 10
100.3938479947265
 20
232.6514465390114
 30
0.0
 10
100.4671516817684
 20
232.661280942974
 30
0.0
 10
100.5382073143427
 20
232.6762322263821
 30
0.0
 10
100.6057984024923
 20
232.6978802504049
 30
0.0
 10
100.6686810912527
 20
232.7237977818233
 30
0.0
 10
100.7240939204628
 20
232.7555050954711
 30
0.0
 10
100.7723360115926
 20
232.7903868872985
 30
0.0
 10
100.8115442239369
 20
232.8302565609852
 30
0.0
 10
100.8427584430813
 20
232.872480627982
 30
0.0
 10
100.8651374797046
 20
232.9165862337162
 30
0.0
 10
100.8793037888976
 20
232.9621303758265
 30
0.0
 10
100.8808409631413
 20
232.9931428800967
 30
0.0
 10
100.8816094700917
 20
233.0086475147731
 30
0.0
  0
SPLINE
  5
130
330
1F
100
AcDbEntity
  8
0
  6
Continuous
 62
     7
370
    25
100
AcDbSpline
210
0.0
220
0.0
230
1.0
 70
     8
 71
     3
 72
    15
 73
    11
 74
     0
 42
0.00000001
 43
0.00000001
 40
0.0
 40
0.0
 40
0.0
 40
0.0
 40
0.102225892835417
 40
0.2040454539155667
 40
0.3152932260239381
 40
0.4396772240698882
 40
0.5732030129179989
 40
0.7091834900911288
 40
0.8512032797605774
 40
1.0
 40
1.0
 40
1.0
 40
1.0
 10
53.2023359658182
 20
234.521521446397
 30
0.0
 10
53.20327398180988
 20
234.5325418832204
 30
0.0
 10
53.20514628532803
 20
234.5545389523739
 30
0.0
 10
53.21942904336901
 20
234.5859901676809
 30
0.0
 10
53.24263923982888
 20
234.6142803346877
 30
0.0
 10
53.27422488615899
 20
234.6387686854454
 30
0.0
 10
53.31154631785089
 20
234.6590826537232
 30
0.0
 10
53.35313440832024
 20
234.6746899658704
 30
0.0
 10
53.39842210315057
 20
234.6835403950064
 30
0.0
 10
53.42971013917956
 20
234.6846316436524
 30
0.0
 10
53.44571871154469
 20
234.6851899827218
 30
0.0
  0
SPLINE
  5
131
330
1F
100
AcDbEntity
  8
0
  6
Continuous
 62
     7
370
    25
100
AcDbSpline
210
0.0
220
0.0
230
1.0
 70
     8
 71
     3
 72
    31
 73
    27
 74
     0
 42
0.00000001
 43
0.00000001
 40
0.0
 40
0.0
 40
0.0
 40
0.0
 40
0.0350186216942882
 40
0.0700565652630774
 40
0.104764574119599
 40
0.1397456581793571
 40
0.1752789220721697
 40
0.2116307539576085
 40
0.2486607590291572
 40
0.2873758732810071
 40
0.3267971893720773
 40
0.3667033168906573
 40
0.4071051917093818
 40
0.4483622222691656
 40
0.4904674419789698
 40
0.5338331206324483
 40
0.5785074912346783
 40
0.624750411507593
 40
0.6715495983948322
 40
0.7182184453470921
 40
0.7646966651048713
 40
0.8112493479766574
 40
0.857871251665443
 40
0.904771563630685
 40
0.9522984044765656
 40
0.9999999999999999
 40
0.9999999999999999
 40
0.9999999999999999
 40
0.9999999999999999
 10
48.31772058120281
 20
233.2655986365679
 30
0.0
 10
48.31805416724763
 20
233.2831518990463
 30
0.0
 10
48.3187215233967
 20
233.3182681091911
 30
0.0
 10
48.32641853700765
 20
233.3702891382977
 30
0.0
 10
48.33771872915855
 20
233.4215571555239
 30
0.0
 10
48.3539901270765
 20
233.4717739827431
 30
0.0
 10
48.37485639509212
 20
233.5211364967337
 30
0.0
 10
48.40039897937535
 20
233.5694072268151
 30
0.0
 10
48.43034144441316
 20
233.616974028085
 30
0.0
 10
48.46502500470104
 20
233.6631292232653
 30
0.0
 10
48.50343215182082
 20
233.7081444701506
 30
0.0
 10
48.54597769852215
 20
233.7504983274506
 30
0.0
 10
48.5920040016966
 20
233.7904185822939
 30
0.0
 10
48.6411906519749
 20
233.8282091938993
 30
0.0
 10
48.69396321197944
 20
233.8635781299702
 30
0.0
 10
48.75054737994557
 20
233.896015939315
 30
0.0
 10
48.81040268224849
 20
233.9267587855843
 30
0.0
 10
48.87363731537847
 20
233.9544310432357
 30
0.0
 10
48.93911348084465
 20
233.9791633937047
 30
0.0
 10
49.00557932182765
 20
234.0015480650755
 30
0.0
 10
49.07325324214063
 20
234.0194509259224
 30
0.0
 10
49.14145985206967
 20
234.0350992826044
 30
0.0
 10
49.21077218215086
 20
234.0462204353151
 30
0.0
 10
49.28089979973007
 20
234.054881730203
 30
0.0
 10
49.35194844027053
 20
234.060053679153
 30
0.0
 10
49.39964912193756
 20
234.0607139448819
 30
0.0
 10
49.42354323077546
 20
234.0610446835765
 30
0.0
  0
SPLINE
  5
132
330
1F
100
AcDbEntity
  8
0
  6
Continuous
 62
     7
370
    25
100
AcDbSpline
210
0.0
220
0.0
230
1.0
 70
     8
 71
     3
 72
    15
 73
    11
 74
     0
 42
0.00000001
 43
0.00000001
 40
0.0
 40
0.0
 40
0.0
 40
0.0
 40
0.0782293435333223
 40
0.1694562746865596
 40
0.2730778308167464
 40
0.3913587828465995
 40
0.52246921660287
 40
0.6675474639625969
 40
0.8267193404304636
 40
1.0
 40
1.0
 40
1.0
 40
1.0
 10
44.09668358868145
 20
233.4614920660551
 30
0.0
 10
44.09340501450443
 20
233.4510782634038
 30
0.0
 10
44.0863031401792
 20
233.4285204337849
 30
0.0
 10
44.07869567014772
 20
233.3911443325357
 30
0.0
 10
44.0718649377583
 20
233.3480032469118
 30
0.0
 10
44.06657309494938
 20
233.2990319913172
 30
0.0
 10
44.06232879340295
 20
233.2441681449852
 30
0.0
 10
44.05962805188436
 20
233.1835000718092
 30
0.0
 10
44.05721162057691
 20
233.1169305169094
 30
0.0
 10
44.05723717583857
 20
233.0705559022938
 30
0.0
 10
44.05725049573273
 20
233.0463845607133
 30
0.0
  0
SPLINE
  5
133
330
1F
100
AcDbEntity
  8
0
  6
Continuous
 62
     7
370
    25
100
AcDbSpline
210
0.0
220
0.0
230
1.0
 70
     8
 71
     3
 72
    23
 73
    19
 74
     0
 42
0.00000001
 43
0.00000001
 40
0.0
 40
0.0
 40
0.0
 40
0.0
 40
0.0562422380004672
 40
0.1110952279919116
 40
0.1649754936054248
 40
0.2189034793833047
 40
0.2733869636152478
 40
0.3302193327364194
 40
0.3891046358203968
 40
0.4515043668854443
 40
0.5154987008847939
 40
0.580049809558276
 40
0.6454300832105107
 40
0.7124729051702656
 40
0.7804970905026891
 40
0.8510340313227595
 40
0.9241112140365171
 40
1.0
 40
1.0
 40
1.0
 40
1.0
 10
65.9566094700917
 20
233.2198053673372
 30
0.0
 10
65.95794344395267
 20
233.199390034574
 30
0.0
 10
65.96057844098492
 20
233.1590636512634
 30
0.0
 10
65.97324189420668
 20
233.1002703788851
 30
0.0
 10
65.99220199905561
 20
233.0441260367571
 30
0.0
 10
66.01896630288851
 20
232.9913999178739
 30
0.0
 10
66.05183851437974
 20
232.940983540518
 30
0.0
 10
66.09249346643675
 20
232.8941701643
 30
0.0
 10
66.13959657729804
 20
232.8496563566638
 30
0.0
 10
66.19307407032929
 20
232.8085663737112
 30
0.0
 10
66.25186996578098
 20
232.7715874956578
 30
0.0
 10
66.31430539441355
 20
232.7387649982922
 30
0.0
 10
66.38040607678393
 20
232.7110694371472
 30
0.0
 10
66.44983976489068
 20
232.6888474760349
 30
0.0
 10
66.52251353682013
 20
232.6712091287248
 30
0.0
 10
66.59853555828707
 20
232.6592732485032
 30
0.0
 10
66.67796647720381
 20
232.6512867319387
 30
0.0
 10
66.73210669496781
 20
232.6503902656308
 30
0.0
 10
66.75968772863871
 20
232.6499335724654
 30
0.0
  0
SPLINE
  5
134
330
1F
100
AcDbEntity
  8
0
  6
Continuous
 62
     7
370
    25
100
AcDbSpline
210
0.0
220
0.0
230
1.0
 70
     8
 71
     3
 72
    23
 73
    19
 74
     0
 42
0.00000001
 43
0.00000001
 40
0.0
 40
0.0
 40
0.0
 40
0.0
 40
0.0513264865707984
 40
0.1020691457714442
 40
0.1527138460791606
 40
0.2046738423851778
 40
0.2588413113854564
 40
0.3157169965470258
 40
0.3760288475083179
 40
0.4403179340663026
 40
0.506679625416805
 40
0.573357493899923
 40
0.6402998843996713
 40
0.708340535993133
 40
0.7780438052329878
 40
0.8497956025862505
 40
0.9235311208785517
 40
1.0
 40
1.0
 40
1.0
 40
1.0
 10
101.1529769914592
 20
233.0056794325081
 30
0.0
 10
101.152262314873
 20
232.9866794042244
 30
0.0
 10
101.1508410909876
 20
232.9488954687529
 30
0.0
 10
101.1388212776615
 20
232.8934437713417
 30
0.0
 10
101.1201034547295
 20
232.8397675267828
 30
0.0
 10
101.0933919885599
 20
232.7880968338697
 30
0.0
 10
101.059206384549
 20
232.7382748733687
 30
0.0
 10
101.0172512358485
 20
232.6905786137211
 30
0.0
 10
100.967562863588
 20
232.6453223888589
 30
0.0
 10
100.911718979729
 20
232.6019607041945
 30
0.0
 10
100.8502036032005
 20
232.5625238895568
 30
0.0
 10
100.7848791767753
 20
232.5276804819242
 30
0.0
 10
100.7162498321594
 20
232.4982395294601
 30
0.0
 10
100.6442559832986
 20
232.474581129902
 30
0.0
 10
100.5689881032415
 20
232.4559233659747
 30
0.0
 10
100.4905008136472
 20
232.4424122427798
 30
0.0
 10
100.4087323758669
 20
232.434140560456
 30
0.0
 10
100.353169190678
 20
232.4332784531633
 30
0.0
 10
100.3248820395361
 20
232.4328395553714
 30
0.0
  0
SPLINE
  5
135
330
1F
100
AcDbEntity
  8
0
  6
Continuous
 62
     7
370
    25
100
AcDbSpline
210
0.0
220
0.0
230
1.0
 70
     8
 71
     3
 72
    23
 73
    19
 74
     0
 42
0.00000001
 43
0.00000001
 40
0.0
 40
0.0
 40
0.0
 40
0.0
 40
0.0534364041343989
 40
0.1057872169213882
 40
0.158062021769633
 40
0.2111324188285719
 40
0.265883989336826
 40
0.3229121451396716
 40
0.3835520244727737
 40
0.4478366070856459
 40
0.5140550229663535
 40
0.5800174517798786
 40
0.6466724154290427
 40
0.7138673353059652
 40
0.7824700041758605
 40
0.8527500444375469
 40
0.9251265311312711
 40
1.0
 40
1.0
 40
1.0
 40
1.0
 10
89.34848981197203
 20
233.2575424132773
 30
0.0
 10
89.34752867647951
 20
233.2304757949094
 30
0.0
 10
89.34562593151591
 20
233.1768924321252
 30
0.0
 10
89.32987245851412
 20
233.098081684638
 30
0.0
 10
89.30375473128274
 20
233.0224287384005
 30
0.0
 10
89.2672782932942
 20
232.9498055234236
 30
0.0
 10
89.22069551774807
 20
232.8803133035899
 30
0.0
 10
89.16345782662073
 20
232.8141816575612
 30
0.0
 10
89.09623452889024
 20
232.7509982620659
 30
0.0
 10
89.01941926826919
 20
232.6919519262627
 30
0.0
 10
88.93587549274166
 20
232.6378222689734
 30
0.0
 10
88.84719827844343
 20
232.5899775674331
 30
0.0
 10
88.75428999968607
 20
232.5496673855136
 30
0.0
 10
88.65700849188258
 20
232.5171348944071
 30
0.0
 10
88.55591321664292
 20
232.4910162903838
 30
0.0
 10
88.45040436555111
 20
232.4729459837833
 30
0.0
 10
88.34069283585525
 20
232.4623020073924
 30
0.0
 10
88.26615278993617
 20
232.4607602555241
 30
0.0
 10
88.22825076282675
 20
232.4599763075081
 30
0.0
  0
SPLINE
  5
136
330
1F
100
AcDbEntity
  8
0
  6
Continuous
 62
     7
370
    25
100
AcDbSpline
210
0.0
220
0.0
230
1.0
 70
     8
 71
     3
 72
    15
 73
    11
 74
     0
 42
0.00000001
 43
0.00000001
 40
0.0
 40
0.0
 40
0.0
 40
0.0
 40
0.1294079158432786
 40
0.254029483567706
 40
0.3771367500789029
 40
0.4981799169544702
 40
0.6198065839990256
 40
0.7431133761946014
 40
0.8693518572345136
 40
1.0
 40
1.0
 40
1.0
 40
1.0
 10
67.67258503098914
 20
233.7566042455423
 30
0.0
 10
67.69136603656139
 20
233.7384702020373
 30
0.0
 10
67.72823340371833
 20
233.7028728301413
 30
0.0
 10
67.77597939472368
 20
233.6434830476896
 30
0.0
 10
67.81692977769399
 20
233.5812958410753
 30
0.0
 10
67.85013480627822
 20
233.5152978860691
 30
0.0
 10
67.87664218012654
 20
233.4463202783651
 30
0.0
 10
67.89579563080333
 20
233.3738480935902
 30
0.0
 10
67.90729539595864
 20
233.2978992895954
 30
0.0
 10
67.90939022812874
 20
233.2461328785295
 30
0.0
 10
67.91045562393785
 20
233.2198053673372
 30
0.0
  0
SPLINE
  5
137
330
1F
100
AcDbEntity
  8
0
  6
Continuous
 62
     7
370
    25
100
AcDbSpline
210
0.0
220
0.0
230
1.0
 70
     8
 71
     3
 72
    15
 73
    11
 74
     0
 42
0.00000001
 43
0.00000001
 40
0.0
 40
0.0
 40
0.0
 40
0.0
 40
0.115916926719642
 40
0.232349534601434
 40
0.349841728782272
 40
0.4706979565774959
 40
0.5944142864582257
 40
0.7235819036052714
 40
0.8584483674424286
 40
1.0
 40
1.0
 40
1.0
 40
1.0
 10
65.93710492949342
 20
233.7727166921235
 30
0.0
 10
65.96435573976761
 20
233.7957735867432
 30
0.0
 10
66.01897859135543
 20
233.841989949494
 30
0.0
 10
66.10941283790122
 20
233.9009728800571
 30
0.0
 10
66.20701801617439
 20
233.9502463816761
 30
0.0
 10
66.31090228602858
 20
233.9910191968141
 30
0.0
 10
66.42175128460481
 20
234.0222526475231
 30
0.0
 10
66.53895856401019
 20
234.0453193071942
 30
0.0
 10
66.66328761063042
 20
234.0582523970575
 30
0.0
 10
66.74835185876552
 20
234.0600990344351
 30
0.0
 10
66.7919126218011
 20
234.0610446835765
 30
0.0
  0
SPLINE
  5
138
330
1F
100
AcDbEntity
  8
0
  6
Continuous
 62
     7
370
    25
100
AcDbSpline
210
0.0
220
0.0
230
1.0
 70
     8
 71
     3
 72
    23
 73
    19
 74
     0
 42
0.00000001
 43
0.00000001
 40
0.0
 40
0.0
 40
0.0
 40
0.0
 40
0.0710099814502092
 40
0.1408214669496299
 40
0.2087625545696989
 40
0.2759989362078317
 40
0.3425923997773326
 40
0.4084308494638615
 40
0.4747825033213556
 40
0.5407070632786181
 40
0.6054412182573128
 40
0.6673876624721827
 40
0.7266626484643841
 40
0.7840759961940361
 40
0.8393561551810244
 40
0.8935676744543728
 40
0.94707699917801
 40
1.0
 40
1.0
 40
1.0
 40
1.0
 10
57.37461160684384
 20
233.8710874186192
 30
0.0
 10
57.35396539076103
 20
233.8707903199425
 30
0.0
 10
57.3130214223729
 20
233.8702011369766
 30
0.0
 10
57.25251552389195
 20
233.864635844604
 30
0.0
 10
57.19367569693144
 20
233.8550761806757
 30
0.0
 10
57.1362628178812
 20
233.8427573628491
 30
0.0
 10
57.08084984501473
 20
233.8253209807835
 30
0.0
 10
57.02646095893331
 20
233.8056769475552
 30
0.0
 10
56.97419201158004
 20
233.7813498008343
 30
0.0
 10
56.92378409435865
 20
233.7540539510431
 30
0.0
 10
56.87686350973717
 20
233.7234490755844
 30
0.0
 10
56.83276247562012
 20
233.6920861700999
 30
0.0
 10
56.79375903528194
 20
233.6577077392882
 30
0.0
 10
56.75828400170002
 20
233.6223963707967
 30
0.0
 10
56.72772557702793
 20
233.584621982378
 30
0.0
 10
56.70059043924804
 20
233.5456948796865
 30
0.0
 10
56.67860182136774
 20
233.5043583291207
 30
0.0
 10
56.66684557116061
 20
233.4757282470926
 30
0.0
 10
56.66099982799768
 20
233.4614920660551
 30
0.0
  0
SPLINE
  5
139
330
1F
100
AcDbEntity
  8
0
  6
Continuous
 62
     7
370
    25
100
AcDbSpline
210
0.0
220
0.0
230
1.0
 70
     8
 71
     3
 72
    15
 73
    11
 74
     0
 42
0.00000001
 43
0.00000001
 40
0.0
 40
0.0
 40
0.0
 40
0.0
 40
0.1285576637631869
 40
0.2532894119456996
 40
0.374996707556073
 40
0.4960657365344681
 40
0.6176239509858003
 40
0.741741526038579
 40
0.8688660395777705
 40
0.9999999999999999
 40
0.9999999999999999
 40
0.9999999999999999
 40
0.9999999999999999
 10
44.05725049573272
 20
233.7549081985338
 30
0.0
 10
44.08474133081297
 20
233.7803662898961
 30
0.0
 10
44.13890486527327
 20
233.8305248319983
 30
0.0
 10
44.22761052200207
 20
233.8947377885369
 30
0.0
 10
44.32079282867004
 20
233.9477975233048
 30
0.0
 10
44.41842030416328
 20
233.9899361964564
 30
0.0
 10
44.52059890276477
 20
234.021639159079
 30
0.0
 10
44.62685397631121
 20
234.0445534768122
 30
0.0
 10
44.73756775466916
 20
234.0583499551605
 30
0.0
 10
44.81280025539996
 20
234.060137191858
 30
0.0
 10
44.85100049573273
 20
234.0610446835765
 30
0.0
  0
SPLINE
  5
13A
330
1F
100
AcDbEntity
  8
0
  6
Continuous
 62
     7
370
    25
100
AcDbSpline
210
0.0
220
0.0
230
1.0
 70
     8
 71
     3
 72
    23
 73
    19
 74
     0
 42
0.00000001
 43
0.00000001
 40
0.0
 40
0.0
 40
0.0
 40
0.0
 40
0.0834196166539251
 40
0.1626723673800222
 40
0.2378581283184315
 40
0.3096943615508978
 40
0.3784179109272259
 40
0.4446148807887489
 40
0.5089404755775572
 40
0.5723329789139084
 40
0.6333503630757503
 40
0.691160031840785
 40
0.7462440832425974
 40
0.7990137376633124
 40
0.8498976057772082
 40
0.8997067520931968
 40
0.9496517992513255
 40
1.0
 40
1.0
 40
1.0
 40
1.0
 10
61.98531539957888
 20
232.4599763075081
 30
0.0
 10
61.94331115274883
 20
232.4606714171728
 30
0.0
 10
61.86140079945381
 20
232.4620269153074
 30
0.0
 10
61.74208396149402
 20
232.4736324885784
 30
0.0
 10
61.62965021509849
 20
232.4925166073282
 30
0.0
 10
61.52419697566567
 20
232.519079647686
 30
0.0
 10
61.42576756382879
 20
232.5533838820006
 30
0.0
 10
61.33450598709044
 20
232.5954116648169
 30
0.0
 10
61.25035619845126
 20
232.6452659663608
 30
0.0
 10
61.17413847597702
 20
232.7022918181789
 30
0.0
 10
61.10620233219344
 20
232.7641049767542
 30
0.0
 10
61.04640708528092
 20
232.8282044547235
 30
0.0
 10
60.99551077220889
 20
232.894465793329
 30
0.0
 10
60.95405623317407
 20
232.9629950936118
 30
0.0
 10
60.92199421701139
 20
233.0334804711445
 30
0.0
 10
60.89870218891424
 20
233.1058211143861
 30
0.0
 10
60.8848243439249
 20
233.1804053528834
 30
0.0
 10
60.88296848168722
 20
233.2309143584824
 30
0.0
 10
60.88203682051905
 20
233.2562703780209
 30
0.0
  0
SPLINE
  5
13B
330
1F
100
AcDbEntity
  8
0
  6
Continuous
 62
     7
370
    25
100
AcDbSpline
210
0.0
220
0.0
230
1.0
 70
     8
 71
     3
 72
    15
 73
    11
 74
     0
 42
0.00000001
 43
0.00000001
 40
0.0
 40
0.0
 40
0.0
 40
0.0
 40
0.1294079158432633
 40
0.2540294835677061
 40
0.3771367500789038
 40
0.4981799169544668
 40
0.619806583999019
 40
0.7431133761946015
 40
0.8693518572345112
 40
1.0
 40
1.0
 40
1.0
 40
1.0
 10
40.86147391987803
 20
233.7566042455423
 30
0.0
 10
40.88025492545031
 20
233.7384702020374
 30
0.0
 10
40.91712229260725
 20
233.7028728301414
 30
0.0
 10
40.96486828361255
 20
233.6434830476895
 30
0.0
 10
41.00581866658287
 20
233.5812958410752
 30
0.0
 10
41.03902369516711
 20
233.5152978860692
 30
0.0
 10
41.06553106901541
 20
233.446320278365
 30
0.0
 10
41.08468451969224
 20
233.3738480935902
 30
0.0
 10
41.09618428484753
 20
233.2978992895954
 30
0.0
 10
41.0982791170176
 20
233.2461328785295
 30
0.0
 10
41.09934451282675
 20
233.2198053673372
 30
0.0
  0
SPLINE
  5
13C
330
1F
100
AcDbEntity
  8
0
  6
Continuous
 62
     7
370
    25
100
AcDbSpline
210
0.0
220
0.0
230
1.0
 70
     8
 71
     3
 72
    15
 73
    11
 74
     0
 42
0.00000001
 43
0.00000001
 40
0.0
 40
0.0
 40
0.0
 40
0.0
 40
0.150705871069684
 40
0.2933389286597063
 40
0.4286778156803606
 40
0.5615735962139878
 40
0.6853707192177766
 40
0.7969172839465969
 40
0.8982564346834644
 40
0.9999999999999999
 40
0.9999999999999999
 40
0.9999999999999999
 40
0.9999999999999999
 10
53.44571871154469
 20
234.6851899827218
 30
0.0
 10
53.46200869400102
 20
234.6846350238903
 30
0.0
 10
53.4937160586027
 20
234.6835548335304
 30
0.0
 10
53.53945112144416
 20
234.6747609888057
 30
0.0
 10
53.58115274272057
 20
234.6590698110406
 30
0.0
 10
53.61851843299775
 20
234.6387974064645
 30
0.0
 10
53.65002973878553
 20
234.6141343181409
 30
0.0
 10
53.67374455832419
 20
234.5861361132783
 30
0.0
 10
53.68796847398724
 20
234.5545236717787
 30
0.0
 10
53.68985324308593
 20
234.5325367829311
 30
0.0
 10
53.69079750427974
 20
234.521521446397
 30
0.0
  0
SPLINE
  5
13D
330
1F
100
AcDbEntity
  8
0
  6
Continuous
 62
     7
370
    25
100
AcDbSpline
210
0.0
220
0.0
230
1.0
 70
     8
 71
     3
 72
    23
 73
    19
 74
     0
 42
0.00000001
 43
0.00000001
 40
0.0
 40
0.0
 40
0.0
 40
0.0
 40
0.0562422380004674
 40
0.1110952279919145
 40
0.1649754936054237
 40
0.2189034793833038
 40
0.273386963615247
 40
0.3302193327364187
 40
0.3891046358203963
 40
0.451504366885454
 40
0.5154987008847931
 40
0.5800498095582866
 40
0.6454300832105097
 40
0.7124729051702647
 40
0.7804970905026885
 40
0.851034031322759
 40
0.9241112140365169
 40
1.0
 40
1.0
 40
1.0
 40
1.0
 10
74.17904536752759
 20
233.2198053673372
 30
0.0
 10
74.18037934138856
 20
233.199390034574
 30
0.0
 10
74.18301433842079
 20
233.1590636512633
 30
0.0
 10
74.19567779164261
 20
233.1002703788853
 30
0.0
 10
74.21463789649152
 20
233.0441260367572
 30
0.0
 10
74.2414022003244
 20
232.9913999178739
 30
0.0
 10
74.2742744118156
 20
232.9409835405178
 30
0.0
 10
74.31492936387262
 20
232.8941701643
 30
0.0
 10
74.36203247473397
 20
232.8496563566639
 30
0.0
 10
74.41550996776517
 20
232.8085663737112
 30
0.0
 10
74.47430586321691
 20
232.7715874956579
 30
0.0
 10
74.53674129184942
 20
232.7387649982922
 30
0.0
 10
74.60284197421981
 20
232.7110694371472
 30
0.0
 10
74.6722756623266
 20
232.6888474760349
 30
0.0
 10
74.74494943425599
 20
232.6712091287247
 30
0.0
 10
74.82097145572293
 20
232.6592732485032
 30
0.0
 10
74.90040237463973
 20
232.6512867319387
 30
0.0
 10
74.9545425924037
 20
232.6503902656308
 30
0.0
 10
74.98212362607461
 20
232.6499335724654
 30
0.0
  0
SPLINE
  5
13E
330
1F
100
AcDbEntity
  8
0
  6
Continuous
 62
     7
370
    25
100
AcDbSpline
210
0.0
220
0.0
230
1.0
 70
     8
 71
     3
 72
    31
 73
    27
 74
     0
 42
0.00000001
 43
0.00000001
 40
0.0
 40
0.0
 40
0.0
 40
0.0
 40
0.0459878473290945
 40
0.0907563088724276
 40
0.1343947688747797
 40
0.177008842006727
 40
0.2187877153618628
 40
0.2602090416498593
 40
0.3006856929973841
 40
0.3406712318969479
 40
0.3800088772625649
 40
0.4179489271936224
 40
0.4545502718567032
 40
0.4903482390593656
 40
0.5252274518288065
 40
0.5596517963658154
 40
0.5936364180287773
 40
0.6273669608183898
 40
0.6623890892399161
 40
0.7003759210012397
 40
0.7410631830994796
 40
0.7854394173223598
 40
0.8333656317009693
 40
0.8849494554261855
 40
0.9406879311927366
 40
1.0
 40
1.0
 40
1.0
 40
1.0
 10
44.85100049573273
 20
234.0610446835765
 30
0.0
 10
44.87051363295561
 20
234.0608456367476
 30
0.0
 10
44.90902250892441
 20
234.0604528208943
 30
0.0
 10
44.96589891375199
 20
234.0559788019972
 30
0.0
 10
45.02108489270449
 20
234.0492553252062
 30
0.0
 10
45.07464549032216
 20
234.0400501313771
 30
0.0
 10
45.12659923547885
 20
234.0276715904511
 30
0.0
 10
45.17685241476572
 20
234.012481053609
 30
0.0
 10
45.22538362695519
 20
233.9945686195225
 30
0.0
 10
45.2720478745911
 20
233.9743406029506
 30
0.0
 10
45.31623428244013
 20
233.951440342292
 30
0.0
 10
45.35803358390477
 20
233.927120804403
 30
0.0
 10
45.3962114949064
 20
233.8999804614014
 30
0.0
 10
45.43211365551078
 20
233.8719311115414
 30
0.0
 10
45.4642467621448
 20
233.8409528909437
 30
0.0
 10
45.49427008160701
 20
233.8089778462262
 30
0.0
 10
45.5204477896587
 20
233.7743628607477
 30
0.0
 10
45.54423758335709
 20
233.7378103595682
 30
0.0
 10
45.56555608834731
 20
233.6977559598209
 30
0.0
 10
45.58301435555938
 20
233.6526963612717
 30
0.0
 10
45.59786390611735
 20
233.6026066347724
 30
0.0
 10
45.60993884045102
 20
233.5474576480692
 30
0.0
 10
45.61974562787065
 20
233.487174338461
 30
0.0
 10
45.6262202885612
 20
233.4216064975217
 30
0.0
 10
45.63063567324195
 20
233.3510271730237
 30
0.0
 10
45.63099623768441
 20
233.302212439546
 30
0.0
 10
45.63118211966435
 20
233.2770469538756
 30
0.0
  0
SPLINE
  5
13F
330
1F
100
AcDbEntity
  8
0
  6
Continuous
 62
     7
370
    25
100
AcDbSpline
210
0.0
220
0.0
230
1.0
 70
     8
 71
     3
 72
    19
 73
    15
 74
     0
 42
0.00000001
 43
0.00000001
 40
0.0
 40
0.0
 40
0.0
 40
0.0
 40
0.0893224886088337
 40
0.1779935456169287
 40
0.2658564039435782
 40
0.3531379379914485
 40
0.4381739444903922
 40
0.5179792795412462
 40
0.592595748912442
 40
0.6630028869923604
 40
0.7349859207590654
 40
0.8150730395783289
 40
0.9029635439372442
 40
1.0
 40
1.0
 40
1.0
 40
1.0
 10
61.95648260043359
 20
232.6499335724654
 30
0.0
 10
61.98335057659837
 20
232.6503107247714
 30
0.0
 10
62.03689057996822
 20
232.6510622788005
 30
0.0
 10
62.11661220887119
 20
232.6580482442409
 30
0.0
 10
62.19515603678349
 20
232.6695316836366
 30
0.0
 10
62.27186269579535
 20
232.685160936097
 30
0.0
 10
62.34531917779955
 20
232.7041769900736
 30
0.0
 10
62.41361328477539
 20
232.7271921433278
 30
0.0
 10
62.47635133182288
 20
232.7525347377913
 30
0.0
 10
62.534889169016
 20
232.7815585519424
 30
0.0
 10
62.59185151710975
 20
232.8169214027101
 30
0.0
 10
62.64858279765892
 20
232.8616615639912
 30
0.0
 10
62.70854280707772
 20
232.9142709178717
 30
0.0
 10
62.74700884313787
 20
232.9544772091339
 30
0.0
 10
62.76719307051906
 20
232.9755745981064
 30
0.0
  0
SPLINE
  5
140
330
1F
100
AcDbEntity
  8
0
  6
Continuous
 62
     7
370
    25
100
AcDbSpline
210
0.0
220
0.0
230
1.0
 70
     8
 71
     3
 72
    15
 73
    11
 74
     0
 42
0.00000001
 43
0.00000001
 40
0.0
 40
0.0
 40
0.0
 40
0.0
 40
0.1788665699309701
 40
0.3421413072699954
 40
0.4898709911205184
 40
0.6233121032798693
 40
0.74005562343825
 40
0.8414680041078357
 40
0.9289010934037565
 40
1.0
 40
1.0
 40
1.0
 40
1.0
 10
57.92413083761307
 20
233.2147172263116
 30
0.0
 10
57.92401574950905
 20
233.2357766502681
 30
0.0
 10
57.92379560555271
 20
233.276059744228
 30
0.0
 10
57.92306786860368
 20
233.3337335335709
 30
0.0
 10
57.92144334790088
 20
233.386043100669
 30
0.0
 10
57.91881818179858
 20
233.4328208000702
 30
0.0
 10
57.91605725781174
 20
233.4741318458825
 30
0.0
 10
57.91225734694748
 20
233.5099162454691
 30
0.0
 10
57.90783639588578
 20
233.5402231476755
 30
0.0
 10
57.903863847125
 20
233.5584655659427
 30
0.0
 10
57.90208222650196
 20
233.5666469805851
 30
0.0
  0
SPLINE
  5
141
330
1F
100
AcDbEntity
  8
0
  6
Continuous
 62
     7
370
    25
100
AcDbSpline
210
0.0
220
0.0
230
1.0
 70
     8
 71
     3
 72
    15
 73
    11
 74
     0
 42
0.00000001
 43
0.00000001
 40
0.0
 40
0.0
 40
0.0
 40
0.0
 40
0.1412244526825517
 40
0.2747794072712004
 40
0.4021399543234954
 40
0.5243795726923358
 40
0.643807117767672
 40
0.7624006781907725
 40
0.8804324892119347
 40
1.0
 40
1.0
 40
1.0
 40
1.0
 10
70.75981459829683
 20
233.8062136205423
 30
0.0
 10
70.78105218114142
 20
233.8275461449376
 30
0.0
 10
70.82237399414944
 20
233.8690526850417
 30
0.0
 10
70.88928119744465
 20
233.9229062056843
 30
0.0
 10
70.95833423428739
 20
233.966690717756
 30
0.0
 10
71.02876508173861
 20
234.0019906803535
 30
0.0
 10
71.10106701049952
 20
234.0281511913463
 30
0.0
 10
71.17450716258091
 20
234.0475413792039
 30
0.0
 10
71.24976844976247
 20
234.0587429451294
 30
0.0
 10
71.30039393723982
 20
234.0602741385217
 30
0.0
 10
71.32587028739941
 20
234.0610446835765
 30
0.0
  0
SPLINE
  5
142
330
1F
100
AcDbEntity
  8
0
  6
Continuous
 62
     7
370
    25
100
AcDbSpline
210
0.0
220
0.0
230
1.0
 70
     8
 71
     3
 72
    23
 73
    19
 74
     0
 42
0.00000001
 43
0.00000001
 40
0.0
 40
0.0
 40
0.0
 40
0.0
 40
0.074680498325212
 40
0.1466117656556774
 40
0.2166975016162017
 40
0.2850394496228274
 40
0.3518731440856353
 40
0.4180925031273958
 40
0.4838850656884724
 40
0.5498650245204423
 40
0.613955510122032
 40
0.6742598475842009
 40
0.7317792715542804
 40
0.7866723859517135
 40
0.8399303701624856
 40
0.8927048910477452
 40
0.9456649168951745
 40
1.0
 40
1.0
 40
1.0
 40
1.0
 10
88.23630698611734
 20
234.0610446835765
 30
0.0
 10
88.27407200280483
 20
234.0603122517122
 30
0.0
 10
88.34821178361429
 20
234.0588743511726
 30
0.0
 10
88.4573150595326
 20
234.0475275254049
 30
0.0
 10
88.5621927841768
 20
234.0294302955723
 30
0.0
 10
88.66298952107532
 20
234.0042024452628
 30
0.0
 10
88.75930344727232
 20
233.9707882743363
 30
0.0
 10
88.85153276584292
 20
233.9305222997575
 30
0.0
 10
88.93974981554334
 20
233.8829257212658
 30
0.0
 10
89.02241616115062
 20
233.8281907649857
 30
0.0
 10
89.09827904543654
 20
233.7687522431416
 30
0.0
 10
89.1650359982275
 20
233.7052692727369
 30
0.0
 10
89.22189715025674
 20
233.6387360575561
 30
0.0
 10
89.26813302017766
 20
233.5686383839719
 30
0.0
 10
89.30432418682783
 20
233.4954912890421
 30
0.0
 10
89.32976039140921
 20
233.419023422984
 30
0.0
 10
89.34568568990993
 20
233.3393286965646
 30
0.0
 10
89.34754715266226
 20
233.285036438018
 30
0.0
 10
89.34848981197203
 20
233.2575424132773
 30
0.0
  0
SPLINE
  5
143
330
1F
100
AcDbEntity
  8
0
  6
Continuous
 62
     7
370
    25
100
AcDbSpline
210
0.0
220
0.0
230
1.0
 70
     8
 71
     3
 72
    23
 73
    19
 74
     0
 42
0.00000001
 43
0.00000001
 40
0.0
 40
0.0
 40
0.0
 40
0.0
 40
0.0820828192202425
 40
0.1605394605463846
 40
0.2365637768029171
 40
0.3087597091094407
 40
0.3781735115125006
 40
0.4456717845442888
 40
0.5118726117231662
 40
0.5761810797859325
 40
0.6376900397376662
 40
0.6953297885149684
 40
0.7495960640323652
 40
0.8012986863882557
 40
0.8517289120210523
 40
0.900733949093058
 40
0.9500619026548477
 40
1.0
 40
1.0
 40
1.0
 40
1.0
 10
100.327426110049
 20
234.440959213491
 30
0.0
 10
100.3122987931408
 20
234.4406758307341
 30
0.0
 10
100.28271243976
 20
234.4401215842384
 30
0.0
 10
100.2391868593336
 20
234.4369268177341
 30
0.0
 10
100.1978690377761
 20
234.4304586175668
 30
0.0
 10
100.1586643600245
 20
234.4219352206189
 30
0.0
 10
100.1214627574055
 20
234.4116346756582
 30
0.0
 10
100.0866807047082
 20
234.3976705614079
 30
0.0
 10
100.0535219724895
 20
234.3823412166423
 30
0.0
 10
100.0231356748976
 20
234.3640609703818
 30
0.0
 10
99.99573953633104
 20
234.3441991526487
 30
0.0
 10
99.97128029182939
 20
234.3235472315583
 30
0.0
 10
99.95069372342189
 20
234.301387361394
 30
0.0
 10
99.934011387201
 20
234.2777906710699
 30
0.0
 10
99.92072868664769
 20
234.2532091033922
 30
0.0
 10
99.9112574595427
 20
234.2273891788319
 30
0.0
 10
99.9055609091251
 20
234.2005136793041
 30
0.0
 10
99.90497909054652
 20
234.182197943393
 30
0.0
 10
99.90468639316862
 20
234.1729837861406
 30
0.0
  0
SPLINE
  5
144
330
1F
100
AcDbEntity
  8
0
  6
Continuous
 62
     7
370
    25
100
AcDbSpline
210
0.0
220
0.0
230
1.0
 70
     8
 71
     3
 72
    15
 73
    11
 74
     0
 42
0.00000001
 43
0.00000001
 40
0.0
 40
0.0
 40
0.0
 40
0.0
 40
0.1159169267196428
 40
0.2323495346014293
 40
0.349841728782268
 40
0.4706979565774926
 40
0.5944142864582305
 40
0.7235819036052771
 40
0.8584483674424351
 40
0.9999999999999999
 40
0.9999999999999999
 40
0.9999999999999999
 40
0.9999999999999999
 10
61.13389980128829
 20
233.7727166921235
 30
0.0
 10
61.16115061156248
 20
233.7957735867432
 30
0.0
 10
61.21577346315031
 20
233.841989949494
 30
0.0
 10
61.3062077096961
 20
233.9009728800571
 30
0.0
 10
61.40381288796925
 20
233.950246381676
 30
0.0
 10
61.50769715782349
 20
233.9910191968143
 30
0.0
 10
61.61854615639965
 20
234.0222526475231
 30
0.0
 10
61.73575343580507
 20
234.0453193071942
 30
0.0
 10
61.8600824824253
 20
234.0582523970575
 30
0.0
 10
61.94514673056037
 20
234.060099034435
 30
0.0
 10
61.98870749359597
 20
234.0610446835765
 30
0.0
  0
SPLINE
  5
145
330
1F
100
AcDbEntity
  8
0
  6
Continuous
 62
     7
370
    25
100
AcDbSpline
210
0.0
220
0.0
230
1.0
 70
     8
 71
     3
 72
    23
 73
    19
 74
     0
 42
0.00000001
 43
0.00000001
 40
0.0
 40
0.0
 40
0.0
 40
0.0
 40
0.0710099814502087
 40
0.1408214669496368
 40
0.2087625545697052
 40
0.2759989362078375
 40
0.3425923997773303
 40
0.4084308494638662
 40
0.4747825033213525
 40
0.5407070632786215
 40
0.6054412182573157
 40
0.6673876624721852
 40
0.726662648464386
 40
0.7840759961940377
 40
0.8393561551810255
 40
0.8935676744543735
 40
0.9470769991780102
 40
0.9999999999999999
 40
0.9999999999999999
 40
0.9999999999999999
 40
0.9999999999999999
 10
44.81029536752761
 20
233.8710874186192
 30
0.0
 10
44.78964915144481
 20
233.8707903199426
 30
0.0
 10
44.74870518305667
 20
233.8702011369767
 30
0.0
 10
44.68819928457569
 20
233.8646358446038
 30
0.0
 10
44.6293594576152
 20
233.8550761806757
 30
0.0
 10
44.57194657856496
 20
233.8427573628491
 30
0.0
 10
44.51653360569851
 20
233.8253209807835
 30
0.0
 10
44.46214471961707
 20
233.8056769475551
 30
0.0
 10
44.40987577226381
 20
233.7813498008342
 30
0.0
 10
44.3594678550424
 20
233.754053951043
 30
0.0
 10
44.31254727042093
 20
233.7234490755843
 30
0.0
 10
44.26844623630389
 20
233.6920861701
 30
0.0
 10
44.22944279596572
 20
233.6577077392882
 30
0.0
 10
44.19396776238379
 20
233.6223963707967
 30
0.0
 10
44.16340933771167
 20
233.584621982378
 30
0.0
 10
44.1362741999318
 20
233.5456948796864
 30
0.0
 10
44.11428558205149
 20
233.5043583291207
 30
0.0
 10
44.10252933184439
 20
233.4757282470926
 30
0.0
 10
44.09668358868145
 20
233.4614920660551
 30
0.0
  0
SPLINE
  5
146
330
1F
100
AcDbEntity
  8
0
  6
Continuous
 62
     7
370
    25
100
AcDbSpline
210
0.0
220
0.0
230
1.0
 70
     8
 71
     3
 72
    15
 73
    11
 74
     0
 42
0.00000001
 43
0.00000001
 40
0.0
 40
0.0
 40
0.0
 40
0.0
 40
0.0858228938592563
 40
0.1822413228571652
 40
0.2895438698955922
 40
0.4088913657617055
 40
0.5391154814773131
 40
0.6810654758184849
 40
0.8344680741378205
 40
1.0
 40
1.0
 40
1.0
 40
1.0
 10
100.7789986260746
 20
233.2164132733201
 30
0.0
 10
100.7661458167019
 20
233.2285963695469
 30
0.0
 10
100.7388534139735
 20
233.2544666644417
 30
0.0
 10
100.6922629420173
 20
233.2919278443003
 30
0.0
 10
100.6385644752987
 20
233.3314019186263
 30
0.0
 10
100.5777034150455
 20
233.3728582884672
 30
0.0
 10
100.509086787972
 20
233.4154772158432
 30
0.0
 10
100.4336915530325
 20
233.4604504489853
 30
0.0
 10
100.3508833349346
 20
233.507180969727
 30
0.0
 10
100.292733151828
 20
233.5379546265699
 30
0.0
 10
100.262552311972
 20
233.5539266280209
 30
0.0
  0
SPLINE
  5
147
330
1F
100
AcDbEntity
  8
0
  6
Continuous
 62
     7
370
    25
100
AcDbSpline
210
0.0
220
0.0
230
1.0
 70
     8
 71
     3
 72
    15
 73
    11
 74
     0
 42
0.00000001
 43
0.00000001
 40
0.0
 40
0.0
 40
0.0
 40
0.0
 40
0.0516620611269128
 40
0.1234891918909913
 40
0.2163764937139791
 40
0.3312901786355432
 40
0.4664541678500512
 40
0.6227298431813292
 40
0.8005780314367601
 40
1.0
 40
1.0
 40
1.0
 40
1.0
 10
100.0929476111173
 20
233.8994962060124
 30
0.0
 10
100.0992801549707
 20
233.8953533802622
 30
0.0
 10
100.1144170021271
 20
233.8854506742361
 30
0.0
 10
100.1417695495842
 20
233.8694221274897
 30
0.0
 10
100.177632055642
 20
233.8496473963476
 30
0.0
 10
100.2214087690377
 20
233.825012069425
 30
0.0
 10
100.2737006754059
 20
233.7965894334706
 30
0.0
 10
100.3344555351542
 20
233.7644482560561
 30
0.0
 10
100.4035549655748
 20
233.7279554612344
 30
0.0
 10
100.4525015324757
 20
233.7023154622885
 30
0.0
 10
100.4783742938097
 20
233.6887623652004
 30
0.0
  0
SPLINE
  5
148
330
1F
100
AcDbEntity
  8
0
  6
Continuous
 62
     7
370
    25
100
AcDbSpline
210
0.0
220
0.0
230
1.0
 70
     8
 71
     3
 72
    15
 73
    11
 74
     0
 42
0.00000001
 43
0.00000001
 40
0.0
 40
0.0
 40
0.0
 40
0.0
 40
0.1441375518545599
 40
0.2797411242433203
 40
0.408464427682758
 40
0.5313368171641907
 40
0.6500012995934169
 40
0.7662793918048333
 40
0.8821052529553699
 40
1.0
 40
1.0
 40
1.0
 40
1.0
 10
99.68844039957888
 20
233.0027113502432
 30
0.0
 10
99.71111718991973
 20
232.9747094891802
 30
0.0
 10
99.75512814155977
 20
232.9203636785717
 30
0.0
 10
99.82768223679635
 20
232.8482885564799
 30
0.0
 10
99.90289306335394
 20
232.787182280518
 30
0.0
 10
99.98089014656954
 20
232.7370613748178
 30
0.0
 10
100.0615778314696
 20
232.6979917737066
 30
0.0
 10
100.1449301737635
 20
232.6702947835744
 30
0.0
 10
100.231028253345
 20
232.6530115629782
 30
0.0
 10
100.2894675669288
 20
232.6509656062133
 30
0.0
 10
100.3189458750062
 20
232.6499335724654
 30
0.0
  0
SPLINE
  5
149
330
1F
100
AcDbEntity
  8
0
  6
Continuous
 62
     7
370
    25
100
AcDbSpline
210
0.0
220
0.0
230
1.0
 70
     8
 71
     3
 72
    15
 73
    11
 74
     0
 42
0.00000001
 43
0.00000001
 40
0.0
 40
0.0
 40
0.0
 40
0.0
 40
0.1159169267196427
 40
0.2323495346014229
 40
0.3498417287822615
 40
0.4706979565774931
 40
0.5944142864582308
 40
0.7235819036052773
 40
0.8584483674424354
 40
1.0
 40
1.0
 40
1.0
 40
1.0
 10
39.12599381838231
 20
233.7727166921235
 30
0.0
 10
39.15324462865651
 20
233.7957735867432
 30
0.0
 10
39.20786748024432
 20
233.841989949494
 30
0.0
 10
39.29830172679009
 20
233.9009728800571
 30
0.0
 10
39.3959069050633
 20
233.9502463816761
 30
0.0
 10
39.49979117491746
 20
233.9910191968141
 30
0.0
 10
39.6106401734937
 20
234.0222526475231
 30
0.0
 10
39.72784745289908
 20
234.0453193071942
 30
0.0
 10
39.8521764995193
 20
234.0582523970573
 30
0.0
 10
39.93724074765439
 20
234.060099034435
 30
0.0
 10
39.98080151068999
 20
234.0610446835765
 30
0.0
  0
SPLINE
  5
14A
330
1F
100
AcDbEntity
  8
0
  6
Continuous
 62
     7
370
    25
100
AcDbSpline
210
0.0
220
0.0
230
1.0
 70
     8
 71
     3
 72
    31
 73
    27
 74
     0
 42
0.00000001
 43
0.00000001
 40
0.0
 40
0.0
 40
0.0
 40
0.0
 40
0.0493070842680013
 40
0.0978667151645766
 40
0.1457579890281426
 40
0.1933977027855374
 40
0.2409008834434913
 40
0.2878332074049809
 40
0.3347819625880988
 40
0.3819377771250275
 40
0.4282571721303894
 40
0.4728566942321754
 40
0.5158678595750619
 40
0.5575941895565586
 40
0.5982831949631113
 40
0.6380896674875802
 40
0.6769758494140543
 40
0.7153608497060772
 40
0.7528599723504882
 40
0.7894661958762563
 40
0.8251515018188067
 40
0.8601789206539924
 40
0.8948721329734542
 40
0.9295793835504464
 40
0.9646392373329484
 40
1.0
 40
1.0
 40
1.0
 40
1.0
 10
49.41548700748488
 20
232.4871130596449
 30
0.0
 10
49.3910256537721
 20
232.4874236013188
 30
0.0
 10
49.3424737596196
 20
232.4880399771193
 30
0.0
 10
49.2703390860617
 20
232.4934431786174
 30
0.0
 10
49.19928098652056
 20
232.5013147158787
 30
0.0
 10
49.1292448122722
 20
232.5128521147932
 30
0.0
 10
49.06028043056347
 20
232.5275204375
 30
0.0
 10
48.99260895104428
 20
232.5460392629429
 30
0.0
 10
48.92588805443661
 20
232.5671430892195
 30
0.0
 10
48.86060482003631
 20
232.5915316163155
 30
0.0
 10
48.7978047513673
 20
232.618942922821
 30
0.0
 10
48.73833911515755
 20
232.6486210429746
 30
0.0
 10
48.68252127716251
 20
232.6803378883813
 30
0.0
 10
48.63071160271551
 20
232.7148730930915
 30
0.0
 10
48.58229766519769
 20
232.7513994329941
 30
0.0
 10
48.53707414658833
 20
232.7897308842475
 30
0.0
 10
48.49640472362917
 20
232.8312710801432
 30
0.0
 10
48.45901712747877
 20
232.8742547384278
 30
0.0
 10
48.42591767323396
 20
232.9192656095331
 30
0.0
 10
48.39715730410916
 20
232.9655463321065
 30
0.0
 10
48.37204767176533
 20
233.0125904052156
 30
0.0
 10
48.35293647475587
 20
233.0613293915709
 30
0.0
 10
48.33674235858516
 20
233.1105956139409
 30
0.0
 10
48.32599175448798
 20
233.1613549574029
 30
0.0
 10
48.31880612423228
 20
233.2130970231778
 30
0.0
 10
48.31808345820206
 20
233.2480483162163
 30
0.0
 10
48.31772058120281
 20
233.2655986365679
 30
0.0
  0
SPLINE
  5
14B
330
1F
100
AcDbEntity
  8
0
  6
Continuous
 62
     7
370
    25
100
AcDbSpline
210
0.0
220
0.0
230
1.0
 70
     8
 71
     3
 72
    15
 73
    11
 74
     0
 42
0.00000001
 43
0.00000001
 40
0.0
 40
0.0
 40
0.0
 40
0.0
 40
0.1203893053149662
 40
0.2394420388937778
 40
0.3580854702680111
 40
0.4783577532994217
 40
0.6010306818585209
 40
0.7278897772833791
 40
0.8608446635768922
 40
0.9999999999999999
 40
0.9999999999999999
 40
0.9999999999999999
 40
0.9999999999999999
 10
65.68524194872418
 20
233.2562703780209
 30
0.0
 10
65.68593876504035
 20
233.2800637980779
 30
0.0
 10
65.68732466156195
 20
233.3273864817316
 30
0.0
 10
65.69960585817682
 20
233.3972921423645
 30
0.0
 10
65.71975025774347
 20
233.4651952769761
 30
0.0
 10
65.74746514187409
 20
233.5311697404495
 30
0.0
 10
65.78288114136575
 20
233.595228777371
 30
0.0
 10
65.82669400764917
 20
233.6569189437065
 30
0.0
 10
65.87797365942517
 20
233.7169498251127
 30
0.0
 10
65.91709734170345
 20
233.7538474798403
 30
0.0
 10
65.93710492949342
 20
233.7727166921235
 30
0.0
  0
SPLINE
  5
14C
330
1F
100
AcDbEntity
  8
0
  6
Continuous
 62
     7
370
    25
100
AcDbSpline
210
0.0
220
0.0
230
1.0
 70
     8
 71
     3
 72
    23
 73
    19
 74
     0
 42
0.00000001
 43
0.00000001
 40
0.0
 40
0.0
 40
0.0
 40
0.0
 40
0.0562422380004676
 40
0.1110952279919111
 40
0.1649754936054267
 40
0.2189034793833013
 40
0.2733869636152447
 40
0.3302193327364167
 40
0.3891046358203945
 40
0.4515043668854524
 40
0.5154987008848025
 40
0.5800498095582793
 40
0.6454300832105144
 40
0.7124729051702698
 40
0.7804970905026876
 40
0.8510340313227583
 40
0.9241112140365165
 40
1.0
 40
1.0
 40
1.0
 40
1.0
 10
39.1454983589806
 20
233.2198053673372
 30
0.0
 10
39.14683233284156
 20
233.199390034574
 30
0.0
 10
39.14946732987381
 20
233.1590636512633
 30
0.0
 10
39.16213078309557
 20
233.1002703788852
 30
0.0
 10
39.18109088794453
 20
233.0441260367571
 30
0.0
 10
39.2078551917774
 20
232.9913999178739
 30
0.0
 10
39.24072740326859
 20
232.9409835405179
 30
0.0
 10
39.28138235532563
 20
232.8941701643
 30
0.0
 10
39.32848546618691
 20
232.8496563566638
 30
0.0
 10
39.38196295921819
 20
232.8085663737113
 30
0.0
 10
39.44075885466989
 20
232.7715874956578
 30
0.0
 10
39.50319428330242
 20
232.7387649982921
 30
0.0
 10
39.56929496567282
 20
232.7110694371473
 30
0.0
 10
39.63872865377958
 20
232.6888474760349
 30
0.0
 10
39.71140242570901
 20
232.6712091287249
 30
0.0
 10
39.78742444717594
 20
232.6592732485032
 30
0.0
 10
39.86685536609269
 20
232.6512867319387
 30
0.0
 10
39.92099558385669
 20
232.6503902656308
 30
0.0
 10
39.94857661752761
 20
232.6499335724654
 30
0.0
  0
SPLINE
  5
14D
330
1F
100
AcDbEntity
  8
0
  6
Continuous
 62
     7
370
    25
100
AcDbSpline
210
0.0
220
0.0
230
1.0
 70
     8
 71
     3
 72
    15
 73
    11
 74
     0
 42
0.00000001
 43
0.00000001
 40
0.0
 40
0.0
 40
0.0
 40
0.0
 40
0.1409215755524003
 40
0.2750588709579392
 40
0.4036639716820133
 40
0.5276714691732708
 40
0.6482875994393011
 40
0.7663366074166099
 40
0.8832734738610515
 40
1.0
 40
1.0
 40
1.0
 40
1.0
 10
61.98870749359597
 20
234.0610446835765
 30
0.0
 10
62.03355365937758
 20
234.0602378604997
 30
0.0
 10
62.121086996117
 20
234.0586630566151
 30
0.0
 10
62.24883818259958
 20
234.0438076084185
 30
0.0
 10
62.36973268808494
 20
234.0203134045683
 30
0.0
 10
62.48396206549431
 20
233.987296358892
 30
0.0
 10
62.59136768048601
 20
233.9445414199158
 30
0.0
 10
62.69143052615589
 20
233.8914345767863
 30
0.0
 10
62.78522425675058
 20
233.82986699717
 30
0.0
 10
62.84134486041669
 20
233.7810105027887
 30
0.0
 10
62.86937990278402
 20
233.7566042455423
 30
0.0
  0
SPLINE
  5
14E
330
1F
100
AcDbEntity
  8
0
  6
Continuous
 62
     7
370
    25
100
AcDbSpline
210
0.0
220
0.0
230
1.0
 70
     8
 71
     3
 72
    19
 73
    15
 74
     0
 42
0.00000001
 43
0.00000001
 40
0.0
 40
0.0
 40
0.0
 40
0.0
 40
0.0893224886088348
 40
0.1779935456169157
 40
0.2658564039435738
 40
0.3531379379914453
 40
0.4381739444903974
 40
0.5179792795412598
 40
0.5925957489124424
 40
0.6630028869923548
 40
0.7349859207590607
 40
0.8150730395783373
 40
0.9029635439372538
 40
1.0
 40
1.0
 40
1.0
 40
1.0
 10
66.75968772863871
 20
232.6499335724654
 30
0.0
 10
66.7865557048035
 20
232.6503107247715
 30
0.0
 10
66.84009570817334
 20
232.6510622788005
 30
0.0
 10
66.91981733707634
 20
232.658048244241
 30
0.0
 10
66.99836116498858
 20
232.6695316836365
 30
0.0
 10
67.0750678240005
 20
232.685160936097
 30
0.0
 10
67.14852430600467
 20
232.7041769900736
 30
0.0
 10
67.21681841298052
 20
232.7271921433278
 30
0.0
 10
67.279556460028
 20
232.7525347377913
 30
0.0
 10
67.33809429722113
 20
232.7815585519425
 30
0.0
 10
67.3950566453149
 20
232.8169214027102
 30
0.0
 10
67.45178792586401
 20
232.861661563991
 30
0.0
 10
67.51174793528286
 20
232.9142709178718
 30
0.0
 10
67.55021397134301
 20
232.954477209134
 30
0.0
 10
67.57039819872418
 20
232.9755745981064
 30
0.0
  0
SPLINE
  5
14F
330
1F
100
AcDbEntity
  8
0
  6
Continuous
 62
     7
370
    25
100
AcDbSpline
210
0.0
220
0.0
230
1.0
 70
     8
 71
     3
 72
    15
 73
    11
 74
     0
 42
0.00000001
 43
0.00000001
 40
0.0
 40
0.0
 40
0.0
 40
0.0
 40
0.0725984813055131
 40
0.1595856356160361
 40
0.2614895324945978
 40
0.3786366922547207
 40
0.5105160068224517
 40
0.6579339328870346
 40
0.8210816097395642
 40
1.0
 40
1.0
 40
1.0
 40
1.0
 10
70.81196804380966
 20
233.5378141814397
 30
0.0
 10
70.80763081882344
 20
233.5255883335872
 30
0.0
 10
70.7980967515291
 20
233.4987135331038
 30
0.0
 10
70.78813839916093
 20
233.4530033432258
 30
0.0
 10
70.77927147386936
 20
233.3990856107343
 30
0.0
 10
70.77246496712529
 20
233.3367794271587
 30
0.0
 10
70.76627386384963
 20
233.266260222823
 30
0.0
 10
70.76296153908258
 20
233.1873205496504
 30
0.0
 10
70.76018818761338
 20
233.0999711061983
 30
0.0
 10
70.75994289770806
 20
233.0388966126448
 30
0.0
 10
70.75981459829683
 20
233.0069514677645
 30
0.0
  0
SPLINE
  5
150
330
1F
100
AcDbEntity
  8
0
  6
Continuous
 62
     7
370
    25
100
AcDbSpline
210
0.0
220
0.0
230
1.0
 70
     8
 71
     3
 72
    31
 73
    27
 74
     0
 42
0.00000001
 43
0.00000001
 40
0.0
 40
0.0
 40
0.0
 40
0.0
 40
0.0576616579057432
 40
0.1132876226772273
 40
0.1669394959768609
 40
0.2183830538938635
 40
0.2676692395456116
 40
0.3149671059425127
 40
0.3606593157320614
 40
0.4048561741349588
 40
0.4470303184965765
 40
0.4869071161537297
 40
0.5244175317266194
 40
0.5600124698090769
 40
0.5938472505628651
 40
0.6256106197823409
 40
0.6560009818896109
 40
0.6852595024395247
 40
0.715010423246682
 40
0.7465752272918936
 40
0.7808456092342906
 40
0.8181405959957263
 40
0.8583648971588356
 40
0.9020505350728655
 40
0.949325164982768
 40
1.0
 40
1.0
 40
1.0
 40
1.0
 10
49.42269520727119
 20
232.0800617775936
 30
0.0
 10
49.44602053784456
 20
232.0803242630735
 30
0.0
 10
49.49184771910835
 20
232.0808399672188
 30
0.0
 10
49.55929825761332
 20
232.0843562369611
 30
0.0
 10
49.62411803042493
 20
232.089603804667
 30
0.0
 10
49.68604363544241
 20
232.0978129559724
 30
0.0
 10
49.74511360597998
 20
232.1077498200831
 30
0.0
 10
49.80123866088307
 20
232.1206228131745
 30
0.0
 10
49.85472683347671
 20
232.1354465026919
 30
0.0
 10
49.90551983265166
 20
232.1521231160216
 30
0.0
 10
49.95279678308017
 20
232.1714887399257
 30
0.0
 10
49.99702286211617
 20
232.1911038206453
 30
0.0
 10
50.0374788801662
 20
232.2124373118853
 30
0.0
 10
50.07450176820517
 20
232.2348661963414
 30
0.0
 10
50.10794987858115
 20
232.2585226008134
 30
0.0
 10
50.13795968653397
 20
232.2832278892725
 30
0.0
 10
50.16436555156526
 20
232.3091777652361
 30
0.0
 10
50.18787626779672
 20
232.3367335509385
 30
0.0
 10
50.20820966321826
 20
232.3673430017446
 30
0.0
 10
50.22512900163566
 20
232.4022136251028
 30
0.0
 10
50.23948113585392
 20
232.4414451574446
 30
0.0
 10
50.25118014077135
 20
232.4851778477378
 30
0.0
 10
50.2604367177351
 20
232.533357780169
 30
0.0
 10
50.26720371738434
 20
232.5860247064793
 30
0.0
 10
50.27086451805218
 20
232.6432378293744
 30
0.0
 10
50.27132730764396
 20
232.6828601637443
 30
0.0
 10
50.27156673504897
 20
232.7033590532346
 30
0.0
  0
SPLINE
  5
151
330
1F
100
AcDbEntity
  8
0
  6
Continuous
 62
     7
370
    25
100
AcDbSpline
210
0.0
220
0.0
230
1.0
 70
     8
 71
     3
 72
    23
 73
    19
 74
     0
 42
0.00000001
 43
0.00000001
 40
0.0
 40
0.0
 40
0.0
 40
0.0
 40
0.0532385655674557
 40
0.1056689816777471
 40
0.1577589685202658
 40
0.2109100630841749
 40
0.2655126489979646
 40
0.322627520373731
 40
0.3831564622981554
 40
0.447538794423225
 40
0.5138579003541398
 40
0.5799206299704049
 40
0.6464204927831831
 40
0.7139825914247844
 40
0.7824187212069281
 40
0.852805627522249
 40
0.9252921680730682
 40
1.0
 40
1.0
 40
1.0
 40
1.0
 10
78.71088297436522
 20
233.2647506130637
 30
0.0
 10
78.71185703382068
 20
233.2916733858164
 30
0.0
 10
78.71379036672808
 20
233.3451102496838
 30
0.0
 10
78.7294158770388
 20
233.4236769561947
 30
0.0
 10
78.7557394143681
 20
233.4991097638194
 30
0.0
 10
78.79196074010335
 20
233.5715827404143
 30
0.0
 10
78.83881273815416
 20
233.6407651652376
 30
0.0
 10
78.89589197079626
 20
233.7067055831254
 30
0.0
 10
78.9627206839798
 20
233.7701681501207
 30
0.0
 10
79.0395526133667
 20
233.8290412202866
 30
0.0
 10
79.12306021987483
 20
233.8832228755515
 30
0.0
 10
79.21166514806077
 20
233.930913528033
 30
0.0
 10
79.30443741867252
 20
233.9715612405772
 30
0.0
 10
79.40171348996857
 20
234.0037078916046
 30
0.0
 10
79.50272916898854
 20
234.0300884632431
 30
0.0
 10
79.60812525923095
 20
234.0480583260039
 30
0.0
 10
79.71768989500126
 20
234.0587088909267
 30
0.0
 10
79.79208904118232
 20
234.0602582920886
 30
0.0
 10
79.8298499882541
 20
234.0610446835765
 30
0.0
  0
SPLINE
  5
152
330
1F
100
AcDbEntity
  8
0
  6
Continuous
 62
     7
370
    25
100
AcDbSpline
210
0.0
220
0.0
230
1.0
 70
     8
 71
     3
 72
    27
 73
    23
 74
     0
 42
0.00000001
 43
0.00000001
 40
0.0
 40
0.0
 40
0.0
 40
0.0
 40
0.0344876528676936
 40
0.0689090095131864
 40
0.1035831674967152
 40
0.1387058703588896
 40
0.1746603529387945
 40
0.2112299300261263
 40
0.2494646033174832
 40
0.2889798490010322
 40
0.3292562388791964
 40
0.3696941045260757
 40
0.4107289808654765
 40
0.4520087072814643
 40
0.4943013272935706
 40
0.5373637256175986
 40
0.5817899137413097
 40
0.6270847019637584
 40
0.7189088107416144
 40
0.8112829310158419
 40
0.9045934143093048
 40
1.0
 40
1.0
 40
1.0
 40
1.0
 10
89.07712229060452
 20
233.2575424132773
 30
0.0
 10
89.07682515368009
 20
233.2708464189858
 30
0.0
 10
89.07623145102278
 20
233.2974288558785
 30
0.0
 10
89.07051022361814
 20
233.3370577046529
 30
0.0
 10
89.06104595577344
 20
233.3761492771389
 30
0.0
 10
89.0483676148161
 20
233.4149604902539
 30
0.0
 10
89.03172912372969
 20
233.4530503334082
 30
0.0
 10
89.01153273472788
 20
233.4907197672417
 30
0.0
 10
88.98789976269235
 20
233.5279849221751
 30
0.0
 10
88.96030741176904
 20
233.5642387831428
 30
0.0
 10
88.92980202217738
 20
233.599165977414
 30
0.0
 10
88.8972343114424
 20
233.6330371772803
 30
0.0
 10
88.86148263009584
 20
233.6641155519021
 30
0.0
 10
88.8236457768849
 20
233.6937880501119
 30
0.0
 10
88.7827706031537
 20
233.7205624369561
 30
0.0
 10
88.73988310308926
 20
233.7463890873264
 30
0.0
 10
88.69411888218407
 20
233.7694443362649
 30
0.0
 10
88.63007508353125
 20
233.7977233051957
 30
0.0
 10
88.54661782410426
 20
233.827729422209
 30
0.0
 10
88.44231476200089
 20
233.8522563630513
 30
0.0
 10
88.33489133595282
 20
233.8682994205832
 30
0.0
 10
88.26208844242265
 20
233.8701512298537
 30
0.0
 10
88.22528268056179
 20
233.8710874186192
 30
0.0
  0
SPLINE
  5
153
330
1F
100
AcDbEntity
  8
0
  6
Continuous
 62
     7
370
    25
100
AcDbSpline
210
0.0
220
0.0
230
1.0
 70
     8
 71
     3
 72
    23
 73
    19
 74
     0
 42
0.00000001
 43
0.00000001
 40
0.0
 40
0.0
 40
0.0
 40
0.0
 40
0.0550007366508501
 40
0.108628672069473
 40
0.1618644395591002
 40
0.2150455450869464
 40
0.2697063138193498
 40
0.326502140966252
 40
0.3859067591489164
 40
0.4488260290183586
 40
0.5137758730650674
 40
0.5788385876782592
 40
0.6444848995783583
 40
0.7115182164532363
 40
0.7804792573313123
 40
0.8508944059927432
 40
0.9239767045504721
 40
1.0
 40
1.0
 40
1.0
 40
1.0
 10
87.36750690598913
 20
233.2634785778073
 30
0.0
 10
87.36822875340255
 20
233.2420875097732
 30
0.0
 10
87.36965443114316
 20
233.1998392880915
 30
0.0
 10
87.38137260309703
 20
233.1377433621361
 30
0.0
 10
87.40110826959102
 20
233.0785945178126
 30
0.0
 10
87.42799261208171
 20
233.021841071332
 30
0.0
 10
87.4632740838309
 20
232.9682371368889
 30
0.0
 10
87.50588715438239
 20
232.9171077514817
 30
0.0
 10
87.55651047401653
 20
232.8691115911041
 30
0.0
 10
87.61381998041165
 20
232.824060993287
 30
0.0
 10
87.67696856052117
 20
232.7834133565333
 30
0.0
 10
87.7441929288427
 20
232.7476675313586
 30
0.0
 10
87.81494751288336
 20
232.7173669500244
 30
0.0
 10
87.88950621255648
 20
232.6929502686253
 30
0.0
 10
87.96737713762185
 20
232.6732479201995
 30
0.0
 10
88.04896829073162
 20
232.6600636776654
 30
0.0
 10
88.13391802908838
 20
232.6510706345757
 30
0.0
 10
88.19190249275803
 20
232.650317544549
 30
0.0
 10
88.22146657479257
 20
232.6499335724654
 30
0.0
  0
SPLINE
  5
154
330
1F
100
AcDbEntity
  8
0
  6
Continuous
 62
     7
370
    25
100
AcDbSpline
210
0.0
220
0.0
230
1.0
 70
     8
 71
     3
 72
    27
 73
    23
 74
     0
 42
0.00000001
 43
0.00000001
 40
0.0
 40
0.0
 40
0.0
 40
0.0
 40
0.0966054339427408
 40
0.1918337023126533
 40
0.286087671219402
 40
0.3804091562969246
 40
0.4267454056714566
 40
0.4716986043517111
 40
0.5147468736115817
 40
0.5563649932604627
 40
0.5972257572677178
 40
0.6364892261707078
 40
0.675374247256965
 40
0.7133342059605297
 40
0.7505532391941432
 40
0.7868412883612897
 40
0.8225119137033401
 40
0.8574746697336382
 40
0.8926039340405486
 40
0.9279589913370577
 40
0.9635533157888679
 40
1.0
 40
1.0
 40
1.0
 40
1.0
 10
88.22528268056179
 20
233.8710874186192
 30
0.0
 10
88.18777335398879
 20
233.870136633441
 30
0.0
 10
88.11328941769163
 20
233.8682486170695
 30
0.0
 10
88.00317867222397
 20
233.8522852195324
 30
0.0
 10
87.89570726363597
 20
233.8275779808227
 30
0.0
 10
87.80932703393246
 20
233.7978239715161
 30
0.0
 10
87.7430840052902
 20
233.7694871257452
 30
0.0
 10
87.6960932819604
 20
233.7468338762771
 30
0.0
 10
87.6522490944735
 20
233.7221048032822
 30
0.0
 10
87.61124272923645
 20
233.6957438341215
 30
0.0
 10
87.57331825517275
 20
233.6674979387412
 30
0.0
 10
87.53814092172802
 20
233.6375240395936
 30
0.0
 10
87.50590803942433
 20
233.6059511843995
 30
0.0
 10
87.47718475869591
 20
233.5722236898731
 30
0.0
 10
87.45102159959583
 20
233.5376968880001
 30
0.0
 10
87.42920871039506
 20
233.5013164470336
 30
0.0
 10
87.40975876883144
 20
233.4646037248867
 30
0.0
 10
87.39464168420619
 20
233.4263835125916
 30
0.0
 10
87.38200145386232
 20
233.3874030748463
 30
0.0
 10
87.37378600163274
 20
233.3469984182154
 30
0.0
 10
87.3684345253268
 20
233.305600271034
 30
0.0
 10
87.36781854179014
 20
233.2776294553013
 30
0.0
 10
87.36750690598913
 20
233.2634785778073
 30
0.0
  0
SPLINE
  5
155
330
1F
100
AcDbEntity
  8
0
  6
Continuous
 62
     7
370
    25
100
AcDbSpline
210
0.0
220
0.0
230
1.0
 70
     8
 71
     3
 72
    27
 73
    23
 74
     0
 42
0.00000001
 43
0.00000001
 40
0.0
 40
0.0
 40
0.0
 40
0.0
 40
0.0982516484699129
 40
0.1932451189176894
 40
0.2862522647912075
 40
0.3777545648720608
 40
0.4228635357577923
 40
0.4667593332879029
 40
0.5095988854250244
 40
0.5515509749305667
 40
0.5925719011030998
 40
0.6330546681341547
 40
0.673196377975687
 40
0.7129215781785403
 40
0.7521831730601126
 40
0.7897691249960039
 40
0.8263073234986252
 40
0.862230955276688
 40
0.8968618072718135
 40
0.9311501179737619
 40
0.9655419393185708
 40
1.0
 40
1.0
 40
1.0
 40
1.0
 10
88.22146657479256
 20
232.6499335724654
 30
0.0
 10
88.25939375678612
 20
232.6509124358797
 30
0.0
 10
88.33399039621868
 20
232.6528377020697
 30
0.0
 10
88.4436508343108
 20
232.6680186248395
 30
0.0
 10
88.54875143344269
 20
232.69296316755
 30
0.0
 10
88.63257842293645
 20
232.7221802370737
 30
0.0
 10
88.69657705886921
 20
232.749755698097
 30
0.0
 10
88.74203378390175
 20
232.7726844548166
 30
0.0
 10
88.78498318067678
 20
232.7976874514036
 30
0.0
 10
88.82522239677155
 20
232.8249092907229
 30
0.0
 10
88.86318929960723
 20
232.8537378618605
 30
0.0
 10
88.89848748608753
 20
232.8847580075319
 30
0.0
 10
88.93105846601466
 20
232.9179055064514
 30
0.0
 10
88.96133299968416
 20
232.9525635474914
 30
0.0
 10
88.98799547432567
 20
232.9888326462399
 30
0.0
 10
89.012239417
 20
233.0253141909882
 30
0.0
 10
89.03208014648348
 20
233.0629199485656
 30
0.0
 10
89.04884264594213
 20
233.1007660188042
 30
0.0
 10
89.06092246736412
 20
233.1394403193551
 30
0.0
 10
89.07059291300811
 20
233.1781460514584
 30
0.0
 10
89.0762156447473
 20
233.2176603415179
 30
0.0
 10
89.07681988154336
 20
233.2442398654502
 30
0.0
 10
89.07712229060452
 20
233.2575424132773
 30
0.0
  0
SPLINE
  5
157
330
1F
100
AcDbEntity
  8
0
  6
Continuous
 62
     7
370
    25
100
AcDbSpline
210
0.0
220
0.0
230
1.0
 70
     8
 71
     3
 72
    15
 73
    11
 74
     0
 42
0.00000001
 43
0.00000001
 40
0.0
 40
0.0
 40
0.0
 40
0.0
 40
0.1363937160750645
 40
0.2689149139021386
 40
0.397367991877592
 40
0.5221735695800642
 40
0.6442705854860253
 40
0.7636607977905968
 40
0.8824216470492995
 40
1.0
 40
1.0
 40
1.0
 40
1.0
 10
62.00227586966435
 20
233.8710874186192
 30
0.0
 10
61.97554948704811
 20
233.8707179595168
 30
0.0
 10
61.92285554273024
 20
233.8699895310702
 30
0.0
 10
61.84522627124204
 20
233.8631019928569
 30
0.0
 10
61.7705027382444
 20
233.8515521291556
 30
0.0
 10
61.69849653968276
 20
233.836234960189
 30
0.0
 10
61.62986913845837
 20
233.8150285526245
 30
0.0
 10
61.56358537144528
 20
233.7906590741372
 30
0.0
 10
61.50038048737403
 20
233.7610124079936
 30
0.0
 10
61.46036696013648
 20
233.7376821588411
 30
0.0
 10
61.44046029808317
 20
233.7260753993885
 30
0.0
  0
SPLINE
  5
158
330
1F
100
AcDbEntity
  8
0
  6
Continuous
 62
     7
370
    25
100
AcDbSpline
210
0.0
220
0.0
230
1.0
 70
     8
 71
     3
 72
    19
 73
    15
 74
     0
 42
0.00000001
 43
0.00000001
 40
0.0
 40
0.0
 40
0.0
 40
0.0
 40
0.0801035477602757
 40
0.156080906660363
 40
0.2289219874593032
 40
0.2999331802161037
 40
0.3727742610150712
 40
0.4503124967502079
 40
0.5334611638258994
 40
0.6229619546525643
 40
0.7159751743016041
 40
0.8093042798469615
 40
0.9036851418281261
 40
1.0
 40
1.0
 40
1.0
 40
1.0
 10
62.83588297436521
 20
233.4097626322944
 30
0.0
 10
62.82592420371799
 20
233.4350773658092
 30
0.0
 10
62.80651964555175
 20
233.4844028534977
 30
0.0
 10
62.76734235808075
 20
233.5517690940483
 30
0.0
 10
62.7223049311529
 20
233.6114415463336
 30
0.0
 10
62.66981275857005
 20
233.6632475061995
 30
0.0
 10
62.60980590635409
 20
233.7086960323923
 30
0.0
 10
62.54141067519218
 20
233.7489524764455
 30
0.0
 10
62.46421102361457
 20
233.7845023408381
 30
0.0
 10
62.37924852019896
 20
233.8147492765728
 30
0.0
 10
62.28913524177901
 20
233.8403256610449
 30
0.0
 10
62.19542863591678
 20
233.8576848493386
 30
0.0
 10
62.09967433550138
 20
233.8694408170848
 30
0.0
 10
62.03496079534898
 20
233.8705348529467
 30
0.0
 10
62.00227586966436
 20
233.8710874186193
 30
0.0
  0
SPLINE
  5
159
330
1F
100
AcDbEntity
  8
0
  6
Continuous
 62
     7
370
    25
100
AcDbSpline
210
0.0
220
0.0
230
1.0
 70
     8
 71
     3
 72
    15
 73
    11
 74
     0
 42
0.00000001
 43
0.00000001
 40
0.0
 40
0.0
 40
0.0
 40
0.0
 40
0.120420216034976
 40
0.2407541402523623
 40
0.3611614164571914
 40
0.4824497385034471
 40
0.60760737799175
 40
0.7345532509478404
 40
0.8645354040683021
 40
1.0
 40
1.0
 40
1.0
 40
1.0
 10
61.44046029808317
 20
233.7260753993885
 30
0.0
 10
61.42642937296054
 20
233.7169981629274
 30
0.0
 10
61.39837757712372
 20
233.6988501946541
 30
0.0
 10
61.35953205672197
 20
233.6671104273669
 30
0.0
 10
61.32274865277348
 20
233.6328680257257
 30
0.0
 10
61.28911335788055
 20
233.594606554344
 30
0.0
 10
61.25780608650317
 20
233.5532964109541
 30
0.0
 10
61.22947933794761
 20
233.5084684912811
 30
0.0
 10
61.2031788134241
 20
233.4607587796108
 30
0.0
 10
61.18847093210944
 20
233.4269938046639
 30
0.0
 10
61.18096510577546
 20
233.4097626322944
 30
0.0
  0
SPLINE
  5
15B
330
1F
100
AcDbEntity
  8
0
  6
Continuous
 62
     7
370
    25
100
AcDbSpline
210
0.0
220
0.0
230
1.0
 70
     8
 71
     3
 72
    19
 73
    15
 74
     0
 42
0.00000001
 43
0.00000001
 40
0.0
 40
0.0
 40
0.0
 40
0.0
 40
0.080103547760271
 40
0.1560809066603589
 40
0.2289219874593079
 40
0.2999331802160992
 40
0.3727742610150673
 40
0.4503124967502163
 40
0.5334611638259021
 40
0.6229619546525549
 40
0.715975174301602
 40
0.8093042798469601
 40
0.9036851418281323
 40
1.0
 40
1.0
 40
1.0
 40
1.0
 10
67.63908810257033
 20
233.4097626322944
 30
0.0
 10
67.62912933192311
 20
233.4350773658091
 30
0.0
 10
67.60972477375687
 20
233.4844028534976
 30
0.0
 10
67.57054748628588
 20
233.5517690940482
 30
0.0
 10
67.52551005935798
 20
233.6114415463336
 30
0.0
 10
67.47301788677517
 20
233.6632475061994
 30
0.0
 10
67.41301103455923
 20
233.7086960323924
 30
0.0
 10
67.34461580339729
 20
233.7489524764454
 30
0.0
 10
67.26741615181967
 20
233.7845023408381
 30
0.0
 10
67.18245364840412
 20
233.8147492765729
 30
0.0
 10
67.09234036998419
 20
233.8403256610449
 30
0.0
 10
66.99863376412188
 20
233.8576848493386
 30
0.0
 10
66.9028794637065
 20
233.8694408170848
 30
0.0
 10
66.83816592355412
 20
233.8705348529467
 30
0.0
 10
66.80548099786948
 20
233.8710874186192
 30
0.0
  0
SPLINE
  5
15C
330
1F
100
AcDbEntity
  8
0
  6
Continuous
 62
     7
370
    25
100
AcDbSpline
210
0.0
220
0.0
230
1.0
 70
     8
 71
     3
 72
    15
 73
    11
 74
     0
 42
0.00000001
 43
0.00000001
 40
0.0
 40
0.0
 40
0.0
 40
0.0
 40
0.1204202160349887
 40
0.2407541402523739
 40
0.361161416457202
 40
0.4824497385034565
 40
0.6076073779917683
 40
0.7345532509478486
 40
0.8645354040683172
 40
1.0
 40
1.0
 40
1.0
 40
1.0
 10
66.24366542628829
 20
233.7260753993884
 30
0.0
 10
66.22963450116568
 20
233.7169981629274
 30
0.0
 10
66.20158270532883
 20
233.698850194654
 30
0.0
 10
66.16273718492712
 20
233.667110427367
 30
0.0
 10
66.12595378097863
 20
233.6328680257257
 30
0.0
 10
66.09231848608567
 20
233.594606554344
 30
0.0
 10
66.0610112147083
 20
233.5532964109541
 30
0.0
 10
66.03268446615274
 20
233.5084684912811
 30
0.0
 10
66.00638394162922
 20
233.4607587796108
 30
0.0
 10
65.99167606031455
 20
233.4269938046639
 30
0.0
 10
65.98417023398059
 20
233.4097626322944
 30
0.0
  0
SPLINE
  5
15D
330
1F
100
AcDbEntity
  8
0
  6
Continuous
 62
     7
370
    25
100
AcDbSpline
210
0.0
220
0.0
230
1.0
 70
     8
 71
     3
 72
    15
 73
    11
 74
     0
 42
0.00000001
 43
0.00000001
 40
0.0
 40
0.0
 40
0.0
 40
0.0
 40
0.1363937160750761
 40
0.2689149139021264
 40
0.397367991877603
 40
0.5221735695800751
 40
0.6442705854860247
 40
0.7636607977906181
 40
0.8824216470493099
 40
1.0
 40
1.0
 40
1.0
 40
1.0
 10
66.80548099786948
 20
233.8710874186192
 30
0.0
 10
66.77875461525323
 20
233.8707179595168
 30
0.0
 10
66.72606067093537
 20
233.8699895310701
 30
0.0
 10
66.64843139944715
 20
233.8631019928569
 30
0.0
 10
66.57370786644955
 20
233.8515521291556
 30
0.0
 10
66.50170166788789
 20
233.836234960189
 30
0.0
 10
66.43307426666351
 20
233.8150285526244
 30
0.0
 10
66.3667904996504
 20
233.7906590741373
 30
0.0
 10
66.30358561557917
 20
233.7610124079937
 30
0.0
 10
66.26357208834162
 20
233.7376821588411
 30
0.0
 10
66.24366542628829
 20
233.7260753993884
 30
0.0
  0
SPLINE
  5
15F
330
1F
100
AcDbEntity
  8
0
  6
Continuous
 62
     7
370
    25
100
AcDbSpline
210
0.0
220
0.0
230
1.0
 70
     8
 71
     3
 72
    15
 73
    11
 74
     0
 42
0.00000001
 43
0.00000001
 40
0.0
 40
0.0
 40
0.0
 40
0.0
 40
0.12042021603499
 40
0.2407541402523764
 40
0.3611614164571814
 40
0.4824497385034373
 40
0.6076073779917505
 40
0.734553250947832
 40
0.864535404068302
 40
1.0
 40
1.0
 40
1.0
 40
1.0
 10
74.46610132372419
 20
233.7260753993885
 30
0.0
 10
74.45207039860158
 20
233.7169981629274
 30
0.0
 10
74.42401860276473
 20
233.6988501946541
 30
0.0
 10
74.38517308236302
 20
233.6671104273669
 30
0.0
 10
74.34838967841453
 20
233.6328680257258
 30
0.0
 10
74.31475438352155
 20
233.594606554344
 30
0.0
 10
74.28344711214419
 20
233.5532964109541
 30
0.0
 10
74.25512036358867
 20
233.5084684912811
 30
0.0
 10
74.2288198390651
 20
233.4607587796107
 30
0.0
 10
74.21411195775045
 20
233.4269938046639
 30
0.0
 10
74.20660613141648
 20
233.4097626322944
 30
0.0
  0
SPLINE
  5
160
330
1F
100
AcDbEntity
  8
0
  6
Continuous
 62
     7
370
    25
100
AcDbSpline
210
0.0
220
0.0
230
1.0
 70
     8
 71
     3
 72
    19
 73
    15
 74
     0
 42
0.00000001
 43
0.00000001
 40
0.0
 40
0.0
 40
0.0
 40
0.0
 40
0.0801035477602713
 40
0.1560809066603664
 40
0.2289219874593074
 40
0.2999331802161087
 40
0.3727742610150772
 40
0.4503124967502148
 40
0.5334611638259134
 40
0.6229619546525665
 40
0.715975174301614
 40
0.8093042798469726
 40
0.9036851418281316
 40
1.0
 40
1.0
 40
1.0
 40
1.0
 10
75.86152400000623
 20
233.4097626322944
 30
0.0
 10
75.85156522935904
 20
233.4350773658092
 30
0.0
 10
75.8321606711928
 20
233.4844028534977
 30
0.0
 10
75.79298338372175
 20
233.5517690940482
 30
0.0
 10
75.74794595679388
 20
233.6114415463336
 30
0.0
 10
75.69545378421107
 20
233.6632475061995
 30
0.0
 10
75.63544693199515
 20
233.7086960323923
 30
0.0
 10
75.56705170083316
 20
233.7489524764454
 30
0.0
 10
75.48985204925557
 20
233.7845023408381
 30
0.0
 10
75.40488954584
 20
233.8147492765729
 30
0.0
 10
75.31477626742004
 20
233.8403256610449
 30
0.0
 10
75.22106966155779
 20
233.8576848493387
 30
0.0
 10
75.12531536114241
 20
233.8694408170848
 30
0.0
 10
75.06060182099002
 20
233.8705348529467
 30
0.0
 10
75.02791689530538
 20
233.8710874186192
 30
0.0
  0
SPLINE
  5
161
330
1F
100
AcDbEntity
  8
0
  6
Continuous
 62
     7
370
    25
100
AcDbSpline
210
0.0
220
0.0
230
1.0
 70
     8
 71
     3
 72
    15
 73
    11
 74
     0
 42
0.00000001
 43
0.00000001
 40
0.0
 40
0.0
 40
0.0
 40
0.0
 40
0.1363937160750731
 40
0.2689149139021442
 40
0.3973679918775947
 40
0.5221735695800641
 40
0.6442705854860338
 40
0.7636607977906026
 40
0.8824216470492919
 40
1.0
 40
1.0
 40
1.0
 40
1.0
 10
75.02791689530538
 20
233.8710874186192
 30
0.0
 10
75.00119051268913
 20
233.8707179595168
 30
0.0
 10
74.94849656837128
 20
233.8699895310701
 30
0.0
 10
74.87086729688305
 20
233.8631019928569
 30
0.0
 10
74.79614376388542
 20
233.8515521291556
 30
0.0
 10
74.7241375653238
 20
233.8362349601891
 30
0.0
 10
74.65551016409937
 20
233.8150285526244
 30
0.0
 10
74.58922639708638
 20
233.7906590741374
 30
0.0
 10
74.52602151301505
 20
233.7610124079937
 30
0.0
 10
74.48600798577752
 20
233.7376821588411
 30
0.0
 10
74.46610132372417
 20
233.7260753993884
 30
0.0
  0
SPLINE
  5
163
330
1F
100
AcDbEntity
  8
0
  6
Continuous
 62
     7
370
    25
100
AcDbSpline
210
0.0
220
0.0
230
1.0
 70
     8
 71
     3
 72
    19
 73
    15
 74
     0
 42
0.00000001
 43
0.00000001
 40
0.0
 40
0.0
 40
0.0
 40
0.0
 40
0.0801035477602705
 40
0.156080906660358
 40
0.2289219874593066
 40
0.2999331802161023
 40
0.3727742610150646
 40
0.4503124967502131
 40
0.5334611638258986
 40
0.6229619546525637
 40
0.7159751743016102
 40
0.8093042798469612
 40
0.903685141828126
 40
1.0
 40
1.0
 40
1.0
 40
1.0
 10
40.82797699145922
 20
233.4097626322944
 30
0.0
 10
40.81801822081203
 20
233.4350773658092
 30
0.0
 10
40.79861366264576
 20
233.4844028534976
 30
0.0
 10
40.75943637517477
 20
233.5517690940482
 30
0.0
 10
40.71439894824688
 20
233.6114415463336
 30
0.0
 10
40.66190677566406
 20
233.6632475061995
 30
0.0
 10
40.60189992344812
 20
233.7086960323922
 30
0.0
 10
40.5335046922862
 20
233.7489524764455
 30
0.0
 10
40.45630504070859
 20
233.7845023408381
 30
0.0
 10
40.371342537293
 20
233.8147492765729
 30
0.0
 10
40.28122925887305
 20
233.8403256610449
 30
0.0
 10
40.18752265301077
 20
233.8576848493385
 30
0.0
 10
40.09176835259541
 20
233.8694408170849
 30
0.0
 10
40.027054812443
 20
233.8705348529466
 30
0.0
 10
39.99436988675837
 20
233.8710874186192
 30
0.0
  0
SPLINE
  5
164
330
1F
100
AcDbEntity
  8
0
  6
Continuous
 62
     7
370
    25
100
AcDbSpline
210
0.0
220
0.0
230
1.0
 70
     8
 71
     3
 72
    15
 73
    11
 74
     0
 42
0.00000001
 43
0.00000001
 40
0.0
 40
0.0
 40
0.0
 40
0.0
 40
0.1204202160349637
 40
0.2407541402523516
 40
0.3611614164571822
 40
0.4824497385034395
 40
0.6076073779917541
 40
0.7345532509478371
 40
0.8645354040683004
 40
1.0
 40
1.0
 40
1.0
 40
1.0
 10
39.43255431517717
 20
233.7260753993884
 30
0.0
 10
39.41852339005456
 20
233.7169981629273
 30
0.0
 10
39.39047159421774
 20
233.6988501946541
 30
0.0
 10
39.35162607381603
 20
233.667110427367
 30
0.0
 10
39.3148426698675
 20
233.6328680257257
 30
0.0
 10
39.28120737497457
 20
233.594606554344
 30
0.0
 10
39.24990010359716
 20
233.5532964109541
 30
0.0
 10
39.22157335504164
 20
233.5084684912811
 30
0.0
 10
39.19527283051811
 20
233.4607587796108
 30
0.0
 10
39.18056494920345
 20
233.4269938046639
 30
0.0
 10
39.17305912286948
 20
233.4097626322944
 30
0.0
  0
SPLINE
  5
165
330
1F
100
AcDbEntity
  8
0
  6
Continuous
 62
     7
370
    25
100
AcDbSpline
210
0.0
220
0.0
230
1.0
 70
     8
 71
     3
 72
    15
 73
    11
 74
     0
 42
0.00000001
 43
0.00000001
 40
0.0
 40
0.0
 40
0.0
 40
0.0
 40
0.1363937160750631
 40
0.2689149139021358
 40
0.3973679918775879
 40
0.5221735695800589
 40
0.6442705854860187
 40
0.763660797790589
 40
0.8824216470492905
 40
1.0
 40
1.0
 40
1.0
 40
1.0
 10
39.99436988675837
 20
233.8710874186192
 30
0.0
 10
39.96764350414212
 20
233.8707179595168
 30
0.0
 10
39.91494955982427
 20
233.8699895310701
 30
0.0
 10
39.83732028833607
 20
233.8631019928569
 30
0.0
 10
39.76259675533841
 20
233.8515521291556
 30
0.0
 10
39.69059055677678
 20
233.836234960189
 30
0.0
 10
39.62196315555241
 20
233.8150285526245
 30
0.0
 10
39.55567938853932
 20
233.7906590741373
 30
0.0
 10
39.49247450446806
 20
233.7610124079936
 30
0.0
 10
39.45246097723052
 20
233.7376821588411
 30
0.0
 10
39.43255431517717
 20
233.7260753993884
 30
0.0
  0
SPLINE
  5
166
330
1F
100
AcDbEntity
  8
0
  6
Continuous
 62
     7
370
    25
100
AcDbSpline
210
0.0
220
0.0
230
1.0
 70
     8
 71
     3
 72
    23
 73
    19
 74
     0
 42
0.00000001
 43
0.00000001
 40
0.0
 40
0.0
 40
0.0
 40
0.0
 40
0.0549941917794511
 40
0.1086157456845984
 40
0.1618451783272433
 40
0.215019955512618
 40
0.2696742198284681
 40
0.3264632884952606
 40
0.3861239425115564
 40
0.4490357252352822
 40
0.5136728576685902
 40
0.5788992826301934
 40
0.6448722014032229
 40
0.7115525446511641
 40
0.7805053794365356
 40
0.8509121489721478
 40
0.9239857510237074
 40
0.9999999999999999
 40
0.9999999999999999
 40
0.9999999999999999
 40
0.9999999999999999
 10
80.69186588034812
 20
233.2571184015252
 30
0.0
 10
80.69114400677114
 20
233.2785094421718
 30
0.0
 10
80.68971827735653
 20
233.3207576097622
 30
0.0
 10
80.6780004846269
 20
233.3828539326815
 30
0.0
 10
80.65826339531769
 20
233.4420012876326
 30
0.0
 10
80.63138440658949
 20
233.4987603383168
 30
0.0
 10
80.5960821462549
 20
233.552342511715
 30
0.0
 10
80.55348580911995
 20
233.6036368519729
 30
0.0
 10
80.5024437372156
 20
233.651344443374
 30
0.0
 10
80.44522095304578
 20
233.6964565080823
 30
0.0
 10
80.38221355910454
 20
233.7372054259978
 30
0.0
 10
80.31520542290245
 20
233.7735540351383
 30
0.0
 10
80.24419436727317
 20
233.8034303374089
 30
0.0
 10
80.16976450421251
 20
233.8281793192431
 30
0.0
 10
80.09198784645103
 20
233.8477520632236
 30
0.0
 10
80.0104066805979
 20
233.8609631965291
 30
0.0
 10
79.92545417648617
 20
233.8699487928004
 30
0.0
 10
79.8674700974627
 20
233.8707029184903
 30
0.0
 10
79.83790621154469
 20
233.8710874186192
 30
0.0
  0
SPLINE
  5
167
330
1F
100
AcDbEntity
  8
0
  6
Continuous
 62
     7
370
    25
100
AcDbSpline
210
0.0
220
0.0
230
1.0
 70
     8
 71
     3
 72
    27
 73
    23
 74
     0
 42
0.00000001
 43
0.00000001
 40
0.0
 40
0.0
 40
0.0
 40
0.0
 40
0.0967355119062964
 40
0.1916811151593603
 40
0.2857069682641685
 40
0.3796925050210219
 40
0.4260911455542289
 40
0.4706177422434455
 40
0.5137239754394091
 40
0.5553981333464996
 40
0.5958037158790287
 40
0.6353577888368404
 40
0.6737794639913118
 40
0.7117905352868265
 40
0.7490596834658493
 40
0.7855882216574237
 40
0.8214666097406202
 40
0.8569518134550632
 40
0.8920204721279946
 40
0.9275000541271364
 40
0.9635042408013906
 40
1.0
 40
1.0
 40
1.0
 40
1.0
 10
79.83621016453617
 20
232.6499335724654
 30
0.0
 10
79.87371225273174
 20
232.650930166578
 30
0.0
 10
79.9480225235359
 20
232.6529049147043
 30
0.0
 10
80.05794664976823
 20
232.6681286142678
 30
0.0
 10
80.16484223919046
 20
232.6931974636474
 30
0.0
 10
80.25109362417899
 20
232.7223290064152
 30
0.0
 10
80.31693020528061
 20
232.7506835401782
 30
0.0
 10
80.36389724096225
 20
232.7729444746609
 30
0.0
 10
80.40755030660405
 20
232.7976478136755
 30
0.0
 10
80.448351317113
 20
232.8239415682286
 30
0.0
 10
80.4863755774036
 20
232.8518944063196
 30
0.0
 10
80.52093873346149
 20
232.8821210599948
 30
0.0
 10
80.55318295135307
 20
232.9135042257401
 30
0.0
 10
80.58180681907197
 20
232.947080599842
 30
0.0
 10
80.60779416464139
 20
232.9817881003503
 30
0.0
 10
80.63049601125857
 20
233.0178193901783
 30
0.0
 10
80.64890347802596
 20
233.0554121443249
 30
0.0
 10
80.66497384308731
 20
233.0934620059956
 30
0.0
 10
80.67663733402178
 20
233.1329315419331
 30
0.0
 10
80.68582317843803
 20
233.1732322552029
 30
0.0
 10
80.69086268635238
 20
233.2148713306902
 30
0.0
 10
80.69152997420875
 20
233.2429725329056
 30
0.0
 10
80.69186588034812
 20
233.2571184015252
 30
0.0
  0
SPLINE
  5
168
330
1F
100
AcDbEntity
  8
0
  6
Continuous
 62
     7
370
    25
100
AcDbSpline
210
0.0
220
0.0
230
1.0
 70
     8
 71
     3
 72
    27
 73
    23
 74
     0
 42
0.00000001
 43
0.00000001
 40
0.0
 40
0.0
 40
0.0
 40
0.0
 40
0.0340833111926533
 40
0.068466214313612
 40
0.1027456336332741
 40
0.1378290994679554
 40
0.1732623820017961
 40
0.2102868779423211
 40
0.2481704421547102
 40
0.28771619683205
 40
0.3279475922853107
 40
0.3685966947040722
 40
0.4095857292818803
 40
0.4508193404041035
 40
0.4930647135770164
 40
0.5360790051105974
 40
0.5804555628977126
 40
0.6256997504344052
 40
0.7177663102152048
 40
0.8100372355299814
 40
0.9039684723447342
 40
1.0
 40
1.0
 40
1.0
 40
1.0
 10
78.98225049573273
 20
233.262630554303
 30
0.0
 10
78.98255617258447
 20
233.2494688227359
 30
0.0
 10
78.98317021318412
 20
233.2230296681268
 30
0.0
 10
78.98880909006417
 20
233.1836685587555
 30
0.0
 10
78.99838293021638
 20
233.1447404929847
 30
0.0
 10
79.01101195734924
 20
233.1062664349582
 30
0.0
 10
79.02728345314083
 20
233.0680128933145
 30
0.0
 10
79.04765330163089
 20
233.0305353981751
 30
0.0
 10
79.07176944852732
 20
232.9934933449734
 30
0.0
 10
79.0984514892166
 20
232.9566818298509
 30
0.0
 10
79.12918691229956
 20
232.9217434628692
 30
0.0
 10
79.16213147667406
 20
232.8881187456769
 30
0.0
 10
79.19787183517205
 20
232.8568865408656
 30
0.0
 10
79.23573204004487
 20
232.8272380881849
 30
0.0
 10
79.27660088071408
 20
232.8004573841734
 30
0.0
 10
79.31948971833351
 20
232.7746312675645
 30
0.0
 10
79.3652551759887
 20
232.7515805854212
 30
0.0
 10
79.42941207268017
 20
232.7232218140297
 30
0.0
 10
79.51307068281413
 20
232.6933888186449
 30
0.0
 10
79.6177446479791
 20
232.668651411742
 30
0.0
 10
79.72576182818656
 20
232.652740879147
 30
0.0
 10
79.79912368148848
 20
232.6508762134783
 30
0.0
 10
79.83621016453615
 20
232.6499335724654
 30
0.0
  0
SPLINE
  5
169
330
1F
100
AcDbEntity
  8
0
  6
Continuous
 62
     7
370
    25
100
AcDbSpline
210
0.0
220
0.0
230
1.0
 70
     8
 71
     3
 72
    27
 73
    23
 74
     0
 42
0.00000001
 43
0.00000001
 40
0.0
 40
0.0
 40
0.0
 40
0.0
 40
0.0981786671732927
 40
0.1931015764981951
 40
0.2860396366901339
 40
0.3778197460205621
 40
0.4228952099755273
 40
0.4664319919630723
 40
0.5092397228930204
 40
0.5511606503983805
 40
0.5921511062385667
 40
0.6326038026817903
 40
0.6729736415220239
 40
0.7129467237532711
 40
0.752179155133285
 40
0.7895387461352724
 40
0.8260498040744236
 40
0.8619467517889667
 40
0.8966658686687728
 40
0.9312012596465975
 40
0.9655675347562689
 40
1.0
 40
1.0
 40
1.0
 40
1.0
 10
79.83790621154469
 20
233.8710874186192
 30
0.0
 10
79.79997933786339
 20
233.8701075031323
 30
0.0
 10
79.72538330483133
 20
233.8681801676854
 30
0.0
 10
79.61571846482387
 20
233.8530142658362
 30
0.0
 10
79.51050395384972
 20
233.8279835392223
 30
0.0
 10
79.42650584490137
 20
233.7988750246538
 30
0.0
 10
79.36245548138147
 20
233.7713771679394
 30
0.0
 10
79.31725986492053
 20
233.7482149723127
 30
0.0
 10
79.274379842138
 20
233.7233505599813
 30
0.0
 10
79.23416011392186
 20
233.6961003926506
 30
0.0
 10
79.19615489631714
 20
233.6673110580614
 30
0.0
 10
79.16091377026972
 20
233.6360979136741
 30
0.0
 10
79.12771894929959
 20
233.6032614551562
 30
0.0
 10
79.09781054693275
 20
233.5680119115233
 30
0.0
 10
79.0708531389706
 20
233.5319245669113
 30
0.0
 10
79.04722306006087
 20
233.4951374959816
 30
0.0
 10
79.02720928969772
 20
233.45771262163
 30
0.0
 10
79.01071691480554
 20
233.4197257631766
 30
0.0
 10
78.9976848165979
 20
233.3811877697269
 30
0.0
 10
78.98901506715328
 20
233.3420760627712
 30
0.0
 10
78.98310204966081
 20
233.3025264663233
 30
0.0
 10
78.98253452904284
 20
233.2759377185085
 30
0.0
 10
78.98225049573273
 20
233.262630554303
 30
0.0
  0
SPLINE
  5
16A
330
1F
100
AcDbEntity
  8
0
  6
Continuous
 62
     7
370
    25
100
AcDbSpline
210
0.0
220
0.0
230
1.0
 70
     8
 71
     3
 72
    23
 73
    19
 74
     0
 42
0.00000001
 43
0.00000001
 40
0.0
 40
0.0
 40
0.0
 40
0.0
 40
0.0802671504052822
 40
0.1570949292480302
 40
0.2300451271178401
 40
0.3001901810202118
 40
0.3675543372664535
 40
0.4327170125855886
 40
0.495887515202798
 40
0.5577380955982555
 40
0.6175067609477611
 40
0.674770806298664
 40
0.7294568200682989
 40
0.7826036447464906
 40
0.8355442734011572
 40
0.8888811197043298
 40
0.9433504501811648
 40
1.0
 40
1.0
 40
1.0
 40
1.0
 10
49.43329550107461
 20
232.6770703246021
 30
0.0
 10
49.46398183344349
 20
232.6775397248618
 30
0.0
 10
49.52403961783014
 20
232.6784584120236
 30
0.0
 10
49.61171469790023
 20
232.6861750099108
 30
0.0
 10
49.69488444458354
 20
232.6988063784251
 30
0.0
 10
49.77341981510508
 20
232.7165501912688
 30
0.0
 10
49.84759583144013
 20
232.7392494571381
 30
0.0
 10
49.91680422495082
 20
232.7678890081473
 30
0.0
 10
49.98167246569613
 20
232.8008966809795
 30
0.0
 10
50.04134323319188
 20
232.8389198437968
 30
0.0
 10
50.09519887889846
 20
232.8812248590799
 30
0.0
 10
50.14253709222638
 20
232.9268920803826
 30
0.0
 10
50.18238735149353
 20
232.9760491501218
 30
0.0
 10
50.21491790354307
 20
233.0283433411982
 30
0.0
 10
50.24083750277324
 20
233.0837294864086
 30
0.0
 10
50.25824805683887
 20
233.1428042812631
 30
0.0
 10
50.26998359488911
 20
233.204782311097
 30
0.0
 10
50.27103216381114
 20
233.2473097858681
 30
0.0
 10
50.27156673504898
 20
233.2689907305851
 30
0.0
  0
SPLINE
  5
16B
330
1F
100
AcDbEntity
  8
0
  6
Continuous
 62
     7
370
    25
100
AcDbSpline
210
0.0
220
0.0
230
1.0
 70
     8
 71
     3
 72
    27
 73
    23
 74
     0
 42
0.00000001
 43
0.00000001
 40
0.0
 40
0.0
 40
0.0
 40
0.0
 40
0.0378512432679791
 40
0.0748235214928256
 40
0.1111028071545421
 40
0.1470071582729213
 40
0.1833057650659542
 40
0.2196468421893504
 40
0.2562532002018921
 40
0.2937788793379339
 40
0.332040970456853
 40
0.3707041044549782
 40
0.4099504040131545
 40
0.4500205749974241
 40
0.4913568386943269
 40
0.5338110430479902
 40
0.5778556093524749
 40
0.6231418624741443
 40
0.7155156484184316
 40
0.8084282910636367
 40
0.9029079082245287
 40
1.0
 40
1.0
 40
1.0
 40
1.0
 10
50.27156673504897
 20
233.268990730585
 30
0.0
 10
50.27125921513257
 20
233.2832829987215
 30
0.0
 10
50.27065131639304
 20
233.3115356461845
 30
0.0
 10
50.26526063599128
 20
233.3531875038441
 30
0.0
 10
50.25736456128419
 20
233.3936518603576
 30
0.0
 10
50.24588138969993
 20
233.4330296071574
 30
0.0
 10
50.23046970167285
 20
233.4710483409953
 30
0.0
 10
50.21217490240757
 20
233.5080292527816
 30
0.0
 10
50.19100042149073
 20
233.5440214416791
 30
0.0
 10
50.1657510719872
 20
233.5781797856962
 30
0.0
 10
50.13786707155094
 20
233.611209589957
 30
0.0
 10
50.10720911862932
 20
233.6426016172834
 30
0.0
 10
50.07415034916892
 20
233.6724963464553
 30
0.0
 10
50.03783282473251
 20
233.7000508041286
 30
0.0
 10
49.9988059651657
 20
233.7258322331407
 30
0.0
 10
49.95707852053587
 20
233.7501079471765
 30
0.0
 10
49.91264746103236
 20
233.7725413367592
 30
0.0
 10
49.84960137531179
 20
233.7996125893703
 30
0.0
 10
49.76724923133277
 20
233.8281447988613
 30
0.0
 10
49.66459972788105
 20
233.8535795532367
 30
0.0
 10
49.55794185635704
 20
233.8679928754862
 30
0.0
 10
49.48563194090546
 20
233.8700465687962
 30
0.0
 10
49.44898393590367
 20
233.8710874186192
 30
0.0
  0
SPLINE
  5
16C
330
1F
100
AcDbEntity
  8
0
  6
Continuous
 62
     7
370
    25
100
AcDbSpline
210
0.0
220
0.0
230
1.0
 70
     8
 71
     3
 72
    27
 73
    23
 74
     0
 42
0.00000001
 43
0.00000001
 40
0.0
 40
0.0
 40
0.0
 40
0.0
 40
0.0981510711374079
 40
0.1934745258487362
 40
0.2871131033579254
 40
0.3794567851537973
 40
0.4249973168336708
 40
0.4688485217936176
 40
0.5116418152198917
 40
0.5532411357758478
 40
0.5939171230142897
 40
0.6340594764123207
 40
0.6736060164414122
 40
0.7127604161690728
 40
0.7511837833369407
 40
0.7883704274078207
 40
0.8244317148021892
 40
0.8599104382277513
 40
0.8949421176804857
 40
0.9299210498982543
 40
0.9647431547833493
 40
1.0
 40
1.0
 40
1.0
 40
1.0
 10
49.44898393590368
 20
233.8710874186193
 30
0.0
 10
49.41076609051573
 20
233.8701595319869
 30
0.0
 10
49.33543141072354
 20
233.8683304900399
 30
0.0
 10
49.22461829113965
 20
233.8523282132587
 30
0.0
 10
49.11774133636444
 20
233.827877864625
 30
0.0
 10
49.03263361887719
 20
233.7977012704639
 30
0.0
 10
48.96770591151952
 20
233.7696066642497
 30
0.0
 10
48.92164431601149
 20
233.7466371398487
 30
0.0
 10
48.87832930623378
 20
233.721755866921
 30
0.0
 10
48.8380353442402
 20
233.6943957622344
 30
0.0
 10
48.80002217424774
 20
233.6656176825204
 30
0.0
 10
48.76493637526259
 20
233.6345322283589
 30
0.0
 10
48.73200013851704
 20
233.6019972275398
 30
0.0
 10
48.70256164783483
 20
233.5671394840554
 30
0.0
 10
48.67572186658205
 20
233.5313873929674
 30
0.0
 10
48.65291041392284
 20
233.4943333102129
 30
0.0
 10
48.63319615721351
 20
233.4568571643163
 30
0.0
 10
48.61691433713533
 20
233.4186437808222
 30
0.0
 10
48.60464386230191
 20
233.379396652434
 30
0.0
 10
48.59581573441705
 20
233.3395371578661
 30
0.0
 10
48.58992806208907
 20
233.2989876253434
 30
0.0
 10
48.58936924463272
 20
233.2716965924972
 30
0.0
 10
48.58908810257034
 20
233.2579664250295
 30
0.0
  0
SPLINE
  5
16D
330
1F
100
AcDbEntity
  8
0
  6
Continuous
 62
     7
370
    25
100
AcDbSpline
210
0.0
220
0.0
230
1.0
 70
     8
 71
     3
 72
    23
 73
    19
 74
     0
 42
0.00000001
 43
0.00000001
 40
0.0
 40
0.0
 40
0.0
 40
0.0
 40
0.0540670435281414
 40
0.106694463403574
 40
0.1587143867662071
 40
0.2104780790868769
 40
0.2635405736810344
 40
0.3187219960026221
 40
0.3763683616899219
 40
0.4374071347679067
 40
0.5008022667412517
 40
0.5652160511124388
 40
0.6310073655534879
 40
0.6992761530747366
 40
0.7695148770207361
 40
0.8429973890869726
 40
0.9199544554196971
 40
1.0
 40
1.0
 40
1.0
 40
1.0
 10
48.58908810257034
 20
233.2579664250295
 30
0.0
 10
48.58982206897163
 20
233.2374184152744
 30
0.0
 10
48.59127045871577
 20
233.1968695202033
 30
0.0
 10
48.60277589549352
 20
233.1374909439306
 30
0.0
 10
48.62066582538613
 20
233.0806490612586
 30
0.0
 10
48.64742338523818
 20
233.0272437436055
 30
0.0
 10
48.67987787811992
 20
232.9756794908077
 30
0.0
 10
48.72134783837227
 20
232.9280121838574
 30
0.0
 10
48.76898722926121
 20
232.8821557878826
 30
0.0
 10
48.82415356512904
 20
232.8402299276148
 30
0.0
 10
48.88484539710644
 20
232.8018822886403
 30
0.0
 10
48.95032944590705
 20
232.7681887681614
 30
0.0
 10
49.02046784852991
 20
232.7403511222183
 30
0.0
 10
49.09451046440038
 20
232.7168944873582
 30
0.0
 10
49.17316495242281
 20
232.6993512744115
 30
0.0
 10
49.25596139057166
 20
232.6860472928579
 30
0.0
 10
49.34326423834507
 20
232.6785083817481
 30
0.0
 10
49.40289407719752
 20
232.6775559224215
 30
0.0
 10
49.43329550107461
 20
232.6770703246021
 30
0.0
  0
LINE
  5
16E
330
1F
100
AcDbEntity
  8
0
  6
Continuous
 62
     7
370
    25
100
AcDbLine
 10
18.5758402393
 20
233.5183096408
 30
0.0
 11
18.5758402393
 21
232.4871130596
 31
0.0
  0
LINE
  5
16F
330
1F
100
AcDbEntity
  8
0
  6
Continuous
 62
     7
370
    25
100
AcDbLine
 10
20.0683616068
 20
233.5183096408
 30
0.0
 11
18.5758402393
 21
233.5183096408
 31
0.0
  0
LINE
  5
170
330
1F
100
AcDbEntity
  8
0
  6
Continuous
 62
     7
370
    25
100
AcDbLine
 10
20.0683616068
 20
232.4871130596
 30
0.0
 11
20.0683616068
 21
233.5183096408
 31
0.0
  0
LINE
  5
171
330
1F
100
AcDbEntity
  8
0
  6
Continuous
 62
     7
370
    25
100
AcDbLine
 10
20.3397291282
 20
232.4871130596
 30
0.0
 11
20.0683616068
 21
232.4871130596
 31
0.0
  0
LINE
  5
172
330
1F
100
AcDbEntity
  8
0
  6
Continuous
 62
     7
370
    25
100
AcDbLine
 10
20.3397291282
 20
234.6037797263
 30
0.0
 11
20.3397291282
 21
232.4871130596
 31
0.0
  0
LINE
  5
173
330
1F
100
AcDbEntity
  8
0
  6
Continuous
 62
     7
370
    25
100
AcDbLine
 10
20.0683616068
 20
234.6037797263
 30
0.0
 11
20.3397291282
 21
234.6037797263
 31
0.0
  0
LINE
  5
174
330
1F
100
AcDbEntity
  8
0
  6
Continuous
 62
     7
370
    25
100
AcDbLine
 10
20.0683616068
 20
233.7354036579
 30
0.0
 11
20.0683616068
 21
234.6037797263
 31
0.0
  0
LINE
  5
175
330
1F
100
AcDbEntity
  8
0
  6
Continuous
 62
     7
370
    25
100
AcDbLine
 10
18.5758402393
 20
233.7354036579
 30
0.0
 11
20.0683616068
 21
233.7354036579
 31
0.0
  0
LINE
  5
176
330
1F
100
AcDbEntity
  8
0
  6
Continuous
 62
     7
370
    25
100
AcDbLine
 10
18.5758402393
 20
234.6037797263
 30
0.0
 11
18.5758402393
 21
233.7354036579
 31
0.0
  0
LINE
  5
177
330
1F
100
AcDbEntity
  8
0
  6
Continuous
 62
     7
370
    25
100
AcDbLine
 10
18.304472718
 20
232.4871130596
 30
0.0
 11
18.304472718
 21
234.6037797263
 31
0.0
  0
LINE
  5
178
330
1F
100
AcDbEntity
  8
0
  6
Continuous
 62
     7
370
    25
100
AcDbLine
 10
18.5758402393
 20
232.4871130596
 30
0.0
 11
18.304472718
 21
232.4871130596
 31
0.0
  0
LINE
  5
179
330
1F
100
AcDbEntity
  8
0
  6
Continuous
 62
     7
370
    25
100
AcDbLine
 10
23.5147291282
 20
234.6037797263
 30
0.0
 11
23.5147291282
 21
232.4871130596
 31
0.0
  0
LINE
  5
17A
330
1F
100
AcDbEntity
  8
0
  6
Continuous
 62
     7
370
    25
100
AcDbLine
 10
23.2433616068
 20
234.6037797263
 30
0.0
 11
23.5147291282
 21
234.6037797263
 31
0.0
  0
LINE
  5
17B
330
1F
100
AcDbEntity
  8
0
  6
Continuous
 62
     7
370
    25
100
AcDbLine
 10
23.2433616068
 20
232.4871130596
 30
0.0
 11
23.2433616068
 21
234.6037797263
 31
0.0
  0
LINE
  5
17C
330
1F
100
AcDbEntity
  8
0
  6
Continuous
 62
     7
370
    25
100
AcDbLine
 10
23.5147291282
 20
232.4871130596
 30
0.0
 11
23.2433616068
 21
232.4871130596
 31
0.0
  0
LINE
  5
17D
330
1F
100
AcDbEntity
  8
0
  6
Continuous
 62
     7
370
    25
100
AcDbLine
 10
28.6978487863
 20
234.6037797263
 30
0.0
 11
27.449558188
 21
232.4871130596
 31
0.0
  0
LINE
  5
17E
330
1F
100
AcDbEntity
  8
0
  6
Continuous
 62
     7
370
    25
100
AcDbLine
 10
28.4027366068
 20
234.6037797263
 30
0.0
 11
28.6978487863
 21
234.6037797263
 31
0.0
  0
LINE
  5
17F
330
1F
100
AcDbEntity
  8
0
  6
Continuous
 62
     7
370
    25
100
AcDbLine
 10
27.4228454477
 20
232.9412296462
 30
0.0
 11
28.4027366068
 21
234.6037797263
 31
0.0
  0
LINE
  5
180
330
1F
100
AcDbEntity
  8
0
  6
Continuous
 62
     7
370
    25
100
AcDbLine
 10
26.442106265
 20
234.6037797263
 30
0.0
 11
27.4228454477
 21
232.9412296462
 31
0.0
  0
LINE
  5
181
330
1F
100
AcDbEntity
  8
0
  6
Continuous
 62
     7
370
    25
100
AcDbLine
 10
26.1469940855
 20
234.6037797263
 30
0.0
 11
26.442106265
 21
234.6037797263
 31
0.0
  0
LINE
  5
182
330
1F
100
AcDbEntity
  8
0
  6
Continuous
 62
     7
370
    25
100
AcDbLine
 10
27.3952846838
 20
232.4871130596
 30
0.0
 11
26.1469940855
 21
234.6037797263
 31
0.0
  0
LINE
  5
183
330
1F
100
AcDbEntity
  8
0
  6
Continuous
 62
     7
370
    25
100
AcDbLine
 10
27.449558188
 20
232.4871130596
 30
0.0
 11
27.3952846838
 21
232.4871130596
 31
0.0
  0
LINE
  5
184
330
1F
100
AcDbEntity
  8
0
  6
Continuous
 62
     7
370
    25
100
AcDbLine
 10
33.0125923761
 20
232.7042070767
 30
0.0
 11
33.0125923761
 21
232.4871130596
 31
0.0
  0
LINE
  5
185
330
1F
100
AcDbEntity
  8
0
  6
Continuous
 62
     7
370
    25
100
AcDbLine
 10
31.6557547692
 20
232.7042070767
 30
0.0
 11
33.0125923761
 21
232.7042070767
 31
0.0
  0
LINE
  5
186
330
1F
100
AcDbEntity
  8
0
  6
Continuous
 62
     7
370
    25
100
AcDbLine
 10
31.6557547692
 20
233.5183096408
 30
0.0
 11
31.6557547692
 21
232.7042070767
 31
0.0
  0
LINE
  5
187
330
1F
100
AcDbEntity
  8
0
  6
Continuous
 62
     7
370
    25
100
AcDbLine
 10
33.0125923761
 20
233.5183096408
 30
0.0
 11
31.6557547692
 21
233.5183096408
 31
0.0
  0
LINE
  5
188
330
1F
100
AcDbEntity
  8
0
  6
Continuous
 62
     7
370
    25
100
AcDbLine
 10
33.0125923761
 20
233.7354036579
 30
0.0
 11
33.0125923761
 21
233.5183096408
 31
0.0
  0
LINE
  5
189
330
1F
100
AcDbEntity
  8
0
  6
Continuous
 62
     7
370
    25
100
AcDbLine
 10
31.6557547692
 20
233.7354036579
 30
0.0
 11
33.0125923761
 21
233.7354036579
 31
0.0
  0
LINE
  5
18A
330
1F
100
AcDbEntity
  8
0
  6
Continuous
 62
     7
370
    25
100
AcDbLine
 10
31.6557547692
 20
234.3866857092
 30
0.0
 11
31.6557547692
 21
233.7354036579
 31
0.0
  0
LINE
  5
18B
330
1F
100
AcDbEntity
  8
0
  6
Continuous
 62
     7
370
    25
100
AcDbLine
 10
33.0125923761
 20
234.3866857092
 30
0.0
 11
31.6557547692
 21
234.3866857092
 31
0.0
  0
LINE
  5
18C
330
1F
100
AcDbEntity
  8
0
  6
Continuous
 62
     7
370
    25
100
AcDbLine
 10
33.0125923761
 20
234.6037797263
 30
0.0
 11
33.0125923761
 21
234.3866857092
 31
0.0
  0
LINE
  5
18D
330
1F
100
AcDbEntity
  8
0
  6
Continuous
 62
     7
370
    25
100
AcDbLine
 10
31.3843872479
 20
234.6037797263
 30
0.0
 11
33.0125923761
 21
234.6037797263
 31
0.0
  0
LINE
  5
18E
330
1F
100
AcDbEntity
  8
0
  6
Continuous
 62
     7
370
    25
100
AcDbLine
 10
31.3843872479
 20
232.4871130596
 30
0.0
 11
31.3843872479
 21
234.6037797263
 31
0.0
  0
LINE
  5
18F
330
1F
100
AcDbEntity
  8
0
  6
Continuous
 62
     7
370
    25
100
AcDbLine
 10
33.0125923761
 20
232.4871130596
 30
0.0
 11
31.3843872479
 21
232.4871130596
 31
0.0
  0
LINE
  5
190
330
1F
100
AcDbEntity
  8
0
  6
Continuous
 62
     7
370
    25
100
AcDbLine
 10
41.0993445128
 20
233.2198053673
 30
0.0
 11
39.145498359
 21
233.2198053673
 31
0.0
  0
LINE
  5
191
330
1F
100
AcDbEntity
  8
0
  6
Continuous
 62
     7
370
    25
100
AcDbLine
 10
40.7592870876
 20
232.9755745981
 30
0.0
 11
40.9907975043
 21
232.8869561419
 31
0.0
  0
LINE
  5
192
330
1F
100
AcDbEntity
  8
0
  6
Continuous
 62
     7
370
    25
100
AcDbLine
 10
53.5822504957
 20
234.0339079314
 30
0.0
 11
53.5822504957
 21
232.4871130596
 31
0.0
  0
LINE
  5
193
330
1F
100
AcDbEntity
  8
0
  6
Continuous
 62
     7
370
    25
100
AcDbLine
 10
53.3108829744
 20
234.0339079314
 30
0.0
 11
53.5822504957
 21
234.0339079314
 31
0.0
  0
LINE
  5
194
330
1F
100
AcDbEntity
  8
0
  6
Continuous
 62
     7
370
    25
100
AcDbLine
 10
53.3108829744
 20
232.4871130596
 30
0.0
 11
53.3108829744
 21
234.0339079314
 31
0.0
  0
LINE
  5
195
330
1F
100
AcDbEntity
  8
0
  6
Continuous
 62
     7
370
    25
100
AcDbLine
 10
53.5822504957
 20
232.4871130596
 30
0.0
 11
53.3108829744
 21
232.4871130596
 31
0.0
  0
LINE
  5
196
330
1F
100
AcDbEntity
  8
0
  6
Continuous
 62
     7
370
    25
100
AcDbLine
 10
57.9241308376
 20
232.4871130596
 30
0.0
 11
57.9241308376
 21
233.2147172263
 31
0.0
  0
LINE
  5
197
330
1F
100
AcDbEntity
  8
0
  6
Continuous
 62
     7
370
    25
100
AcDbLine
 10
58.195498359
 20
232.4871130596
 30
0.0
 11
57.9241308376
 21
232.4871130596
 31
0.0
  0
LINE
  5
198
330
1F
100
AcDbEntity
  8
0
  6
Continuous
 62
     7
370
    25
100
AcDbLine
 10
58.195498359
 20
233.2770469539
 30
0.0
 11
58.195498359
 21
232.4871130596
 31
0.0
  0
LINE
  5
199
330
1F
100
AcDbEntity
  8
0
  6
Continuous
 62
     7
370
    25
100
AcDbLine
 10
56.621566735
 20
234.0339079314
 30
0.0
 11
56.621566735
 21
233.7549081985
 31
0.0
  0
LINE
  5
19A
330
1F
100
AcDbEntity
  8
0
  6
Continuous
 62
     7
370
    25
100
AcDbLine
 10
56.3501992137
 20
234.0339079314
 30
0.0
 11
56.621566735
 21
234.0339079314
 31
0.0
  0
LINE
  5
19B
330
1F
100
AcDbEntity
  8
0
  6
Continuous
 62
     7
370
    25
100
AcDbLine
 10
56.3501992137
 20
232.4871130596
 30
0.0
 11
56.3501992137
 21
234.0339079314
 31
0.0
  0
LINE
  5
19C
330
1F
100
AcDbEntity
  8
0
  6
Continuous
 62
     7
370
    25
100
AcDbLine
 10
56.621566735
 20
232.4871130596
 30
0.0
 11
56.3501992137
 21
232.4871130596
 31
0.0
  0
LINE
  5
19D
330
1F
100
AcDbEntity
  8
0
  6
Continuous
 62
     7
370
    25
100
AcDbLine
 10
63.1072504957
 20
233.2198053673
 30
0.0
 11
61.1534043419
 21
233.2198053673
 31
0.0
  0
LINE
  5
19E
330
1F
100
AcDbEntity
  8
0
  6
Continuous
 62
     7
370
    25
100
AcDbLine
 10
62.7671930705
 20
232.9755745981
 30
0.0
 11
62.9987034872
 21
232.8869561419
 31
0.0
  0
LINE
  5
19F
330
1F
100
AcDbEntity
  8
0
  6
Continuous
 62
     7
370
    25
100
AcDbLine
 10
70.7598145983
 20
233.0069514678
 30
0.0
 11
70.7598145983
 21
232.4871130596
 31
0.0
  0
LINE
  5
1A0
330
1F
100
AcDbEntity
  8
0
  6
Continuous
 62
     7
370
    25
100
AcDbLine
 10
71.5739171624
 20
234.0080432146
 30
0.0
 11
71.4310252019
 21
233.8435266547
 31
0.0
  0
LINE
  5
1A1
330
1F
100
AcDbEntity
  8
0
  6
Continuous
 62
     7
370
    25
100
AcDbLine
 10
70.7598145983
 20
232.4871130596
 30
0.0
 11
70.4884470769
 21
232.4871130596
 31
0.0
  0
LINE
  5
1A2
330
1F
100
AcDbEntity
  8
0
  6
Continuous
 62
     7
370
    25
100
AcDbLine
 10
87.367506906
 20
234.6580532306
 30
0.0
 11
87.367506906
 21
233.7532121515
 31
0.0
  0
LINE
  5
1A3
330
1F
100
AcDbEntity
  8
0
  6
Continuous
 62
     7
370
    25
100
AcDbLine
 10
87.0961393846
 20
234.6580532306
 30
0.0
 11
87.367506906
 21
234.6580532306
 31
0.0
  0
LINE
  5
1A4
330
1F
100
AcDbEntity
  8
0
  6
Continuous
 62
     7
370
    25
100
AcDbLine
 10
87.0961393846
 20
232.4871130596
 30
0.0
 11
87.0961393846
 21
234.6580532306
 31
0.0
  0
LINE
  5
1A5
330
1F
100
AcDbEntity
  8
0
  6
Continuous
 62
     7
370
    25
100
AcDbLine
 10
87.367506906
 20
232.4871130596
 30
0.0
 11
87.0961393846
 21
232.4871130596
 31
0.0
  0
LINE
  5
1A6
330
1F
100
AcDbEntity
  8
0
  6
Continuous
 62
     7
370
    25
100
AcDbLine
 10
87.367506906
 20
232.7733209923
 30
0.0
 11
87.367506906
 21
232.4871130596
 31
0.0
  0
LINE
  5
1A7
330
1F
100
AcDbEntity
  8
0
  6
Continuous
 62
     7
370
    25
100
AcDbLine
 10
-37.0483050598
 20
242.4871130596
 30
0.0
 11
-77.0483050598
 21
173.2050807569
 31
0.0
  0
LINE
  5
1A8
330
1F
100
AcDbEntity
  8
0
  6
Continuous
 62
     7
370
    25
100
AcDbLine
 10
162.9516949402
 20
242.4871130596
 30
0.0
 11
-37.0483050598
 21
242.4871130596
 31
0.0
  0
LINE
  5
1A9
330
1F
100
AcDbEntity
  8
0
  6
Continuous
 62
     7
370
    25
100
AcDbLine
 10
202.9516949402
 20
173.2050807569
 30
0.0
 11
162.9516949402
 21
242.4871130596
 31
0.0
  0
LINE
  5
1AA
330
1F
100
AcDbEntity
  8
0
  6
Continuous
 62
     7
370
    25
100
AcDbLine
 10
102.9516949402
 20
0.0
 30
0.0
 11
202.9516949402
 21
173.2050807569
 31
0.0
  0
LINE
  5
1AB
330
1F
100
AcDbEntity
  8
0
  6
Continuous
 62
     7
370
    25
100
AcDbLine
 10
22.9516949402
 20
0.0
 30
0.0
 11
102.9516949402
 21
0.0
 31
0.0
  0
LINE
  5
1AC
330
1F
100
AcDbEntity
  8
0
  6
Continuous
 62
     7
370
    25
100
AcDbLine
 10
-77.0483050598
 20
173.2050807569
 30
0.0
 11
22.9516949402
 21
0.0
 31
0.0
  0
LINE
  5
1AD
330
1F
100
AcDbEntity
  8
0
  6
Continuous
 62
     7
370
    25
100
AcDbLine
 10
111.325442937
 20
234.6037797263
 30
0.0
 11
111.3703881827
 21
234.6037797263
 31
0.0
  0
LINE
  5
1AE
330
1F
100
AcDbEntity
  8
0
  6
Continuous
 62
     7
370
    25
100
AcDbLine
 10
110.5015881026
 20
233.0841216067
 30
0.0
 11
111.325442937
 21
234.6037797263
 31
0.0
  0
LINE
  5
1AF
330
1F
100
AcDbEntity
  8
0
  6
Continuous
 62
     7
370
    25
100
AcDbLine
 10
109.9287482254
 20
234.6037797263
 30
0.0
 11
110.5015881026
 21
233.0841216067
 31
0.0
  0
LINE
  5
1B0
330
1F
100
AcDbEntity
  8
0
  6
Continuous
 62
     7
370
    25
100
AcDbLine
 10
109.6467804103
 20
234.6037797263
 30
0.0
 11
109.9287482254
 21
234.6037797263
 31
0.0
  0
LINE
  5
1B1
330
1F
100
AcDbEntity
  8
0
  6
Continuous
 62
     7
370
    25
100
AcDbLine
 10
110.4447705278
 20
232.4871130596
 30
0.0
 11
109.6467804103
 21
234.6037797263
 31
0.0
  0
LINE
  5
1B2
330
1F
100
AcDbEntity
  8
0
  6
Continuous
 62
     7
370
    25
100
AcDbLine
 10
110.4748753622
 20
232.4871130596
 30
0.0
 11
110.4447705278
 21
232.4871130596
 31
0.0
  0
LINE
  5
1B3
330
1F
100
AcDbEntity
  8
0
  6
Continuous
 62
     7
370
    25
100
AcDbLine
 10
105.4079349242
 20
232.4871130596
 30
0.0
 11
104.3958188718
 21
234.0067711793
 31
0.0
  0
LINE
  5
1B4
330
1F
100
AcDbEntity
  8
0
  6
Continuous
 62
     7
370
    25
100
AcDbLine
 10
105.5029135566
 20
232.4871130596
 30
0.0
 11
105.4079349242
 21
232.4871130596
 31
0.0
  0
LINE
  5
1B5
330
1F
100
AcDbEntity
  8
0
  6
Continuous
 62
     7
370
    25
100
AcDbLine
 10
106.5124855385
 20
234.0067711793
 30
0.0
 11
105.5029135566
 21
232.4871130596
 31
0.0
  0
LINE
  5
1B6
330
1F
100
AcDbEntity
  8
0
  6
Continuous
 62
     7
370
    25
100
AcDbLine
 10
106.7953013771
 20
232.4871130596
 30
0.0
 11
106.5124855385
 21
234.0067711793
 31
0.0
  0
LINE
  5
1B7
330
1F
100
AcDbEntity
  8
0
  6
Continuous
 62
     7
370
    25
100
AcDbLine
 10
107.0687889573
 20
232.4871130596
 30
0.0
 11
106.7953013771
 21
232.4871130596
 31
0.0
  0
LINE
  5
1B8
330
1F
100
AcDbEntity
  8
0
  6
Continuous
 62
     7
370
    25
100
AcDbLine
 10
106.6748820395
 20
234.6037797263
 30
0.0
 11
107.0687889573
 21
232.4871130596
 31
0.0
  0
LINE
  5
1B9
330
1F
100
AcDbEntity
  8
0
  6
Continuous
 62
     7
370
    25
100
AcDbLine
 10
103.839515453
 20
232.4871130596
 30
0.0
 11
104.2321503355
 21
234.6037797263
 31
0.0
  0
LINE
  5
1BA
330
1F
100
AcDbEntity
  8
0
  6
Continuous
 62
     7
370
    25
100
AcDbLine
 10
104.1138510566
 20
232.4871130596
 30
0.0
 11
103.839515453
 21
232.4871130596
 31
0.0
  0
LINE
  5
1BB
330
1F
100
AcDbEntity
  8
0
  6
Continuous
 62
     7
370
    25
100
AcDbLine
 10
99.4433616068
 20
232.895436377
 30
0.0
 11
99.6884403996
 21
233.0027113502
 31
0.0
  0
LINE
  5
1BC
330
1F
100
AcDbEntity
  8
0
  6
Continuous
 62
     7
370
    25
100
AcDbLine
 10
93.7989171624
 20
234.0339079314
 30
0.0
 11
92.4963530598
 21
231.9172412648
 31
0.0
  0
LINE
  5
1BD
330
1F
100
AcDbEntity
  8
0
  6
Continuous
 62
     7
370
    25
100
AcDbLine
 10
92.7808649455
 20
232.8632114838
 30
0.0
 11
93.5012609124
 21
234.0339079314
 31
0.0
  0
LINE
  5
1BE
330
1F
100
AcDbEntity
  8
0
  6
Continuous
 62
     7
370
    25
100
AcDbLine
 10
92.0876057308
 20
234.0339079314
 30
0.0
 11
92.7808649455
 21
232.8632114838
 31
0.0
  0
LINE
  5
1BF
330
1F
100
AcDbEntity
  8
0
  6
Continuous
 62
     7
370
    25
100
AcDbLine
 10
91.7907975043
 20
234.0339079314
 30
0.0
 11
92.0876057308
 21
234.0339079314
 31
0.0
  0
LINE
  5
1C0
330
1F
100
AcDbEntity
  8
0
  6
Continuous
 62
     7
370
    25
100
AcDbLine
 10
92.62949275
 20
232.6172846676
 30
0.0
 11
91.7907975043
 21
234.0339079314
 31
0.0
  0
LINE
  5
1C1
330
1F
100
AcDbEntity
  8
0
  6
Continuous
 62
     7
370
    25
100
AcDbLine
 10
92.1991208216
 20
231.9172412648
 30
0.0
 11
92.62949275
 21
232.6172846676
 31
0.0
  0
LINE
  5
1C2
330
1F
100
AcDbEntity
  8
0
  6
Continuous
 62
     7
370
    25
100
AcDbLine
 10
80.6918658803
 20
234.6580532306
 30
0.0
 11
80.9632334017
 21
234.6580532306
 31
0.0
  0
LINE
  5
1C3
330
1F
100
AcDbEntity
  8
0
  6
Continuous
 62
     7
370
    25
100
AcDbLine
 10
80.6918658803
 20
233.7345556344
 30
0.0
 11
80.6918658803
 21
234.6580532306
 31
0.0
  0
LINE
  5
1C4
330
1F
100
AcDbEntity
  8
0
  6
Continuous
 62
     7
370
    25
100
AcDbLine
 10
67.9104556239
 20
233.2198053673
 30
0.0
 11
65.9566094701
 21
233.2198053673
 31
0.0
  0
LINE
  5
1C5
330
1F
100
AcDbEntity
  8
0
  6
Continuous
 62
     7
370
    25
100
AcDbLine
 10
50.271566735
 20
232.7033590532
 30
0.0
 11
50.271566735
 21
232.7834972744
 31
0.0
  0
LINE
  5
1C6
330
1F
100
AcDbEntity
  8
0
  6
Continuous
 62
     7
370
    25
100
AcDbLine
 10
48.3448573333
 20
232.3785660511
 30
0.0
 11
48.6162248547
 21
232.3785660511
 31
0.0
  0
LINE
  5
1C7
330
1F
100
AcDbEntity
  8
0
  6
Continuous
 62
     7
370
    25
100
AcDbLine
 10
50.5429342564
 20
234.0339079314
 30
0.0
 11
50.5429342564
 21
232.806393909
 31
0.0
  0
LINE
  5
1C8
330
1F
100
AcDbEntity
  8
0
  6
Continuous
 62
     7
370
    25
100
AcDbLine
 10
50.271566735
 20
234.0339079314
 30
0.0
 11
50.5429342564
 21
234.0339079314
 31
0.0
  0
LINE
  5
1C9
330
1F
100
AcDbEntity
  8
0
  6
Continuous
 62
     7
370
    25
100
AcDbLine
 10
50.271566735
 20
233.7633884336
 30
0.0
 11
50.271566735
 21
234.0339079314
 31
0.0
  0
LINE
  5
1CA
330
1F
100
AcDbEntity
  8
0
  6
Continuous
 62
     7
370
    25
100
AcDbLine
 10
45.3598145983
 20
232.4871130596
 30
0.0
 11
45.3598145983
 21
233.2147172263
 31
0.0
  0
LINE
  5
1CB
330
1F
100
AcDbEntity
  8
0
  6
Continuous
 62
     7
370
    25
100
AcDbLine
 10
45.6311821197
 20
232.4871130596
 30
0.0
 11
45.3598145983
 21
232.4871130596
 31
0.0
  0
LINE
  5
1CC
330
1F
100
AcDbEntity
  8
0
  6
Continuous
 62
     7
370
    25
100
AcDbLine
 10
45.6311821197
 20
233.2770469539
 30
0.0
 11
45.6311821197
 21
232.4871130596
 31
0.0
  0
LINE
  5
1CD
330
1F
100
AcDbEntity
  8
0
  6
Continuous
 62
     7
370
    25
100
AcDbLine
 10
44.0572504957
 20
234.0339079314
 30
0.0
 11
44.0572504957
 21
233.7549081985
 31
0.0
  0
LINE
  5
1CE
330
1F
100
AcDbEntity
  8
0
  6
Continuous
 62
     7
370
    25
100
AcDbLine
 10
43.7858829744
 20
234.0339079314
 30
0.0
 11
44.0572504957
 21
234.0339079314
 31
0.0
  0
LINE
  5
1CF
330
1F
100
AcDbEntity
  8
0
  6
Continuous
 62
     7
370
    25
100
AcDbLine
 10
43.7858829744
 20
232.4871130596
 30
0.0
 11
43.7858829744
 21
234.0339079314
 31
0.0
  0
LINE
  5
1D0
330
1F
100
AcDbEntity
  8
0
  6
Continuous
 62
     7
370
    25
100
AcDbLine
 10
44.0572504957
 20
232.4871130596
 30
0.0
 11
43.7858829744
 21
232.4871130596
 31
0.0
  0
LINE
  5
1D1
330
1F
100
AcDbEntity
  8
0
  6
Continuous
 62
     7
370
    25
100
AcDbLine
 10
67.5703981987
 20
232.9755745981
 30
0.0
 11
67.8019086154
 21
232.8869561419
 31
0.0
  0
LINE
  5
1D2
330
1F
100
AcDbEntity
  8
0
  6
Continuous
 62
     7
370
    25
100
AcDbLine
 10
80.6918658803
 20
232.4871130596
 30
0.0
 11
80.6918658803
 21
232.7546644752
 31
0.0
  0
LINE
  5
1D3
330
1F
100
AcDbEntity
  8
0
  6
Continuous
 62
     7
370
    25
100
AcDbLine
 10
80.9632334017
 20
232.4871130596
 30
0.0
 11
80.6918658803
 21
232.4871130596
 31
0.0
  0
LINE
  5
1D4
330
1F
100
AcDbEntity
  8
0
  6
Continuous
 62
     7
370
    25
100
AcDbLine
 10
80.9632334017
 20
234.6580532306
 30
0.0
 11
80.9632334017
 21
232.4871130596
 31
0.0
  0
LINE
  5
1D5
330
1F
100
AcDbEntity
  8
0
  6
Continuous
 62
     7
370
    25
100
AcDbLine
 10
70.7598145983
 20
234.0339079314
 30
0.0
 11
70.7598145983
 21
233.8062136205
 31
0.0
  0
LINE
  5
1D6
330
1F
100
AcDbEntity
  8
0
  6
Continuous
 62
     7
370
    25
100
AcDbLine
 10
111.3428274188
 20
234.0881814357
 30
0.0
 11
110.4748753622
 21
232.4871130596
 31
0.0
  0
LINE
  5
1D7
330
1F
100
AcDbEntity
  8
0
  6
Continuous
 62
     7
370
    25
100
AcDbLine
 10
75.7928340962
 20
232.9755745981
 30
0.0
 11
76.0243445128
 21
232.8869561419
 31
0.0
  0
LINE
  5
1D8
330
1F
100
AcDbEntity
  8
0
  6
Continuous
 62
     7
370
    25
100
AcDbLine
 10
112.2362201806
 20
232.4871130596
 30
0.0
 11
112.1997551699
 21
232.4871130596
 31
0.0
  0
LINE
  5
1D9
330
1F
100
AcDbEntity
  8
0
  6
Continuous
 62
     7
370
    25
100
AcDbLine
 10
70.4884470769
 20
234.0339079314
 30
0.0
 11
70.7598145983
 21
234.0339079314
 31
0.0
  0
LINE
  5
1DA
330
1F
100
AcDbEntity
  8
0
  6
Continuous
 62
     7
370
    25
100
AcDbLine
 10
70.4884470769
 20
232.4871130596
 30
0.0
 11
70.4884470769
 21
234.0339079314
 31
0.0
  0
LINE
  5
1DB
330
1F
100
AcDbEntity
  8
0
  6
Continuous
 62
     7
370
    25
100
AcDbLine
 10
111.3703881827
 20
234.6037797263
 30
0.0
 11
112.184066735
 21
233.0841216067
 31
0.0
  0
LINE
  5
1DC
330
1F
100
AcDbEntity
  8
0
  6
Continuous
 62
     7
370
    25
100
AcDbLine
 10
105.4541522051
 20
232.8670275896
 30
0.0
 11
106.6083121945
 21
234.6037797263
 31
0.0
  0
LINE
  5
1DD
330
1F
100
AcDbEntity
  8
0
  6
Continuous
 62
     7
370
    25
100
AcDbLine
 10
76.1328915214
 20
233.2198053673
 30
0.0
 11
74.1790453675
 21
233.2198053673
 31
0.0
  0
LINE
  5
1DE
330
1F
100
AcDbEntity
  8
0
  6
Continuous
 62
     7
370
    25
100
AcDbLine
 10
18.304472718
 20
234.6037797263
 30
0.0
 11
18.5758402393
 21
234.6037797263
 31
0.0
  0
LINE
  5
1DF
330
1F
100
AcDbEntity
  8
0
  6
Continuous
 62
     7
370
    25
100
AcDbLine
 10
93.5012609124
 20
234.0339079314
 30
0.0
 11
93.7989171624
 21
234.0339079314
 31
0.0
  0
LINE
  5
1E0
330
1F
100
AcDbEntity
  8
0
  6
Continuous
 62
     7
370
    25
100
AcDbLine
 10
104.2321503355
 20
234.6037797263
 30
0.0
 11
104.2970241336
 21
234.6037797263
 31
0.0
  0
LINE
  5
1E1
330
1F
100
AcDbEntity
  8
0
  6
Continuous
 62
     7
370
    25
100
AcDbLine
 10
92.4963530598
 20
231.9172412648
 30
0.0
 11
92.1991208216
 21
231.9172412648
 31
0.0
  0
LINE
  5
1E2
330
1F
100
AcDbEntity
  8
0
  6
Continuous
 62
     7
370
    25
100
AcDbLine
 10
113.0388744274
 20
234.6037797263
 30
0.0
 11
112.2362201806
 21
232.4871130596
 31
0.0
  0
LINE
  5
1E3
330
1F
100
AcDbEntity
  8
0
  6
Continuous
 62
     7
370
    25
100
AcDbLine
 10
112.7602987062
 20
234.6037797263
 30
0.0
 11
113.0388744274
 21
234.6037797263
 31
0.0
  0
LINE
  5
1E4
330
1F
100
AcDbEntity
  8
0
  6
Continuous
 62
     7
370
    25
100
AcDbLine
 10
112.184066735
 20
233.0841216067
 30
0.0
 11
112.7602987062
 21
234.6037797263
 31
0.0
  0
LINE
  5
1E5
330
1F
100
AcDbEntity
  8
0
  6
Continuous
 62
     7
370
    25
100
AcDbLine
 10
101.1258402393
 20
234.2997633
 30
0.0
 11
100.8905137169
 21
234.1695916921
 31
0.0
  0
LINE
  5
1E6
330
1F
100
AcDbEntity
  8
0
  6
Continuous
 62
     7
370
    25
100
AcDbLine
 10
56.621566735
 20
233.0463845607
 30
0.0
 11
56.621566735
 21
232.4871130596
 31
0.0
  0
LINE
  5
1E7
330
1F
100
AcDbEntity
  8
0
  6
Continuous
 62
     7
370
    25
100
AcDbLine
 10
106.6083121945
 20
234.6037797263
 30
0.0
 11
106.6748820395
 21
234.6037797263
 31
0.0
  0
LINE
  5
1E8
330
1F
100
AcDbEntity
  8
0
  6
Continuous
 62
     7
370
    25
100
AcDbLine
 10
104.3958188718
 20
234.0067711793
 30
0.0
 11
104.1138510566
 21
232.4871130596
 31
0.0
  0
LINE
  5
1E9
330
1F
100
AcDbEntity
  8
0
  6
Continuous
 62
     7
370
    25
100
AcDbLine
 10
112.1997551699
 20
232.4871130596
 30
0.0
 11
111.3428274188
 21
234.0881814357
 31
0.0
  0
LINE
  5
1EA
330
1F
100
AcDbEntity
  8
0
  6
Continuous
 62
     7
370
    25
100
AcDbLine
 10
104.2970241336
 20
234.6037797263
 30
0.0
 11
105.4541522051
 21
232.8670275896
 31
0.0
  0
LINE
  5
1EB
330
1F
100
AcDbEntity
  8
0
  6
Continuous
 62
     7
370
    25
100
AcDbLine
 10
44.0572504957
 20
233.0463845607
 30
0.0
 11
44.0572504957
 21
232.4871130596
 31
0.0
  0
LINE
  5
1EC
330
1F
100
AcDbEntity
  8
0
  6
Continuous
 62
     7
370
    25
100
AcDbLine
 10
61.1809651058
 20
233.4097626323
 30
0.0
 11
62.8358829744
 21
233.4097626323
 31
0.0
  0
LINE
  5
1ED
330
1F
100
AcDbEntity
  8
0
  6
Continuous
 62
     7
370
    25
100
AcDbLine
 10
65.984170234
 20
233.4097626323
 30
0.0
 11
67.6390881026
 21
233.4097626323
 31
0.0
  0
LINE
  5
1EE
330
1F
100
AcDbEntity
  8
0
  6
Continuous
 62
     7
370
    25
100
AcDbLine
 10
74.2066061314
 20
233.4097626323
 30
0.0
 11
75.861524
 21
233.4097626323
 31
0.0
  0
LINE
  5
1EF
330
1F
100
AcDbEntity
  8
0
  6
Continuous
 62
     7
370
    25
100
AcDbLine
 10
39.1730591229
 20
233.4097626323
 30
0.0
 11
40.8279769915
 21
233.4097626323
 31
0.0
  0
MTEXT
  5
1F1
330
1F
100
AcDbEntity
  8
0
  6
Continuous
 62
     7
100
AcDbMText
 10
-77.0483050598
 20
-1.0195663917
 30
0.0
 40
4.83362
 41
0.0
 71
     1
 72
     1
  1
SOLIDWORKS Lehrprodukt - Nur fr Lehrzwecke.
  7
SLDTEXTSTYLE0
 73
     1
 44
1.0
  0
ENDSEC
  0
SECTION
  2
OBJECTS
  0
DICTIONARY
  5
C
330
0
100
AcDbDictionary
281
     1
  3
ACAD_GROUP
350
D
  3
ACAD_LAYOUT
350
1A
  3
ACAD_MLINESTYLE
350
17
  3
ACAD_PLOTSETTINGS
350
19
  3
ACAD_PLOTSTYLENAME
350
E
  3
ACAD_SCALELIST
350
47
  3
DWGPROPS
350
1F2
  0
DICTIONARY
  5
D
102
{ACAD_REACTORS
330
C
102
}
330
C
100
AcDbDictionary
281
     1
  0
DICTIONARY
  5
1A
102
{ACAD_REACTORS
330
C
102
}
330
C
100
AcDbDictionary
281
     1
  3
Layout1
350
1E
  3
Layout2
350
26
  3
Model
350
22
  0
DICTIONARY
  5
17
102
{ACAD_REACTORS
330
C
102
}
330
C
100
AcDbDictionary
281
     1
  3
Standard
350
18
  0
DICTIONARY
  5
19
102
{ACAD_REACTORS
330
C
102
}
330
C
100
AcDbDictionary
281
     1
  0
ACDBDICTIONARYWDFLT
  5
E
102
{ACAD_REACTORS
330
C
102
}
330
C
100
AcDbDictionary
281
     1
  3
Normal
350
F
100
AcDbDictionaryWithDefault
340
F
  0
DICTIONARY
  5
47
102
{ACAD_REACTORS
330
C
102
}
330
C
100
AcDbDictionary
281
     1
  3
A0
350
48
  3
A1
350
49
  3
A2
350
4A
  3
A3
350
4B
  3
A4
350
4C
  3
A5
350
4D
  3
A6
350
4E
  3
A7
350
4F
  3
A8
350
50
  3
A9
350
51
  3
B0
350
52
  3
B1
350
53
  3
B2
350
54
  3
B3
350
55
  3
B4
350
56
  3
B5
350
57
  3
B6
350
58
  0
XRECORD
  5
1F2
102
{ACAD_REACTORS
330
C
102
}
330
C
100
AcDbXrecord
280
     1
  1
DWGPROPS COOKIE
  2

  3

  4

  6

  7

  8
simon
  9

300
=
301
=
302
=
303
=
304
=
305
=
306
=
307
=
308
=
309
=
 40
0.0
 41
2460055.783406239
 42
2460055.783563218
  1

 90
        0
  0
LAYOUT
  5
1E
102
{ACAD_REACTORS
330
1A
102
}
330
1A
100
AcDbPlotSettings
  1

  2
none_device
  4

  6

 40
0.0
 41
0.0
 42
0.0
 43
0.0
 44
0.0
 45
0.0
 46
0.0
 47
0.0
 48
0.0
 49
0.0
140
0.0
141
0.0
142
1.0
143
1.0
 70
   688
 72
     1
 73
     0
 74
     5
  7

 75
    16
147
1.0
148
0.0
149
0.0
100
AcDbLayout
  1
Layout1
 70
     1
 71
     1
 10
0.0
 20
0.0
 11
420.0
 21
297.0
 12
0.0
 22
0.0
 32
0.0
 14
1.0000000000E+20
 24
1.0000000000E+20
 34
1.0000000000E+20
 15
-1.0000000000E+20
 25
-1.0000000000E+20
 35
-1.0000000000E+20
146
0.0
 13
0.0
 23
0.0
 33
0.0
 16
1.0
 26
0.0
 36
0.0
 17
0.0
 27
1.0
 37
0.0
 76
     0
330
1B
  0
LAYOUT
  5
26
102
{ACAD_REACTORS
330
1A
102
}
330
1A
100
AcDbPlotSettings
  1

  2
none_device
  4

  6

 40
0.0
 41
0.0
 42
0.0
 43
0.0
 44
0.0
 45
0.0
 46
0.0
 47
0.0
 48
0.0
 49
0.0
140
0.0
141
0.0
142
1.0
143
1.0
 70
   688
 72
     1
 73
     0
 74
     5
  7

 75
    16
147
1.0
148
0.0
149
0.0
100
AcDbLayout
  1
Layout2
 70
     1
 71
     2
 10
0.0
 20
0.0
 11
0.0
 21
0.0
 12
0.0
 22
0.0
 32
0.0
 14
0.0
 24
0.0
 34
0.0
 15
0.0
 25
0.0
 35
0.0
146
0.0
 13
0.0
 23
0.0
 33
0.0
 16
1.0
 26
0.0
 36
0.0
 17
0.0
 27
1.0
 37
0.0
 76
     0
330
23
  0
LAYOUT
  5
22
102
{ACAD_REACTORS
330
1A
102
}
330
1A
100
AcDbPlotSettings
  1

  2
none_device
  4
ANSI_A_(11.00_x_8.50_Inches)
  6

 40
6.35
 41
19.05
 42
6.35000508
 43
19.05000254
 44
279.4
 45
215.9
 46
77.8610353521
 47
-17.97050127
 48
0.0
 49
0.0
140
0.0
141
0.0
142
0.0347028751
143
1.0
 70
  1696
 72
     0
 73
     0
 74
     0
  7

 75
     0
147
0.0179189148
148
-1300.4909072572
149
0.0
100
AcDbLayout
  1
Model
 70
     1
 71
     0
 10
0.0
 20
0.0
 11
420.0
 21
297.0
 12
0.0
 22
0.0
 32
0.0
 14
-77.0483050598
 24
0.0
 34
0.0
 15
202.9516949402
 25
242.4871130596
 35
0.0
146
0.0
 13
0.0
 23
0.0
 33
0.0
 16
1.0
 26
0.0
 36
0.0
 17
0.0
 27
1.0
 37
0.0
 76
     0
330
1F
331
29
  0
MLINESTYLE
  5
18
102
{ACAD_REACTORS
330
17
102
}
330
17
100
AcDbMlineStyle
  2
Standard
 70
     0
  3

 62
   256
 51
90.0
 52
90.0
 71
     2
 49
0.5
 62
   256
  6
BYLAYER
 49
-0.5
 62
   256
  6
BYLAYER
  0
ACDBPLACEHOLDER
  5
F
102
{ACAD_REACTORS
330
E
102
}
330
E
  0
SCALE
  5
48
102
{ACAD_REACTORS
330
47
102
}
330
47
100
AcDbScale
 70
     0
300
1:1
140
1.0
141
1.0
290
     1
  0
SCALE
  5
49
102
{ACAD_REACTORS
330
47
102
}
330
47
100
AcDbScale
 70
     0
300
1:2
140
1.0
141
2.0
290
     0
  0
SCALE
  5
4A
102
{ACAD_REACTORS
330
47
102
}
330
47
100
AcDbScale
 70
     0
300
1:4
140
1.0
141
4.0
290
     0
  0
SCALE
  5
4B
102
{ACAD_REACTORS
330
47
102
}
330
47
100
AcDbScale
 70
     0
300
1:5
140
1.0
141
5.0
290
     0
  0
SCALE
  5
4C
102
{ACAD_REACTORS
330
47
102
}
330
47
100
AcDbScale
 70
     0
300
1:8
140
1.0
141
8.0
290
     0
  0
SCALE
  5
4D
102
{ACAD_REACTORS
330
47
102
}
330
47
100
AcDbScale
 70
     0
300
1:10
140
1.0
141
10.0
290
     0
  0
SCALE
  5
4E
102
{ACAD_REACTORS
330
47
102
}
330
47
100
AcDbScale
 70
     0
300
1:16
140
1.0
141
16.0
290
     0
  0
SCALE
  5
4F
102
{ACAD_REACTORS
330
47
102
}
330
47
100
AcDbScale
 70
     0
300
1:20
140
1.0
141
20.0
290
     0
  0
SCALE
  5
50
102
{ACAD_REACTORS
330
47
102
}
330
47
100
AcDbScale
 70
     0
300
1:30
140
1.0
141
30.0
290
     0
  0
SCALE
  5
51
102
{ACAD_REACTORS
330
47
102
}
330
47
100
AcDbScale
 70
     0
300
1:40
140
1.0
141
40.0
290
     0
  0
SCALE
  5
52
102
{ACAD_REACTORS
330
47
102
}
330
47
100
AcDbScale
 70
     0
300
1:50
140
1.0
141
50.0
290
     0
  0
SCALE
  5
53
102
{ACAD_REACTORS
330
47
102
}
330
47
100
AcDbScale
 70
     0
300
1:100
140
1.0
141
100.0
290
     0
  0
SCALE
  5
54
102
{ACAD_REACTORS
330
47
102
}
330
47
100
AcDbScale
 70
     0
300
2:1
140
2.0
141
1.0
290
     0
  0
SCALE
  5
55
102
{ACAD_REACTORS
330
47
102
}
330
47
100
AcDbScale
 70
     0
300
4:1
140
4.0
141
1.0
290
     0
  0
SCALE
  5
56
102
{ACAD_REACTORS
330
47
102
}
330
47
100
AcDbScale
 70
     0
300
8:1
140
8.0
141
1.0
290
     0
  0
SCALE
  5
57
102
{ACAD_REACTORS
330
47
102
}
330
47
100
AcDbScale
 70
     0
300
10:1
140
10.0
141
1.0
290
     0
  0
SCALE
  5
58
102
{ACAD_REACTORS
330
47
102
}
330
47
100
AcDbScale
 70
     0
300
100:1
140
100.0
141
1.0
290
     0
  0
ENDSEC
  0
EOF
