  0
SECTION
  2
HEADER
  9
$ACADVER
  1
AC1015
  9
$ACADMAINTVER
 70
     6
  9
$DWGCODEPAGE
  3
ANSI_1252
  9
$INSBASE
 10
0.0
 20
0.0
 30
0.0
  9
$EXTMIN
 10
-300.0
 20
0.0
 30
0.0
  9
$EXTMAX
 10
0.0
 20
132.0
 30
0.0
  9
$LIMMIN
 10
0.0
 20
0.0
  9
$LIMMAX
 10
420.0
 20
297.0
  9
$ORTHOMODE
 70
     0
  9
$REGENMODE
 70
     1
  9
$FILLMODE
 70
     1
  9
$QTEXTMODE
 70
     0
  9
$MIRRTEXT
 70
     1
  9
$LTSCALE
 40
1.0
  9
$ATTMODE
 70
     1
  9
$TEXTSIZE
 40
2.8222222222
  9
$TRACEWID
 40
1.0
  9
$TEXTSTYLE
  7
Standard
  9
$CLAYER
  8
0
  9
$CELTYPE
  6
ByLayer
  9
$CECOLOR
 62
   256
  9
$CELTSCALE
 40
1.0
  9
$DISPSILH
 70
     0
  9
$DIMSCALE
 40
1.0
  9
$DIMASZ
 40
3.302
  9
$DIMEXO
 40
0.0
  9
$DIMDLI
 40
3.75
  9
$DIMRND
 40
0.0
  9
$DIMDLE
 40
0.0
  9
$DIMEXE
 40
1.0
  9
$DIMTP
 40
0.0
  9
$DIMTM
 40
0.0
  9
$DIMTXT
 40
2.8222222222
  9
$DIMCEN
 40
2.5
  9
$DIMTSZ
 40
0.0
  9
$DIMTOL
 70
     0
  9
$DIMLIM
 70
     0
  9
$DIMTIH
 70
     1
  9
$DIMTOH
 70
     1
  9
$DIMSE1
 70
     0
  9
$DIMSE2
 70
     0
  9
$DIMTAD
 70
     1
  9
$DIMZIN
 70
     0
  9
$DIMBLK
  1

  9
$DIMASO
 70
     1
  9
$DIMSHO
 70
     1
  9
$DIMPOST
  1

  9
$DIMAPOST
  1

  9
$DIMALT
 70
     0
  9
$DIMALTD
 70
     3
  9
$DIMALTF
 40
0.0393700787
  9
$DIMLFAC
 40
1.0
  9
$DIMTOFL
 70
     1
  9
$DIMTVP
 40
0.0
  9
$DIMTIX
 70
     0
  9
$DIMSOXD
 70
     0
  9
$DIMSAH
 70
     0
  9
$DIMBLK1
  1

  9
$DIMBLK2
  1

  9
$DIMSTYLE
  2
ISO-25
  9
$DIMCLRD
 70
     0
  9
$DIMCLRE
 70
     0
  9
$DIMCLRT
 70
     0
  9
$DIMTFAC
 40
1.0
  9
$DIMGAP
 40
1.524
  9
$DIMJUST
 70
     0
  9
$DIMSD1
 70
     0
  9
$DIMSD2
 70
     0
  9
$DIMTOLJ
 70
     0
  9
$DIMTZIN
 70
     0
  9
$DIMALTZ
 70
     0
  9
$DIMALTTZ
 70
     0
  9
$DIMUPT
 70
     0
  9
$DIMDEC
 70
     2
  9
$DIMTDEC
 70
     2
  9
$DIMALTU
 70
     2
  9
$DIMALTTD
 70
     3
  9
$DIMTXSTY
  7
Standard
  9
$DIMAUNIT
 70
     0
  9
$DIMADEC
 70
     2
  9
$DIMALTRND
 40
0.0
  9
$DIMAZIN
 70
     0
  9
$DIMDSEP
 70
    44
  9
$DIMATFIT
 70
     3
  9
$DIMFRAC
 70
     0
  9
$DIMLDRBLK
  1

  9
$DIMLUNIT
 70
     2
  9
$DIMLWD
 70
    -2
  9
$DIMLWE
 70
    -2
  9
$DIMTMOVE
 70
     0
  9
$LUNITS
 70
     2
  9
$LUPREC
 70
     2
  9
$SKETCHINC
 40
1.0
  9
$FILLETRAD
 40
0.0
  9
$AUNITS
 70
     0
  9
$AUPREC
 70
     2
  9
$MENU
  1
.
  9
$ELEVATION
 40
0.0
  9
$PELEVATION
 40
0.0
  9
$THICKNESS
 40
0.0
  9
$LIMCHECK
 70
     0
  9
$CHAMFERA
 40
0.0
  9
$CHAMFERB
 40
0.0
  9
$CHAMFERC
 40
0.0
  9
$CHAMFERD
 40
0.0
  9
$SKPOLY
 70
     0
  9
$TDCREATE
 40
2460062.570200694
  9
$TDUCREATE
 40
2460062.486867361
  9
$TDUPDATE
 40
2460062.570262801
  9
$TDUUPDATE
 40
2460062.486929467
  9
$TDINDWG
 40
0.0000000116
  9
$TDUSRTIMER
 40
0.0000000116
  9
$USRTIMER
 70
     1
  9
$ANGBASE
 50
0.0
  9
$ANGDIR
 70
     0
  9
$PDMODE
 70
     0
  9
$PDSIZE
 40
-1.0
  9
$PLINEWID
 40
0.0
  9
$SPLFRAME
 70
     0
  9
$SPLINETYPE
 70
     6
  9
$SPLINESEGS
 70
     8
  9
$HANDSEED
  5
184
  9
$SURFTAB1
 70
     6
  9
$SURFTAB2
 70
     6
  9
$SURFTYPE
 70
     6
  9
$SURFU
 70
     6
  9
$SURFV
 70
     6
  9
$UCSBASE
  2

  9
$UCSNAME
  2

  9
$UCSORG
 10
0.0
 20
0.0
 30
0.0
  9
$UCSXDIR
 10
1.0
 20
0.0
 30
0.0
  9
$UCSYDIR
 10
0.0
 20
1.0
 30
0.0
  9
$UCSORTHOREF
  2

  9
$UCSORTHOVIEW
 70
     0
  9
$UCSORGTOP
 10
0.0
 20
0.0
 30
0.0
  9
$UCSORGBOTTOM
 10
0.0
 20
0.0
 30
0.0
  9
$UCSORGLEFT
 10
0.0
 20
0.0
 30
0.0
  9
$UCSORGRIGHT
 10
0.0
 20
0.0
 30
0.0
  9
$UCSORGFRONT
 10
0.0
 20
0.0
 30
0.0
  9
$UCSORGBACK
 10
0.0
 20
0.0
 30
0.0
  9
$PUCSBASE
  2

  9
$PUCSNAME
  2

  9
$PUCSORG
 10
0.0
 20
0.0
 30
0.0
  9
$PUCSXDIR
 10
1.0
 20
0.0
 30
0.0
  9
$PUCSYDIR
 10
0.0
 20
1.0
 30
0.0
  9
$PUCSORTHOREF
  2

  9
$PUCSORTHOVIEW
 70
     0
  9
$PUCSORGTOP
 10
0.0
 20
0.0
 30
0.0
  9
$PUCSORGBOTTOM
 10
0.0
 20
0.0
 30
0.0
  9
$PUCSORGLEFT
 10
0.0
 20
0.0
 30
0.0
  9
$PUCSORGRIGHT
 10
0.0
 20
0.0
 30
0.0
  9
$PUCSORGFRONT
 10
0.0
 20
0.0
 30
0.0
  9
$PUCSORGBACK
 10
0.0
 20
0.0
 30
0.0
  9
$USERI1
 70
     0
  9
$USERI2
 70
     0
  9
$USERI3
 70
     0
  9
$USERI4
 70
     0
  9
$USERI5
 70
     0
  9
$USERR1
 40
0.0
  9
$USERR2
 40
0.0
  9
$USERR3
 40
0.0
  9
$USERR4
 40
0.0
  9
$USERR5
 40
0.0
  9
$WORLDVIEW
 70
     1
  9
$SHADEDGE
 70
     3
  9
$SHADEDIF
 70
    70
  9
$TILEMODE
 70
     1
  9
$MAXACTVP
 70
    64
  9
$PINSBASE
 10
0.0
 20
0.0
 30
0.0
  9
$PLIMCHECK
 70
     0
  9
$PEXTMIN
 10
1.0000000000E+20
 20
1.0000000000E+20
 30
1.0000000000E+20
  9
$PEXTMAX
 10
-1.0000000000E+20
 20
-1.0000000000E+20
 30
-1.0000000000E+20
  9
$PLIMMIN
 10
0.0
 20
0.0
  9
$PLIMMAX
 10
420.0
 20
297.0
  9
$UNITMODE
 70
     0
  9
$VISRETAIN
 70
     1
  9
$PLINEGEN
 70
     0
  9
$PSLTSCALE
 70
     1
  9
$TREEDEPTH
 70
  3020
  9
$CMLSTYLE
  2
Standard
  9
$CMLJUST
 70
     0
  9
$CMLSCALE
 40
20.0
  9
$PROXYGRAPHICS
 70
     1
  9
$MEASUREMENT
 70
     1
  9
$CELWEIGHT
370
    -1
  9
$ENDCAPS
280
     0
  9
$JOINSTYLE
280
     0
  9
$LWDISPLAY
290
     1
  9
$INSUNITS
 70
     4
  9
$HYPERLINKBASE
  1

  9
$STYLESHEET
  1

  9
$XEDIT
290
     1
  9
$CEPSNTYPE
380
     0
  9
$PSTYLEMODE
290
     1
  9
$FINGERPRINTGUID
  2
{5788036e-2e9b-457e-ba89-14d82cb68414}
  9
$VERSIONGUID
  2
{FAEB1C32-E019-11D5-929B-00C0DF256EC4}
  9
$EXTNAMES
290
     1
  9
$PSVPSCALE
 40
0.0
  9
$OLESTARTUP
290
     0
  0
ENDSEC
  0
SECTION
  2
CLASSES
  0
CLASS
  1
ACDBDICTIONARYWDFLT
  2
AcDbDictionaryWithDefault
  3
ObjectDBX Classes
 90
        0
280
     0
281
     0
  0
CLASS
  1
VISUALSTYLE
  2
AcDbVisualStyle
  3
ObjectDBX Classes
 90
     4095
280
     0
281
     0
  0
CLASS
  1
MATERIAL
  2
AcDbMaterial
  3
ObjectDBX Classes
 90
     1153
280
     0
281
     0
  0
CLASS
  1
SCALE
  2
AcDbScale
  3
ObjectDBX Classes
 90
     1153
280
     0
281
     0
  0
CLASS
  1
TABLESTYLE
  2
AcDbTableStyle
  3
ObjectDBX Classes
 90
     4095
280
     0
281
     0
  0
CLASS
  1
MLEADERSTYLE
  2
AcDbMLeaderStyle
  3
ACDB_MLEADERSTYLE_CLASS
 90
     4095
280
     0
281
     0
  0
CLASS
  1
SUN
  2
AcDbSun
  3
SCENEOE
 90
     1153
280
     0
281
     0
  0
CLASS
  1
ACDBPLACEHOLDER
  2
AcDbPlaceHolder
  3
ObjectDBX Classes
 90
        0
280
     0
281
     0
  0
CLASS
  1
LAYOUT
  2
AcDbLayout
  3
ObjectDBX Classes
 90
        0
280
     0
281
     0
  0
ENDSEC
  0
SECTION
  2
TABLES
  0
TABLE
  2
VPORT
  5
8
330
0
100
AcDbSymbolTable
 70
     1
  0
VPORT
  5
29
330
8
100
AcDbSymbolTableRecord
100
AcDbViewportTableRecord
  2
*Active
 70
     0
 10
0.0
 20
0.0
 11
1.0
 21
1.0
 12
-150.0
 22
66.0
 13
0.0
 23
0.0
 14
10.0
 24
10.0
 15
10.0
 25
10.0
 16
0.0
 26
0.0
 36
1.0
 17
0.0
 27
0.0
 37
0.0
 40
134.64
 41
2.2727272727
 42
50.0
 43
0.0
 44
0.0
 50
0.0
 51
0.0
 71
     0
 72
   100
 73
     1
 74
     3
 75
     0
 76
     0
 77
     0
 78
     0
281
     0
 65
     1
110
0.0
120
0.0
130
0.0
111
1.0
121
0.0
131
0.0
112
0.0
122
1.0
132
0.0
 79
     0
146
0.0
  0
ENDTAB
  0
TABLE
  2
LTYPE
  5
5
330
0
100
AcDbSymbolTable
 70
     6
  0
LTYPE
  5
14
330
5
100
AcDbSymbolTableRecord
100
AcDbLinetypeTableRecord
  2
ByBlock
 70
     0
  3

 72
    65
 73
     0
 40
0.0
  0
LTYPE
  5
15
330
5
100
AcDbSymbolTableRecord
100
AcDbLinetypeTableRecord
  2
ByLayer
 70
     0
  3

 72
    65
 73
     0
 40
0.0
  0
LTYPE
  5
16
330
5
100
AcDbSymbolTableRecord
100
AcDbLinetypeTableRecord
  2
Continuous
 70
     0
  3
Solid line
 72
    65
 73
     0
 40
0.0
  0
LTYPE
  5
5E
330
5
100
AcDbSymbolTableRecord
100
AcDbLinetypeTableRecord
  2
HIDDEN
 70
     0
  3
Hidden __ __ __ __ __ __ __ __ __ __ __ __ __ __
 72
    65
 73
     2
 40
1.905
 49
1.27
 74
     0
 49
-0.635
 74
     0
  0
LTYPE
  5
5F
330
5
100
AcDbSymbolTableRecord
100
AcDbLinetypeTableRecord
  2
PHANTOM
 70
     0
  3
Phantom ______  __  __  ______  __  __  ______
 72
    65
 73
     6
 40
12.7
 49
6.35
 74
     0
 49
-1.27
 74
     0
 49
1.27
 74
     0
 49
-1.27
 74
     0
 49
1.27
 74
     0
 49
-1.27
 74
     0
  0
LTYPE
  5
60
330
5
100
AcDbSymbolTableRecord
100
AcDbLinetypeTableRecord
  2
CENTER
 70
     0
  3
Center ____ _ ____ _ ____ _ ____ _ ____ _ ____
 72
    65
 73
     4
 40
10.16
 49
6.35
 74
     0
 49
-1.27
 74
     0
 49
1.27
 74
     0
 49
-1.27
 74
     0
  0
LTYPE
  5
61
330
5
100
AcDbSymbolTableRecord
100
AcDbLinetypeTableRecord
  2
CENTERX2
 70
     0
  3
Center (2x) ________  __  ________  __  _____
 72
    65
 73
     4
 40
20.32
 49
12.7
 74
     0
 49
-2.54
 74
     0
 49
2.54
 74
     0
 49
-2.54
 74
     0
  0
LTYPE
  5
62
330
5
100
AcDbSymbolTableRecord
100
AcDbLinetypeTableRecord
  2
DOT2
 70
     0
  3
Dot (.5x) ........................................
 72
    65
 73
     2
 40
0.635
 49
0.0
 74
     0
 49
-0.635
 74
     0
  0
ENDTAB
  0
TABLE
  2
LAYER
  5
2
330
0
100
AcDbSymbolTable
 70
     1
  0
LAYER
  5
10
330
2
100
AcDbSymbolTableRecord
100
AcDbLayerTableRecord
  2
0
 70
     0
 62
     7
  6
Continuous
370
    -3
390
F
  0
ENDTAB
  0
TABLE
  2
STYLE
  5
3
330
0
100
AcDbSymbolTable
 70
     2
  0
STYLE
  5
11
330
3
100
AcDbSymbolTableRecord
100
AcDbTextStyleTableRecord
  2
Standard
 70
     0
 40
0.0
 41
1.0
 50
0.0
 71
     0
 42
2.8222222222
  3
txt
  4

  0
STYLE
  5
181
330
3
100
AcDbSymbolTableRecord
100
AcDbTextStyleTableRecord
  2
SLDTEXTSTYLE0
 70
     0
 40
0.0
 41
0.7
 50
0.0
 71
     0
 42
2.8222222222
  3
TXT
  4

  0
ENDTAB
  0
TABLE
  2
VIEW
  5
6
330
0
100
AcDbSymbolTable
 70
     0
  0
ENDTAB
  0
TABLE
  2
UCS
  5
7
330
0
100
AcDbSymbolTable
 70
     0
  0
ENDTAB
  0
TABLE
  2
APPID
  5
9
330
0
100
AcDbSymbolTable
 70
     1
  0
APPID
  5
12
330
9
100
AcDbSymbolTableRecord
100
AcDbRegAppTableRecord
  2
ACAD
 70
     0
  0
ENDTAB
  0
TABLE
  2
DIMSTYLE
  5
A
330
0
100
AcDbSymbolTable
 70
     1
100
AcDbDimStyleTable
  0
DIMSTYLE
105
27
330
A
100
AcDbSymbolTableRecord
100
AcDbDimStyleTableRecord
  2
ISO-25
 70
     0
 41
2.5
 42
0.625
 43
3.75
 44
1.25
 73
     0
 74
     0
 77
     1
 78
     8
140
2.5
141
2.5
143
0.0393700787
147
0.625
171
     3
172
     1
178
     0
271
     2
272
     2
274
     3
278
    44
283
     0
284
     8
340
11
  0
ENDTAB
  0
TABLE
  2
BLOCK_RECORD
  5
1
330
0
100
AcDbSymbolTable
 70
     1
  0
BLOCK_RECORD
  5
1F
330
1
100
AcDbSymbolTableRecord
100
AcDbBlockTableRecord
  2
*Model_Space
340
22
  0
BLOCK_RECORD
  5
1B
330
1
100
AcDbSymbolTableRecord
100
AcDbBlockTableRecord
  2
*Paper_Space
340
1E
  0
BLOCK_RECORD
  5
23
330
1
100
AcDbSymbolTableRecord
100
AcDbBlockTableRecord
  2
*Paper_Space0
340
26
  0
ENDTAB
  0
ENDSEC
  0
SECTION
  2
BLOCKS
  0
BLOCK
  5
20
330
1F
100
AcDbEntity
  8
0
100
AcDbBlockBegin
  2
*Model_Space
 70
     0
 10
0.0
 20
0.0
 30
0.0
  3
*Model_Space
  1

  0
ENDBLK
  5
21
330
1F
100
AcDbEntity
  8
0
100
AcDbBlockEnd
  0
BLOCK
  5
1C
330
1B
100
AcDbEntity
 67
     1
  8
0
100
AcDbBlockBegin
  2
*Paper_Space
 70
     0
 10
0.0
 20
0.0
 30
0.0
  3
*Paper_Space
  1

  0
ENDBLK
  5
1D
330
1B
100
AcDbEntity
 67
     1
  8
0
100
AcDbBlockEnd
  0
BLOCK
  5
24
330
23
100
AcDbEntity
  8
0
100
AcDbBlockBegin
  2
*Paper_Space0
 70
     0
 10
0.0
 20
0.0
 30
0.0
  3
*Paper_Space0
  1

  0
ENDBLK
  5
25
330
23
100
AcDbEntity
  8
0
100
AcDbBlockEnd
  0
ENDSEC
  0
SECTION
  2
ENTITIES
  0
SPLINE
  5
6F
330
1F
100
AcDbEntity
  8
0
  6
Continuous
 62
     7
370
    25
100
AcDbSpline
210
0.0
220
0.0
230
1.0
 70
     8
 71
     3
 72
    23
 73
    19
 74
     0
 42
0.00000001
 43
0.00000001
 40
0.0
 40
0.0
 40
0.0
 40
0.0
 40
0.0615449660163204
 40
0.1216942964020283
 40
0.1811548554526321
 40
0.2398753889119535
 40
0.2987019424504284
 40
0.3576474237092014
 40
0.4176048428493651
 40
0.4784940407282912
 40
0.540407050637133
 40
0.602344993872802
 40
0.6650043279232345
 40
0.7285593088233759
 40
0.793650542026887
 40
0.8605342675902682
 40
0.9292359605619638
 40
1.0
 40
1.0
 40
1.0
 40
1.0
 10
-63.28476972652612
 20
41.08068910256411
 30
0.0
 10
-63.23579037517337
 20
41.06202529669009
 30
0.0
 10
-63.13894236164905
 20
41.02512091813507
 30
0.0
 10
-63.00104803244855
 20
40.95550520128436
 30
0.0
 10
-62.87123545057457
 20
40.8766284020256
 30
0.0
 10
-62.74880848487106
 20
40.78838654905427
 30
0.0
 10
-62.63656367579296
 20
40.68828109898669
 30
0.0
 10
-62.53011602926517
 20
40.58056443351528
 30
0.0
 10
-62.43382012523669
 20
40.46131948868447
 30
0.0
 10
-62.34563580527644
 20
40.3330192651223
 30
0.0
 10
-62.26612696003301
 20
40.19717516386793
 30
0.0
 10
-62.19701578814576
 20
40.05404603239998
 30
0.0
 10
-62.13961905334871
 20
39.90435874265098
 30
0.0
 10
-62.09197200784633
 20
39.74852956365233
 30
0.0
 10
-62.05442057825014
 20
39.58621584953716
 30
0.0
 10
-62.02880052752681
 20
39.41722860201641
 30
0.0
 10
-62.01190228263627
 20
39.24223567770223
 30
0.0
 10
-62.01020404914147
 20
39.12349132633157
 30
0.0
 10
-62.00934237609876
 20
39.06324118589744
 30
0.0
  0
SPLINE
  5
70
330
1F
100
AcDbEntity
  8
0
  6
Continuous
 62
     7
370
    25
100
AcDbSpline
210
0.0
220
0.0
230
1.0
 70
     8
 71
     3
 72
    15
 73
    11
 74
     0
 42
0.00000001
 43
0.00000001
 40
0.0
 40
0.0
 40
0.0
 40
0.0
 40
0.1642892164747558
 40
0.3174059112304897
 40
0.4588436116410204
 40
0.5893665423053125
 40
0.7078313187781707
 40
0.8157700306989981
 40
0.9128799029021226
 40
1.0
 40
1.0
 40
1.0
 40
1.0
 10
-64.62803895729535
 20
41.23333333333333
 30
0.0
 10
-64.55369075251245
 20
41.23279803438584
 30
0.0
 10
-64.41005040779697
 20
41.23176383960508
 30
0.0
 10
-64.20248106659857
 20
41.22520653793918
 30
0.0
 10
-64.0104283253253
 20
41.21360664115142
 30
0.0
 10
-63.83452381957844
 20
41.19671016668386
 30
0.0
 10
-63.67428463936501
 20
41.1759631641133
 30
0.0
 10
-63.53015946574124
 20
41.14995791314441
 30
0.0
 10
-63.40140306432751
 20
41.11925031658387
 30
0.0
 10
-63.32221621713861
 20
41.0930696291444
 30
0.0
 10
-63.28476972652611
 20
41.08068910256411
 30
0.0
  0
SPLINE
  5
74
330
1F
100
AcDbEntity
  8
0
  6
Continuous
 62
     7
370
    25
100
AcDbSpline
210
0.0
220
0.0
230
1.0
 70
     8
 71
     3
 72
    31
 73
    27
 74
     0
 42
0.00000001
 43
0.00000001
 40
0.0
 40
0.0
 40
0.0
 40
0.0
 40
0.0460806833872487
 40
0.0908067996076171
 40
0.1342952705290701
 40
0.1770243856662434
 40
0.2188227336826549
 40
0.2602441163273723
 40
0.301079867113445
 40
0.3416138942851574
 40
0.3815834185517465
 40
0.4201195913296162
 40
0.4580746185423129
 40
0.4947384876076565
 40
0.5311946228937131
 40
0.5669336984503764
 40
0.6027126507379963
 40
0.6383266061284358
 40
0.6748532488548247
 40
0.7134673707840581
 40
0.7544418038483806
 40
0.7978153607124974
 40
0.8439894562081095
 40
0.893071569879647
 40
0.9449633461781441
 40
1.0
 40
1.0
 40
1.0
 40
1.0
 10
-62.00934237609876
 20
39.06324118589744
 30
0.0
 10
-62.01010312724016
 20
39.01091568791828
 30
0.0
 10
-62.01160226682256
 20
38.90780282890464
 30
0.0
 10
-62.02506343935017
 20
38.75583717421691
 30
0.0
 10
-62.04462908359691
 20
38.6083798069717
 30
0.0
 10
-62.07492063717124
 20
38.4661329126343
 30
0.0
 10
-62.11169320104289
 20
38.32785021100128
 30
0.0
 10
-62.15882126974998
 20
38.19500549641253
 30
0.0
 10
-62.21280896512469
 20
38.06638012702926
 30
0.0
 10
-62.27576453252281
 20
37.94371327521615
 30
0.0
 10
-62.34487839819777
 20
37.827498148676
 30
0.0
 10
-62.41904850663889
 20
37.7179448908558
 30
0.0
 10
-62.49819574773663
 20
37.6166167654269
 30
0.0
 10
-62.58307484658868
 20
37.52320692039149
 30
0.0
 10
-62.67258894172257
 20
37.43785617319121
 30
0.0
 10
-62.76732408440884
 20
37.35985154510468
 30
0.0
 10
-62.8675247267735
 20
37.29071933114563
 30
0.0
 10
-62.97274207715954
 20
37.22774292406304
 30
0.0
 10
-63.08604558580938
 20
37.17280592262666
 30
0.0
 10
-63.20958134777498
 20
37.12632391076897
 30
0.0
 10
-63.34387620114383
 20
37.08780467122492
 30
0.0
 10
-63.48860051094334
 20
37.05566654011925
 30
0.0
 10
-63.64400433640063
 20
37.03017304072967
 30
0.0
 10
-63.81024003792146
 20
37.0130868327336
 30
0.0
 10
-63.98705220735525
 20
37.00153233319023
 30
0.0
 10
-64.10846331864654
 20
37.00052069550596
 30
0.0
 10
-64.17095428849193
 20
37.00000000000001
 30
0.0
  0
CIRCLE
  5
81
330
1F
100
AcDbEntity
  8
0
  6
Continuous
 62
     7
370
    25
100
AcDbCircle
 10
-34.0
 20
29.0
 30
0.0
 40
3.999999999999993
  0
CIRCLE
  5
96
330
1F
100
AcDbEntity
  8
0
  6
Continuous
 62
     7
370
    25
100
AcDbCircle
 10
-154.0
 20
35.0
 30
0.0
 40
2.200000000000017
  0
CIRCLE
  5
97
330
1F
100
AcDbEntity
  8
0
  6
Continuous
 62
     7
370
    25
100
AcDbCircle
 10
-216.0
 20
35.0
 30
0.0
 40
2.200000000000074
  0
CIRCLE
  5
98
330
1F
100
AcDbEntity
  8
0
  6
Continuous
 62
     7
370
    25
100
AcDbCircle
 10
-216.0
 20
97.0
 30
0.0
 40
2.200000000000017
  0
CIRCLE
  5
B5
330
1F
100
AcDbEntity
  8
0
  6
Continuous
 62
     7
370
    25
100
AcDbCircle
 10
-154.0
 20
97.0
 30
0.0
 40
2.200000000000074
  0
CIRCLE
  5
B6
330
1F
100
AcDbEntity
  8
0
  6
Continuous
 62
     7
370
    25
100
AcDbCircle
 10
-9.0
 20
9.0
 30
0.0
 40
1.600000000000005
  0
CIRCLE
  5
B7
330
1F
100
AcDbEntity
  8
0
  6
Continuous
 62
     7
370
    25
100
AcDbCircle
 10
-291.0
 20
9.0
 30
0.0
 40
1.599999999999966
  0
CIRCLE
  5
B8
330
1F
100
AcDbEntity
  8
0
  6
Continuous
 62
     7
370
    25
100
AcDbCircle
 10
-291.0
 20
123.0
 30
0.0
 40
1.599999999999966
  0
CIRCLE
  5
B9
330
1F
100
AcDbEntity
  8
0
  6
Continuous
 62
     7
370
    25
100
AcDbCircle
 10
-9.0
 20
123.0
 30
0.0
 40
1.600000000000003
  0
SPLINE
  5
BE
330
1F
100
AcDbEntity
  8
0
  6
Continuous
 62
     7
370
    25
100
AcDbSpline
210
0.0
220
0.0
230
1.0
 70
     8
 71
     3
 72
    19
 73
    15
 74
     0
 42
0.00000001
 43
0.00000001
 40
0.0
 40
0.0
 40
0.0
 40
0.0
 40
0.0969723103815176
 40
0.187773438962869
 40
0.2723961390136923
 40
0.3513209973752899
 40
0.4243347744514689
 40
0.4919087840005281
 40
0.5542332197968007
 40
0.6112676582441563
 40
0.7163478449915551
 40
0.8145400858216171
 40
0.908495456149186
 40
1.0
 40
1.0
 40
1.0
 40
1.0
 10
-26.1803803443294
 20
39.40329861111112
 30
0.0
 10
-26.13443547775758
 20
39.36986572860812
 30
0.0
 10
-26.04546961147122
 20
39.30512758534506
 30
0.0
 10
-25.91888377672108
 20
39.20786290569281
 30
0.0
 10
-25.80410745645398
 20
39.11273655703631
 30
0.0
 10
-25.70073767689769
 20
39.02035602273913
 30
0.0
 10
-25.6077532257372
 20
38.93142204358233
 30
0.0
 10
-25.52618569692103
 20
38.84486467308774
 30
0.0
 10
-25.45520396926301
 20
38.761304028034
 30
0.0
 10
-25.37878720026835
 20
38.65417338886466
 30
0.0
 10
-25.30070298046738
 20
38.52260007740903
 30
0.0
 10
-25.23364515719959
 20
38.36139687459713
 30
0.0
 10
-25.19136220361169
 20
38.19956703932937
 30
0.0
 10
-25.18583284685113
 20
38.09079838949763
 30
0.0
 10
-25.18310470330376
 20
38.0371327457265
 30
0.0
  0
SPLINE
  5
BF
330
1F
100
AcDbEntity
  8
0
  6
Continuous
 62
     7
370
    25
100
AcDbSpline
210
0.0
220
0.0
230
1.0
 70
     8
 71
     3
 72
    15
 73
    11
 74
     0
 42
0.00000001
 43
0.00000001
 40
0.0
 40
0.0
 40
0.0
 40
0.0
 40
0.0525942815291393
 40
0.1249519739750396
 40
0.2180938989285952
 40
0.3335024107325202
 40
0.4687891785044519
 40
0.6249375859646005
 40
0.8016830479282261
 40
1.0
 40
1.0
 40
1.0
 40
1.0
 10
-26.74940411569693
 20
39.82476629273506
 30
0.0
 10
-26.7401375033562
 20
39.81649674722448
 30
0.0
 10
-26.71812215358107
 20
39.79685020000719
 30
0.0
 10
-26.67787412911499
 20
39.76468620341905
 30
0.0
 10
-26.62472426839878
 20
39.72501046930952
 30
0.0
 10
-26.56006046316582
 20
39.67591914366858
 30
0.0
 10
-26.48269041612454
 20
39.61897299425057
 30
0.0
 10
-26.39260561964486
 20
39.55490014906195
 30
0.0
 10
-26.29081024183499
 20
39.48162059388222
 30
0.0
 10
-26.21857516260406
 20
39.43038814000163
 30
0.0
 10
-26.1803803443294
 20
39.40329861111112
 30
0.0
  0
SPLINE
  5
C0
330
1F
100
AcDbEntity
  8
0
  6
Continuous
 62
     7
370
    25
100
AcDbSpline
210
0.0
220
0.0
230
1.0
 70
     8
 71
     3
 72
    15
 73
    11
 74
     0
 42
0.00000001
 43
0.00000001
 40
0.0
 40
0.0
 40
0.0
 40
0.0
 40
0.1072852142689582
 40
0.2147458609696462
 40
0.3229385595552866
 40
0.434116162517473
 40
0.5534123109627945
 40
0.686072984810731
 40
0.8342559920595838
 40
1.0
 40
1.0
 40
1.0
 40
1.0
 10
-27.0284038486029
 20
40.37174145299146
 30
0.0
 10
-27.02792835257783
 20
40.349061093233
 30
0.0
 10
-27.02697658299812
 20
40.30366328686593
 30
0.0
 10
-27.01370230389173
 20
40.23659347174066
 30
0.0
 10
-26.99664882981891
 20
40.16969308977718
 30
0.0
 10
-26.96962488474573
 20
40.10326291815872
 30
0.0
 10
-26.93231675561046
 20
40.03614116959074
 30
0.0
 10
-26.88332478094274
 20
39.96717202035325
 30
0.0
 10
-26.82162296541564
 20
39.89574757272126
 30
0.0
 10
-26.77435838857155
 20
39.84929293967923
 30
0.0
 10
-26.74940411569693
 20
39.82476629273505
 30
0.0
  0
SPLINE
  5
C1
330
1F
100
AcDbEntity
  8
0
  6
Continuous
 62
     7
370
    25
100
AcDbSpline
210
0.0
220
0.0
230
1.0
 70
     8
 71
     3
 72
    15
 73
    11
 74
     0
 42
0.00000001
 43
0.00000001
 40
0.0
 40
0.0
 40
0.0
 40
0.0
 40
0.1430730837303645
 40
0.2759029640930123
 40
0.4023708562740019
 40
0.5284136450935942
 40
0.6503563791869515
 40
0.7658950861246944
 40
0.8807741308440259
 40
1.0
 40
1.0
 40
1.0
 40
1.0
 10
-26.4076506434747
 20
40.90769230769232
 30
0.0
 10
-26.4513828181937
 20
40.90622672775051
 30
0.0
 10
-26.53571619744724
 20
40.90340049489443
 30
0.0
 10
-26.65544724492971
 20
40.87253346506546
 30
0.0
 10
-26.76320846857764
 20
40.82393254831459
 30
0.0
 10
-26.85580061869325
 20
40.75581824147507
 30
0.0
 10
-26.93289200997387
 20
40.67511761222736
 30
0.0
 10
-26.98865766009904
 20
40.58225175894627
 30
0.0
 10
-27.02222214484294
 20
40.47970542436745
 30
0.0
 10
-27.02631793070659
 20
40.40817218289957
 30
0.0
 10
-27.0284038486029
 20
40.37174145299146
 30
0.0
  0
SPLINE
  5
C2
330
1F
100
AcDbEntity
  8
0
  6
Continuous
 62
     7
370
    25
100
AcDbSpline
210
0.0
220
0.0
230
1.0
 70
     8
 71
     3
 72
    19
 73
    15
 74
     0
 42
0.00000001
 43
0.00000001
 40
0.0
 40
0.0
 40
0.0
 40
0.0
 40
0.0984694310255552
 40
0.1896291011376321
 40
0.2741840894379693
 40
0.3521831609671516
 40
0.4231988731834701
 40
0.4885509460005324
 40
0.5484733460279354
 40
0.6014401636178721
 40
0.7011980824257686
 40
0.7995918021381836
 40
0.8985450984822277
 40
1.0
 40
1.0
 40
1.0
 40
1.0
 10
-25.58082772680803
 20
40.36495726495727
 30
0.0
 10
-25.60156614036979
 20
40.39167406194463
 30
0.0
 10
-25.64150347606654
 20
40.44312436632056
 30
0.0
 10
-25.70213628398355
 20
40.51517729091101
 30
0.0
 10
-25.75928464861094
 20
40.58099531853533
 30
0.0
 10
-25.8155884654928
 20
40.63816361624787
 30
0.0
 10
-25.86807409593252
 20
40.6898128632375
 30
0.0
 10
-25.91901566131693
 20
40.73403275958707
 30
0.0
 10
-25.96768006709932
 20
40.77125657501204
 30
0.0
 10
-26.0290233780712
 20
40.81098164277218
 30
0.0
 10
-26.10609147547163
 20
40.8503595089765
 30
0.0
 10
-26.20283467644681
 20
40.88368077484193
 30
0.0
 10
-26.30393426625101
 20
40.90370451640084
 30
0.0
 10
-26.37279201100642
 20
40.90635202803051
 30
0.0
 10
-26.4076506434747
 20
40.90769230769232
 30
0.0
  0
SPLINE
  5
C4
330
1F
100
AcDbEntity
  8
0
  6
Continuous
 62
     7
370
    25
100
AcDbSpline
210
0.0
220
0.0
230
1.0
 70
     8
 71
     3
 72
    19
 73
    15
 74
     0
 42
0.00000001
 43
0.00000001
 40
0.0
 40
0.0
 40
0.0
 40
0.0
 40
0.1072327993600888
 40
0.2132518127818492
 40
0.3188304473075871
 40
0.4267935306342738
 40
0.4836459507827159
 40
0.5436038220211433
 40
0.6083076495640815
 40
0.6771267602600419
 40
0.7506856360204938
 40
0.828713418443285
 40
0.9121903482234497
 40
1.0
 40
1.0
 40
1.0
 40
1.0
 10
-26.36524946826102
 20
41.34188034188035
 30
0.0
 10
-26.31536374694818
 20
41.34015973185085
 30
0.0
 10
-26.21615696912112
 20
41.33673798766374
 30
0.0
 10
-26.07022887028937
 20
41.30698668787701
 30
0.0
 10
-25.92972971807152
 20
41.25775825628584
 30
0.0
 10
-25.81670786443269
 20
41.20189197473202
 30
0.0
 10
-25.72825204818838
 20
41.14609492905977
 30
0.0
 10
-25.66079360007892
 20
41.0952709511225
 30
0.0
 10
-25.59243439769897
 20
41.03676010547743
 30
0.0
 10
-25.52262303614421
 20
40.97040654117015
 30
0.0
 10
-25.45254242901301
 20
40.89560142318557
 30
0.0
 10
-25.38115215820344
 20
40.81285706612395
 30
0.0
 10
-25.30828528068954
 20
40.72267913664987
 30
0.0
 10
-25.2614091451111
 20
40.65830283573729
 30
0.0
 10
-25.23737820757727
 20
40.62530048076924
 30
0.0
  0
SPLINE
  5
C5
330
1F
100
AcDbEntity
  8
0
  6
Continuous
 62
     7
370
    25
100
AcDbSpline
210
0.0
220
0.0
230
1.0
 70
     8
 71
     3
 72
    19
 73
    15
 74
     0
 42
0.00000001
 43
0.00000001
 40
0.0
 40
0.0
 40
0.0
 40
0.0
 40
0.0837853706537083
 40
0.1657798879221414
 40
0.2462800078932637
 40
0.327460927736388
 40
0.4087969540320684
 40
0.4897152412309889
 40
0.5713760321300544
 40
0.6555233211112779
 40
0.7410194827999734
 40
0.8265467605037596
 40
0.9119888516548326
 40
1.0
 40
1.0
 40
1.0
 40
1.0
 10
-27.40831837851743
 20
40.35393295940171
 30
0.0
 10
-27.40673969716355
 20
40.39872135339902
 30
0.0
 10
-27.4036160776597
 20
40.48734082096424
 30
0.0
 10
-27.37719945200881
 20
40.61679715873708
 30
0.0
 10
-27.33550366635053
 20
40.74039406337164
 30
0.0
 10
-27.27708984960367
 20
40.85690789559107
 30
0.0
 10
-27.20178809893115
 20
40.96330484390349
 30
0.0
 10
-27.11464677755605
 20
41.06080877577698
 30
0.0
 10
-27.01085574182123
 20
41.14277648951082
 30
0.0
 10
-26.89697590225501
 20
41.21439488394349
 30
0.0
 10
-26.77232676649785
 20
41.27045138395583
 30
0.0
 10
-26.64170919762643
 20
41.31273752186424
 30
0.0
 10
-26.50491559622453
 20
41.33669729069046
 30
0.0
 10
-26.41226228101336
 20
41.34013568253718
 30
0.0
 10
-26.36524946826102
 20
41.34188034188035
 30
0.0
  0
SPLINE
  5
C6
330
1F
100
AcDbEntity
  8
0
  6
Continuous
 62
     7
370
    25
100
AcDbSpline
210
0.0
220
0.0
230
1.0
 70
     8
 71
     3
 72
    15
 73
    11
 74
     0
 42
0.00000001
 43
0.00000001
 40
0.0
 40
0.0
 40
0.0
 40
0.0
 40
0.1335067689985193
 40
0.2625589787303711
 40
0.3882644471488781
 40
0.5126673546814297
 40
0.6337222699657661
 40
0.7553938601371003
 40
0.8775529450912815
 40
1.0
 40
1.0
 40
1.0
 40
1.0
 10
-27.17171982082513
 20
39.70943509615385
 30
0.0
 10
-27.19043423267613
 20
39.73435254072989
 30
0.0
 10
-27.22723863517946
 20
39.78335603957514
 30
0.0
 10
-27.27582037512297
 20
39.85994896277989
 30
0.0
 10
-27.31711250536483
 20
39.93835424570346
 30
0.0
 10
-27.34948218328197
 20
40.01878257712916
 30
0.0
 10
-27.37674027654509
 20
40.10010482444189
 30
0.0
 10
-27.39507415465134
 20
40.18338204543094
 30
0.0
 10
-27.40655422520662
 20
40.26824056490704
 30
0.0
 10
-27.40772986606095
 20
40.32534641804092
 30
0.0
 10
-27.40831837851743
 20
40.35393295940171
 30
0.0
  0
SPLINE
  5
C7
330
1F
100
AcDbEntity
  8
0
  6
Continuous
 62
     7
370
    25
100
AcDbSpline
210
0.0
220
0.0
230
1.0
 70
     8
 71
     3
 72
    15
 73
    11
 74
     0
 42
0.00000001
 43
0.00000001
 40
0.0
 40
0.0
 40
0.0
 40
0.0
 40
0.1815353013762847
 40
0.3470816724816302
 40
0.4955678164315545
 40
0.6283573018772154
 40
0.7455196699921572
 40
0.8458307507576507
 40
0.9307818073847565
 40
0.9999999999999999
 40
0.9999999999999999
 40
0.9999999999999999
 40
0.9999999999999999
 10
-26.4780365943294
 20
39.13362713675214
 30
0.0
 10
-26.52257609446978
 20
39.1653512379679
 30
0.0
 10
-26.60773222709534
 20
39.22600530373068
 30
0.0
 10
-26.72682022669523
 20
39.3160232472519
 30
0.0
 10
-26.83331210100246
 20
39.39832392755498
 30
0.0
 10
-26.92673453051161
 20
39.47368211362183
 30
0.0
 10
-27.00704642383968
 20
39.54210802600941
 30
0.0
 10
-27.07488064478063
 20
39.60294458097185
 30
0.0
 10
-27.12850918526763
 20
39.65783707840308
 30
0.0
 10
-27.15833069711175
 20
39.6934470822282
 30
0.0
 10
-27.17171982082513
 20
39.70943509615385
 30
0.0
  0
SPLINE
  5
C8
330
1F
100
AcDbEntity
  8
0
  6
Continuous
 62
     7
370
    25
100
AcDbSpline
210
0.0
220
0.0
230
1.0
 70
     8
 71
     3
 72
    15
 73
    11
 74
     0
 42
0.00000001
 43
0.00000001
 40
0.0
 40
0.0
 40
0.0
 40
0.0
 40
0.0902792146500139
 40
0.1895299184469589
 40
0.2991978724002866
 40
0.4189258867738181
 40
0.5483762854012492
 40
0.6881363695386822
 40
0.8390835016589179
 40
0.9999999999999999
 40
0.9999999999999999
 40
0.9999999999999999
 40
0.9999999999999999
 10
-25.71481544048325
 20
38.45860042735043
 30
0.0
 10
-25.73376942144453
 20
38.48284753780401
 30
0.0
 10
-25.77356093358568
 20
38.53375131321513
 30
0.0
 10
-25.84196859167438
 20
38.60952221707591
 30
0.0
 10
-25.92223998707233
 20
38.6876797333322
 30
0.0
 10
-26.01162809634644
 20
38.77120830697568
 30
0.0
 10
-26.11338907046795
 20
38.85622307058884
 30
0.0
 10
-26.22433568312699
 20
38.94677803533403
 30
0.0
 10
-26.3473005411146
 20
39.03942946661908
 30
0.0
 10
-26.43353897988113
 20
39.10156580780396
 30
0.0
 10
-26.4780365943294
 20
39.13362713675214
 30
0.0
  0
SPLINE
  5
C9
330
1F
100
AcDbEntity
  8
0
  6
Continuous
 62
     7
370
    25
100
AcDbSpline
210
0.0
220
0.0
230
1.0
 70
     8
 71
     3
 72
    11
 73
     7
 74
     0
 42
0.00000001
 43
0.00000001
 40
0.0
 40
0.0
 40
0.0
 40
0.0
 40
0.2347233736738988
 40
0.4771583189289815
 40
0.728556284203052
 40
1.0
 40
1.0
 40
1.0
 40
1.0
 10
-25.5630192332183
 20
38.04306891025642
 30
0.0
 10
-25.56480244711172
 20
38.07831546180735
 30
0.0
 10
-25.56842746037889
 20
38.14996655058837
 30
0.0
 10
-25.59906648865702
 20
38.25567851178029
 30
0.0
 10
-25.64726510150575
 20
38.36029333457153
 30
0.0
 10
-25.69173039436795
 20
38.42500438912749
 30
0.0
 10
-25.71481544048325
 20
38.45860042735043
 30
0.0
  0
SPLINE
  5
CA
330
1F
100
AcDbEntity
  8
0
  6
Continuous
 62
     7
370
    25
100
AcDbSpline
210
0.0
220
0.0
230
1.0
 70
     8
 71
     3
 72
    19
 73
    15
 74
     0
 42
0.00000001
 43
0.00000001
 40
0.0
 40
0.0
 40
0.0
 40
0.0
 40
0.091263604896626
 40
0.1809303110850815
 40
0.2700882198317213
 40
0.3601561333877243
 40
0.4483425324981519
 40
0.5326658421383295
 40
0.6138337041070461
 40
0.6939815272835599
 40
0.7727159770890042
 40
0.8493351720622427
 40
0.9239673265752287
 40
1.0
 40
1.0
 40
1.0
 40
1.0
 10
-26.39238622039777
 20
37.32564102564103
 30
0.0
 10
-26.35526973196958
 20
37.32667477239389
 30
0.0
 10
-26.28168620647435
 20
37.32872417775972
 30
0.0
 10
-26.17335854117855
 20
37.34841619547664
 30
0.0
 10
-26.06815198034246
 20
37.37866896092433
 30
0.0
 10
-25.96823486613505
 20
37.42199523046317
 30
0.0
 10
-25.87498588474929
 20
37.47441416081625
 30
0.0
 10
-25.7932139770564
 20
37.5377281088489
 30
0.0
 10
-25.7225220115917
 20
37.60861371004545
 30
0.0
 10
-25.66469574921049
 20
37.68769558756473
 30
0.0
 10
-25.62033037319504
 20
37.7727458530231
 30
0.0
 10
-25.58623139520954
 20
37.86004438464178
 30
0.0
 10
-25.56730830612038
 20
37.95096255770301
 30
0.0
 10
-25.56445775670135
 20
38.01217711752845
 30
0.0
 10
-25.5630192332183
 20
38.04306891025642
 30
0.0
  0
SPLINE
  5
CB
330
1F
100
AcDbEntity
  8
0
  6
Continuous
 62
     7
370
    25
100
AcDbSpline
210
0.0
220
0.0
230
1.0
 70
     8
 71
     3
 72
    15
 73
    11
 74
     0
 42
0.00000001
 43
0.00000001
 40
0.0
 40
0.0
 40
0.0
 40
0.0
 40
0.1590042985173771
 40
0.304646099896816
 40
0.4385469045795918
 40
0.5623222987759298
 40
0.6774325425257327
 40
0.7868973929387554
 40
0.8936108891042681
 40
1.0
 40
1.0
 40
1.0
 40
1.0
 10
-27.32181998108153
 20
38.03119658119659
 30
0.0
 10
-27.28853601793089
 20
37.97548061083199
 30
0.0
 10
-27.22476522898053
 20
37.86873096172306
 30
0.0
 10
-27.1183859660056
 20
37.72448552234731
 30
0.0
 10
-27.0081585401192
 20
37.60188558036261
 30
0.0
 10
-26.89326667954037
 20
37.50164435029064
 30
0.0
 10
-26.7744116756209
 20
37.42272426822446
 30
0.0
 10
-26.65081762967272
 20
37.36684156890774
 30
0.0
 10
-26.52290103957412
 20
37.33198796060147
 30
0.0
 10
-26.43584698883233
 20
37.3277545225782
 30
0.0
 10
-26.39238622039777
 20
37.32564102564103
 30
0.0
  0
SPLINE
  5
CD
330
1F
100
AcDbEntity
  8
0
  6
Continuous
 62
     7
370
    25
100
AcDbSpline
210
0.0
220
0.0
230
1.0
 70
     8
 71
     3
 72
    23
 73
    19
 74
     0
 42
0.00000001
 43
0.00000001
 40
0.0
 40
0.0
 40
0.0
 40
0.0
 40
0.05720826943351
 40
0.1136960596574907
 40
0.1691779164171947
 40
0.2241592165805426
 40
0.278719878381043
 40
0.3337942174469886
 40
0.3892414593400025
 40
0.4458220733936201
 40
0.5037042811090189
 40
0.5642938918193631
 40
0.6279754158952239
 40
0.6950382596840501
 40
0.7653727258510133
 40
0.8396114430907328
 40
0.9175377500777901
 40
1.0
 40
1.0
 40
1.0
 40
1.0
 10
-26.39238622039777
 20
36.89145299145299
 30
0.0
 10
-26.4243603971462
 20
36.89207127776605
 30
0.0
 10
-26.48790606883117
 20
36.89330006371311
 30
0.0
 10
-26.58189753738253
 20
36.90416313622374
 30
0.0
 10
-26.67399018336496
 20
36.91953268056736
 30
0.0
 10
-26.76302841020622
 20
36.94393369853945
 30
0.0
 10
-26.8501593747634
 20
36.97353918505704
 30
0.0
 10
-26.93500412509478
 20
37.00999221591393
 30
0.0
 10
-27.01760378071094
 20
37.05367683099786
 30
0.0
 10
-27.09842123808503
 20
37.10362414650109
 30
0.0
 10
-27.17725095401302
 20
37.16175113278278
 30
0.0
 10
-27.25335354855554
 20
37.22945240942707
 30
0.0
 10
-27.32922599198589
 20
37.30486078213081
 30
0.0
 10
-27.40262884277488
 20
37.39002403495878
 30
0.0
 10
-27.47504683636379
 20
37.48356628755819
 30
0.0
 10
-27.54505215075556
 20
37.58636272842935
 30
0.0
 10
-27.61409384737687
 20
37.69785343249975
 30
0.0
 10
-27.65741350846324
 20
37.77630929808467
 30
0.0
 10
-27.67968589988496
 20
37.81664663461539
 30
0.0
  0
SPLINE
  5
CE
330
1F
100
AcDbEntity
  8
0
  6
Continuous
 62
     7
370
    25
100
AcDbSpline
210
0.0
220
0.0
230
1.0
 70
     8
 71
     3
 72
    23
 73
    19
 74
     0
 42
0.00000001
 43
0.00000001
 40
0.0
 40
0.0
 40
0.0
 40
0.0
 40
0.0614842551968926
 40
0.1217745277022128
 40
0.1809195598139332
 40
0.2402561150782729
 40
0.3001144444023527
 40
0.3611459476126129
 40
0.4235005824125871
 40
0.4886693612807189
 40
0.5539541046535627
 40
0.6175812610152616
 40
0.6802384268167384
 40
0.7421873887724526
 40
0.8046632117692936
 40
0.868258989312663
 40
0.9330202571803753
 40
0.9999999999999999
 40
0.9999999999999999
 40
0.9999999999999999
 40
0.9999999999999999
 10
-25.18310470330376
 20
38.03713274572651
 30
0.0
 10
-25.18389952751084
 20
37.99917986603946
 30
0.0
 10
-25.18547374097593
 20
37.92401112594447
 30
0.0
 10
-25.20356932240339
 20
37.8136359377156
 30
0.0
 10
-25.23008167931433
 20
37.70643479057409
 30
0.0
 10
-25.27004100037833
 20
37.60373277837868
 30
0.0
 10
-25.31881282036887
 20
37.50365101779966
 30
0.0
 10
-25.38069961540682
 20
37.40881479539787
 30
0.0
 10
-25.45243367218478
 20
37.31712515139271
 30
0.0
 10
-25.53472213068819
 20
37.23102702375363
 30
0.0
 10
-25.62476622206149
 20
37.15198924384748
 30
0.0
 10
-25.71993602417741
 20
37.08168075997123
 30
0.0
 10
-25.82038730667873
 20
37.02305716881691
 30
0.0
 10
-25.92557513733368
 20
36.97521948367078
 30
0.0
 10
-26.03552367792222
 20
36.93780465771047
 30
0.0
 10
-26.15019594979824
 20
36.91069575885692
 30
0.0
 10
-26.26978097765428
 20
36.89405789899013
 30
0.0
 10
-26.35106156012766
 20
36.89233098750437
 30
0.0
 10
-26.39238622039777
 20
36.89145299145299
 30
0.0
  0
SPLINE
  5
CF
330
1F
100
AcDbEntity
  8
0
  6
Continuous
 62
     7
370
    25
100
AcDbSpline
210
0.0
220
0.0
230
1.0
 70
     8
 71
     3
 72
    23
 73
    19
 74
     0
 42
0.00000001
 43
0.00000001
 40
0.0
 40
0.0
 40
0.0
 40
0.0
 40
0.0611602766365147
 40
0.1203345577262027
 40
0.178180255063124
 40
0.2352351259863635
 40
0.2926829614441807
 40
0.3511862482150784
 40
0.4104566095096941
 40
0.4717198544629955
 40
0.5337612027725875
 40
0.595739023887095
 40
0.6578875151248843
 40
0.7212951802914607
 40
0.7868225145418916
 40
0.8546861538286848
 40
0.9254779862699986
 40
1.0
 40
1.0
 40
1.0
 40
1.0
 10
-32.56430128450036
 20
38.20164930555556
 30
0.0
 10
-32.56548280302381
 20
38.16032366022718
 30
0.0
 10
-32.56780747381971
 20
38.07901429527951
 30
0.0
 10
-32.58495848732625
 20
37.95956760872796
 30
0.0
 10
-32.61399807387713
 20
37.84541886377723
 30
0.0
 10
-32.65399841281346
 20
37.73582973803019
 30
0.0
 10
-32.70620425999429
 20
37.63101224205138
 30
0.0
 10
-32.76973808351899
 20
37.5308476275153
 30
0.0
 10
-32.84549245094852
 20
37.4363422942976
 30
0.0
 10
-32.93023515910939
 20
37.34644610254442
 30
0.0
 10
-33.02610461127194
 20
37.26561630261924
 30
0.0
 10
-33.12953795294013
 20
37.1936306383475
 30
0.0
 10
-33.24183778747819
 20
37.13442921083644
 30
0.0
 10
-33.36115972309805
 20
37.08469840387582
 30
0.0
 10
-33.48884227687435
 20
37.04671064954193
 30
0.0
 10
-33.62431209720477
 20
37.02013429825418
 30
0.0
 10
-33.76745234799565
 20
37.00222725350349
 30
0.0
 10
-33.86567747553052
 20
37.000755015202
 30
0.0
 10
-33.91605075031232
 20
37.00000000000001
 30
0.0
  0
SPLINE
  5
D0
330
1F
100
AcDbEntity
  8
0
  6
Continuous
 62
     7
370
    25
100
AcDbSpline
210
0.0
220
0.0
230
1.0
 70
     8
 71
     3
 72
    19
 73
    15
 74
     0
 42
0.00000001
 43
0.00000001
 40
0.0
 40
0.0
 40
0.0
 40
0.0
 40
0.1060574933033985
 40
0.2029142570846105
 40
0.2903001653958374
 40
0.3702225656250409
 40
0.4463837207709683
 40
0.5213968999648284
 40
0.5982910828464529
 40
0.6761424688569266
 40
0.7555286995560212
 40
0.8348871724576552
 40
0.9166460487466391
 40
1.0
 40
1.0
 40
1.0
 40
1.0
 10
-33.37925187210719
 20
39.28372729700855
 30
0.0
 10
-33.33116068825442
 20
39.26526391733751
 30
0.0
 10
-33.23915034047179
 20
39.22993889830748
 30
0.0
 10
-33.11253011591123
 20
39.16748457518722
 30
0.0
 10
-33.00343730339208
 20
39.09955516547577
 30
0.0
 10
-32.91103313634333
 20
39.02537283244482
 30
0.0
 10
-32.83200568706321
 20
38.94541265177486
 30
0.0
 10
-32.76299879582746
 20
38.85850218025544
 30
0.0
 10
-32.70411751469951
 20
38.76350768263229
 30
0.0
 10
-32.65366474048206
 20
38.66141959700349
 30
0.0
 10
-32.61429624509798
 20
38.55328034480041
 30
0.0
 10
-32.5848130083841
 20
38.440104263235
 30
0.0
 10
-32.56791904609604
 20
38.3222971821904
 30
0.0
 10
-32.56551494664525
 20
38.24212343765718
 30
0.0
 10
-32.56430128450035
 20
38.20164930555556
 30
0.0
  0
SPLINE
  5
D1
330
1F
100
AcDbEntity
  8
0
  6
Continuous
 62
     7
370
    25
100
AcDbSpline
210
0.0
220
0.0
230
1.0
 70
     8
 71
     3
 72
    15
 73
    11
 74
     0
 42
0.00000001
 43
0.00000001
 40
0.0
 40
0.0
 40
0.0
 40
0.0
 40
0.1305691070873085
 40
0.2565806086940867
 40
0.3805516168036842
 40
0.5036229172007066
 40
0.625739323169791
 40
0.7475485819596266
 40
0.8717661185648756
 40
1.0
 40
1.0
 40
1.0
 40
1.0
 10
-32.88994231014136
 20
40.18432825854701
 30
0.0
 10
-32.89126458387665
 20
40.13757707215558
 30
0.0
 10
-32.89386297646299
 20
40.04570658204444
 30
0.0
 10
-32.91870993298929
 20
39.91133561176803
 30
0.0
 10
-32.9576090271971
 20
39.78342699471019
 30
0.0
 10
-33.01168109047159
 20
39.66244753806311
 30
0.0
 10
-33.08195683825402
 20
39.55113069168691
 30
0.0
 10
-33.16524261416329
 20
39.44857847466103
 30
0.0
 10
-33.26572598479521
 20
39.35913291048617
 30
0.0
 10
-33.3410106655425
 20
39.30912768549625
 30
0.0
 10
-33.37925187210719
 20
39.28372729700855
 30
0.0
  0
SPLINE
  5
D2
330
1F
100
AcDbEntity
  8
0
  6
Continuous
 62
     7
370
    25
100
AcDbSpline
210
0.0
220
0.0
230
1.0
 70
     8
 71
     3
 72
    23
 73
    19
 74
     0
 42
0.00000001
 43
0.00000001
 40
0.0
 40
0.0
 40
0.0
 40
0.0
 40
0.0625940971873301
 40
0.1213229386347501
 40
0.1766801421977649
 40
0.2283650957096735
 40
0.2768684458368083
 40
0.3218791276660461
 40
0.3640986251098909
 40
0.4033556962427001
 40
0.4779679481633717
 40
0.5505354613647756
 40
0.6235844567403237
 40
0.6981748822642042
 40
0.7733536703408774
 40
0.8472811254977342
 40
0.9228183395566711
 40
1.0
 40
1.0
 40
1.0
 40
1.0
 10
-34.23490758791914
 20
41.23333333333333
 30
0.0
 10
-34.19447504763487
 20
41.23312075903789
 30
0.0
 10
-34.11610672179936
 20
41.23270873714822
 30
0.0
 10
-34.00214606358747
 20
41.22631866423711
 30
0.0
 10
-33.89540702595558
 20
41.21760565400295
 30
0.0
 10
-33.79585865368398
 20
41.20378068480472
 30
0.0
 10
-33.70354694698239
 20
41.18709920197178
 30
0.0
 10
-33.61819370956137
 20
41.16689795774823
 30
0.0
 10
-33.54007035834162
 20
41.14267529170353
 30
0.0
 10
-33.44680066764083
 20
41.10415645630807
 30
0.0
 10
-33.34045853495881
 20
41.04691795744701
 30
0.0
 10
-33.22531381235616
 20
40.96233769293342
 30
0.0
 10
-33.12685344665489
 20
40.8588841423021
 30
0.0
 10
-33.04196142484918
 20
40.74218607336032
 30
0.0
 10
-32.97446864208131
 20
40.61381233038527
 30
0.0
 10
-32.92564101580422
 20
40.47682264491149
 30
0.0
 10
-32.89472815703709
 20
40.33298396658979
 30
0.0
 10
-32.89154900327118
 20
40.23423459906003
 30
0.0
 10
-32.88994231014136
 20
40.18432825854701
 30
0.0
  0
SPLINE
  5
F3
330
1F
100
AcDbEntity
  8
0
  6
Continuous
 62
     7
370
    25
100
AcDbSpline
210
0.0
220
0.0
230
1.0
 70
     8
 71
     3
 72
    23
 73
    19
 74
     0
 42
0.00000001
 43
0.00000001
 40
0.0
 40
0.0
 40
0.0
 40
0.0
 40
0.0723010339955043
 40
0.1397003317393847
 40
0.2022885114847718
 40
0.2605995332222001
 40
0.3131903291553328
 40
0.3617389329854254
 40
0.405706475632223
 40
0.4455399848948684
 40
0.5188319558616048
 40
0.5897782395835774
 40
0.658867478656144
 40
0.7284304780610623
 40
0.7972827036080972
 40
0.8648153774014433
 40
0.9313637528792654
 40
1.0
 40
1.0
 40
1.0
 40
1.0
 10
-34.42571287638069
 20
39.4423076923077
 30
0.0
 10
-34.38840052388984
 20
39.44279140870604
 30
0.0
 10
-34.31630545507973
 20
39.44372604736306
 30
0.0
 10
-34.21189948495626
 20
39.44640334895227
 30
0.0
 10
-34.11498636770948
 20
39.45390003003759
 30
0.0
 10
-34.02573338865811
 20
39.46139455652274
 30
0.0
 10
-33.94428109928893
 20
39.4735800101732
 30
0.0
 10
-33.87080995251971
 20
39.48808476836246
 30
0.0
 10
-33.8041668876512
 20
39.50342504405052
 30
0.0
 10
-33.72731429447859
 20
39.52951385201575
 30
0.0
 10
-33.6401403472959
 20
39.56807065914294
 30
0.0
 10
-33.54720887846152
 20
39.62790802283094
 30
0.0
 10
-33.46528242476832
 20
39.69917843098603
 30
0.0
 10
-33.39610106438406
 20
39.78141511806115
 30
0.0
 10
-33.33948147622089
 20
39.87196755238477
 30
0.0
 10
-33.30015536360573
 20
39.96939092205347
 30
0.0
 10
-33.27348864845158
 20
40.07125717699171
 30
0.0
 10
-33.27107984385763
 20
40.14118973036603
 30
0.0
 10
-33.2698568400559
 20
40.17669604700856
 30
0.0
  0
SPLINE
  5
F4
330
1F
100
AcDbEntity
  8
0
  6
Continuous
 62
     7
370
    25
100
AcDbSpline
210
0.0
220
0.0
230
1.0
 70
     8
 71
     3
 72
    23
 73
    19
 74
     0
 42
0.00000001
 43
0.00000001
 40
0.0
 40
0.0
 40
0.0
 40
0.0
 40
0.0570031325129237
 40
0.1118178691207198
 40
0.1644023722182116
 40
0.2158698048987945
 40
0.2668411100818661
 40
0.3174789632053575
 40
0.3699021362727588
 40
0.423400449443633
 40
0.4797183982994482
 40
0.5392414966442975
 40
0.6024306889434207
 40
0.6710295461473345
 40
0.7444847975608486
 40
0.8234539713786859
 40
0.908740312730667
 40
1.0
 40
1.0
 40
1.0
 40
1.0
 10
-33.2698568400559
 20
40.17669604700856
 30
0.0
 10
-33.2704932675163
 20
40.20019198017256
 30
0.0
 10
-33.27174168947725
 20
40.24628181881091
 30
0.0
 10
-33.28196616024704
 20
40.31347008526679
 30
0.0
 10
-33.29934408361196
 20
40.37666014782915
 30
0.0
 10
-33.32166499067387
 20
40.43671797650705
 30
0.0
 10
-33.35285702369267
 20
40.49176564296398
 30
0.0
 10
-33.38958235549607
 20
40.54370646061389
 30
0.0
 10
-33.4339545713703
 20
40.59077159441492
 30
0.0
 10
-33.48446103524941
 20
40.6347613685677
 30
0.0
 10
-33.54252860765905
 20
40.67376189266633
 30
0.0
 10
-33.60812264633575
 20
40.70791976812387
 30
0.0
 10
-33.68213059859748
 20
40.73542527896524
 30
0.0
 10
-33.76330519462262
 20
40.75951433958102
 30
0.0
 10
-33.85289593854954
 20
40.77643351400877
 30
0.0
 10
-33.94986896981516
 20
40.79052856384164
 30
0.0
 10
-34.05501858235255
 20
40.79770435655194
 30
0.0
 10
-34.12776551588365
 20
40.79865427164797
 30
0.0
 10
-34.16536966056871
 20
40.7991452991453
 30
0.0
  0
SPLINE
  5
F6
330
1F
100
AcDbEntity
  8
0
  6
Continuous
 62
     7
370
    25
100
AcDbSpline
210
0.0
220
0.0
230
1.0
 70
     8
 71
     3
 72
    15
 73
    11
 74
     0
 42
0.00000001
 43
0.00000001
 40
0.0
 40
0.0
 40
0.0
 40
0.0
 40
0.0843186169585753
 40
0.1792845142139005
 40
0.2865825276465583
 40
0.4051114834342751
 40
0.535592873418974
 40
0.6781902099934201
 40
0.832975839760495
 40
1.0
 40
1.0
 40
1.0
 40
1.0
 10
-63.50440781413295
 20
40.68042200854701
 30
0.0
 10
-63.5399087245063
 20
40.69023902130565
 30
0.0
 10
-63.61539340037052
 20
40.71111268393142
 30
0.0
 10
-63.73857065685851
 20
40.7338824202195
 30
0.0
 10
-63.87720040902552
 20
40.75396595712559
 30
0.0
 10
-64.03189814275348
 20
40.77096949043131
 30
0.0
 10
-64.20248751708826
 20
40.78317034576875
 30
0.0
 10
-64.38909973017539
 20
40.79232803105575
 30
0.0
 10
-64.59181544236671
 20
40.79850462462968
 30
0.0
 10
-64.7323409833128
 20
40.79892639429448
 30
0.0
 10
-64.8052758696885
 20
40.7991452991453
 30
0.0
  0
SPLINE
  5
F7
330
1F
100
AcDbEntity
  8
0
  6
Continuous
 62
     7
370
    25
100
AcDbSpline
210
0.0
220
0.0
230
1.0
 70
     8
 71
     3
 72
    23
 73
    19
 74
     0
 42
0.00000001
 43
0.00000001
 40
0.0
 40
0.0
 40
0.0
 40
0.0
 40
0.070151175997277
 40
0.1378126061901914
 40
0.2032262471813947
 40
0.2671740552944745
 40
0.3300240034081789
 40
0.3917942717866847
 40
0.45308439899714
 40
0.5143339076458773
 40
0.574999992818269
 40
0.6348654826222105
 40
0.6941163151896427
 40
0.7534416217804383
 40
0.8131258003036108
 40
0.8740796856370714
 40
0.9360070132744058
 40
1.0
 40
1.0
 40
1.0
 40
1.0
 10
-62.38925690601329
 20
39.06408920940171
 30
0.0
 10
-62.38987773930118
 20
39.11359922842826
 30
0.0
 10
-62.39109737179056
 20
39.21086209904416
 30
0.0
 10
-62.40642725201578
 20
39.35357465427878
 30
0.0
 10
-62.4288295143817
 20
39.49083220300929
 30
0.0
 10
-62.46122502035237
 20
39.62264392505679
 30
0.0
 10
-62.50250713095587
 20
39.74926697959261
 30
0.0
 10
-62.5540263643181
 20
39.87000105382995
 30
0.0
 10
-62.61288979905209
 20
39.98612122856187
 30
0.0
 10
-62.68292526361584
 20
40.09494736616372
 30
0.0
 10
-62.75962793368062
 20
40.19786950768211
 30
0.0
 10
-62.84475165439916
 20
40.29215783415038
 30
0.0
 10
-62.93694402481002
 20
40.37802713067657
 30
0.0
 10
-63.03519950938838
 20
40.45681468027573
 30
0.0
 10
-63.14228723895467
 20
40.52535074539826
 30
0.0
 10
-63.25568456019605
 20
40.58665749299286
 30
0.0
 10
-63.37705503867558
 20
40.638686237755
 30
0.0
 10
-63.46149515650129
 20
40.6663587669996
 30
0.0
 10
-63.50440781413295
 20
40.68042200854701
 30
0.0
  0
SPLINE
  5
F8
330
1F
100
AcDbEntity
  8
0
  6
Continuous
 62
     7
370
    25
100
AcDbSpline
210
0.0
220
0.0
230
1.0
 70
     8
 71
     3
 72
    23
 73
    19
 74
     0
 42
0.00000001
 43
0.00000001
 40
0.0
 40
0.0
 40
0.0
 40
0.0
 40
0.0624145002632755
 40
0.1233382314733155
 40
0.1831245376921966
 40
0.2417829946389433
 40
0.3005788825509815
 40
0.3596800748966256
 40
0.4188816408500471
 40
0.4795306644577835
 40
0.5408505357600392
 40
0.6023033958983804
 40
0.6644632119464728
 40
0.7278057226670106
 40
0.7928948147812334
 40
0.8596723283028309
 40
0.92846440073349
 40
1.0
 40
1.0
 40
1.0
 40
1.0
 10
-63.40688511114149
 20
37.54188701923077
 30
0.0
 10
-63.36824280653398
 20
37.55549604681961
 30
0.0
 10
-63.29188116796862
 20
37.58238905065362
 30
0.0
 10
-63.18195833157862
 20
37.63144450751852
 30
0.0
 10
-63.07944271642114
 20
37.68955253473941
 30
0.0
 10
-62.98254773345597
 20
37.75414385660468
 30
0.0
 10
-62.89264787402985
 20
37.8274966399966
 30
0.0
 10
-62.80867775240097
 20
37.90801583597853
 30
0.0
 10
-62.73080643075589
 20
37.99611123058919
 30
0.0
 10
-62.65983845823359
 20
38.09167348314618
 30
0.0
 10
-62.59632841430761
 20
38.19410780739699
 30
0.0
 10
-62.54132987968929
 20
38.30240715860037
 30
0.0
 10
-62.49312850338342
 20
38.41538491953299
 30
0.0
 10
-62.45529630088578
 20
38.53477599714267
 30
0.0
 10
-62.42564411812373
 20
38.65951304875058
 30
0.0
 10
-62.4046411145914
 20
38.78960484955272
 30
0.0
 10
-62.39156044786383
 20
38.92502710475053
 30
0.0
 10
-62.39003469654755
 20
39.01713491219752
 30
0.0
 10
-62.38925690601329
 20
39.06408920940171
 30
0.0
  0
SPLINE
  5
FC
330
1F
100
AcDbEntity
  8
0
  6
Continuous
 62
     7
370
    25
100
AcDbSpline
210
0.0
220
0.0
230
1.0
 70
     8
 71
     3
 72
    15
 73
    11
 74
     0
 42
0.00000001
 43
0.00000001
 40
0.0
 40
0.0
 40
0.0
 40
0.0
 40
0.1719006646132733
 40
0.3306279320958853
 40
0.4755488358809137
 40
0.6067461903123643
 40
0.7250238034674925
 40
0.8297423869584517
 40
0.9213228203439779
 40
1.0
 40
1.0
 40
1.0
 40
1.0
 10
-64.6170146517398
 20
37.43418803418804
 30
0.0
 10
-64.54719081284473
 20
37.43448811265954
 30
0.0
 10
-64.41289399952635
 20
37.43506527345596
 30
0.0
 10
-64.21978385042442
 20
37.44012979534098
 30
0.0
 10
-64.04333924707396
 20
37.44840528165449
 30
0.0
 10
-63.88353513571268
 20
37.45998656624212
 30
0.0
 10
-63.74046174441972
 20
37.4753095579461
 30
0.0
 10
-63.61382006599025
 20
37.4923939641264
 30
0.0
 10
-63.5040252297307
 20
37.5136784998028
 30
0.0
 10
-63.43758676790562
 20
37.53297156499951
 30
0.0
 10
-63.40688511114151
 20
37.54188701923078
 30
0.0
  0
SPLINE
  5
FE
330
1F
100
AcDbEntity
  8
0
  6
Continuous
 62
     7
370
    25
100
AcDbSpline
210
0.0
220
0.0
230
1.0
 70
     8
 71
     3
 72
    23
 73
    19
 74
     0
 42
0.00000001
 43
0.00000001
 40
0.0
 40
0.0
 40
0.0
 40
0.0
 40
0.0725024889330351
 40
0.1397389892678972
 40
0.201795134825924
 40
0.2598219344148629
 40
0.3122059893845979
 40
0.3607734341243384
 40
0.4045403426007497
 40
0.4436980985527655
 40
0.5168407942439726
 40
0.587874335944285
 40
0.657965417561632
 40
0.7289693886473128
 40
0.7993077199548863
 40
0.8666357778344724
 40
0.9331163290572759
 40
0.9999999999999999
 40
0.9999999999999999
 40
0.9999999999999999
 40
0.9999999999999999
 10
-34.13992895544052
 20
37.43418803418804
 30
0.0
 10
-34.10120130219335
 20
37.43465218580125
 30
0.0
 10
-34.0265588561047
 20
37.43554677684566
 30
0.0
 10
-33.91878879681559
 20
37.43846723807637
 30
0.0
 10
-33.81890256650377
 20
37.44511027630286
 30
0.0
 10
-33.72735596424054
 20
37.45556763732472
 30
0.0
 10
-33.643160464392
 20
37.46691109489484
 30
0.0
 10
-33.5673260997761
 20
37.48216473943818
 30
0.0
 10
-33.49923814197034
 20
37.49964110121658
 30
0.0
 10
-33.42028731260937
 20
37.52665481430087
 30
0.0
 10
-33.33138306926003
 20
37.56862102198177
 30
0.0
 10
-33.23557565248885
 20
37.63189632441142
 30
0.0
 10
-33.15039346482895
 20
37.70727784905095
 30
0.0
 10
-33.0780575798838
 20
37.79452190714668
 30
0.0
 10
-33.01877520326155
 20
37.88938646447895
 30
0.0
 10
-32.97564908139855
 20
37.98995274489791
 30
0.0
 10
-32.94905061660494
 20
38.09455904948972
 30
0.0
 10
-32.94583065946385
 20
38.16588069227978
 30
0.0
 10
-32.94421581441487
 20
38.20164930555556
 30
0.0
  0
SPLINE
  5
FF
330
1F
100
AcDbEntity
  8
0
  6
Continuous
 62
     7
370
    25
100
AcDbSpline
210
0.0
220
0.0
230
1.0
 70
     8
 71
     3
 72
    19
 73
    15
 74
     0
 42
0.00000001
 43
0.00000001
 40
0.0
 40
0.0
 40
0.0
 40
0.0
 40
0.0602873979279731
 40
0.1196023547075275
 40
0.1775033710185463
 40
0.2351426637323308
 40
0.292132593226936
 40
0.3508712086415679
 40
0.4100978625665987
 40
0.4707315215304512
 40
0.5948287040804155
 40
0.7225788240942888
 40
0.8566913895440166
 40
1.0
 40
1.0
 40
1.0
 40
1.0
 10
-32.94421581441488
 20
38.20164930555556
 30
0.0
 10
-32.9445497691849
 20
38.22401744122617
 30
0.0
 10
-32.94521229200448
 20
38.26839291252814
 30
0.0
 10
-32.95520370243596
 20
38.33360537954591
 30
0.0
 10
-32.96973476399602
 20
38.39677381678663
 30
0.0
 10
-32.98852040307301
 20
38.4580697505158
 30
0.0
 10
-33.01587918707835
 20
38.51638497714604
 30
0.0
 10
-33.04781853200381
 20
38.57287283487143
 30
0.0
 10
-33.08526708446922
 20
38.62760799569829
 30
0.0
 10
-33.14361955175676
 20
38.69680757844181
 30
0.0
 10
-33.22849423779522
 20
38.77653577500117
 30
0.0
 10
-33.34909195666423
 20
38.85459542059986
 30
0.0
 10
-33.48621845039851
 20
38.91754848250569
 30
0.0
 10
-33.58567456085372
 20
38.94427832531505
 30
0.0
 10
-33.63705101740633
 20
38.95808627136753
 30
0.0
  0
SPLINE
  5
100
330
1F
100
AcDbEntity
  8
0
  6
Continuous
 62
     7
370
    25
100
AcDbSpline
210
0.0
220
0.0
230
1.0
 70
     8
 71
     3
 72
    15
 73
    11
 74
     0
 42
0.00000001
 43
0.00000001
 40
0.0
 40
0.0
 40
0.0
 40
0.0
 40
0.0793064855229989
 40
0.1719528189279365
 40
0.2770565073915949
 40
0.3947305758644771
 40
0.5261773212767598
 40
0.671344766597617
 40
0.8292852571892558
 40
1.0
 40
1.0
 40
1.0
 40
1.0
 10
-33.63705101740633
 20
38.95808627136753
 30
0.0
 10
-33.65764811429433
 20
38.96226527767551
 30
0.0
 10
-33.70230686884973
 20
38.97132622534249
 30
0.0
 10
-33.77512937089219
 20
38.9808907808706
 30
0.0
 10
-33.85826704089784
 20
38.98941194854965
 30
0.0
 10
-33.95191185430456
 20
38.99571496781908
 30
0.0
 10
-34.05618229069923
 20
39.0022301204915
 30
0.0
 10
-34.1713010399666
 20
39.00476385651555
 30
0.0
 10
-34.29679798245915
 20
39.00778677110477
 30
0.0
 10
-34.38387447098071
 20
39.00800585728292
 30
0.0
 10
-34.42910497039778
 20
39.00811965811966
 30
0.0
  0
LINE
  5
106
330
1F
100
AcDbEntity
  8
0
  6
Continuous
 62
     7
370
    25
100
AcDbLine
 10
-69.1191714359
 20
39.0623931624
 30
0.0
 11
-69.1191714359
 21
37.0
 31
0.0
  0
LINE
  5
107
330
1F
100
AcDbEntity
  8
0
  6
Continuous
 62
     7
370
    25
100
AcDbLine
 10
-66.948231265
 20
39.0623931624
 30
0.0
 11
-69.1191714359
 21
39.0623931624
 31
0.0
  0
LINE
  5
108
330
1F
100
AcDbEntity
  8
0
  6
Continuous
 62
     7
370
    25
100
AcDbLine
 10
-66.948231265
 20
37.0
 30
0.0
 11
-66.948231265
 21
39.0623931624
 31
0.0
  0
LINE
  5
109
330
1F
100
AcDbEntity
  8
0
  6
Continuous
 62
     7
370
    25
100
AcDbLine
 10
-66.5683167351
 20
37.0
 30
0.0
 11
-66.948231265
 21
37.0
 31
0.0
  0
LINE
  5
10A
330
1F
100
AcDbEntity
  8
0
  6
Continuous
 62
     7
370
    25
100
AcDbLine
 10
-66.5683167351
 20
41.2333333333
 30
0.0
 11
-66.5683167351
 21
37.0
 31
0.0
  0
LINE
  5
10B
330
1F
100
AcDbEntity
  8
0
  6
Continuous
 62
     7
370
    25
100
AcDbLine
 10
-66.948231265
 20
41.2333333333
 30
0.0
 11
-66.5683167351
 21
41.2333333333
 31
0.0
  0
LINE
  5
10C
330
1F
100
AcDbEntity
  8
0
  6
Continuous
 62
     7
370
    25
100
AcDbLine
 10
-66.948231265
 20
39.4965811966
 30
0.0
 11
-66.948231265
 21
41.2333333333
 31
0.0
  0
LINE
  5
10D
330
1F
100
AcDbEntity
  8
0
  6
Continuous
 62
     7
370
    25
100
AcDbLine
 10
-69.1191714359
 20
39.4965811966
 30
0.0
 11
-66.948231265
 21
39.4965811966
 31
0.0
  0
LINE
  5
10E
330
1F
100
AcDbEntity
  8
0
  6
Continuous
 62
     7
370
    25
100
AcDbLine
 10
-69.1191714359
 20
41.2333333333
 30
0.0
 11
-69.1191714359
 21
39.4965811966
 31
0.0
  0
LINE
  5
10F
330
1F
100
AcDbEntity
  8
0
  6
Continuous
 62
     7
370
    25
100
AcDbLine
 10
-69.4990859658
 20
41.2333333333
 30
0.0
 11
-69.1191714359
 21
41.2333333333
 31
0.0
  0
LINE
  5
110
330
1F
100
AcDbEntity
  8
0
  6
Continuous
 62
     7
370
    25
100
AcDbLine
 10
-69.4990859658
 20
37.0
 30
0.0
 11
-69.4990859658
 21
41.2333333333
 31
0.0
  0
LINE
  5
111
330
1F
100
AcDbEntity
  8
0
  6
Continuous
 62
     7
370
    25
100
AcDbLine
 10
-69.1191714359
 20
37.0
 30
0.0
 11
-69.4990859658
 21
37.0
 31
0.0
  0
LINE
  5
112
330
1F
100
AcDbEntity
  8
0
  6
Continuous
 62
     7
370
    25
100
AcDbLine
 10
-65.4828466496
 20
41.2333333333
 30
0.0
 11
-64.6280389573
 21
41.2333333333
 31
0.0
  0
LINE
  5
113
330
1F
100
AcDbEntity
  8
0
  6
Continuous
 62
     7
370
    25
100
AcDbLine
 10
-65.4828466496
 20
37.0
 30
0.0
 11
-65.4828466496
 21
41.2333333333
 31
0.0
  0
LINE
  5
114
330
1F
100
AcDbEntity
  8
0
  6
Continuous
 62
     7
370
    25
100
AcDbLine
 10
-64.1709542885
 20
37.0
 30
0.0
 11
-65.4828466496
 21
37.0
 31
0.0
  0
LINE
  5
115
330
1F
100
AcDbEntity
  8
0
  6
Continuous
 62
     7
370
    25
100
AcDbLine
 10
-31.6068827482
 20
37.0
 30
0.0
 11
-32.0215662418
 21
37.0
 31
0.0
  0
LINE
  5
116
330
1F
100
AcDbEntity
  8
0
  6
Continuous
 62
     7
370
    25
100
AcDbLine
 10
-30.9632329084
 20
38.3568376068
 30
0.0
 11
-31.6068827482
 21
37.0
 31
0.0
  0
LINE
  5
117
330
1F
100
AcDbEntity
  8
0
  6
Continuous
 62
     7
370
    25
100
AcDbLine
 10
-29.0441557183
 20
38.3568376068
 30
0.0
 11
-30.9632329084
 21
38.3568376068
 31
0.0
  0
LINE
  5
118
330
1F
100
AcDbEntity
  8
0
  6
Continuous
 62
     7
370
    25
100
AcDbLine
 10
-28.4183143721
 20
37.0
 30
0.0
 11
-29.0441557183
 21
38.3568376068
 31
0.0
  0
LINE
  5
119
330
1F
100
AcDbEntity
  8
0
  6
Continuous
 62
     7
370
    25
100
AcDbLine
 10
-28.0053269255
 20
37.0
 30
0.0
 11
-28.4183143721
 21
37.0
 31
0.0
  0
LINE
  5
11A
330
1F
100
AcDbEntity
  8
0
  6
Continuous
 62
     7
370
    25
100
AcDbLine
 10
-29.9591730794
 20
41.2333333333
 30
0.0
 11
-28.0053269255
 21
37.0
 31
0.0
  0
LINE
  5
11B
330
1F
100
AcDbEntity
  8
0
  6
Continuous
 62
     7
370
    25
100
AcDbLine
 10
-30.0134465836
 20
41.2333333333
 30
0.0
 11
-29.9591730794
 21
41.2333333333
 31
0.0
  0
LINE
  5
11C
330
1F
100
AcDbEntity
  8
0
  6
Continuous
 62
     7
370
    25
100
AcDbLine
 10
-32.0215662418
 20
37.0
 30
0.0
 11
-30.0134465836
 21
41.2333333333
 31
0.0
  0
LINE
  5
11D
330
1F
100
AcDbEntity
  8
0
  6
Continuous
 62
     7
370
    25
100
AcDbLine
 10
-70.0
 20
24.0
 30
0.0
 11
-48.0
 21
24.0
 31
0.0
  0
LINE
  5
11E
330
1F
100
AcDbEntity
  8
0
  6
Continuous
 62
     7
370
    25
100
AcDbLine
 10
-48.0
 20
24.0
 30
0.0
 11
-48.0
 21
34.0
 31
0.0
  0
LINE
  5
11F
330
1F
100
AcDbEntity
  8
0
  6
Continuous
 62
     7
370
    25
100
AcDbLine
 10
-48.0
 20
34.0
 30
0.0
 11
-70.0
 21
34.0
 31
0.0
  0
LINE
  5
120
330
1F
100
AcDbEntity
  8
0
  6
Continuous
 62
     7
370
    25
100
AcDbLine
 10
-70.0
 20
34.0
 30
0.0
 11
-70.0
 21
24.0
 31
0.0
  0
LINE
  5
121
330
1F
100
AcDbEntity
  8
0
  6
Continuous
 62
     7
370
    25
100
AcDbLine
 10
-183.5
 20
96.9636884108
 30
0.0
 11
-183.5
 21
99.9668956486
 31
0.0
  0
LINE
  5
122
330
1F
100
AcDbEntity
  8
0
  6
Continuous
 62
     7
370
    25
100
AcDbLine
 10
-151.0331043514
 20
67.5
 30
0.0
 11
-154.0363115892
 21
67.5
 31
0.0
  0
LINE
  5
123
330
1F
100
AcDbEntity
  8
0
  6
Continuous
 62
     7
370
    25
100
AcDbLine
 10
-183.5
 20
89.953079134
 30
0.0
 11
-183.5
 21
92.9583011334
 31
0.0
  0
LINE
  5
124
330
1F
100
AcDbEntity
  8
0
  6
Continuous
 62
     7
370
    25
100
AcDbLine
 10
-158.0416988666
 20
67.5
 30
0.0
 11
-161.046920866
 21
67.5
 31
0.0
  0
LINE
  5
125
330
1F
100
AcDbEntity
  8
0
  6
Continuous
 62
     7
370
    25
100
AcDbLine
 10
-186.5
 20
92.9583011334
 30
0.0
 11
-186.5
 21
89.953079134
 31
0.0
  0
LINE
  5
126
330
1F
100
AcDbEntity
  8
0
  6
Continuous
 62
     7
370
    25
100
AcDbLine
 10
-208.953079134
 20
67.5
 30
0.0
 11
-211.9583011334
 21
67.5
 31
0.0
  0
LINE
  5
127
330
1F
100
AcDbEntity
  8
0
  6
Continuous
 62
     7
370
    25
100
AcDbLine
 10
-186.5
 20
99.9668956486
 30
0.0
 11
-186.5
 21
96.9636884108
 31
0.0
  0
LINE
  5
128
330
1F
100
AcDbEntity
  8
0
  6
Continuous
 62
     7
370
    25
100
AcDbLine
 10
-215.9636884108
 20
67.5
 30
0.0
 11
-218.9668956486
 21
67.5
 31
0.0
  0
LINE
  5
129
330
1F
100
AcDbEntity
  8
0
  6
Continuous
 62
     7
370
    25
100
AcDbLine
 10
-201.9336942219
 20
67.5
 30
0.0
 11
-204.9436706752
 21
67.5
 31
0.0
  0
LINE
  5
12A
330
1F
100
AcDbEntity
  8
0
  6
Continuous
 62
     7
370
    25
100
AcDbLine
 10
-186.5
 20
85.9436706752
 30
0.0
 11
-186.5
 21
82.9336942219
 31
0.0
  0
LINE
  5
12B
330
1F
100
AcDbEntity
  8
0
  6
Continuous
 62
     7
370
    25
100
AcDbLine
 10
-183.5
 20
39.0416988666
 30
0.0
 11
-183.5
 21
42.046920866
 31
0.0
  0
LINE
  5
12C
330
1F
100
AcDbEntity
  8
0
  6
Continuous
 62
     7
370
    25
100
AcDbLine
 10
-161.046920866
 20
64.5
 30
0.0
 11
-158.0416988666
 21
64.5
 31
0.0
  0
LINE
  5
12D
330
1F
100
AcDbEntity
  8
0
  6
Continuous
 62
     7
370
    25
100
AcDbLine
 10
-183.5
 20
46.0563293248
 30
0.0
 11
-183.5
 21
49.0663057781
 31
0.0
  0
LINE
  5
12E
330
1F
100
AcDbEntity
  8
0
  6
Continuous
 62
     7
370
    25
100
AcDbLine
 10
-168.0663057781
 20
64.5
 30
0.0
 11
-165.0563293248
 21
64.5
 31
0.0
  0
LINE
  5
12F
330
1F
100
AcDbEntity
  8
0
  6
Continuous
 62
     7
370
    25
100
AcDbLine
 10
-183.5
 20
32.0331043514
 30
0.0
 11
-183.5
 21
35.0363115892
 31
0.0
  0
LINE
  5
130
330
1F
100
AcDbEntity
  8
0
  6
Continuous
 62
     7
370
    25
100
AcDbLine
 10
-154.0363115892
 20
64.5
 30
0.0
 11
-151.0331043514
 21
64.5
 31
0.0
  0
LINE
  5
131
330
1F
100
AcDbEntity
  8
0
  6
Continuous
 62
     7
370
    25
100
AcDbLine
 10
-165.0563293248
 20
67.5
 30
0.0
 11
-168.0663057781
 21
67.5
 31
0.0
  0
LINE
  5
132
330
1F
100
AcDbEntity
  8
0
  6
Continuous
 62
     7
370
    25
100
AcDbLine
 10
-183.5
 20
82.9336942219
 30
0.0
 11
-183.5
 21
85.9436706752
 31
0.0
  0
LINE
  5
133
330
1F
100
AcDbEntity
  8
0
  6
Continuous
 62
     7
370
    25
100
AcDbLine
 10
-204.9436706752
 20
64.5
 30
0.0
 11
-201.9336942219
 21
64.5
 31
0.0
  0
LINE
  5
134
330
1F
100
AcDbEntity
  8
0
  6
Continuous
 62
     7
370
    25
100
AcDbLine
 10
-186.5
 20
49.0663057781
 30
0.0
 11
-186.5
 21
46.0563293248
 31
0.0
  0
LINE
  5
135
330
1F
100
AcDbEntity
  8
0
  6
Continuous
 62
     7
370
    25
100
AcDbLine
 10
-186.5
 20
35.0363115892
 30
0.0
 11
-186.5
 21
32.0331043514
 31
0.0
  0
LINE
  5
136
330
1F
100
AcDbEntity
  8
0
  6
Continuous
 62
     7
370
    25
100
AcDbLine
 10
-218.9668956486
 20
64.5
 30
0.0
 11
-215.9636884108
 21
64.5
 31
0.0
  0
LINE
  5
137
330
1F
100
AcDbEntity
  8
0
  6
Continuous
 62
     7
370
    25
100
AcDbLine
 10
-186.5
 20
42.046920866
 30
0.0
 11
-186.5
 21
39.0416988666
 31
0.0
  0
LINE
  5
138
330
1F
100
AcDbEntity
  8
0
  6
Continuous
 62
     7
370
    25
100
AcDbLine
 10
-211.9583011334
 20
64.5
 30
0.0
 11
-208.953079134
 21
64.5
 31
0.0
  0
LINE
  5
139
330
1F
100
AcDbEntity
  8
0
  6
Continuous
 62
     7
370
    25
100
AcDbLine
 10
0.0
 20
0.0
 30
0.0
 11
-300.0
 21
0.0
 31
0.0
  0
LINE
  5
13A
330
1F
100
AcDbEntity
  8
0
  6
Continuous
 62
     7
370
    25
100
AcDbLine
 10
-300.0
 20
0.0
 30
0.0
 11
-300.0
 21
132.0
 31
0.0
  0
LINE
  5
13B
330
1F
100
AcDbEntity
  8
0
  6
Continuous
 62
     7
370
    25
100
AcDbLine
 10
-300.0
 20
132.0
 30
0.0
 11
0.0
 21
132.0
 31
0.0
  0
LINE
  5
13C
330
1F
100
AcDbEntity
  8
0
  6
Continuous
 62
     7
370
    25
100
AcDbLine
 10
0.0
 20
132.0
 30
0.0
 11
0.0
 21
0.0
 31
0.0
  0
LINE
  5
13D
330
1F
100
AcDbEntity
  8
0
  6
Continuous
 62
     7
370
    25
100
AcDbLine
 10
-25.2373782076
 20
40.6253004808
 30
0.0
 11
-25.5808277268
 21
40.364957265
 31
0.0
  0
LINE
  5
13E
330
1F
100
AcDbEntity
  8
0
  6
Continuous
 62
     7
370
    25
100
AcDbLine
 10
-27.6796858999
 20
37.8166466346
 30
0.0
 11
-27.3218199811
 21
38.0311965812
 31
0.0
  0
LINE
  5
13F
330
1F
100
AcDbEntity
  8
0
  6
Continuous
 62
     7
370
    25
100
AcDbLine
 10
-35.0608824811
 20
41.2333333333
 30
0.0
 11
-34.2349075879
 21
41.2333333333
 31
0.0
  0
LINE
  5
140
330
1F
100
AcDbEntity
  8
0
  6
Continuous
 62
     7
370
    25
100
AcDbLine
 10
-35.0608824811
 20
37.0
 30
0.0
 11
-35.0608824811
 21
41.2333333333
 31
0.0
  0
LINE
  5
141
330
1F
100
AcDbEntity
  8
0
  6
Continuous
 62
     7
370
    25
100
AcDbLine
 10
-33.9160507503
 20
37.0
 30
0.0
 11
-35.0608824811
 21
37.0
 31
0.0
  0
LINE
  5
142
330
1F
100
AcDbEntity
  8
0
  6
Continuous
 62
     7
370
    25
100
AcDbLine
 10
-37.5031901734
 20
39.0623931624
 30
0.0
 11
-37.5031901734
 21
37.0
 31
0.0
  0
LINE
  5
143
330
1F
100
AcDbEntity
  8
0
  6
Continuous
 62
     7
370
    25
100
AcDbLine
 10
-35.8207115409
 20
39.0623931624
 30
0.0
 11
-37.5031901734
 21
39.0623931624
 31
0.0
  0
LINE
  5
144
330
1F
100
AcDbEntity
  8
0
  6
Continuous
 62
     7
370
    25
100
AcDbLine
 10
-35.8207115409
 20
39.4965811966
 30
0.0
 11
-35.8207115409
 21
39.0623931624
 31
0.0
  0
LINE
  5
145
330
1F
100
AcDbEntity
  8
0
  6
Continuous
 62
     7
370
    25
100
AcDbLine
 10
-37.5031901734
 20
39.4965811966
 30
0.0
 11
-35.8207115409
 21
39.4965811966
 31
0.0
  0
LINE
  5
146
330
1F
100
AcDbEntity
  8
0
  6
Continuous
 62
     7
370
    25
100
AcDbLine
 10
-37.5031901734
 20
40.7991452991
 30
0.0
 11
-37.5031901734
 21
39.4965811966
 31
0.0
  0
LINE
  5
147
330
1F
100
AcDbEntity
  8
0
  6
Continuous
 62
     7
370
    25
100
AcDbLine
 10
-35.8207115409
 20
40.7991452991
 30
0.0
 11
-37.5031901734
 21
40.7991452991
 31
0.0
  0
LINE
  5
148
330
1F
100
AcDbEntity
  8
0
  6
Continuous
 62
     7
370
    25
100
AcDbLine
 10
-35.8207115409
 20
41.2333333333
 30
0.0
 11
-35.8207115409
 21
40.7991452991
 31
0.0
  0
LINE
  5
149
330
1F
100
AcDbEntity
  8
0
  6
Continuous
 62
     7
370
    25
100
AcDbLine
 10
-37.8831047033
 20
41.2333333333
 30
0.0
 11
-35.8207115409
 21
41.2333333333
 31
0.0
  0
LINE
  5
14A
330
1F
100
AcDbEntity
  8
0
  6
Continuous
 62
     7
370
    25
100
AcDbLine
 10
-37.8831047033
 20
37.0
 30
0.0
 11
-37.8831047033
 21
41.2333333333
 31
0.0
  0
LINE
  5
14B
330
1F
100
AcDbEntity
  8
0
  6
Continuous
 62
     7
370
    25
100
AcDbLine
 10
-37.5031901734
 20
37.0
 30
0.0
 11
-37.8831047033
 21
37.0
 31
0.0
  0
LINE
  5
14C
330
1F
100
AcDbEntity
  8
0
  6
Continuous
 62
     7
370
    25
100
AcDbLine
 10
-55.3879748547
 20
41.2333333333
 30
0.0
 11
-55.3879748547
 21
37.0
 31
0.0
  0
LINE
  5
14D
330
1F
100
AcDbEntity
  8
0
  6
Continuous
 62
     7
370
    25
100
AcDbLine
 10
-55.7678893846
 20
41.2333333333
 30
0.0
 11
-55.3879748547
 21
41.2333333333
 31
0.0
  0
LINE
  5
14E
330
1F
100
AcDbEntity
  8
0
  6
Continuous
 62
     7
370
    25
100
AcDbLine
 10
-55.7678893846
 20
37.0
 30
0.0
 11
-55.7678893846
 21
41.2333333333
 31
0.0
  0
LINE
  5
14F
330
1F
100
AcDbEntity
  8
0
  6
Continuous
 62
     7
370
    25
100
AcDbLine
 10
-55.3879748547
 20
37.0
 30
0.0
 11
-55.7678893846
 21
37.0
 31
0.0
  0
LINE
  5
150
330
1F
100
AcDbEntity
  8
0
  6
Continuous
 62
     7
370
    25
100
AcDbLine
 10
-59.0370199936
 20
37.0
 30
0.0
 11
-60.5710945129
 21
40.0528846154
 31
0.0
  0
LINE
  5
151
330
1F
100
AcDbEntity
  8
0
  6
Continuous
 62
     7
370
    25
100
AcDbLine
 10
-58.9513696197
 20
37.0
 30
0.0
 11
-59.0370199936
 21
37.0
 31
0.0
  0
LINE
  5
152
330
1F
100
AcDbEntity
  8
0
  6
Continuous
 62
     7
370
    25
100
AcDbLine
 10
-57.423231265
 20
40.0461004274
 30
0.0
 11
-58.9513696197
 21
37.0
 31
0.0
  0
LINE
  5
153
330
1F
100
AcDbEntity
  8
0
  6
Continuous
 62
     7
370
    25
100
AcDbLine
 10
-57.0178760299
 20
37.0
 30
0.0
 11
-57.423231265
 21
40.0461004274
 31
0.0
  0
LINE
  5
154
330
1F
100
AcDbEntity
  8
0
  6
Continuous
 62
     7
370
    25
100
AcDbLine
 10
-56.636265453
 20
37.0
 30
0.0
 11
-57.0178760299
 21
37.0
 31
0.0
  0
LINE
  5
155
330
1F
100
AcDbEntity
  8
0
  6
Continuous
 62
     7
370
    25
100
AcDbLine
 10
-57.1985050364
 20
41.2333333333
 30
0.0
 11
-56.636265453
 21
37.0
 31
0.0
  0
LINE
  5
156
330
1F
100
AcDbEntity
  8
0
  6
Continuous
 62
     7
370
    25
100
AcDbLine
 10
-57.2536265641
 20
41.2333333333
 30
0.0
 11
-57.1985050364
 21
41.2333333333
 31
0.0
  0
LINE
  5
157
330
1F
100
AcDbEntity
  8
0
  6
Continuous
 62
     7
370
    25
100
AcDbLine
 10
-58.9971628889
 20
37.7598290598
 30
0.0
 11
-57.2536265641
 21
41.2333333333
 31
0.0
  0
LINE
  5
158
330
1F
100
AcDbEntity
  8
0
  6
Continuous
 62
     7
370
    25
100
AcDbLine
 10
-60.7449393312
 20
41.2333333333
 30
0.0
 11
-58.9971628889
 21
37.7598290598
 31
0.0
  0
LINE
  5
159
330
1F
100
AcDbEntity
  8
0
  6
Continuous
 62
     7
370
    25
100
AcDbLine
 10
-60.7992128355
 20
41.2333333333
 30
0.0
 11
-60.7449393312
 21
41.2333333333
 31
0.0
  0
LINE
  5
15A
330
1F
100
AcDbEntity
  8
0
  6
Continuous
 62
     7
370
    25
100
AcDbLine
 10
-61.3580603248
 20
37.0
 30
0.0
 11
-60.7992128355
 21
41.2333333333
 31
0.0
  0
LINE
  5
15B
330
1F
100
AcDbEntity
  8
0
  6
Continuous
 62
     7
370
    25
100
AcDbLine
 10
-60.9756017244
 20
37.0
 30
0.0
 11
-61.3580603248
 21
37.0
 31
0.0
  0
LINE
  5
15C
330
1F
100
AcDbEntity
  8
0
  6
Continuous
 62
     7
370
    25
100
AcDbLine
 10
-60.5710945129
 20
40.0528846154
 30
0.0
 11
-60.9756017244
 21
37.0
 31
0.0
  0
LINE
  5
15D
330
1F
100
AcDbEntity
  8
0
  6
Continuous
 62
     7
370
    25
100
AcDbLine
 10
-34.6809679512
 20
40.7991452991
 30
0.0
 11
-34.6809679512
 21
39.4423076923
 31
0.0
  0
LINE
  5
15E
330
1F
100
AcDbEntity
  8
0
  6
Continuous
 62
     7
370
    25
100
AcDbLine
 10
-34.6809679512
 20
39.4423076923
 30
0.0
 11
-34.4257128764
 21
39.4423076923
 31
0.0
  0
LINE
  5
15F
330
1F
100
AcDbEntity
  8
0
  6
Continuous
 62
     7
370
    25
100
AcDbLine
 10
-34.1653696606
 20
40.7991452991
 30
0.0
 11
-34.6809679512
 21
40.7991452991
 31
0.0
  0
LINE
  5
160
330
1F
100
AcDbEntity
  8
0
  6
Continuous
 62
     7
370
    25
100
AcDbLine
 10
-65.1029321197
 20
37.4341880342
 30
0.0
 11
-64.6170146517
 21
37.4341880342
 31
0.0
  0
LINE
  5
161
330
1F
100
AcDbEntity
  8
0
  6
Continuous
 62
     7
370
    25
100
AcDbLine
 10
-65.1029321197
 20
40.7991452991
 30
0.0
 11
-65.1029321197
 21
37.4341880342
 31
0.0
  0
LINE
  5
162
330
1F
100
AcDbEntity
  8
0
  6
Continuous
 62
     7
370
    25
100
AcDbLine
 10
-64.8052758697
 20
40.7991452991
 30
0.0
 11
-65.1029321197
 21
40.7991452991
 31
0.0
  0
LINE
  5
163
330
1F
100
AcDbEntity
  8
0
  6
Continuous
 62
     7
370
    25
100
AcDbLine
 10
-34.6809679512
 20
37.4341880342
 30
0.0
 11
-34.1399289554
 21
37.4341880342
 31
0.0
  0
LINE
  5
164
330
1F
100
AcDbEntity
  8
0
  6
Continuous
 62
     7
370
    25
100
AcDbLine
 10
-34.4291049704
 20
39.0081196581
 30
0.0
 11
-34.6809679512
 21
39.0081196581
 31
0.0
  0
LINE
  5
165
330
1F
100
AcDbEntity
  8
0
  6
Continuous
 62
     7
370
    25
100
AcDbLine
 10
-34.6809679512
 20
39.0081196581
 30
0.0
 11
-34.6809679512
 21
37.4341880342
 31
0.0
  0
LINE
  5
166
330
1F
100
AcDbEntity
  8
0
  6
Continuous
 62
     7
370
    25
100
AcDbLine
 10
-29.990549949
 20
40.4082064637
 30
0.0
 11
-30.7571631969
 21
38.791025641
 31
0.0
  0
LINE
  5
167
330
1F
100
AcDbEntity
  8
0
  6
Continuous
 62
     7
370
    25
100
AcDbLine
 10
-30.7571631969
 20
38.791025641
 30
0.0
 11
-29.2442892653
 21
38.791025641
 31
0.0
  0
LINE
  5
168
330
1F
100
AcDbEntity
  8
0
  6
Continuous
 62
     7
370
    25
100
AcDbLine
 10
-29.2442892653
 20
38.791025641
 30
0.0
 11
-29.990549949
 21
40.4082064637
 31
0.0
  0
ARC
  5
169
330
1F
100
AcDbEntity
  8
0
  6
Continuous
 62
     7
370
    25
100
AcDbCircle
 10
-185.0
 20
66.0
 30
0.0
 40
31.00000000000004
100
AcDbArc
 50
2.7734594021
 51
87.2265405979
  0
ARC
  5
16A
330
1F
100
AcDbEntity
  8
0
  6
Continuous
 62
     7
370
    25
100
AcDbCircle
 10
-185.0
 20
66.0
 30
0.0
 40
34.00000000000007
100
AcDbArc
 50
2.5285756873
 51
87.4714243127
  0
ARC
  5
16B
330
1F
100
AcDbEntity
  8
0
  6
Continuous
 62
     7
370
    25
100
AcDbCircle
 10
-185.0
 20
66.0
 30
0.0
 40
24.00000000000003
100
AcDbArc
 50
3.5833216985
 51
86.4166783015
  0
ARC
  5
16C
330
1F
100
AcDbEntity
  8
0
  6
Continuous
 62
     7
370
    25
100
AcDbCircle
 10
-185.0
 20
66.0
 30
0.0
 40
27.00000000000002
100
AcDbArc
 50
3.1847385367
 51
86.8152614633
  0
ARC
  5
16D
330
1F
100
AcDbEntity
  8
0
  6
Continuous
 62
     7
370
    25
100
AcDbCircle
 10
-185.0
 20
66.0
 30
0.0
 40
27.00000000000008
100
AcDbArc
 50
93.1847385367
 51
176.8152614633
  0
ARC
  5
16E
330
1F
100
AcDbEntity
  8
0
  6
Continuous
 62
     7
370
    25
100
AcDbCircle
 10
-185.0
 20
66.0
 30
0.0
 40
24.00000000000012
100
AcDbArc
 50
93.5833216985
 51
176.4166783015
  0
ARC
  5
16F
330
1F
100
AcDbEntity
  8
0
  6
Continuous
 62
     7
370
    25
100
AcDbCircle
 10
-185.0
 20
66.0
 30
0.0
 40
33.99999999999999
100
AcDbArc
 50
92.5285756873
 51
177.4714243127
  0
ARC
  5
170
330
1F
100
AcDbEntity
  8
0
  6
Continuous
 62
     7
370
    25
100
AcDbCircle
 10
-185.0
 20
66.0
 30
0.0
 40
31.00000000000007
100
AcDbArc
 50
92.7734594021
 51
177.2265405979
  0
ARC
  5
171
330
1F
100
AcDbEntity
  8
0
  6
Continuous
 62
     7
370
    25
100
AcDbCircle
 10
-185.0
 20
66.0
 30
0.0
 40
17.00000000000002
100
AcDbArc
 50
95.0620929643
 51
174.9379070357
  0
ARC
  5
172
330
1F
100
AcDbEntity
  8
0
  6
Continuous
 62
     7
370
    25
100
AcDbCircle
 10
-185.0
 20
66.0
 30
0.0
 40
20.00000000000004
100
AcDbArc
 50
94.3012223047
 51
175.6987776953
  0
ARC
  5
173
330
1F
100
AcDbEntity
  8
0
  6
Continuous
 62
     7
370
    25
100
AcDbCircle
 10
-185.0
 20
66.0
 30
0.0
 40
27.00000000000004
100
AcDbArc
 50
273.1847385367
 51
356.8152614633
  0
ARC
  5
174
330
1F
100
AcDbEntity
  8
0
  6
Continuous
 62
     7
370
    25
100
AcDbCircle
 10
-185.0
 20
66.0
 30
0.0
 40
24.00000000000001
100
AcDbArc
 50
273.5833216985
 51
356.4166783015
  0
ARC
  5
175
330
1F
100
AcDbEntity
  8
0
  6
Continuous
 62
     7
370
    25
100
AcDbCircle
 10
-185.0
 20
66.0
 30
0.0
 40
20.00000000000001
100
AcDbArc
 50
274.3012223047
 51
355.6987776953
  0
ARC
  5
176
330
1F
100
AcDbEntity
  8
0
  6
Continuous
 62
     7
370
    25
100
AcDbCircle
 10
-185.0
 20
66.0
 30
0.0
 40
17.0
100
AcDbArc
 50
275.0620929643
 51
354.9379070357
  0
ARC
  5
177
330
1F
100
AcDbEntity
  8
0
  6
Continuous
 62
     7
370
    25
100
AcDbCircle
 10
-185.0
 20
66.0
 30
0.0
 40
33.99999999999999
100
AcDbArc
 50
272.5285756873
 51
357.4714243127
  0
ARC
  5
178
330
1F
100
AcDbEntity
  8
0
  6
Continuous
 62
     7
370
    25
100
AcDbCircle
 10
-185.0
 20
66.0
 30
0.0
 40
30.99999999999999
100
AcDbArc
 50
272.7734594021
 51
357.2265405979
  0
ARC
  5
179
330
1F
100
AcDbEntity
  8
0
  6
Continuous
 62
     7
370
    25
100
AcDbCircle
 10
-185.0
 20
66.0
 30
0.0
 40
20.00000000000006
100
AcDbArc
 50
4.3012223047
 51
85.6987776953
  0
ARC
  5
17A
330
1F
100
AcDbEntity
  8
0
  6
Continuous
 62
     7
370
    25
100
AcDbCircle
 10
-185.0
 20
66.0
 30
0.0
 40
17.00000000000002
100
AcDbArc
 50
5.0620929643
 51
84.9379070357
  0
ARC
  5
17B
330
1F
100
AcDbEntity
  8
0
  6
Continuous
 62
     7
370
    25
100
AcDbCircle
 10
-185.0
 20
66.0
 30
0.0
 40
20.00000000000009
100
AcDbArc
 50
184.3012223047
 51
265.6987776953
  0
ARC
  5
17C
330
1F
100
AcDbEntity
  8
0
  6
Continuous
 62
     7
370
    25
100
AcDbCircle
 10
-185.0
 20
66.0
 30
0.0
 40
16.99999999999999
100
AcDbArc
 50
185.0620929643
 51
264.9379070357
  0
ARC
  5
17D
330
1F
100
AcDbEntity
  8
0
  6
Continuous
 62
     7
370
    25
100
AcDbCircle
 10
-185.0
 20
66.0
 30
0.0
 40
30.99999999999999
100
AcDbArc
 50
182.7734594021
 51
267.2265405979
  0
ARC
  5
17E
330
1F
100
AcDbEntity
  8
0
  6
Continuous
 62
     7
370
    25
100
AcDbCircle
 10
-185.0
 20
66.0
 30
0.0
 40
34.00000000000013
100
AcDbArc
 50
182.5285756873
 51
267.4714243127
  0
ARC
  5
17F
330
1F
100
AcDbEntity
  8
0
  6
Continuous
 62
     7
370
    25
100
AcDbCircle
 10
-185.0
 20
66.0
 30
0.0
 40
24.00000000000005
100
AcDbArc
 50
183.5833216985
 51
266.4166783015
  0
ARC
  5
180
330
1F
100
AcDbEntity
  8
0
  6
Continuous
 62
     7
370
    25
100
AcDbCircle
 10
-185.0
 20
66.0
 30
0.0
 40
27.00000000000013
100
AcDbArc
 50
183.1847385367
 51
266.8152614633
  0
MTEXT
  5
182
330
1F
100
AcDbEntity
  8
0
  6
Continuous
 62
     7
100
AcDbMText
 10
-300.0
 20
-1.0195663917
 30
0.0
 40
4.83362
 41
0.0
 71
     1
 72
     1
  1
SOLIDWORKS Lehrprodukt - Nur fr Lehrzwecke.
  7
SLDTEXTSTYLE0
 73
     1
 44
1.0
  0
ENDSEC
  0
SECTION
  2
OBJECTS
  0
DICTIONARY
  5
C
330
0
100
AcDbDictionary
281
     1
  3
ACAD_GROUP
350
D
  3
ACAD_LAYOUT
350
1A
  3
ACAD_MLINESTYLE
350
17
  3
ACAD_PLOTSETTINGS
350
19
  3
ACAD_PLOTSTYLENAME
350
E
  3
ACAD_SCALELIST
350
47
  3
DWGPROPS
350
183
  0
DICTIONARY
  5
D
102
{ACAD_REACTORS
330
C
102
}
330
C
100
AcDbDictionary
281
     1
  0
DICTIONARY
  5
1A
102
{ACAD_REACTORS
330
C
102
}
330
C
100
AcDbDictionary
281
     1
  3
Layout1
350
1E
  3
Layout2
350
26
  3
Model
350
22
  0
DICTIONARY
  5
17
102
{ACAD_REACTORS
330
C
102
}
330
C
100
AcDbDictionary
281
     1
  3
Standard
350
18
  0
DICTIONARY
  5
19
102
{ACAD_REACTORS
330
C
102
}
330
C
100
AcDbDictionary
281
     1
  0
ACDBDICTIONARYWDFLT
  5
E
102
{ACAD_REACTORS
330
C
102
}
330
C
100
AcDbDictionary
281
     1
  3
Normal
350
F
100
AcDbDictionaryWithDefault
340
F
  0
DICTIONARY
  5
47
102
{ACAD_REACTORS
330
C
102
}
330
C
100
AcDbDictionary
281
     1
  3
A0
350
48
  3
A1
350
49
  3
A2
350
4A
  3
A3
350
4B
  3
A4
350
4C
  3
A5
350
4D
  3
A6
350
4E
  3
A7
350
4F
  3
A8
350
50
  3
A9
350
51
  3
B0
350
52
  3
B1
350
53
  3
B2
350
54
  3
B3
350
55
  3
B4
350
56
  3
B5
350
57
  3
B6
350
58
  0
XRECORD
  5
183
102
{ACAD_REACTORS
330
C
102
}
330
C
100
AcDbXrecord
280
     1
  1
DWGPROPS COOKIE
  2

  3

  4

  6

  7

  8
simon
  9

300
=
301
=
302
=
303
=
304
=
305
=
306
=
307
=
308
=
309
=
 40
0.0
 41
2460062.486867361
 42
2460062.486929467
  1

 90
        0
  0
LAYOUT
  5
1E
102
{ACAD_REACTORS
330
1A
102
}
330
1A
100
AcDbPlotSettings
  1

  2
none_device
  4

  6

 40
0.0
 41
0.0
 42
0.0
 43
0.0
 44
0.0
 45
0.0
 46
0.0
 47
0.0
 48
0.0
 49
0.0
140
0.0
141
0.0
142
1.0
143
1.0
 70
   688
 72
     1
 73
     0
 74
     5
  7

 75
    16
147
1.0
148
0.0
149
0.0
100
AcDbLayout
  1
Layout1
 70
     1
 71
     1
 10
0.0
 20
0.0
 11
420.0
 21
297.0
 12
0.0
 22
0.0
 32
0.0
 14
1.0000000000E+20
 24
1.0000000000E+20
 34
1.0000000000E+20
 15
-1.0000000000E+20
 25
-1.0000000000E+20
 35
-1.0000000000E+20
146
0.0
 13
0.0
 23
0.0
 33
0.0
 16
1.0
 26
0.0
 36
0.0
 17
0.0
 27
1.0
 37
0.0
 76
     0
330
1B
  0
LAYOUT
  5
26
102
{ACAD_REACTORS
330
1A
102
}
330
1A
100
AcDbPlotSettings
  1

  2
none_device
  4

  6

 40
0.0
 41
0.0
 42
0.0
 43
0.0
 44
0.0
 45
0.0
 46
0.0
 47
0.0
 48
0.0
 49
0.0
140
0.0
141
0.0
142
1.0
143
1.0
 70
   688
 72
     1
 73
     0
 74
     5
  7

 75
    16
147
1.0
148
0.0
149
0.0
100
AcDbLayout
  1
Layout2
 70
     1
 71
     2
 10
0.0
 20
0.0
 11
0.0
 21
0.0
 12
0.0
 22
0.0
 32
0.0
 14
0.0
 24
0.0
 34
0.0
 15
0.0
 25
0.0
 35
0.0
146
0.0
 13
0.0
 23
0.0
 33
0.0
 16
1.0
 26
0.0
 36
0.0
 17
0.0
 27
1.0
 37
0.0
 76
     0
330
23
  0
LAYOUT
  5
22
102
{ACAD_REACTORS
330
1A
102
}
330
1A
100
AcDbPlotSettings
  1

  2
none_device
  4
ANSI_A_(11.00_x_8.50_Inches)
  6

 40
6.35
 41
19.05
 42
6.35000508
 43
19.05000254
 44
279.4
 45
215.9
 46
271.65299746
 47
28.04667873
 48
0.0
 49
0.0
140
0.0
141
0.0
142
0.0363
143
1.0
 70
  1696
 72
     0
 73
     0
 74
     0
  7

 75
     0
147
0.0179189148
148
-1300.4909072572
149
0.0
100
AcDbLayout
  1
Model
 70
     1
 71
     0
 10
0.0
 20
0.0
 11
420.0
 21
297.0
 12
0.0
 22
0.0
 32
0.0
 14
-300.0
 24
0.0
 34
0.0
 15
0.0
 25
132.0
 35
0.0
146
0.0
 13
0.0
 23
0.0
 33
0.0
 16
1.0
 26
0.0
 36
0.0
 17
0.0
 27
1.0
 37
0.0
 76
     0
330
1F
331
29
  0
MLINESTYLE
  5
18
102
{ACAD_REACTORS
330
17
102
}
330
17
100
AcDbMlineStyle
  2
Standard
 70
     0
  3

 62
   256
 51
90.0
 52
90.0
 71
     2
 49
0.5
 62
   256
  6
BYLAYER
 49
-0.5
 62
   256
  6
BYLAYER
  0
ACDBPLACEHOLDER
  5
F
102
{ACAD_REACTORS
330
E
102
}
330
E
  0
SCALE
  5
48
102
{ACAD_REACTORS
330
47
102
}
330
47
100
AcDbScale
 70
     0
300
1:1
140
1.0
141
1.0
290
     1
  0
SCALE
  5
49
102
{ACAD_REACTORS
330
47
102
}
330
47
100
AcDbScale
 70
     0
300
1:2
140
1.0
141
2.0
290
     0
  0
SCALE
  5
4A
102
{ACAD_REACTORS
330
47
102
}
330
47
100
AcDbScale
 70
     0
300
1:4
140
1.0
141
4.0
290
     0
  0
SCALE
  5
4B
102
{ACAD_REACTORS
330
47
102
}
330
47
100
AcDbScale
 70
     0
300
1:5
140
1.0
141
5.0
290
     0
  0
SCALE
  5
4C
102
{ACAD_REACTORS
330
47
102
}
330
47
100
AcDbScale
 70
     0
300
1:8
140
1.0
141
8.0
290
     0
  0
SCALE
  5
4D
102
{ACAD_REACTORS
330
47
102
}
330
47
100
AcDbScale
 70
     0
300
1:10
140
1.0
141
10.0
290
     0
  0
SCALE
  5
4E
102
{ACAD_REACTORS
330
47
102
}
330
47
100
AcDbScale
 70
     0
300
1:16
140
1.0
141
16.0
290
     0
  0
SCALE
  5
4F
102
{ACAD_REACTORS
330
47
102
}
330
47
100
AcDbScale
 70
     0
300
1:20
140
1.0
141
20.0
290
     0
  0
SCALE
  5
50
102
{ACAD_REACTORS
330
47
102
}
330
47
100
AcDbScale
 70
     0
300
1:30
140
1.0
141
30.0
290
     0
  0
SCALE
  5
51
102
{ACAD_REACTORS
330
47
102
}
330
47
100
AcDbScale
 70
     0
300
1:40
140
1.0
141
40.0
290
     0
  0
SCALE
  5
52
102
{ACAD_REACTORS
330
47
102
}
330
47
100
AcDbScale
 70
     0
300
1:50
140
1.0
141
50.0
290
     0
  0
SCALE
  5
53
102
{ACAD_REACTORS
330
47
102
}
330
47
100
AcDbScale
 70
     0
300
1:100
140
1.0
141
100.0
290
     0
  0
SCALE
  5
54
102
{ACAD_REACTORS
330
47
102
}
330
47
100
AcDbScale
 70
     0
300
2:1
140
2.0
141
1.0
290
     0
  0
SCALE
  5
55
102
{ACAD_REACTORS
330
47
102
}
330
47
100
AcDbScale
 70
     0
300
4:1
140
4.0
141
1.0
290
     0
  0
SCALE
  5
56
102
{ACAD_REACTORS
330
47
102
}
330
47
100
AcDbScale
 70
     0
300
8:1
140
8.0
141
1.0
290
     0
  0
SCALE
  5
57
102
{ACAD_REACTORS
330
47
102
}
330
47
100
AcDbScale
 70
     0
300
10:1
140
10.0
141
1.0
290
     0
  0
SCALE
  5
58
102
{ACAD_REACTORS
330
47
102
}
330
47
100
AcDbScale
 70
     0
300
100:1
140
100.0
141
1.0
290
     0
  0
ENDSEC
  0
EOF
